<svg xmlns="http://www.w3.org/2000/svg" xml:space="preserve" viewBox="0 0 400 400">
  <path fill="#FEFEFE" d="M221 401H1V1h400v400H221m-12.500015-75.94043c17.658005.160034 35.179916.083649 52.359878-5.480804 45.702484-14.802765 77.941559-58.004791 78.355805-106.103226.200927-23.3293.068786-46.661514.060669-69.992416-.000458-1.260697-.248658-2.521301-.414124-4.091507-1.952942 0-3.598633.000015-5.244354 0-51.828247-.000488-103.656494-.016281-155.484741.004303-30.540375.012131-52.991875 22.489349-53.014641 53.028381-.016152 21.664505-.008827 43.329056-.011925 64.993576-.000229 1.616944-.000038 3.233887-.000038 5.363617 2.132515 0 3.754448.000031 5.376396 0 30.830307-.000275 61.660614-.000366 92.490921-.001404.999817-.00003 2.085556.237732 2.979218-.072845 1.326187-.460907 3.116516-1.041077 3.587524-2.079376.429917-.947754-.441803-2.676911-1.095779-3.865967-.538834-.979675-1.604004-1.667542-2.426987-2.493637-17.978775-18.046753-35.952026-36.099045-53.937622-54.138993-3.669128-3.680206-6.891327-7.552185-4.34256-13.182251 2.374359-5.244766 7.057114-5.904953 12.149429-5.898788 38.662812.046814 77.325715.023376 115.988587.033981 1.426086.000397 2.852081.126221 4.159027.187973 0 12.295655.855377 24.204956-.280914 35.921112-.850739 8.772278-2.935334 17.946824-6.780671 25.812989-13.845672 28.32341-37.222854 42.801376-68.735305 42.988327-51.993088.308441-103.989312.085449-155.984207.086456-1.759041.000031-3.51809-.00003-5.324646-.00003v38.980529h145.57106m-48.830811-207.03923c6.599823-.693962 13.197739-1.968147 19.799774-1.989769 51.147095-.167564 102.294999-.093208 153.442643-.093742 1.937835-.000023 3.875671-.000016 6.001068-.000016V77.234505c-1.938202-.097946-3.565186-.251747-5.1922-.252022-52.480469-.008789-104.960999-.040054-157.441422.01564-29.443923.031243-55.104553 10.144882-76.740119 29.979096-21.365021 19.586212-34.430672 43.99002-36.162068 72.910904-1.5606 26.067932-.457413 52.292617-.672134 78.447021-.029423 3.584259 1.306003 4.541534 4.685405 4.481384 9.659989-.171936 19.332932-.287628 28.984711.043152 4.608238.157929 5.518715-1.583404 5.481575-5.802337-.189186-21.490342-.206543-42.984406-.004303-64.474518.057656-6.126572.222901-12.461151 1.757157-18.329514 7.625167-29.165466 25.999473-48.05648 56.059913-56.232971z"/>
  <path fill="#030303" d="M207.999969 325.05957H62.928925v-38.980529c1.806556 0 3.565605.000061 5.324646.00003 51.994895-.001007 103.991119.221985 155.984207-.086456 31.512451-.186951 54.889633-14.664917 68.735305-42.988327 3.845337-7.866165 5.929932-17.040711 6.780671-25.812989 1.136291-11.716156.280914-23.625457.280914-35.921112-1.306946-.061752-2.732941-.187576-4.159027-.187973-38.662872-.010605-77.325775.012833-115.988587-.033981-5.092315-.006165-9.77507.654022-12.149429 5.898788-2.548767 5.630066.673432 9.502045 4.34256 13.182251 17.985596 18.039948 35.958847 36.09224 53.937622 54.138993.822983.826095 1.888153 1.513962 2.426987 2.493637.653976 1.189056 1.525696 2.918213 1.095779 3.865967-.471008 1.038299-2.261337 1.618469-3.587524 2.079376-.893662.310577-1.979401.072815-2.979218.072845-30.830307.001038-61.660614.001129-92.490921.001404-1.621948.000031-3.243881 0-5.376396 0 0-2.12973-.000191-3.746673.000038-5.363617.003098-21.66452-.004227-43.329071.011925-64.993576.022766-30.539032 22.474266-53.01625 53.014641-53.028381 51.828247-.020584 103.656494-.004791 155.484741-.004303 1.645721.000015 3.291412 0 5.244354 0 .165466 1.570206.413666 2.83081.414124 4.091507.008117 23.330902.140258 46.663116-.060669 69.992416-.414246 48.098435-32.653321 91.300461-78.355805 106.103226-17.179962 5.564453-34.701873 5.640838-52.859894 5.480804z"/>
  <path fill="#06CB9B" d="M159.257874 118.089508c-29.64914 8.107323-48.023446 26.998337-55.648613 56.163803-1.534256 5.868363-1.699501 12.202942-1.757157 18.329514-.20224 21.490112-.184883 42.984176.004303 64.474518.03714 4.218933-.873337 5.960266-5.481575 5.802337-9.651779-.33078-19.324722-.215088-28.984711-.043152-3.379402.06015-4.714828-.897125-4.685405-4.481384.214721-26.154404-.888466-52.379089.672134-78.447021 1.731396-28.920884 14.797047-53.324692 36.162068-72.910904 21.635566-19.834214 47.296196-29.947853 76.740119-29.979096 52.480423-.055694 104.960953-.024429 157.441422-.01564 1.627014.000275 3.253998.154076 5.1922.252022v38.702308c-2.125397 0-4.063233-.000007-6.001068.000016-51.147644.000534-102.295548-.073822-153.442643.093742-6.602035.021622-13.199951 1.295807-20.211074 2.058937z"/>
</svg>
