<svg xmlns="http://www.w3.org/2000/svg" xml:space="preserve" id="katman_1" x="0" y="0" version="1.0" viewBox="0 0 350 350">
  <style id="style824" type="text/css">
    .st0{fill:#5c4b9a}
  </style>
  <path id="path826" d="m295.60438 77.603187-98.4-56.9c-7.1-4-15-6.2-23.2-6.2s-16.1 2.2-23.1 6.2l-98.399998 56.9c-7 4.1-12.9 9.9-17 17-4.1 7.000003-6.2 15.000003-6.2 23.200003v114c.1 8.1 2.2 16 6.3 23s9.9 12.8 16.9 16.8l98.399998 56.9c7 4.1 15 6.2 23.2 6.2s16.1-2.1 23.2-6.2l98.4-56.9c7-4.1 12.9-9.9 17-17 4.1-7 6.2-15 6.2-23.2v-114c-.1-8.1-2.2-16-6.3-23.000003-4.2-7-10-12.8-17-16.8zM52.404382 117.70319c0-4.1 1.1-8.1 3.1-11.6s5-6.500003 8.5-8.500003l98.399998-56.8c3.5-2 7.5-3.1 11.6-3.1s8.1 1.1 11.6 3.1l98.5 56.8c3.5 2 6.4 4.900003 8.4 8.300003 2 3.5 3.1 7.4 3.2 11.4v11.6c0 9-3.6 17.7-10 24-6.4 6.4-15 10-24 10H86.504382c-12.3 0-24.2 3.9-34.1 11.3zm243.199998 113.7c0 4.1-1.1 8.1-3.1 11.6s-5 6.5-8.5 8.5l-98.5 56.8c-3.5 2-7.5 3.1-11.6 3.1s-8.1-1.1-11.6-3.1l-98.399998-56.8c-3.5-2-6.4-4.9-8.4-8.3-2-3.5-3.1-7.4-3.2-11.4v-11.6c0-9 3.6-17.7 10-24 6.4-6.4 15-10 24-10H261.40438c12.3 0 24.2-3.9 34.1-11.3v56.5z" class="st0"/>
  <path id="path828" d="M120.20438 111.90319h22.5v33.6h23.2v-33.6c0-6.1-2.4-12.000003-6.8-16.400003-4.3-4.3-10.2-6.8-16.4-6.8h-22.5c-6.1 0-12 2.4-16.4 6.8-4.299998 4.3-6.799998 10.200003-6.799998 16.400003v33.6h23.199998z" class="st0"/>
  <path id="path830" d="M142.60438 237.20319h-22.5v-33.6H96.904382v33.6c0 6.1 2.4 12 6.799998 16.4 4.3 4.3 10.2 6.8 16.4 6.8h22.5c6.1 0 12-2.4 16.4-6.8 4.3-4.3 6.8-10.2 6.8-16.4v-33.6h-23.2z" class="st0"/>
  <path id="path832" d="M211.40438 111.90319h22.5v33.6h23.2v-33.6c0-6.1-2.4-12.000003-6.8-16.400003-4.3-4.3-10.2-6.8-16.4-6.8h-22.5c-6.1 0-12 2.4-16.4 6.8-4.3 4.3-6.8 10.200003-6.8 16.400003v33.6h23.2z" class="st0"/>
  <path id="path834" d="M234.00438 237.20319h-22.5v-33.6h-23.2v33.6c0 6.1 2.4 12 6.8 16.4 4.3 4.3 10.2 6.8 16.4 6.8h22.5c6.1 0 12-2.4 16.4-6.8 4.3-4.3 6.8-10.2 6.8-16.4v-33.6h-23.2z" class="st0"/>
</svg>
