<svg xmlns="http://www.w3.org/2000/svg" fill="none" viewBox="0 0 32 32">
  <g fill="#FAF9F5" clip-path="url(#a)">
    <path d="M15.670789 8.9322216c2.2152 0 4.0111-1.78199 4.0111-3.98017 0-2.19819-1.7959-3.980176-4.0111-3.980176-2.2153 0-4.01113 1.781986-4.01113 3.980176 0 2.19818 1.79583 3.98017 4.01113 3.98017z" style="fill:#e68f23;fill-opacity:1"/>
    <path d="M26.818089 17.253092c-1.9184-1.096-4.3745-.4471-5.479 1.4565-.3778.6489-.5522 1.37-.5377 2.0766.0436 1.7594-1.555 2.6679-3.0665 1.7594-.0581-.0289-.1162-.0721-.1889-.101-1.5259-.8508-1.5259-2.6534 0-3.4898 1.2499-.6778 2.1073-1.9901 2.1073-3.5043v-.0865c-.0436-1.7594 1.555-2.6679 3.0665-1.7594 1.2062.7355 2.7758.7932 4.0837.0433 1.9184-1.096 2.5724-3.53316 1.4679-5.4367204-1.1045-1.90356-3.5606-2.5525-5.479-1.45651-1.3079.74989-2.0346 2.1343-2.0055 3.5331304.0436 1.7593-1.5551 2.6679-3.052 1.7593-.6103-.3749-1.3225-.5912-2.0927-.5912-.7703 0-1.4824.2163-2.0928.5768-1.51138.8941-3.09548-.0144-3.05188-1.75933.02907-1.4132404-.6975805-2.7832304-2.0055505-3.5331204-1.91836-1.09599-4.37443-.43263-5.478937 1.47093-1.104506 1.9035604-.4359891 4.3407204 1.482367 5.4367204 1.30797.7499 2.87753.6777 4.08377-.0433 1.5114305-.9085 3.0955205 0 3.0519205 1.7594v.0865c0 1.5142.84292 2.8265 2.10731 3.5043 1.5259.8508 1.5259 2.6534 0 3.4898-.0582.0289-.1163.0721-.1744.101-1.51145.8941-3.09555-.0145-3.05195-1.7594.01454-.7066-.15986-1.4277-.5377205-2.091-1.1045-1.9036-3.56058-2.5525-5.47893-1.4565-1.9183561 1.1248-2.57234 3.5619-1.467834 5.4655 1.104504 1.9036 3.560584 2.5525 5.478934 1.4565.02907-.0144.0436-.0288.07267-.0433 1.5114305-.9085 3.0955205 0 3.0519205 1.7594v.1009c0 2.192 1.80211 3.9802 4.01111 3.9802 2.209 0 4.0111-1.7882 4.0111-3.9802v-.0865c-.0436-1.7593 1.555-2.6678 3.0665-1.7593.029.0144.0581.0288.0872.0577 1.9183 1.0959 4.3744.447 5.4789-1.4566 1.1045-1.9468.4505-4.3839-1.4678-5.4799z" style="fill:#e68f23;fill-opacity:1"/>
  </g>
  <defs>
    <clipPath id="a">
      <path fill="#fff" d="M0 0h178v32H0z"/>
    </clipPath>
  </defs>
</svg>
