<svg xmlns="http://www.w3.org/2000/svg" xmlns:xlink="http://www.w3.org/1999/xlink" xml:space="preserve" class="light" style="enable-background:new 0 0 2500 2500" viewBox="0 0 2500 2500">
  <defs>
    <path id="a" d="M1250 2500C559.6 2500 0 1940.4 0 1250S559.6 0 1250 0s1250 559.6 1250 1250-559.6 1250-1250 1250z"/>
  </defs>
  <clipPath id="b">
    <use xlink:href="#a" style="overflow:visible"/>
  </clipPath>
  <g style="clip-path:url(#b)">
    <path d="m1250 1250-1768-10.9 1.6-65z" style="fill-rule:evenodd;clip-rule:evenodd;fill:#fefeff"/>
    <path d="m1250 1250-1766.7-65.1 2.7-54.2z" style="fill-rule:evenodd;clip-rule:evenodd;fill:#fdfeff"/>
    <path d="m1250 1250-1764.6-108.4 4-54.1z" style="fill-rule:evenodd;clip-rule:evenodd;fill:#fcfdff"/>
    <path d="m1250 1250-1761.4-151.7 5.3-54z" style="fill-rule:evenodd;clip-rule:evenodd;fill:#fbfcff"/>
    <path d="m1250 1250-1757.1-194.9 6.6-53.8z" style="fill-rule:evenodd;clip-rule:evenodd;fill:#fafcff"/>
    <path d="m1250 1250-1751.8-237.9 7.9-53.7z" style="fill-rule:evenodd;clip-rule:evenodd;fill:#f9fbff"/>
    <path d="M1250 1250-495.4 969.1l9.2-53.4z" style="fill-rule:evenodd;clip-rule:evenodd;fill:#f8faff"/>
    <path d="M1250 1250-488 926.4l10.5-53.2z" style="fill-rule:evenodd;clip-rule:evenodd;fill:#f7faff"/>
    <path d="M1250 1250-479.6 883.9l11.9-53z" style="fill-rule:evenodd;clip-rule:evenodd;fill:#f6f9ff"/>
    <path d="M1250 1250-470.1 841.5l13.2-52.6z" style="fill-rule:evenodd;clip-rule:evenodd;fill:#f5f8ff"/>
    <path d="M1250 1250-459.5 799.4l14.4-52.3z" style="fill-rule:evenodd;clip-rule:evenodd;fill:#f4f8ff"/>
    <path d="M1250 1250-448 757.6l15.8-51.9z" style="fill-rule:evenodd;clip-rule:evenodd;fill:#f3f7ff"/>
    <path d="M1250 1250-435.4 716.1l17.1-51.5z" style="fill-rule:evenodd;clip-rule:evenodd;fill:#f2f6ff"/>
    <path d="M1250 1250-421.8 674.9l18.3-51.1z" style="fill-rule:evenodd;clip-rule:evenodd;fill:#f1f6ff"/>
    <path d="M1250 1250-407.1 634l19.5-50.6z" style="fill-rule:evenodd;clip-rule:evenodd;fill:#f0f5ff"/>
    <path d="M1250 1250-391.5 593.5l20.7-50.1z" style="fill-rule:evenodd;clip-rule:evenodd;fill:#eff4ff"/>
    <path d="M1250 1250-374.9 553.4l22-49.5z" style="fill-rule:evenodd;clip-rule:evenodd;fill:#eef3ff"/>
    <path d="M1250 1250-357.3 513.8l23.2-49z" style="fill-rule:evenodd;clip-rule:evenodd;fill:#edf3ff"/>
    <path d="M1250 1250-338.8 474.6l24.4-48.5z" style="fill-rule:evenodd;clip-rule:evenodd;fill:#ecf2ff"/>
    <path d="M1250 1250-319.3 435.8l25.6-47.8z" style="fill-rule:evenodd;clip-rule:evenodd;fill:#ebf1ff"/>
    <path d="M1250 1250-298.8 397.6l26.7-47.3z" style="fill-rule:evenodd;clip-rule:evenodd;fill:#eaf1ff"/>
    <path d="M1250 1250-277.4 359.8l27.9-46.5z" style="fill-rule:evenodd;clip-rule:evenodd;fill:#e9f0ff"/>
    <path d="M1250 1250-255.1 322.6l29-45.9z" style="fill-rule:evenodd;clip-rule:evenodd;fill:#e8efff"/>
    <path d="M1250 1250-231.9 285.9l30.2-45.1z" style="fill-rule:evenodd;clip-rule:evenodd;fill:#e7efff"/>
    <path d="M1250 1250-207.8 249.8l31.2-44.3z" style="fill-rule:evenodd;clip-rule:evenodd;fill:#e6eeff"/>
    <path d="M1250 1250-182.8 214.4l32.3-43.6z" style="fill-rule:evenodd;clip-rule:evenodd;fill:#e5edff"/>
    <path d="M1250 1250-157 179.5l33.4-42.8z" style="fill-rule:evenodd;clip-rule:evenodd;fill:#e4edff"/>
    <path d="M1250 1250-130.3 145.3l34.4-41.9z" style="fill-rule:evenodd;clip-rule:evenodd;fill:#e3ecff"/>
    <path d="M1250 1250-102.7 111.8l35.4-41.1z" style="fill-rule:evenodd;clip-rule:evenodd;fill:#e2ebff"/>
    <path d="M1250 1250-74.4 78.9-38 38.7z" style="fill-rule:evenodd;clip-rule:evenodd;fill:#e1ebff"/>
    <path d="M1250 1250-45.3 46.8-7.9 7.5z" style="fill-rule:evenodd;clip-rule:evenodd;fill:#e0eaff"/>
    <path d="M1250 1250-15.4 15.4 23-23z" style="fill-rule:evenodd;clip-rule:evenodd;fill:#dfe9ff"/>
    <path d="M1250 1250 15.4-15.4l39.2-37.3z" style="fill-rule:evenodd;clip-rule:evenodd;fill:#dee9ff"/>
    <path d="M1250 1250 46.8-45.3 87-81.7z" style="fill-rule:evenodd;clip-rule:evenodd;fill:#dde8ff"/>
    <path d="M1250 1250 78.9-74.4l41.1-35.4z" style="fill-rule:evenodd;clip-rule:evenodd;fill:#dce7ff"/>
    <path d="M1250 1250 111.8-102.7l41.9-34.4z" style="fill-rule:evenodd;clip-rule:evenodd;fill:#dbe7ff"/>
    <path d="M1250 1250 145.3-130.3l42.8-33.3z" style="fill-rule:evenodd;clip-rule:evenodd;fill:#dae6ff"/>
    <path d="M1250 1250 179.5-157l43.6-32.3z" style="fill-rule:evenodd;clip-rule:evenodd;fill:#d9e5ff"/>
    <path d="M1250 1250 214.4-182.8l44.3-31.2z" style="fill-rule:evenodd;clip-rule:evenodd;fill:#d8e5ff"/>
    <path d="M1250 1250 249.8-207.8l45.1-30.1z" style="fill-rule:evenodd;clip-rule:evenodd;fill:#d7e4ff"/>
    <path d="M1250 1250 285.9-231.9l45.9-29z" style="fill-rule:evenodd;clip-rule:evenodd;fill:#d6e3ff"/>
    <path d="M1250 1250 322.6-255.1l46.5-27.9z" style="fill-rule:evenodd;clip-rule:evenodd;fill:#d5e3ff"/>
    <path d="M1250 1250 359.8-277.4l47.2-26.7z" style="fill-rule:evenodd;clip-rule:evenodd;fill:#d4e2ff"/>
    <path d="M1250 1250 397.6-298.8l47.8-25.6z" style="fill-rule:evenodd;clip-rule:evenodd;fill:#d3e1ff"/>
    <path d="M1250 1250 435.8-319.3l48.5-24.3z" style="fill-rule:evenodd;clip-rule:evenodd;fill:#d2e0ff"/>
    <path d="M1250 1250 474.6-338.8l49-23.1z" style="fill-rule:evenodd;clip-rule:evenodd;fill:#d1e0ff"/>
    <path d="M1250 1250 513.8-357.3l49.6-22z" style="fill-rule:evenodd;clip-rule:evenodd;fill:#d0dfff"/>
    <path d="M1250 1250 553.4-374.9l50.2-20.8z" style="fill-rule:evenodd;clip-rule:evenodd;fill:#cfdeff"/>
    <path d="M1250 1250 593.5-391.5l50.7-19.5z" style="fill-rule:evenodd;clip-rule:evenodd;fill:#cedeff"/>
    <path d="M1250 1250 634-407.1l51.1-18.3z" style="fill-rule:evenodd;clip-rule:evenodd;fill:#cdddff"/>
    <path d="M1250 1250 674.9-421.8l51.5-16.9z" style="fill-rule:evenodd;clip-rule:evenodd;fill:#ccdcff"/>
    <path d="M1250 1250 716.1-435.4l51.9-15.7z" style="fill-rule:evenodd;clip-rule:evenodd;fill:#cbdcff"/>
    <path d="M1250 1250 757.6-448l52.3-14.4z" style="fill-rule:evenodd;clip-rule:evenodd;fill:#cadbff"/>
    <path d="M1250 1250 799.4-459.5l52.6-13.2z" style="fill-rule:evenodd;clip-rule:evenodd;fill:#c9daff"/>
    <path d="M1250 1250 841.5-470.1l52.9-11.8z" style="fill-rule:evenodd;clip-rule:evenodd;fill:#c8daff"/>
    <path d="M1250 1250 883.9-479.6l53.1-10.5z" style="fill-rule:evenodd;clip-rule:evenodd;fill:#c7d9ff"/>
    <path d="M1250 1250 926.4-488l53.4-9.3z" style="fill-rule:evenodd;clip-rule:evenodd;fill:#c6d8ff"/>
    <path d="M1250 1250 969.1-495.4l53.7-8z" style="fill-rule:evenodd;clip-rule:evenodd;fill:#c5d8ff"/>
    <path d="M1250 1250 1012.1-501.8l53.8-6.6z" style="fill-rule:evenodd;clip-rule:evenodd;fill:#c4d7ff"/>
    <path d="M1250 1250 1055.1-507.1l54-5.3z" style="fill-rule:evenodd;clip-rule:evenodd;fill:#c3d6ff"/>
    <path d="M1250 1250 1098.3-511.4l54.1-4z" style="fill-rule:evenodd;clip-rule:evenodd;fill:#c2d6ff"/>
    <path d="M1250 1250 1141.6-514.6l54.2-2.6z" style="fill-rule:evenodd;clip-rule:evenodd;fill:#c1d5ff"/>
    <path d="m1250 1250-65.1-1766.7 54.2-1.3z" style="fill-rule:evenodd;clip-rule:evenodd;fill:#c0d4ff"/>
    <path d="m1250 1250-21.7-1767.8h54.2z" style="fill-rule:evenodd;clip-rule:evenodd;fill:#bfd4ff"/>
    <path d="m1250 1250 21.7-1767.8 54.2 1.4z" style="fill-rule:evenodd;clip-rule:evenodd;fill:#bed3ff"/>
    <path d="m1250 1250 65.1-1766.7 54.1 2.7z" style="fill-rule:evenodd;clip-rule:evenodd;fill:#bdd2ff"/>
    <path d="m1250 1250 108.4-1764.6 54.1 4z" style="fill-rule:evenodd;clip-rule:evenodd;fill:#bcd2ff"/>
    <path d="m1250 1250 151.7-1761.4 54 5.3z" style="fill-rule:evenodd;clip-rule:evenodd;fill:#bbd1ff"/>
    <path d="m1250 1250 194.8-1757.1 53.9 6.6z" style="fill-rule:evenodd;clip-rule:evenodd;fill:#bad0ff"/>
    <path d="m1250 1250 237.9-1751.8 53.7 7.9z" style="fill-rule:evenodd;clip-rule:evenodd;fill:#b9d0ff"/>
    <path d="m1250 1250 280.8-1745.4 53.5 9.2z" style="fill-rule:evenodd;clip-rule:evenodd;fill:#b8cfff"/>
    <path d="m1250 1250 323.6-1738 53.2 10.5z" style="fill-rule:evenodd;clip-rule:evenodd;fill:#b7ceff"/>
    <path d="m1250 1250 366.1-1729.6 53 11.9z" style="fill-rule:evenodd;clip-rule:evenodd;fill:#b6cdff"/>
    <path d="m1250 1250 408.5-1720.1 52.6 13.2z" style="fill-rule:evenodd;clip-rule:evenodd;fill:#b5cdff"/>
    <path d="m1250 1250 450.6-1709.5 52.2 14.4z" style="fill-rule:evenodd;clip-rule:evenodd;fill:#b4ccff"/>
    <path d="m1250 1250 492.4-1698 51.9 15.8z" style="fill-rule:evenodd;clip-rule:evenodd;fill:#b3cbff"/>
    <path d="m1250 1250 533.9-1685.4 51.5 17.1z" style="fill-rule:evenodd;clip-rule:evenodd;fill:#b2cbff"/>
    <path d="m1250 1250 575.1-1671.8 51.1 18.3z" style="fill-rule:evenodd;clip-rule:evenodd;fill:#b1caff"/>
    <path d="m1250 1250 616-1657.1 50.6 19.5z" style="fill-rule:evenodd;clip-rule:evenodd;fill:#b0c9ff"/>
    <path d="m1250 1250 656.4-1641.5 50.2 20.7z" style="fill-rule:evenodd;clip-rule:evenodd;fill:#afc9ff"/>
    <path d="m1250 1250 696.5-1624.9 49.6 22z" style="fill-rule:evenodd;clip-rule:evenodd;fill:#aec8ff"/>
    <path d="m1250 1250 736.2-1607.3 49 23.2z" style="fill-rule:evenodd;clip-rule:evenodd;fill:#adc7ff"/>
    <path d="m1250 1250 775.4-1588.8 48.5 24.4z" style="fill-rule:evenodd;clip-rule:evenodd;fill:#acc7ff"/>
    <path d="m1250 1250 814.2-1569.3 47.8 25.6z" style="fill-rule:evenodd;clip-rule:evenodd;fill:#abc6ff"/>
    <path d="m1250 1250 852.4-1548.8 47.3 26.7z" style="fill-rule:evenodd;clip-rule:evenodd;fill:#aac5ff"/>
    <path d="m1250 1250 890.2-1527.4 46.5 27.9z" style="fill-rule:evenodd;clip-rule:evenodd;fill:#a9c5ff"/>
    <path d="m1250 1250 927.4-1505.1 45.8 29z" style="fill-rule:evenodd;clip-rule:evenodd;fill:#a8c4ff"/>
    <path d="m1250 1250 964.1-1481.9 45.1 30.2z" style="fill-rule:evenodd;clip-rule:evenodd;fill:#a7c3ff"/>
    <path d="M1250 1250 2250.2-207.8l44.3 31.2z" style="fill-rule:evenodd;clip-rule:evenodd;fill:#a6c3ff"/>
    <path d="M1250 1250 2285.6-182.8l43.6 32.3z" style="fill-rule:evenodd;clip-rule:evenodd;fill:#a5c2ff"/>
    <path d="M1250 1250 2320.5-157l42.7 33.4z" style="fill-rule:evenodd;clip-rule:evenodd;fill:#a4c1ff"/>
    <path d="M1250 1250 2354.7-130.3l41.9 34.4z" style="fill-rule:evenodd;clip-rule:evenodd;fill:#a3c1ff"/>
    <path d="M1250 1250 2388.2-102.7l41.1 35.4z" style="fill-rule:evenodd;clip-rule:evenodd;fill:#a2c0ff"/>
    <path d="M1250 1250 2421.1-74.4l40.2 36.4z" style="fill-rule:evenodd;clip-rule:evenodd;fill:#a1bfff"/>
    <path d="M1250 1250 2453.2-45.3l39.3 37.4z" style="fill-rule:evenodd;clip-rule:evenodd;fill:#a0bfff"/>
    <path d="M1250 1250 2484.6-15.4 2523 23z" style="fill-rule:evenodd;clip-rule:evenodd;fill:#9fbeff"/>
    <path d="M1250 1250 2515.3 15.4l37.4 39.2z" style="fill-rule:evenodd;clip-rule:evenodd;fill:#9ebdff"/>
    <path d="M1250 1250 2545.3 46.8l36.4 40.2z" style="fill-rule:evenodd;clip-rule:evenodd;fill:#9dbdff"/>
    <path d="M1250 1250 2574.4 78.9l35.4 41.1z" style="fill-rule:evenodd;clip-rule:evenodd;fill:#9cbcff"/>
    <path d="M1250 1250 2602.7 111.8l34.4 41.9z" style="fill-rule:evenodd;clip-rule:evenodd;fill:#9bbbff"/>
    <path d="M1250 1250 2630.3 145.3l33.3 42.8z" style="fill-rule:evenodd;clip-rule:evenodd;fill:#9abaff"/>
    <path d="M1250 1250 2657 179.5l32.3 43.6z" style="fill-rule:evenodd;clip-rule:evenodd;fill:#99baff"/>
    <path d="M1250 1250 2682.8 214.4l31.2 44.3z" style="fill-rule:evenodd;clip-rule:evenodd;fill:#98b9ff"/>
    <path d="M1250 1250 2707.8 249.8l30.1 45.1z" style="fill-rule:evenodd;clip-rule:evenodd;fill:#97b8ff"/>
    <path d="m1250 1250 1481.9-964.1 29 45.9z" style="fill-rule:evenodd;clip-rule:evenodd;fill:#96b8ff"/>
    <path d="m1250 1250 1505.1-927.4 27.9 46.5z" style="fill-rule:evenodd;clip-rule:evenodd;fill:#95b7ff"/>
    <path d="m1250 1250 1527.4-890.2 26.7 47.2z" style="fill-rule:evenodd;clip-rule:evenodd;fill:#94b6ff"/>
    <path d="m1250 1250 1548.8-852.4 25.5 47.8z" style="fill-rule:evenodd;clip-rule:evenodd;fill:#93b6ff"/>
    <path d="m1250 1250 1569.2-814.2 24.4 48.5z" style="fill-rule:evenodd;clip-rule:evenodd;fill:#92b5ff"/>
    <path d="m1250 1250 1588.8-775.4 23.1 49z" style="fill-rule:evenodd;clip-rule:evenodd;fill:#91b4ff"/>
    <path d="m1250 1250 1607.3-736.2 22 49.6z" style="fill-rule:evenodd;clip-rule:evenodd;fill:#90b4ff"/>
    <path d="m1250 1250 1624.9-696.6 20.7 50.2z" style="fill-rule:evenodd;clip-rule:evenodd;fill:#8fb3ff"/>
    <path d="m1250 1250 1641.5-656.5 19.5 50.7z" style="fill-rule:evenodd;clip-rule:evenodd;fill:#8eb2ff"/>
    <path d="m1250 1250 1657.1-616 18.3 51.1z" style="fill-rule:evenodd;clip-rule:evenodd;fill:#8db2ff"/>
    <path d="m1250 1250 1671.7-575.1 17 51.5z" style="fill-rule:evenodd;clip-rule:evenodd;fill:#8cb1ff"/>
    <path d="m1250 1250 1685.3-533.9 15.8 51.9z" style="fill-rule:evenodd;clip-rule:evenodd;fill:#8bb0ff"/>
    <path d="m1250 1250 1697.9-492.4 14.5 52.3z" style="fill-rule:evenodd;clip-rule:evenodd;fill:#8ab0ff"/>
    <path d="m1250 1250 1709.5-450.6 13.2 52.6z" style="fill-rule:evenodd;clip-rule:evenodd;fill:#89afff"/>
    <path d="m1250 1250 1720.1-408.5 11.8 52.9z" style="fill-rule:evenodd;clip-rule:evenodd;fill:#88aeff"/>
    <path d="m1250 1250 1729.5-366.1 10.6 53.1z" style="fill-rule:evenodd;clip-rule:evenodd;fill:#87aeff"/>
    <path d="m1250 1250 1738-323.6 9.3 53.4z" style="fill-rule:evenodd;clip-rule:evenodd;fill:#86adff"/>
    <path d="m1250 1250 1745.4-280.9 8 53.7z" style="fill-rule:evenodd;clip-rule:evenodd;fill:#85acff"/>
    <path d="m1250 1250 1751.8-237.9 6.6 53.8z" style="fill-rule:evenodd;clip-rule:evenodd;fill:#84acff"/>
    <path d="m1250 1250 1757.1-194.9 5.3 54z" style="fill-rule:evenodd;clip-rule:evenodd;fill:#83abff"/>
    <path d="m1250 1250 1761.4-151.7 4 54.1z" style="fill-rule:evenodd;clip-rule:evenodd;fill:#82aaff"/>
    <path d="m1250 1250 1764.6-108.4 2.6 54.2z" style="fill-rule:evenodd;clip-rule:evenodd;fill:#81aaff"/>
    <path d="m1250 1250 1766.7-65.1 1.3 54.2z" style="fill-rule:evenodd;clip-rule:evenodd;fill:#80a9ff"/>
    <path d="m1250 1250 1767.7-21.7v54.2z" style="fill-rule:evenodd;clip-rule:evenodd;fill:#7fa8ff"/>
    <path d="m1250 1250 1767.7 21.7-1.3 54.2z" style="fill-rule:evenodd;clip-rule:evenodd;fill:#7ea7ff"/>
    <path d="m1250 1250 1766.7 65.1-2.7 54.1z" style="fill-rule:evenodd;clip-rule:evenodd;fill:#7da7ff"/>
    <path d="m1250 1250 1764.6 108.4-4 54.1z" style="fill-rule:evenodd;clip-rule:evenodd;fill:#7ca6ff"/>
    <path d="m1250 1250 1761.4 151.7-5.3 54z" style="fill-rule:evenodd;clip-rule:evenodd;fill:#7ba5ff"/>
    <path d="m1250 1250 1757.1 194.8-6.6 53.9z" style="fill-rule:evenodd;clip-rule:evenodd;fill:#7aa5ff"/>
    <path d="m1250 1250 1751.8 237.9-8 53.7z" style="fill-rule:evenodd;clip-rule:evenodd;fill:#79a4ff"/>
    <path d="m1250 1250 1745.4 280.8-9.2 53.5z" style="fill-rule:evenodd;clip-rule:evenodd;fill:#78a3ff"/>
    <path d="m1250 1250 1738 323.6-10.6 53.2z" style="fill-rule:evenodd;clip-rule:evenodd;fill:#77a3ff"/>
    <path d="m1250 1250 1729.5 366.1-11.8 53z" style="fill-rule:evenodd;clip-rule:evenodd;fill:#76a2ff"/>
    <path d="m1250 1250 1720.1 408.5-13.2 52.6z" style="fill-rule:evenodd;clip-rule:evenodd;fill:#75a1ff"/>
    <path d="m1250 1250 1709.5 450.6-14.4 52.2z" style="fill-rule:evenodd;clip-rule:evenodd;fill:#74a1ff"/>
    <path d="m1250 1250 1697.9 492.4-15.7 51.9z" style="fill-rule:evenodd;clip-rule:evenodd;fill:#73a0ff"/>
    <path d="m1250 1250 1685.3 533.9-17 51.5z" style="fill-rule:evenodd;clip-rule:evenodd;fill:#729fff"/>
    <path d="m1250 1250 1671.7 575.1-18.2 51.1z" style="fill-rule:evenodd;clip-rule:evenodd;fill:#719fff"/>
    <path d="m1250 1250 1657.1 616-19.5 50.6z" style="fill-rule:evenodd;clip-rule:evenodd;fill:#709eff"/>
    <path d="m1250 1250 1641.5 656.4-20.8 50.2z" style="fill-rule:evenodd;clip-rule:evenodd;fill:#6f9dff"/>
    <path d="m1250 1250 1624.9 696.5-22 49.6z" style="fill-rule:evenodd;clip-rule:evenodd;fill:#6e9dff"/>
    <path d="m1250 1250 1607.3 736.2-23.2 49z" style="fill-rule:evenodd;clip-rule:evenodd;fill:#6d9cff"/>
    <path d="m1250 1250 1588.8 775.4-24.4 48.5z" style="fill-rule:evenodd;clip-rule:evenodd;fill:#6c9bff"/>
    <path d="m1250 1250 1569.2 814.2-25.5 47.8z" style="fill-rule:evenodd;clip-rule:evenodd;fill:#6b9bff"/>
    <path d="m1250 1250 1548.8 852.4-26.7 47.3z" style="fill-rule:evenodd;clip-rule:evenodd;fill:#6a9aff"/>
    <path d="m1250 1250 1527.4 890.2-27.9 46.5z" style="fill-rule:evenodd;clip-rule:evenodd;fill:#6999ff"/>
    <path d="m1250 1250 1505.1 927.4-29 45.8z" style="fill-rule:evenodd;clip-rule:evenodd;fill:#6899ff"/>
    <path d="m1250 1250 1481.9 964.1-30.2 45.1z" style="fill-rule:evenodd;clip-rule:evenodd;fill:#6798ff"/>
    <path d="m1250 1250 1457.8 1000.2-31.2 44.3z" style="fill-rule:evenodd;clip-rule:evenodd;fill:#6697ff"/>
    <path d="m1250 1250 1432.8 1035.6-32.3 43.6z" style="fill-rule:evenodd;clip-rule:evenodd;fill:#6597ff"/>
    <path d="m1250 1250 1407 1070.5-33.4 42.7z" style="fill-rule:evenodd;clip-rule:evenodd;fill:#6496ff"/>
    <path d="m1250 1250 1380.3 1104.7-34.4 41.9z" style="fill-rule:evenodd;clip-rule:evenodd;fill:#6395ff"/>
    <path d="m1250 1250 1352.7 1138.2-35.4 41.1z" style="fill-rule:evenodd;clip-rule:evenodd;fill:#6294ff"/>
    <path d="m1250 1250 1324.4 1171.1-36.4 40.2z" style="fill-rule:evenodd;clip-rule:evenodd;fill:#6194ff"/>
    <path d="m1250 1250 1295.3 1203.2-37.4 39.3z" style="fill-rule:evenodd;clip-rule:evenodd;fill:#6093ff"/>
    <path d="m1250 1250 1265.3 1234.6-38.3 38.4z" style="fill-rule:evenodd;clip-rule:evenodd;fill:#5f92ff"/>
    <path d="m1250 1250 1234.6 1265.3-39.2 37.4z" style="fill-rule:evenodd;clip-rule:evenodd;fill:#5e92ff"/>
    <path d="m1250 1250 1203.2 1295.3-40.2 36.4z" style="fill-rule:evenodd;clip-rule:evenodd;fill:#5d91ff"/>
    <path d="m1250 1250 1171.1 1324.4-41.1 35.4z" style="fill-rule:evenodd;clip-rule:evenodd;fill:#5c90ff"/>
    <path d="m1250 1250 1138.2 1352.7-41.9 34.4z" style="fill-rule:evenodd;clip-rule:evenodd;fill:#5b90ff"/>
    <path d="m1250 1250 1104.7 1380.3-42.8 33.3z" style="fill-rule:evenodd;clip-rule:evenodd;fill:#5a8fff"/>
    <path d="m1250 1250 1070.5 1407-43.6 32.3z" style="fill-rule:evenodd;clip-rule:evenodd;fill:#598eff"/>
    <path d="m1250 1250 1035.6 1432.8-44.3 31.2z" style="fill-rule:evenodd;clip-rule:evenodd;fill:#588eff"/>
    <path d="m1250 1250 1000.2 1457.8-45.2 30.1z" style="fill-rule:evenodd;clip-rule:evenodd;fill:#578dff"/>
    <path d="m1250 1250 964.1 1481.9-45.9 29z" style="fill-rule:evenodd;clip-rule:evenodd;fill:#568cff"/>
    <path d="m1250 1250 927.4 1505.1-46.5 27.9z" style="fill-rule:evenodd;clip-rule:evenodd;fill:#558cff"/>
    <path d="m1250 1250 890.2 1527.4-47.2 26.7z" style="fill-rule:evenodd;clip-rule:evenodd;fill:#548bff"/>
    <path d="m1250 1250 852.4 1548.8-47.8 25.5z" style="fill-rule:evenodd;clip-rule:evenodd;fill:#538aff"/>
    <path d="m1250 1250 814.2 1569.2-48.5 24.4z" style="fill-rule:evenodd;clip-rule:evenodd;fill:#528aff"/>
    <path d="m1250 1250 775.4 1588.8-49 23.1z" style="fill-rule:evenodd;clip-rule:evenodd;fill:#5189ff"/>
    <path d="m1250 1250 736.2 1607.3-49.6 22z" style="fill-rule:evenodd;clip-rule:evenodd;fill:#5088ff"/>
    <path d="m1250 1250 696.5 1624.9-50.1 20.7z" style="fill-rule:evenodd;clip-rule:evenodd;fill:#4f88ff"/>
    <path d="m1250 1250 656.4 1641.5-50.6 19.5z" style="fill-rule:evenodd;clip-rule:evenodd;fill:#4e87ff"/>
    <path d="m1250 1250 616 1657.1-51.1 18.3z" style="fill-rule:evenodd;clip-rule:evenodd;fill:#4d86ff"/>
    <path d="m1250 1250 575.1 1671.7-51.5 17z" style="fill-rule:evenodd;clip-rule:evenodd;fill:#4c86ff"/>
    <path d="m1250 1250 533.9 1685.3-51.9 15.8z" style="fill-rule:evenodd;clip-rule:evenodd;fill:#4b85ff"/>
    <path d="m1250 1250 492.4 1697.9-52.3 14.5z" style="fill-rule:evenodd;clip-rule:evenodd;fill:#4a84ff"/>
    <path d="m1250 1250 450.6 1709.5-52.7 13.2z" style="fill-rule:evenodd;clip-rule:evenodd;fill:#4984ff"/>
    <path d="m1250 1250 408.5 1720.1-52.9 11.8z" style="fill-rule:evenodd;clip-rule:evenodd;fill:#4883ff"/>
    <path d="m1250 1250 366.1 1729.5-53.2 10.6z" style="fill-rule:evenodd;clip-rule:evenodd;fill:#4782ff"/>
    <path d="m1250 1250 323.6 1738-53.4 9.3z" style="fill-rule:evenodd;clip-rule:evenodd;fill:#4681ff"/>
    <path d="m1250 1250 280.8 1745.4-53.6 8z" style="fill-rule:evenodd;clip-rule:evenodd;fill:#4581ff"/>
    <path d="m1250 1250 237.9 1751.8-53.8 6.6z" style="fill-rule:evenodd;clip-rule:evenodd;fill:#4480ff"/>
    <path d="m1250 1250 194.8 1757.1-53.9 5.3z" style="fill-rule:evenodd;clip-rule:evenodd;fill:#437fff"/>
    <path d="m1250 1250 151.7 1761.4-54.1 4z" style="fill-rule:evenodd;clip-rule:evenodd;fill:#427fff"/>
    <path d="m1250 1250 108.4 1764.6-54.2 2.6z" style="fill-rule:evenodd;clip-rule:evenodd;fill:#417eff"/>
    <path d="m1250 1250 65.1 1766.7-54.3 1.3z" style="fill-rule:evenodd;clip-rule:evenodd;fill:#407dff"/>
    <path d="m1250 1250 21.7 1767.7h-54.3z" style="fill-rule:evenodd;clip-rule:evenodd;fill:#3f7dff"/>
    <path d="m1250 1250-21.7 1767.7-54.2-1.3z" style="fill-rule:evenodd;clip-rule:evenodd;fill:#3e7cff"/>
    <path d="m1250 1250-65.1 1766.7-54.2-2.7z" style="fill-rule:evenodd;clip-rule:evenodd;fill:#3d7bff"/>
    <path d="m1250 1250-108.4 1764.6-54.1-4z" style="fill-rule:evenodd;clip-rule:evenodd;fill:#3c7bff"/>
    <path d="m1250 1250-151.7 1761.4-54-5.3z" style="fill-rule:evenodd;clip-rule:evenodd;fill:#3b7aff"/>
    <path d="m1250 1250-194.9 1757.1-53.8-6.6z" style="fill-rule:evenodd;clip-rule:evenodd;fill:#3a79ff"/>
    <path d="m1250 1250-237.9 1751.8-53.7-8z" style="fill-rule:evenodd;clip-rule:evenodd;fill:#3979ff"/>
    <path d="M1250 1250 969.1 2995.4l-53.4-9.2z" style="fill-rule:evenodd;clip-rule:evenodd;fill:#3878ff"/>
    <path d="M1250 1250 926.4 2988l-53.2-10.6z" style="fill-rule:evenodd;clip-rule:evenodd;fill:#3777ff"/>
    <path d="M1250 1250 883.9 2979.5l-53-11.8z" style="fill-rule:evenodd;clip-rule:evenodd;fill:#3677ff"/>
    <path d="M1250 1250 841.5 2970.1l-52.6-13.2z" style="fill-rule:evenodd;clip-rule:evenodd;fill:#3576ff"/>
    <path d="M1250 1250 799.4 2959.5l-52.3-14.4z" style="fill-rule:evenodd;clip-rule:evenodd;fill:#3475ff"/>
    <path d="M1250 1250 757.6 2947.9l-51.9-15.7z" style="fill-rule:evenodd;clip-rule:evenodd;fill:#3375ff"/>
    <path d="M1250 1250 716.1 2935.3l-51.5-17z" style="fill-rule:evenodd;clip-rule:evenodd;fill:#3274ff"/>
    <path d="M1250 1250 674.9 2921.7l-51.1-18.2z" style="fill-rule:evenodd;clip-rule:evenodd;fill:#3173ff"/>
    <path d="M1250 1250 634 2907.1l-50.6-19.5z" style="fill-rule:evenodd;clip-rule:evenodd;fill:#3073ff"/>
    <path d="M1250 1250 593.5 2891.5l-50.1-20.8z" style="fill-rule:evenodd;clip-rule:evenodd;fill:#2f72ff"/>
    <path d="M1250 1250 553.4 2874.9l-49.5-22z" style="fill-rule:evenodd;clip-rule:evenodd;fill:#2e71ff"/>
    <path d="M1250 1250 513.8 2857.3l-49-23.2z" style="fill-rule:evenodd;clip-rule:evenodd;fill:#2d71ff"/>
    <path d="M1250 1250 474.6 2838.8l-48.5-24.4z" style="fill-rule:evenodd;clip-rule:evenodd;fill:#2c70ff"/>
    <path d="M1250 1250 435.8 2819.2l-47.8-25.5z" style="fill-rule:evenodd;clip-rule:evenodd;fill:#2b6fff"/>
    <path d="M1250 1250 397.6 2798.8l-47.3-26.7z" style="fill-rule:evenodd;clip-rule:evenodd;fill:#2a6eff"/>
    <path d="M1250 1250 359.8 2777.4l-46.5-27.9z" style="fill-rule:evenodd;clip-rule:evenodd;fill:#296eff"/>
    <path d="M1250 1250 322.6 2755.1l-45.9-29z" style="fill-rule:evenodd;clip-rule:evenodd;fill:#286dff"/>
    <path d="M1250 1250 285.9 2731.9l-45.1-30.2z" style="fill-rule:evenodd;clip-rule:evenodd;fill:#276cff"/>
    <path d="M1250 1250 249.8 2707.8l-44.3-31.2z" style="fill-rule:evenodd;clip-rule:evenodd;fill:#266cff"/>
    <path d="M1250 1250 214.4 2682.8l-43.6-32.3z" style="fill-rule:evenodd;clip-rule:evenodd;fill:#256bff"/>
    <path d="M1250 1250 179.5 2657l-42.8-33.4z" style="fill-rule:evenodd;clip-rule:evenodd;fill:#246aff"/>
    <path d="M1250 1250 145.3 2630.3l-41.9-34.4z" style="fill-rule:evenodd;clip-rule:evenodd;fill:#236aff"/>
    <path d="M1250 1250 111.8 2602.7l-41.1-35.4z" style="fill-rule:evenodd;clip-rule:evenodd;fill:#2269ff"/>
    <path d="M1250 1250 78.9 2574.4 38.7 2538z" style="fill-rule:evenodd;clip-rule:evenodd;fill:#2168ff"/>
    <path d="M1250 1250 46.8 2545.3l-39.3-37.4z" style="fill-rule:evenodd;clip-rule:evenodd;fill:#2068ff"/>
    <path d="M1250 1250 15.4 2515.3-23 2477z" style="fill-rule:evenodd;clip-rule:evenodd;fill:#1f67ff"/>
    <path d="M1250 1250-15.4 2484.6l-37.3-39.2z" style="fill-rule:evenodd;clip-rule:evenodd;fill:#1e66ff"/>
    <path d="M1250 1250-45.3 2453.2l-36.4-40.2z" style="fill-rule:evenodd;clip-rule:evenodd;fill:#1d66ff"/>
    <path d="M1250 1250-74.4 2421.1l-35.4-41.1z" style="fill-rule:evenodd;clip-rule:evenodd;fill:#1c65ff"/>
    <path d="M1250 1250-102.7 2388.2l-34.4-41.9z" style="fill-rule:evenodd;clip-rule:evenodd;fill:#1b64ff"/>
    <path d="M1250 1250-130.3 2354.7l-33.3-42.8z" style="fill-rule:evenodd;clip-rule:evenodd;fill:#1a64ff"/>
    <path d="M1250 1250-157 2320.5l-32.3-43.6z" style="fill-rule:evenodd;clip-rule:evenodd;fill:#1963ff"/>
    <path d="M1250 1250-182.8 2285.6l-31.2-44.3z" style="fill-rule:evenodd;clip-rule:evenodd;fill:#1862ff"/>
    <path d="M1250 1250-207.8 2250.2l-30.1-45.2z" style="fill-rule:evenodd;clip-rule:evenodd;fill:#1762ff"/>
    <path d="m1250 1250-1481.9 964.1-29-45.9z" style="fill-rule:evenodd;clip-rule:evenodd;fill:#1661ff"/>
    <path d="m1250 1250-1505.1 927.4-27.9-46.5z" style="fill-rule:evenodd;clip-rule:evenodd;fill:#1560ff"/>
    <path d="m1250 1250-1527.4 890.2-26.7-47.2z" style="fill-rule:evenodd;clip-rule:evenodd;fill:#1460ff"/>
    <path d="m1250 1250-1548.8 852.4-25.6-47.8z" style="fill-rule:evenodd;clip-rule:evenodd;fill:#135fff"/>
    <path d="m1250 1250-1569.3 814.2-24.3-48.5z" style="fill-rule:evenodd;clip-rule:evenodd;fill:#125eff"/>
    <path d="m1250 1250-1588.8 775.4-23.1-49z" style="fill-rule:evenodd;clip-rule:evenodd;fill:#115eff"/>
    <path d="m1250 1250-1607.3 736.2-22-49.6z" style="fill-rule:evenodd;clip-rule:evenodd;fill:#105dff"/>
    <path d="m1250 1250-1624.9 696.5-20.8-50.1z" style="fill-rule:evenodd;clip-rule:evenodd;fill:#0f5cff"/>
    <path d="m1250 1250-1641.5 656.4-19.5-50.6z" style="fill-rule:evenodd;clip-rule:evenodd;fill:#0e5bff"/>
    <path d="m1250 1250-1657.1 616-18.3-51.1z" style="fill-rule:evenodd;clip-rule:evenodd;fill:#0d5bff"/>
    <path d="m1250 1250-1671.8 575.1-16.9-51.5z" style="fill-rule:evenodd;clip-rule:evenodd;fill:#0c5aff"/>
    <path d="m1250 1250-1685.4 533.9-15.7-51.9z" style="fill-rule:evenodd;clip-rule:evenodd;fill:#0b59ff"/>
    <path d="m1250 1250-1698 492.4-14.4-52.3z" style="fill-rule:evenodd;clip-rule:evenodd;fill:#0a59ff"/>
    <path d="m1250 1250-1709.5 450.6-13.2-52.7z" style="fill-rule:evenodd;clip-rule:evenodd;fill:#0958ff"/>
    <path d="m1250 1250-1720.1 408.5-11.8-52.9z" style="fill-rule:evenodd;clip-rule:evenodd;fill:#0857ff"/>
    <path d="m1250 1250-1729.6 366.1-10.5-53.2z" style="fill-rule:evenodd;clip-rule:evenodd;fill:#0757ff"/>
    <path d="m1250 1250-1738 323.6-9.3-53.4z" style="fill-rule:evenodd;clip-rule:evenodd;fill:#0656ff"/>
    <path d="m1250 1250-1745.4 280.8-8-53.6z" style="fill-rule:evenodd;clip-rule:evenodd;fill:#0555ff"/>
    <path d="m1250 1250-1751.8 237.9-6.6-53.8z" style="fill-rule:evenodd;clip-rule:evenodd;fill:#0455ff"/>
    <path d="m1250 1250-1757.1 194.8-5.3-53.9z" style="fill-rule:evenodd;clip-rule:evenodd;fill:#0354ff"/>
    <path d="m1250 1250-1761.4 151.7-4-54.1z" style="fill-rule:evenodd;clip-rule:evenodd;fill:#0253ff"/>
    <path d="m1250 1250-1764.6 108.4-2.6-54.2z" style="fill-rule:evenodd;clip-rule:evenodd;fill:#0153ff"/>
    <path d="m1250 1250-1766.7 65.1-1.3-54.3z" style="fill-rule:evenodd;clip-rule:evenodd;fill:#0052ff"/>
    <path d="m1250 1250-1767.8 21.7v-43.4z" style="fill-rule:evenodd;clip-rule:evenodd;fill:#fff"/>
  </g>
</svg>
