<svg width="42" height="42" viewBox="0 0 42 42" fill="none" xmlns="http://www.w3.org/2000/svg">
<mask id="mask0_3145_261737" style="mask-type:alpha" maskUnits="userSpaceOnUse" x="0" y="0" width="42" height="42">
<circle cx="21" cy="21" r="21" fill="#D9D9D9"/>
</mask>
<g mask="url(#mask0_3145_261737)">
<path d="M68.9001 0H-10.8999V42H68.9001V0Z" fill="#B22234"/>
<path d="M-10.8999 4.83984H68.9001H-10.8999ZM68.9001 11.3014H-10.8999H68.9001ZM-10.8999 17.7629H68.9001H-10.8999ZM68.9001 24.2245H-10.8999H68.9001ZM-10.8999 30.686H68.9001H-10.8999ZM68.9001 37.1475H-10.8999H68.9001Z" fill="black"/>
<path d="M-10.8999 4.83984H68.9001M68.9001 11.3014H-10.8999M-10.8999 17.7629H68.9001M68.9001 24.2245H-10.8999M-10.8999 30.686H68.9001M68.9001 37.1475H-10.8999" stroke="white" stroke-width="3.23077"/>
<path d="M21.0201 0H-10.8999V22.6154H21.0201V0Z" fill="#3C3B6E"/>
<path d="M2.34625 0.963867L3.10584 3.30167L1.11719 1.85683H3.5753L1.58665 3.30167L2.34625 0.963867Z" fill="white"/>
<path d="M2.34625 5.55762L3.10584 7.89542L1.11719 6.45058H3.5753L1.58665 7.89542L2.34625 5.55762Z" fill="white"/>
<path d="M2.34625 10.0078L3.10584 12.3456L1.11719 10.9008H3.5753L1.58665 12.3456L2.34625 10.0078Z" fill="white"/>
<path d="M2.34625 14.6016L3.10584 16.9394L1.11719 15.4945H3.5753L1.58665 16.9394L2.34625 14.6016Z" fill="white"/>
<path d="M2.34625 19.0518L3.10584 21.3896L1.11719 19.9447H3.5753L1.58665 21.3896L2.34625 19.0518Z" fill="white"/>
<path d="M-0.304634 3.21973L0.454966 5.55753L-1.53369 4.11269H0.924424L-1.06423 5.55753L-0.304634 3.21973Z" fill="white"/>
<path d="M-0.304634 7.81348L0.454966 10.1513L-1.53369 8.70644H0.924424L-1.06423 10.1513L-0.304634 7.81348Z" fill="white"/>
<path d="M-0.304634 12.2842L0.454966 14.622L-1.53369 13.1771H0.924424L-1.06423 14.622L-0.304634 12.2842Z" fill="white"/>
<path d="M-0.304634 16.8574L0.454966 19.1952L-1.53369 17.7504H0.924424L-1.06423 19.1952L-0.304634 16.8574Z" fill="white"/>
<path d="M7.64263 0.963867L8.40223 3.30167L6.41357 1.85683H8.87169L6.88303 3.30167L7.64263 0.963867Z" fill="white"/>
<path d="M7.64263 5.55762L8.40223 7.89542L6.41357 6.45058H8.87169L6.88303 7.89542L7.64263 5.55762Z" fill="white"/>
<path d="M7.64263 10.0078L8.40223 12.3456L6.41357 10.9008H8.87169L6.88303 12.3456L7.64263 10.0078Z" fill="white"/>
<path d="M7.64263 14.6016L8.40223 16.9394L6.41357 15.4945H8.87169L6.88303 16.9394L7.64263 14.6016Z" fill="white"/>
<path d="M7.64751 19.0518L8.40711 21.3896L6.41846 19.9447H8.87657L6.88792 21.3896L7.64751 19.0518Z" fill="white"/>
<path d="M4.99712 3.21973L5.75672 5.55753L3.76807 4.11269H6.22618L4.23752 5.55753L4.99712 3.21973Z" fill="white"/>
<path d="M4.99712 7.81348L5.75672 10.1513L3.76807 8.70644H6.22618L4.23752 10.1513L4.99712 7.81348Z" fill="white"/>
<path d="M4.99712 12.2842L5.75672 14.622L3.76807 13.1771H6.22618L4.23752 14.622L4.99712 12.2842Z" fill="white"/>
<path d="M4.99712 16.8574L5.75672 19.1952L3.76807 17.7504H6.22618L4.23752 19.1952L4.99712 16.8574Z" fill="white"/>
<path d="M12.9434 0.963867L13.703 3.30167L11.7144 1.85683H14.1725L12.1838 3.30167L12.9434 0.963867Z" fill="white"/>
<path d="M12.9434 5.55762L13.703 7.89542L11.7144 6.45058H14.1725L12.1838 7.89542L12.9434 5.55762Z" fill="white"/>
<path d="M12.9434 10.0078L13.703 12.3456L11.7144 10.9008H14.1725L12.1838 12.3456L12.9434 10.0078Z" fill="white"/>
<path d="M12.9434 14.6016L13.703 16.9394L11.7144 15.4945H14.1725L12.1838 16.9394L12.9434 14.6016Z" fill="white"/>
<path d="M12.9434 19.0518L13.703 21.3896L11.7144 19.9447H14.1725L12.1838 21.3896L12.9434 19.0518Z" fill="white"/>
<path d="M10.293 3.21973L11.0526 5.55753L9.06396 4.11269H11.5221L9.53342 5.55753L10.293 3.21973Z" fill="white"/>
<path d="M10.293 7.81348L11.0526 10.1513L9.06396 8.70644H11.5221L9.53342 10.1513L10.293 7.81348Z" fill="white"/>
<path d="M10.2979 12.2842L11.0575 14.622L9.06885 13.1771H11.527L9.53831 14.622L10.2979 12.2842Z" fill="white"/>
<path d="M10.2979 16.8574L11.0575 19.1952L9.06885 17.7504H11.527L9.53831 19.1952L10.2979 16.8574Z" fill="white"/>
<path d="M18.2452 0.963867L19.0048 3.30167L17.0161 1.85683H19.4742L17.4856 3.30167L18.2452 0.963867Z" fill="white"/>
<path d="M18.2452 5.55762L19.0048 7.89542L17.0161 6.45058H19.4742L17.4856 7.89542L18.2452 5.55762Z" fill="white"/>
<path d="M18.2452 10.0078L19.0048 12.3456L17.0161 10.9008H19.4742L17.4856 12.3456L18.2452 10.0078Z" fill="white"/>
<path d="M18.2452 14.6016L19.0048 16.9394L17.0161 15.4945H19.4742L17.4856 16.9394L18.2452 14.6016Z" fill="white"/>
<path d="M18.2452 19.0518L19.0048 21.3896L17.0161 19.9447H19.4742L17.4856 21.3896L18.2452 19.0518Z" fill="white"/>
<path d="M15.5943 3.21973L16.3539 5.55753L14.3652 4.11269H16.8233L14.8347 5.55753L15.5943 3.21973Z" fill="white"/>
<path d="M15.5943 7.81348L16.3539 10.1513L14.3652 8.70644H16.8233L14.8347 10.1513L15.5943 7.81348Z" fill="white"/>
<path d="M15.5943 12.2842L16.3539 14.622L14.3652 13.1771H16.8233L14.8347 14.622L15.5943 12.2842Z" fill="white"/>
<path d="M15.5943 16.8574L16.3539 19.1952L14.3652 17.7504H16.8233L14.8347 19.1952L15.5943 16.8574Z" fill="white"/>
</g>
</svg>
