<svg xmlns="http://www.w3.org/2000/svg" fill="none" viewBox="0 0 36 36">
  <rect width="36" height="36" fill="#C3ED8E" rx="18"/>
  <path fill="#030303" d="M26.0121 13.8585c-.1305.1013-2.4347 1.3997-2.4347 4.2867 0 3.3393 2.932 4.5207 3.0198 4.5499-.0135.0721-.4658 1.618-1.5459 3.1931-.9631 1.3862-1.969 2.77-3.4991 2.77-1.5302 0-1.924-.8888-3.6904-.8888-1.7214 0-2.3335.9181-3.7331.9181-1.3997 0-2.3763-1.2826-3.4991-2.8578-1.30067-1.8497-2.35152-4.7232-2.35152-7.4505 0-4.3744 2.84432-6.6944 5.64352-6.6944 1.4874 0 2.7273.9766 3.6612.9766.8888 0 2.2749-1.0351 3.9671-1.0351.6413 0 2.9455.0585 4.4622 2.2322Zm-5.2655-4.08414c.6998-.83033 1.1948-1.98245 1.1948-3.13456 0-.15977-.0135-.32179-.0427-.4523-1.1386.04275-2.4933.75833-3.3101 1.70567-.6413.72907-1.2399 1.88119-1.2399 3.04903 0 .1755.0293.3511.0428.4073.072.0135.189.0293.306.0293 1.0216 0 2.3065-.6841 3.0491-1.60444Z"/>
</svg>
