<svg xmlns="http://www.w3.org/2000/svg" fill="none" viewBox="0 0 42 42">
  <path fill="#B6509E" d="M21 42c11.598 0 21-9.402 21-21C42 9.40202 32.598 0 21 0 9.40202 0 0 9.40202 0 21c0 11.598 9.40202 21 21 21Z"/>
  <path fill="#F3F3F3" d="m31.1259 30.1733-7.8131-18.8824c-.4415-.9757-1.0942-1.45399-1.958-1.45399h-.6911c-.8638 0-1.5165.47829-1.9581 1.45399l-3.3976 8.2266h-2.5726c-.3704.0014-.7253.1489-.9876.4103-.2624.2615-.411.6159-.4137.9863v.0191c.0027.3704.1513.7248.4137.9862.2623.2615.6172.409.9876.4104h1.3819l-3.244 7.8435c-.0613.1721-.0938.3532-.096.5358 0 .4401.1344.7844.384 1.0523.2496.2678.5951.4015 1.0366.4015.2899-.0039.5715-.0974.8061-.2679.2496-.1721.4223-.4208.5567-.7078l3.5706-8.8577h2.4764c.3704-.0014.7253-.1489.9877-.4104.2623-.2614.411-.6158.4137-.9862v-.0383c-.0027-.3704-.1514-.7248-.4137-.9862-.2624-.2615-.6173-.409-.9877-.4104h-1.3244l2.7259-6.7914 7.4292 18.4807c.1344.2869.3072.5358.5567.7078.2347.1705.5164.2641.8063.2679.4416 0 .7871-.1339 1.0367-.4017.2496-.268.3839-.6123.3839-1.0523.0073-.1834-.0255-.3662-.0961-.5357Z"/>
</svg>
