<svg xmlns="http://www.w3.org/2000/svg" fill="none" viewBox="0 0 42 42">
  <circle cx="21" cy="21" r="21" fill="#0133AD"/>
  <path fill="#F3F3F3" d="M14.2236 20.9022c-.064 1.1111.7919 2.0624 1.9039 2.1263h.12c1.1199 0 2.0239-.9033 2.0159-2.0224 0-1.1191-.904-2.0223-2.0239-2.0143-1.072 0-1.9599.8393-2.0159 1.9104Zm-7.53496-.5233c-.35998-.024-.67197.256-.68797.6159-.016.36.25599.672.61597.688.35999.024.66397-.256.68797-.616.024-.3599-.25599-.6639-.61597-.6879ZM14.0973 9.18214c.32-.15999.448-.55998.288-.87996-.16-.31999-.56-.44798-.88-.28799-.32.15999-.448.55198-.288.87196.16.32799.552.46398.88.29599-.008 0 0 0 0 0Zm2.0476 3.57116c.496-.2478.696-.8553.448-1.3509-.248-.4956-.856-.6955-1.352-.4477-.4959.2478-.6959.8554-.4479 1.351.2479.4956.8559.6954 1.3519.4476Zm-6.89592 2.455c.38399.2478.89592.1438 1.15192-.2398.248-.3837.144-.8953-.24-1.1511-.38394-.2478-.89592-.1439-1.1519.2398-.25599.3837-.144.9033.23998 1.1511Zm1.22242 4.8144c-.55996-.032-1.03194.3917-1.06394.9512-.032.5596.39198 1.0312.95194 1.0632.56.032 1.032-.3917 1.064-.9513.032-.5515-.392-1.0311-.952-1.0631Zm-1.11117 6.7671c-.40798.2078-.57598.7034-.36799 1.1191.20799.4077.70397.5755 1.11996.3677.408-.2078.576-.7034.368-1.1191-.208-.4077-.71199-.5755-1.11997-.3677Zm3.91947-8.8557c.552.3597 1.288.2078 1.6399-.3437.36-.5516.208-1.287-.3439-1.6387-.552-.3597-1.288-.2078-1.64.3437-.36.5436-.208 1.279.344 1.6387Zm12.439-5.259c.464.3038 1.096.1759 1.3999-.2877.304-.4637.176-1.0952-.2879-1.3989-.464-.3038-1.096-.1759-1.4.2878-.312.4716-.184 1.0951.288 1.3988Zm2.0644-3.55535c.304.19999.704.11199.904-.192.2-.30398.112-.70396-.192-.90395-.304-.2-.704-.112-.904.18399-.192.30398-.104.71197.192.91196ZM25.873 18.9755c-1.112-.0639-2.0719.7914-2.1279 1.9025-.064 1.1111.7919 2.0704 1.9039 2.1263h.112c1.1119 0 2.0159-.9033 2.0159-2.0224.008-1.0631-.832-1.9504-1.9039-2.0064Zm-9.0643-1.186c.3439.6794 1.0399 1.1111 1.8079 1.1111 1.1119 0 2.0159-.9033 2.0159-2.0224 0-.3117-.072-.6235-.216-.9112-.504-.9992-1.7199-1.3989-2.7119-.8953-.9999.5116-1.3999 1.7266-.8959 2.7178Zm15.83-2.5805c.4079-.2078.5679-.7114.3599-1.1191-.208-.4077-.7119-.5676-1.1199-.3597-.408.2078-.568.7034-.368 1.1111.216.4077.712.5755 1.128.3677Zm-5.1195.6368c-.584.2957-.824 1.0072-.528 1.5907.296.5835 1.008.8233 1.592.5276.5839-.2958.8239-1.0072.5279-1.5907-.296-.5836-1.0079-.8154-1.5919-.5276Zm-6.5983-7.03205c.4559.02398.8479-.32774.8799-.78337.032-.45564-.328-.84732-.7839-.8793-.456-.02398-.848.31975-.88.77538-.024.46363.328.85532.784.88729Zm-.008 5.21765c.656.04 1.216-.4636 1.248-1.1191.04-.6555-.464-1.215-1.12-1.247-.656-.04-1.2159.4636-1.2479 1.1191-.032.6555.4639 1.215 1.1199 1.247ZM14.4791 26.15c.584-.2958.824-1.0072.528-1.5908-.296-.5835-1.0079-.8233-1.5919-.5275-.584.2957-.824 1.0071-.528 1.5907.296.5835 1.008.8233 1.5919.5276Zm7.2018-10.3798c-.6079.9352-.3519 2.1822.584 2.7897.936.6075 2.1839.3517 2.7919-.5835.608-.9353.352-2.1823-.584-2.7898-.328-.2158-.712-.3277-1.1039-.3277-.68 0-1.312.3437-1.688.9113Zm3.511 8.4377c-.504-.9992-1.7199-1.3989-2.7119-.8953-1 .5036-1.3999 1.7187-.896 2.7099.504.9992 1.72 1.3988 2.7119.8952.992-.4956 1.4-1.6946.904-2.6938 0-.008 0-.008-.008-.016Zm3.5268-.1424c-.552-.3597-1.2879-.2079-1.6399.3437-.36.5515-.208 1.287.344 1.6387.552.3597 1.2879.2078 1.6399-.3437.36-.5436.208-1.279-.344-1.6387Zm3.8717-3.0285c.032-.5595-.392-1.0312-.952-1.0631-.56-.032-1.0319.3917-1.0639.9512-.032.5596.3919 1.0312.9519 1.0632.552.0319 1.032-.3997 1.064-.9513Zm2.7921-.7216c-.36-.024-.672.256-.688.616-.016.36.256.6719.616.6879.36.024.664-.2559.688-.6159.016-.36-.256-.664-.616-.688Zm-2.6299 6.4756c-.384-.2478-.8959-.1439-1.1519.2398-.248.3837-.144.8953.24 1.1511.384.2478.8959.1439 1.1519-.2398.256-.3837.144-.9033-.24-1.1511ZM14.209 32.8827c-.304-.2-.704-.112-.904.184-.1999.304-.112.7039.184.9039.304.2.704.112.904-.184.208-.2959.12-.7039-.184-.9039Zm13.6957-.0649c-.32.16-.448.56-.288.88.16.3199.56.4479.88.2879.32-.1599.448-.5519.288-.8719-.16-.328-.552-.464-.88-.296.008 0 0 0 0 0Zm-7.5849-6.5862c.608-.9352.352-2.1822-.584-2.7977-.9359-.6075-2.1839-.3518-2.7999.5835-.6159.9352-.3519 2.1822.584 2.7978.328.2158.712.3277 1.104.3277.6879.008 1.3199-.3357 1.6959-.9113Zm-4.0392 3.0928c-.4639-.3037-1.0959-.1758-1.3999.2878-.304.4636-.176 1.0951.288 1.3989.464.3037 1.0959.1758 1.3999-.2878.312-.4636.184-1.0951-.288-1.3989Zm4.7102 3.8618c-.456-.024-.8479.3278-.8799.7834-.032.4556.328.8473.7839.8793.456.024.848-.3198.88-.7754.024-.4636-.328-.8553-.784-.8873Zm.0094-5.2196c-.656-.04-1.216.4636-1.248 1.1191-.04.6555.464 1.215 1.12 1.247.6559.032 1.2159-.4636 1.2479-1.1191.04-.6475-.464-1.215-1.1199-1.247Zm4.8556 1.2785c-.496.2558-.696.8633-.44 1.3589.256.4956.864.6955 1.36.4397.4959-.2478.6959-.8553.4479-1.3509-.256-.4956-.8639-.7035-1.3679-.4477Z"/>
</svg>
