<svg xmlns="http://www.w3.org/2000/svg" fill="none" viewBox="0 0 42 42">
  <circle cx="21" cy="21" r="21" fill="#31C77F"/>
  <path stroke="#F3F3F3" stroke-width="1.20988" d="M37.3332 20.8853c0 8.9569-7.3127 16.2179-16.3334 16.2179-9.0206 0-16.3333-7.261-16.3333-16.2179 0-8.957 7.3127-16.21806 16.3333-16.21806 9.0207 0 16.3334 7.26106 16.3334 16.21806Z"/>
  <path fill="#F3F3F3" fill-rule="evenodd" d="m17.4997 37.1025-3.4385-1.1381c.1283-.3073.2849-.6808.3895-.9247l.2209.1534c.2169.1188.5313.2376.6958.2821.6959.1855 1.3992.3042 2.1175.3339.2484.0112.501-.0156.7513-.0422h.0006c.0814-.0087.1626-.0173.2433-.0245.1103-.0103.2209-.0204.3315-.0305.5273-.0481 1.057-.0964 1.5765-.17.1535-.0238.3008-.0049.4459.0137.0813.0105.1619.0208.2425.0235.021.0007.0422.0017.0633.0026h.0004c.1818.008.3651.0161.5125-.0769.286-.1715.6016-.1964.91-.2207h.0005c.0383-.0031.0765-.0061.1146-.0093.7631-.0668 1.5114-.2375 2.2372-.4676l.1378-.0427c.6947-.2153 1.3877-.4302 2.0545-.7365.1904-.0874.3744-.1813.5486-.2857.1896.425.5681 1.2505.8986 1.8314l-1.7215.9496-4.6666.8109-4.6667-.2317Zm8.4159-10.0875c-.0602-.43-.0798-.8669-.0277-1.3038.0898-.7717.045-1.5361-.1047-2.3005-.1422-.6902-.1721-1.3804-.03-2.0779.015-.1039.03-.2226.0076-.3265-.1049-.5492-.1497-1.1058-.1347-1.655-.0524-.0296-.0599-.0148-.0749.0149-.2843.4601-.7407.5418-1.2271.4675-.4864-.0668-.7931-.371-.9053-.846-.0298-.118-.0816-.148-.1703-.1994l-.0018-.001c-.1347-.0816-.1197-.2077.0224-.2746.0447-.0222.0895-.0319.1343-.0416.0151-.0033.0302-.0065.0452-.0103.3426-.0896.6833-.1792 1.024-.2688.3365-.0885.6729-.177 1.0112-.2655.277-.0742.277-.0742.247-.3414-.0673-.5194-.1796-1.039-.3442-1.5362-.2619-.7866-.6884-1.4842-1.2197-2.1224-.034-.0422-.0756-.0802-.1173-.1183-.0684-.0624-.1373-.1253-.1745-.2083-.0586-.1307.0199-.2014.0981-.2719.0416-.0375.0832-.0749.104-.1213.271-.5744.7044-1.028 1.1373-1.481.0928-.0972.1857-.1944.2769-.2927.1496-.1633.3217-.3117.4863-.4527.1347-.1113.2844-.193.4714-.1039.1945.0965.2319.2672.2395.4601.0074.3117-.0749.6085-.1721.898-.2168.6247-.5255 1.1947-.8374 1.7705l-.098.1812-.005.0094c-.1294.2428-.1967.3691-.1923.4929.0046.1341.0934.2653.2784.5386l.0087.0129c.05-.0827.1001-.1565.1481-.2274v-.0001h.0001c.0597-.0882.1163-.1718.1661-.2622.404-.7421.7857-1.4991 1.0625-2.3006.2768-.8015.4863-1.6178.4339-2.47868-.0299-.4527-.217-.58628-.6584-.44528-.2693.08164-.4714.25975-.6734.44528-.6441.59688-1.2174 1.25668-1.7909 1.91668-.2393.2754-.4787.5508-.7232.8217-.0674.0742-.1272.1559-.1496.2523-.0898.3414-.202.3859-.5088.2004l-.0301-.0173c-.1312-.0756-.2579-.1486-.4039-.1831-1.0102-.2078-2.0203-.282-3.0454-.0964-.374.0593-.7257.1336-1.0399.3488-.045.0296-.0899.0519-.1347.0667-.1871.0743-.3293.0149-.3442-.1855-.015-.1781-.1123-.2894-.217-.4082-.1647-.1929-.3368-.3858-.5089-.5788-.1567-.1736-.3113-.3485-.4657-.5233h-.0001c-.4792-.5424-.9569-1.083-1.4945-1.5769-.2096-.19293-.4265-.37104-.7108-.44525-.3892-.09648-.5687.00742-.5912.40817-.0149.36358-.0149.73468.0524 1.09828.247 1.3952.8306 2.6568 1.5265 3.8739l.001.0019c.0595.1108.1268.236.2534.3246.0188-.0415.0463-.0788.0735-.1157.0701-.0952.1379-.1872.0462-.337-.3783-.6068-.6242-1.2711-.87-1.9348-.0848-.2292-.1696-.4582-.2598-.6848-.0973-.2524-.1198-.5269-.0899-.7941.0374-.4156.3367-.5492.6735-.3117.1121.0816.2169.1707.2992.2746l.0629.0777c.3754.4633.7477.9227 1.0595 1.4288.0707.1241.1494.2444.2273.3635.0292.0447.0584.0892.0869.1337.0524.0742.0973.1336.2095.0965.1049-.0371.1946-.0075.2394.1039.043.1065-.0305.1791-.0959.2437l-.0088.0086c-.5462.5269-.9278 1.1725-1.227 1.8553-.3068.705-.449 1.4471-.5388 2.204-.015.1633.0224.2449.202.2672.1674.0184.3399.0573.5091.0954.035.0079.0699.0157.1045.0234.4341.0933.872.194 1.3083.2943.1879.0431.3754.0862.5623.1287.1047.0222.202.0594.187.1855-.015.1336-.1271.1484-.2244.1262-.1738-.0383-.2147.0661-.256.1715-.0068.0172-.0135.0344-.0209.0511-.1646.3637-.4115.6308-.823.7198-.5014.1114-.9727.0891-1.4142-.2968-.015.5121-.0599.9722-.1421 1.4249-.0226.1261 0 .2671.0224.4007.0973.6085.1121 1.2171-.015 1.8256-.1497.7199-.2394 1.4546-.1571 2.1893.0897.7792.015 1.5362-.1123 2.3005-.0598.3562-.0898.705-.0598 1.0612.0453.5794.0771 1.1622.0542 1.7461.7589.7099 1.6078 1.3071 2.4598 1.9065l.0896.0631c.6884.4898 1.4291.8682 2.1774 1.2467.1496.0742.2694.0817.4339-.0148.2918-.1707.6211-.2598.9503-.0965.1795.0891.3142.1039.434-.0742.0189-.0235.0468-.0411.0743-.0583.0159-.01.0316-.0199.0454-.0308 1.2795-.9647 2.529-1.9517 3.6364-3.1242.2245-.2376.3068-.4528.2694-.7719-.0973-.8757-.1272-1.7513-.1122-2.6271h.0204Zm-4.944-7.6575c.1871-.2227.4265-.3192.7109-.3117.4489.0074.7781.2968.8155.7421.015.2152.0299.4453-.0524.6531-.0748.1855-.0523.2894.1273.423.3666.2894.5536.6753.5237 1.1577-.015.1929-.0598.3784-.1945.5046-.1796.1633-.2769.3785-.3666.5789-.2096.4526-.5912.6531-1.0401.7272-.5014.0743-.9802-.0519-1.4067-.3265-.2245-.141-.3816-.3488-.4564-.6011-.0374-.1262-.0898-.2078-.202-.282-.4265-.2894-.5387-.7718-.2844-1.2171.0823-.1484.1796-.3043.3068-.4082.1946-.1484.2096-.2968.1422-.5045-.0899-.2821-.0299-.5567.0674-.8239.1945-.5416.6434-.6975 1.1448-.4081.0235.0117.0492.0275.078.0453h.0001c.0259.016.0545.0336.0864.0512Z" clip-rule="evenodd"/>
  <path fill="#F3F3F3" d="M32.8535 29.9217c.7706-.4007 1.5413-.8089 2.3569-1.1354l.9559-2.1094 1.1467-4.7106c-2.5141.8979-5.0132 1.8404-7.4151 3.0204-1.1223.5491-2.1849 1.1726-3.1201 2.0112-.2768.2448-.3966.4822-.3293.8533.0599.3044.0225.6308.0375.9499.0074.1188.0224.245.0298.3636.0076.1485.0674.2079.232.1856.2469-.0297.4863.0297.7258.1039.2544.0743.419.2374.5088.4898.0749.2004.0823.4082.0674.616-.0075.1409.0149.2301.1496.2968.3592.1707.636.4304.7633.8089.0448.141.1346.1559.2543.1188.3591-.1262.7333-.2152 1.0625-.4156.8455-.5047 1.6985-.9945 2.574-1.4472Zm-18.6606 2.9505c.1198.0519.2021.0817.2769.1113.1347.0519.2769.0594.3667-.0742.0973-.141.0074-.2523-.0973-.3488-.1198-.1039-.2395-.2078-.3592-.3191-.4863-.4452-.2768-1.2542.1796-1.5362.1122-.0667.1945-.0965.2843.0149.0225.0297.0524.0519.0749.0816.9428 1.0538 2.125 1.8182 3.3072 2.5677.5387.3414 1.0924.6679 1.691.9054.1497.0594.217.1336.1871.2968-.03.1336-.0225.2672.0299.4007.0524.1411-.0225.1782-.1422.1856-.1945.0222-.389.052-.5911.052-.7482.0148-1.4965.1707-2.2447.1039-.7632-.0743-1.5039-.2376-2.1998-.5789-.247-.1188-.4639-.2746-.6286-.4972-.3217-.4156-.3292-.8608-.1347-1.3655Z"/>
  <path fill="#F3F3F3" d="M22.7957 34.7408c-.1122-.0149-.2619.1038-.3666.0073-.0748-.0742-.0823-.2226-.1273-.3339-.0148-.0445-.0374-.0965-.0672-.1336-.1049-.1261-.03-.1929.0748-.2598.6509-.4007 1.2271-.8979 1.8481-1.3431.7557-.5567 1.4216-1.2097 2.0502-1.8999.202-.2152.3516-.4749.3367-.7866-.0075-.1262.0524-.1781.1796-.1633.1197.0149.2468.0297.3665.0594.3742.089.5313.4007.3667.7495-.0673.141-.1571.2746-.232.4156-.0523.1039-.0747.2078.03.2969.0973.0815.202.0668.3068.0148.0074-.0074.0224-.0074.0299-.0148.0898-.0446.1422-.1856.2319-.1559.1347.0445.262.1336.3742.2227.2694.2152.3667.4675.2694.7347-.1123.2968-.2919.5639-.5313.7866-.4714.4378-1.0325.7124-1.6237.9202-.9877.3414-1.9754.6754-3.0153.846-.1572.0223-.3218.0372-.5014.0372Zm-1.6059.3957c-.0374-.0074-.1047-.0074-.1645-.0148-.262-.0371-.4191-.1632-.449-.3637-.0299-.2004.1347-.4675.3517-.5491.4041-.1633.7781-.0445.9502.2968.1123.2152.0823.3266-.1048.475-.1421.1038-.3441.1632-.5836.1558Zm-4.5943-16.0574c-.1721.0075-.2918-.089-.2918-.2449-.0075-.1632.0823-.2671.2245-.2671.1721-.0075.2843.089.2918.2523 0 .1633-.0673.2523-.2245.2597Zm7.9079-.2348c-.0373.1188-.0599.245-.202.2746-.1347.0297-.2618-.0964-.2618-.2375.0074-.1484.0972-.2226.2318-.23.1198-.0074.2096.0668.232.1929Z"/>
  <path fill="#F3F3F3" fill-rule="evenodd" d="M22.1075 22.5296c-.2843-.0223-.5537-.1929-.7557-.4824-.1422-.2078-.2133-.3117-.2816-.3098-.0682.0018-.1337.1094-.2647.3247-.202.3265-.5088.4898-.8978.4675-.5164-.0371-.7632-.5269-.4789-.9648.1048-.1633.2544-.2968.4116-.4156.2468-.1854.2618-.2226.1571-.5269-.0674-.2003-.1273-.3932-.1123-.6085.0374-.4675.4041-.6605.8082-.4378.0377.0208.0707.0463.1031.0712.0253.0195.0501.0387.0764.055.1497.089.2768.0964.3666-.0817.1123-.2152.3068-.2227.5088-.2004.2245.0223.3517.1559.4341.3562.0448.1113.0373.2152-.0076.3191-.03.0746-.062.1473-.0939.2199v.0001c-.0317.072-.0633.144-.0932.2179-.1421.3043-.1271.3711.1871.5046.2619.1113.4639.2746.5762.5418.202.4601-.0823.935-.6435.9499Zm-1.6646-2.5034c.0082.0054.0213.0099.0359.0148.0252.0085.0545.0184.0688.0372.0972.1262.1795.2672.1945.4304.0075.0742-.0299.141-.1123.1708-.0672.0222-.1197-.0075-.1645-.052-.1197-.1262-.2095-.2746-.1871-.4602.0075-.0741.0524-.1261.1647-.141Zm.9091.2653c-.0073.0216-.0137.0409-.0196.0566-.0225.1261-.0225.2227.0822.2523.1197.0445.1871-.0296.2245-.1262.0375-.1039.0749-.2078.0973-.3117.015-.0741-.015-.1409-.0898-.178-.1047-.0445-.1721.0148-.2095.0964-.0385.0711-.0649.1501-.0851.2106Z" clip-rule="evenodd"/>
  <path fill="#F3F3F3" d="M19.9917 22.8642c.5387-.0593.5686-.0742 1.1298-.6086.2993.386.6734.6234 1.1822.5863-.1496.4453-.4788.6679-.9802.6828-.5537.0074-1.1972-.1336-1.3318-.6605Z"/>
</svg>
