<svg xmlns="http://www.w3.org/2000/svg" fill="none" viewBox="0 0 42 42">
  <circle cx="21" cy="21" r="20" fill="#E42E95"/>
  <path fill="#F3F3F3" fill-rule="evenodd" d="M20.1713 12.6647c-.1624.13-.3574.3575-.4874.7799-.13.4225-.8449 2.5022-1.7548 5.1019h6.0768c-.9099-2.5997-1.6248-4.6794-1.7548-5.1019-.13-.4224-.325-.6499-.4874-.7799-.1625-.13-.39-.2275-.8124-.2275-.4225 0-.6175.0975-.78.2275Zm-8.9689 5.8818h4.127c1.0074-2.9571 1.8848-5.4269 2.0148-5.8818.2599-.7799.6824-1.4623 1.3323-1.9498.6499-.4874 1.4299-.7149 2.2423-.7149.8124 0 1.5923.195 2.2422.7149.6499.4875 1.0724 1.1699 1.3324 1.9498.1624.4549 1.0073 2.8922 2.0147 5.8818h4.192c.6825 0 1.2349.5525 1.2349 1.2349 0 .6824-.5524 1.2349-1.2349 1.2349H11.2024c-.6825 0-1.2024-.5525-1.2024-1.2349 0-.6824.5524-1.2349 1.2024-1.2349Zm0 4.8745c-.6825 0-1.2024.5524-1.2024 1.2348 0 .6825.5524 1.2349 1.2024 1.2349h1.6248l-.6499 1.8848-.65 1.8848-.2599.7149c-.2275.6499.1299 1.3323.7474 1.5598.6499.2275 1.3323-.13 1.5598-.7474l.26-.7149.6499-1.8848c.26-.7799.5849-1.6898.9424-2.6972h11.1137c.325.9749.6499 1.9173.9424 2.6972l.6499 1.8848.26.7149c.2275.6499.9099.9749 1.5598.7474.65-.2275.9749-.9099.7474-1.5598l-.2599-.7149-.6499-1.8848-.65-1.8848h1.6248c.6825 0 1.2349-.5524 1.2349-1.2349 0-.6824-.5524-1.2348-1.2349-1.2348H11.2024Zm18.2954 7.3116 1.1374-.3899-1.1374.3899Zm0 0-1.1374.39 1.1374-.39Zm-17.0606 0 1.1374.39-1.1374-.39Zm0 0-1.1373-.3899 1.1373.3899Z" clip-rule="evenodd"/>
</svg>
