<svg xmlns="http://www.w3.org/2000/svg" fill="none" viewBox="0 0 36 36">
  <rect width="36" height="36" fill="#E4B060" rx="18"/>
  <path fill="#030303" d="M26.7798 26.3267c-2.3798 1.754-5.8291 2.6899-8.7989 2.6899-4.1642 0-7.913-1.5402-10.7491-4.1018-.22283-.2014-.02318-.4759.24421-.319 3.06069 1.7808 6.84519 2.8521 10.75439 2.8521 2.6365 0 5.5368-.5455 8.2036-1.6774.4028-.1711.7398.2638.3458.5562Z"/>
  <path fill="#030303" d="M27.7651 25.195c-.3031-.3886-2.0108-.1836-2.7773-.0927-.2335.0285-.2692-.1747-.0588-.3209 1.3601-.9572 3.5919-.6809 3.8522-.36.2602.3226-.0678 2.5598-1.3459 3.6276-.1961.1639-.3833.0766-.2959-.1409.287-.7166.9305-2.3227.6257-2.7131Zm-8.2032-7.8691v-.549c-1.8325 0-3.7684.3922-3.7684 2.5527 0 1.0945.5668 1.836 1.5401 1.836.7131 0 1.3512-.4385 1.7541-1.1515.4991-.8771.4742-1.7006.4742-2.6882Zm2.5562 6.1785c-.1675.1498-.41.1605-.5989.0606-.8414-.6988-.9912-1.0232-1.4546-1.6899-1.3905 1.419-2.3745 1.8432-4.1785 1.8432-2.1319 0-3.7933-1.3155-3.7933-3.9502 0-2.0571 1.1159-3.4583 2.7024-4.1428 1.3762-.6061 3.2978-.713 4.7667-.8806v-.328c0-.6025.0463-1.3155-.3066-1.8361-.3102-.467-.902-.6595-1.4226-.6595-.9661 0-1.8289.4955-2.0392 1.5223-.0428.2282-.2104.4528-.4386.4635l-2.46-.2638c-.2067-.0464-.4349-.2139-.3779-.5312.5669-2.9806 3.2586-3.87899 5.6687-3.87899 1.2336 0 2.845.328 3.8183 1.26209 1.2336 1.1516 1.1159 2.6882 1.1159 4.3602v3.9503c0 1.1872.492 1.7077.9555 2.3495.164.2281.1997.5026-.0071.6738-.517.4314-1.4368 1.2335-1.943 1.6828l-.0072-.0072Z"/>
</svg>
