<svg xmlns="http://www.w3.org/2000/svg" fill="none" viewBox="0 0 42 42">
  <circle cx="21" cy="21" r="20" fill="#579BF0"/>
  <circle cx="21" cy="20.5" r="4.5" stroke="#F3F3F3" stroke-width="3"/>
  <path stroke="#F3F3F3" stroke-width="3" d="M10.5 17.5v-2.3949c0-.372.2065-.7133.536-.8859l9.5-4.97615c.2906-.15222.6374-.15222.928 0l9.5 4.97615c.3295.1726.536.5139.536.8859V17.5m0 6.5v2.3949c0 .372-.2065.7133-.536.8859l-9.5 4.9761c-.2906.1523-.6374.1523-.928 0l-9.5-4.9761c-.3295-.1726-.536-.5139-.536-.8859V24M21 25.5v7"/>
</svg>
