<svg xmlns="http://www.w3.org/2000/svg" fill="none" viewBox="0 0 42 42">
  <path fill="url(#a)" d="M41 21C41 9.94397 32.0345 1 21 1 9.94397 1 1 9.94397 1 21c0 11.0345 8.94397 20 20 20 11.0345 0 20-8.9655 20-20Z"/>
  <path fill="#F3F3F3" d="M34.6952 15.417c-.0862.4957-.1724.7328-.3017.9914-.1294.3017-.2587.625-.388 1.3147-.0431.2586-.0862.4741-.1077.6465v.0216c-.0431.2801-.0647.4741-.1725.7974-.0862.2802-.237.7327-.6034 1.2069-.3017.3879-.7974 1.056-1.4655 1.1422-.0647 0-.1724 0-.2371-.0215-1.8965-.9699-3.5129-1.6811-4.0733-1.8319-.6465-.194-.5603-1.6164-.4956-2.8664.0431-.5604.0646-1.0991.0431-1.5517-.0863-1.5949-.3664-3.319-1.7457-4.1595-.819-.4957-1.8966-.6466-2.9095-.6466.1939-.0862.3879-.2155.625-.3448.6034-.34483 1.3362-.77586 2.0905-.86207.2371-.02155.4741-.0431.7112-.0862 1.4871-.17242 2.7802-.32328 4.1379.15086.625.21552 1.875.90521 2.1983 1.57331.2371.4526.625.8189 1.3793 1.5301.4095.3664.6681.5819.8621.7543.2802.2156.3233.2802.4095.4311.2586.5172.1724 1.056.0431 1.8103Zm-6.8671 6.5375c.0862.0215.1293.1293.0646.2155-.1939.3017-.431.7327-.7112 1.2284-.1293.2371-.2586.4742-.3664.6466-.3663.625-.3879 1.1638-.4094 1.5733-.0216.4526-.0431.6465-.3233.8189-.2155.1509-.4526.194-2.0043.4311-.2802.0431-.388.0862-.4957.1508-.0216.0216-.0647.0216-.0862.0431-.0862.0431-.1724-.0431-.1724-.1293.0215-.2155.0215-.4957.0215-.862v-.0647c0-.3017 0-.5603-.0215-.7543-.0216-.3879-.0216-.5604.0862-.7328.1293-.2155.237-.2801.3879-.3879.2371-.1509.5603-.3448 1.0129-.9914.2587-.3448.3018-.5388.3449-.6896.0215-.0647.0215-.0862.2155-.2371.1939-.1509.8189-.625 1.6164-.4957.2586.0431.5387.1293.8405.2371Zm-6.1939 7.164c-.0431.0431-.0646.0647-.1293.0647-.1724 0-.2801-.0431-.3448-.1293-.1509-.194-.1293-.5819-.1078-.819l.6682-.1724c.0431.3664.0646.8621-.0863 1.056Zm.0474-2.3836c-.0215.0862-.0215.1939-.0215.3232v.4957c-.2155.0647-.3879.0647-.6035.0647v-.5604c0-.1293 0-.3232.0216-.3879.0646 0 .1293-.0215.194-.0431.1293-.0215.3232-.0647.431-.0431 0 .0431 0 .1078-.0216.1509Zm-1.2053 2.187c-.0216.3448-.1293.7543-.4526.8189-.1509.0216-.2155-.0215-.2586-.0646-.2155-.194-.2371-.7974-.2155-1.2285.1508 0 .3232-.0215.5387-.0646.1294-.0216.2587-.0647.3664-.0862.0216.1724.0431.3879.0216.625Zm-.1538-1.2177-.7112.2586c.0431-.2801.0862-.6681.1078-.9267.0215-.1724.0646-.2371.0862-.2586 0 0 .0215-.0216.0431-.0216h.0431l.4526-.0215c-.0216.2155-.0216.6896-.0216.9698Zm-1.1651-.2139c-.0431.1078-.0862.4095-.1078.625l-.8836-.0215c.0431-.2802.1293-.5604.194-.7759.0862-.2155.1508-.3879.2371-.431.0862-.0431.2801-.0647.4094.0431.194.1293.2371.3233.1509.5603Zm-.3175 2.7139c-.0646.0862-.1508.1509-.2371.1509-.1077.0215-.1724-.0216-.237-.0647-.2802-.2586-.2586-1.0991-.2371-1.5086.3664-.0862.7759-.1509.9698-.1724 0 .3233.0216 1.2069-.2586 1.5948Zm-1.1692-2.1571c-.0431.1078-.0862.2156-.1078.3233-.1078.0431-.431 0-.7543-.0646l.2155-1.4009c.3664-.1078.7974-.1293.8836-.0216.1509.1509-.1293.8621-.237 1.1638Zm-.407 2.3753c-.1724.2155-.431.3233-.7974.3017-.2586 0-.3448-.1077-.3879-.1724-.194-.3233 0-1.0776.194-1.5517l1.2069.0647c.0215.0862.0215.1939.0215.3017.0216.3664-.0215.7974-.2371 1.056Z"/>
  <path fill="#F3F3F3" d="M27.2585 20.2419c-1.0992-.3017-.9914-1.8965-.9052-3.4483.0216-.5388.0647-1.056.0431-1.487-.0862-1.444-.3233-3.0173-1.4871-3.7285-1.25-.7543-3.2974-.5819-4.5474-.431-.4526.1293-.8836.2371-1.2284.2155-.7328-.0431-1.3147-.3448-1.8319-.625-.3879-.2155-.7328-.4095-1.0776-.4095h-.0431c-.9698.0647-1.4224.3017-1.8319.6681-.1078.0862-.2371.3449-.6465 1.5302-.2156.6034-.2371.9267-.2802 1.2284-.0431.2802-.0647.5819-.2155 1.0345-.1078.3018-.194.5604-.2587.819-.1939.6681-.3663 1.2069-.8405 1.8534-.0646.0647-.1293.194-.2155.3018-.1078.1724-.2371.3879-.431.625-.1293.1724-.4095.8189-.388 1.0129.0216.3233.1294.5172.2371.7328.1078.2155.2586.4741.2802.8405v.0646c.0431.5604-.0431.8405-1.0992 1.7888-.66806.6035-1.16375 1.1854-1.48702 1.6164-.02156.0431 0 .0862.06465.0862h.21552c.25862.0216.51724.1293.68965.3233.02155.0431.0862.0431.1293.0215.1724-.0646.3664-.0646.5388-.0431.2155.0216.4526.0862.6035.2371.0431.0431.1077.0647.1724.0431.1724-.0431.3663-.0431.5388.0216.1293.0431.2586.1293.3448.237.0646.0647.1724.0862.2586.0431.0431-.0215.1078-.0646.1724-.0862.2371-.0862.4957-.0431.7112.0431.1078.0431.2155.0647.3233.1509.1724.1293.3017.3017.3664.4957.0431.1077.194.1508.2802.0646.1724-.1293.3017-.1508.431-.1077.0646.0215.1078.0646.1509.1293.0646.0862.1724.1724.2586.1293.3664-.1078.7974-.0431 1.1207.1293.1077.0647.237.1509.3017.2802v-.0647c0-.0215.0215-.0431.0431-.0646l.0646-.0216c.1725-.0646 1.0776-.3233 1.4225.0431.0215.0216.0431.0216.0646 0 .0431-.0431.0862-.0862.1078-.0862.237-.1293.625-.1508.8836.0862.0431.0431.1293.0216.1724-.0215.0216-.0431.0431-.0647.0862-.0862.0862-.0862.2155-.1078.3448-.1078l.4957-.0215c.1293 0 .5173-.0432.625-.0647h.0216c.0431 0 .1077-.0216.1724-.0431.2371-.0431.5172-.1078.7328 0 .2155.1078.1939.3448.1724.5603 0 .0862-.0216.1725-.0216.2587v.1293c0 .1939 0 .3663-.0215.4957l.0215.1077v.0216c.0216.0862.1293.1508.194.0862.1724-.1078.3448-.2371.4095-.3233v-.0216c0-.0215.0215-.0646.0431-.1508.0215-.194.0646-.5604.0646-1.3147v-.0862c0-.2801 0-.5172-.0215-.7112-.0216-.4095-.0431-.7327.1724-1.056.194-.3233.3879-.4311.5819-.5604.2155-.1293.4526-.2801.8621-.8405.1939-.2802.2155-.3879.237-.4741.0431-.2155.1078-.3448.4311-.5604.2586-.1939 1.0129-.7758 2.0474-.6034.3448.0646.8836.2371 1.4439.4526.0216 0 .0431.0215.0647.0215h.0215c.4957.194.9483.4095 1.2716.5819.0647.0431.1509.0216.2155-.0431.1078-.1293.2155-.1939.3233-.2802.0431-.0215.0862-.0431.1077-.0646.0216 0 .0216-.0216.0216-.0216.0862-.0646.0862-.237-.0216-.2801-1.4439-.7112-2.8232-1.1423-3.2758-1.2716Zm-10.3879.3233c-.3449 1.4655-2.6294 3.1034-3.6638 3.1034h-.0647c-.0215 0-.0431 0-.0646-.0215h-.0432c-.1939-.0647-.4525-.194-.6465-.3879-.1293-.1294-.2371-.3018-.2802-.4526 0-.0216-.0215-.0647-.0215-.0862-.0647-.2587-.1293-.5604.0862-1.0776.0215-.0647.0646-.1293.0862-.194 0-.0215.0215-.0431.0215-.0646.0216-.0647.0431-.1078.0647-.1509.0215-.0862.0646-.1509.0862-.194 0-.0215.0216-.0431.0216-.0646.0646-.1724.0646-.2371.0862-.3017 0-.0432.0215-.1294.0431-.2156.0646-.2801.1077-.5172.1293-.7112.0431-.3664.1077-.6896.3017-.9914.0431-.0431.0647-.0862.1078-.1293l.0431-.0431.0431-.0431c.0431-.0431.1077-.0646.1508-.0862.0216 0 .0431-.0215.0647-.0215.0431-.0216.0862-.0216.1293-.0431.194-.0431.4095-.0431.6681-.0216.2802.0216.5388.0647.7543.1293.194.0431.3664.1078.4957.1724.0215 0 .0215.0216.0431.0216.0215.0215.0431.0215.0862.0431.0431.0215.0647.0215.1078.0431.0431.0216.0862.0431.1293.0647l.0431.0215c.1508.0647.3017.1509.4095.2371.0646.0431.1077.0862.1508.1293.0216.0215.0431.0215.0431.0431.0216.0215.0216.0215.0431.0431.4526.3879.4311.9267.3449 1.25Zm1.0775-5.5819-.0431.2586c-.1077.6035-.3448 1.4224-1.2069 1.6379-.8405.194-1.0344.2371-1.6163.2802h-.0431c-.4311 0-1.2716-.2802-1.4225-.9483-.0862-.431.1078-.7543.4095-1.2715.0431-.0862.1078-.1724.1724-.2802.4311-.7112.5819-1.2284.7112-1.6379.1294-.4095.2371-.7328.5173-1.0129.0646-.0647.1293-.1294.2155-.1725.0431-.0431.1078-.0646.1724-.1077.0862-.0431.1724-.0647.2586-.1078.194-.0646.4095-.0862.6035-.0862.4095 0 .819.1078 1.0991.3448.1293.1078.3233.3018.4311.9268.0431.3232-.0431.9051-.2587 2.1767Zm6.1854 1.7241c-.3017.5173-.4526.7974-.7112 1.013-.5173.431-1.0992.5172-1.5949.5172-.3448 0-.6465-.0646-.8405-.0862-.5172-.0862-1.4439-.2586-1.7672-1.0129-.0647-.1509-.0647-.2371-.0647-.3664 0-.1078 0-.3233-.0646-.7759v-.0215c-.0216-.2155-.0431-.4526 0-.7543v-.0431c.1724-.9052.237-1.0345.2586-1.1207.0862-.1724.3017-.2586.4957-.1509.1724.0862.2371.3017.1724.4741-.0215.0432-.0646.2371-.2155.9483v.0431c-.0431.194-.0216.3449 0 .5388v.0216c.0646.5172.0646.7327.0646.862v.0862c.0647.1509.194.2371.3449.3233.1077.0431.2155-.0431.1939-.1508-.1508-.7974-.1508-1.7242.1509-2.3061.1078-.1939.2802-.4957.4526-.7974.0215-.0215.0431-.0646.0431-.0862.0215-.0215.0215-.0431.0431-.0646.0862-.1294.1509-.2371.2155-.3449 0-.0215.0216-.0215.0216-.0431l.0215-.0215c.0216-.0216.0216-.0431.0431-.0647 0 0 0-.0215.0216-.0215l.0215-.0216c0-.0215.0216-.0215.0216-.0431.0646-.0862.1293-.1724.1724-.2586.0862-.1078-.0216-.2371-.1293-.194-.3018.1293-.4957.2802-.5388.3017-.1509.1294-.3879.1078-.5173-.0646-.1293-.1509-.1077-.3879.0647-.5173.194-.1508 1.1853-.862 2.3707-.5387.8621.237 1.2931.9051 1.4655 1.1422.1293.194.5603.7974.5388 1.6595 0 .625-.2586 1.0991-.7543 1.9396Z"/>
  <path fill="#F3F3F3" d="M16.4259 12.2812c-.0647.1509-.1294.3233-.2156.5173-.1724.4526-.3879.9698-.4957 1.1638-.1724.3233-.3017.5388-.4094.6896-.1293.194-.2156.3449-.3018.5604-.1293.3664-.1508.7758-.0646 1.2284-.2371-.0215-.6035-.1724-.6466-.3879-.0215-.1509.0647-.3017.3233-.7543.0431-.0862.1078-.194.1724-.2802.4526-.7758.6466-1.3577.7759-1.7888.1508-.4526.2155-.6465.4526-.8189.1508-.0647.2801-.1078.4095-.1294Zm-.4532 16.2756c-.2586.5173-.5603.9914-.7543 1.2285-.1724-.431-.4526-1.444-.3664-2.2414v-.0646c.0216-.2587.0862-.4742.2155-.6681.0863-.1294.3018-.194.5388-.194.1725 0 .3664.0431.5388.1293.0862.0431.2155.1509.2155.431.0432.388-.1508.9052-.3879 1.3793Z"/>
  <path fill="#F3F3F3" d="M29.7615 22.7994c.0216.0215.0216.0431.0216.0646-.0647.1509-.1724.2586-.2802.3879-.1293.1509-.2802.3233-.4095.6035-.194.3879-.2586.7328-.2802 1.6379-.0431 1.0561 0 1.638.0431 2.069.0216.4095.0431.6681-.0215 1.0776-.1509.8189-.4957 1.3577-.9483 2.0474-.5603.8621-1.1207 1.7457-2.0689 2.0259-.0863.0215-.0863.0215-.3449.0215-.2155 0-.5819 0-1.25.0216-1.25.0431-1.875.0646-2.3922.1724-.5604.1077-.8405.237-1.1423.3448-.2586.1078-.4956.194-.9482.3017-.2802.0647-.6897.1078-2.0906.1293-1.4655 0-2.3491 0-3.4913-.1293-1.5949-.1724-2.3923-.2801-2.9311-.5603-1.24997-.6681-1.78876-1.875-2.65083-3.8578 0-.0215.02155-.0431.04311-.0431.0431.0216.0862.0431.12931.0647.0431.0215.0862.0215.10775.0215.08621.0216.17242.0216.25862 0 .02156 0 .02156 0 .04311-.0215.02155 0 .0431 0 .0431.0215.06466.1509.15086.2802.30173.3664.15086.0862.32327.0862.47413.0862.17237 0 .34487-.0215.51727-.0431.0862 0 .1724.0431.2155.1078.1509.3879.3448.6465.6465.6896h.0647c.0647 0 .1724-.0215.3017-.1077.1078-.0862.2802-.0216.3664.0862.0647.1077.1509.1724.2371.237.3017.3018 1.0345.4526 1.6379.4526.3233 0 .625-.0431.7974-.1293.2586-.1293.2586-.3017.2371-.3879-.0216-.1293-.0431-.2802-.0647-.4095 0-.0215.0216-.0215.0216 0 .0431.0862.0862.1724.1939.194h.0432c.1724 0 .431.0646.4741.2155.0215.0862.0646.1508.1077.2371.1078.1508.3018.3448.7113.3663h.0215c.4741 0 .8405-.1508 1.0776-.4526.0215-.0215.0215-.0431.0431-.0646.0862-.1293.3448-.1293.4526-.0216.1293.1078.2802.1725.4526.1725h.0862c.2155-.0216.3879-.1294.5388-.3233.0862-.1293.1508-.2802.1939-.4526.0216-.0431.0862-.0647.1293-.0216.0863.0862.2371.1725.4526.1725.0431 0 .1078 0 .1724-.0216.4095-.0862.625-.431.7113-.7974 0-.0216.0215-.0216.0215 0 .1078.1293.3017.2802.625.2802h.0431c.1724 0 .3233-.0862.431-.2156.1294-.1724.1725-.431.194-.6681 0-.0646.0431-.1293.1293-.1724.3448-.1508.7759-.4741.9052-.6896 0 0 0-.0216.0215-.0216.0216-.0646.0862-.1077.1293-.1077.2802-.0431.388-.1078.4957-.1509.0862-.0431.1509-.0647.3664-.1078 1.5733-.237 1.875-.3017 2.2198-.5172.5173-.3448.5388-.819.5604-1.2716.0215-.3879.0431-.8189.3448-1.3362.1078-.1939.2371-.4094.3664-.6681.2371-.431.5603-1.0344.7974-1.3577.0431-.0647.1293-.0862.194-.0431.5388.1939 1.0129.4095 1.0991.4957Z"/>
  <path fill="#F3F3F3" d="M14.4618 27.5035c-.0646.5388-.1077 1.2716-.0215 2.2198.0215.2587.0646.5388.1077.819-.0646.0431-.3017.1078-.6896.0862-.5604-.0216-1.1207-.1509-1.2931-.3448l-.0216-.0216c-.1293-.1077-.2371-.1939-.2371-.3879 0-.0647.0216-.1293.0862-.2371.0432-.0431.0863-.1077.1294-.1939.0862-.1294.2155-.2802.3448-.4957.3664-.6035.4957-.7974.6681-1.0345.0215-.0216.0215-.0431.0431-.0647.1078-.1293.2155-.3017.4095-.5819.1293-.1939.237-.3663.3448-.4957.1509-.2155.2586-.3232.3233-.3879 0 .0862-.0216.2155-.0431.3448-.0862.2587-.1293.4957-.1509.7759Zm-.2795-8.4995c0 .0216 0 .0216 0 0-.0862.1078-.1724.2371-.2802.4526-.2802.6035-.2802.9483-.2802 1.2285 0 .1508 0 .2586-.0431.3879-.0215.0862-.0646.194-.1293.3017-.1508.3664-.3664.8405-.2802 1.4871-.1293-.0647-.3232-.2155-.3663-.2802 0-.0431-.0216-.0646-.0216-.1077-.0431-.194-.0646-.3233.0431-.625.3448-.7759.3879-.9699.4095-1.1854 0-.0431.0215-.0862.0215-.1508.0647-.3018.1078-.5604.1294-.7759.0431-.3233.0862-.5388.1939-.6897.0431-.0646.1509-.0862.3017-.0862.0647 0 .1294 0 .2156.0216h.0215l.0647.0215Zm-.432 7.7156c-.0216-.194-.0431-.3664-.1293-.5604 0 0-.0216-.0431-.0216-.0646-.0215-.0216-.0215-.0431-.0431-.0647l-.0215-.0215c-.0216-.0216-.0216-.0216-.0432-.0216l-.0215-.0216c-.0216 0-.0216-.0215-.0431-.0215h-.0216c-.1077-.0431-.2155-.0862-.3448-.1078h-.1077c-.0216 0-.0431.0216-.0863.0216-.0215 0-.0215.0215-.0431.0215l-.0215.0216c-.0216.0215-.0216.0215-.0431.0431l-.0216.0215v.0216c-.0431.0647-.0862.1293-.1293.194-.1077.1508-.2155.3232-.3232.4741-.1078.1509-.194.2802-.3018.431-.0646.0862-.1077.1509-.1724.2371 0 .0216-.0215.0216-.0215.0431.0646.0216.1293.0216.1939.0431.1509.0216.3018.0431.4311.0647.3017.0431.625.0646.9267.0431h.0431c.0646-.1078.1724-.2371.2802-.4095.0646-.0862.1293-.1724.1724-.2586-.0647-.0216-.0862-.0862-.0862-.1293Zm-1.0958 1.2715c-.0215.2371-.2801.8405-.6896 1.4224-.3449.4742-.5604.6035-.6035.6035-.1724-.0216-.3233-.4311-.4526-.8405-.0431-.1725-.1077-.3233-.1293-.4742-.0862-.3017-.1077-.7327-.0862-.9914.3448.194.9483.2371 1.8104.2371.0431.0216.1077.0216.1508.0431Zm-.6045-1.937c-.1508.2371-.3017.4526-.4525.6682-.0863.1077-.1509.2155-.2371.3232-.0431.0647-.1078.1293-.1509.194-.1293-.0216-.237-.0647-.3664-.0862-.1077-.0216-.1939-.0647-.3017-.1078-.0215 0-.0431-.0215-.0646-.0215-.0216-.0216-.0431-.0647-.0647-.0862.0431-.0647.0647-.1509.1078-.2155.0646-.1294.1293-.2587.2155-.388.1293-.2155.2802-.4526.5172-.6034.0216 0 .0216-.0216.0431-.0216.0862-.0431.1724-.0862.2802-.1077h.1724c.0216 0 .0431.0215.0862.0215 0 0 .0216 0 .0216.0216.0215.0215.0431.0215.0646.0431-.0431-.0216.0431.0646.0431.0431.0431.1293.0647.1939.0862.3232Zm-1.1644-.6472c-.2802.2156-.4742.5173-.625.8406l-.2586.5172c0 .0215-.0216.0431-.0216.0431-.08621-.0216-.17241-.0431-.23707-.0647-.08621-.0215-.17241-.0646-.25862-.0862-.0431-.0215-.06465-.0431-.10776-.0646.08621-.1509.17242-.3017.28018-.4526.12931-.194.28017-.4095.43107-.5819.0646-.0647.1293-.1509.1939-.194.0862-.0431.1724-.0431.2802-.0215.1078 0 .2155 0 .3017.0431-.0215 0 0 .0215.0216.0215Zm-.4344 3.6551c-.0216.0215-.0216.0215-.0431.0431h-.0216c-.0646 0-.1293.0215-.1939.0215-.1293 0-.25864.0216-.38795 0-.06466 0-.12931-.0215-.17242-.0646-.0431-.0647-.06465-.194-.0862-.2802-.08621-.4741-.08621-.9483-.04311-1.4224.23707.0862.49569.1508.75428.1939-.0646.4311.0431 1.0561.0862 1.2285.0647.0862.0862.194.1078.2802Zm-.77522-3.7822c-.21551.2586-.40948.5388-.58189.8405-.06466.1078-.15087.2371-.21552.3664-.08621-.0216-.17241-.0647-.23707-.1078-.06465-.0431-.12931-.0862-.17241-.1293-.02155-.0215-.06466-.0431-.08621-.0646 0 0-.02155 0-.02155-.0216.02155-.0647.06465-.1078.06465-.1509.04311-.1077.08621-.1939.15087-.2801.10775-.1724.21551-.3449.34482-.5173.04311-.0646.08621-.1293.17242-.1508.06465-.0216.15086 0 .21551 0 .12931.0215.25862.1077.36638.2155ZM8.01733 26.399c.02155-.0216 0-.0216 0 0 .08621.0862.15087.1508.23707.2155.04311.0215.06466.0646.10776.0862v.0216c-.08621.3663-.15086.7543-.15086 1.1422 0 .0215-.02155.0215-.02155 0-.10776-.4526-.23707-1.1854-.17242-1.4655Zm1.06014.8203c-.04311.3233-.06466.6465-.04311.9698 0 .1724.02156.3448.04311.5388h-.17242c-.0431-.0215-.0431-.0215-.0862-.0431-.04311-.0215-.08621-.0862-.12931-.1509-.08621-.1508-.10776-.3232-.10776-.4956-.02155-.3233.02155-.6681.0862-.9914.04311.0215.10776.0431.17242.0646.08621.0431.15086.0862.23707.1078Z"/>
  <mask id="b" width="40" height="40" x="1" y="1" maskUnits="userSpaceOnUse" style="mask-type:luminance">
    <path fill="#fff" d="M41 21C41 9.94397 32.0345 1 21 1 9.94397 1 1 9.94397 1 21c0 11.0345 8.94397 20 20 20 11.0345 0 20-8.9655 20-20Z"/>
  </mask>
  <g stroke-miterlimit="10" mask="url(#b)" opacity=".8">
    <path stroke="url(#c)" stroke-width=".227457" d="M17.4649 43.3505c-1.4655 0-2.8448-.0862-4.0086-.1724l-.3233-.0216-.3232-.0431c-.1509-.0215-.3233-.0431-.5173-.0646-1.1207-.1293-3.2112-.3449-5.51723-1.4225l-.36638-.1724-.32328-.1939c-4.43965-2.5-6.07758249-6.2285-6.982755-8.2328-.064655-.1293-.129315-.2802-.193965-.431-.45259-.9267-.73276-1.7457-.96983-2.5216l-.0431-.1724-.0431-.1724c-.64656-2.2845-.79742-4.2457-.51725-6.2069.30173-1.9612 1.01293-3.7284 2.284487-5.6034l.646551-1.0561c.129311-.2155.215518-.4526.280173-.6896.495689-2.4569 1.616379-4.2026 2.176719-5.0431.15087-1.013.40949-2.00435.75432-2.97418l.0431-.15086.06465-.15087c0-.02155.02156-.06465.04311-.12931.25862-.75431.84051-2.5 2.32758-4.35344l.56035-.64656.58189-.51724C8.56406.872037 10.3313-.119343 12.2279-.679688c1.056-.323272 2.1551-.517242 3.2758-.581892h.2586c.194 0 .388-.02156.5604-.02156.6896 0 1.3793.06466 2.0689.17242.4311.06465.8621.02155 1.2716-.15086 1.1853-.49569 2.4138-.81897 3.6853-.99138.1078-.02156.194-.02156.2802-.04311.194-.02155.5173-.06465.9052-.10776.6681-.06465 1.7026-.15086 2.8017-.15086 2.1767 0 4.0517.28017 5.7328.86207l.1508.0431.1293.04311c3.7069 1.40086 5.5819 3.36207 6.9397 5.06465l.0647.08621.1939.17241c1.2285.94828 2.263 2.13362 3.0819 3.44828l.2586.40948.2156.43104c1.8103 3.68534 1.2284 7.11204 1.0129 8.38364l-.0216.0646c-.1508.9483-.4094 1.875-.7327 2.7802-.1293.8621-.3233 1.7241-.6035 2.5431-.4741 1.4655-1.1853 2.8664-2.0905 4.1164-.5172.7327-1.1207 1.444-1.7672 2.069-.2371.2155-.388.5172-.4311.8405-.0215.1939-.0646.3879-.0862.5819-.5388 2.8448-1.7672 4.8276-2.2845 5.625l-1.5301 2.1982c-1.8535 2.3061-4.0518 3.8147-6.7026 4.6337l-.6466.1939-.6896.1293c-.7974.1509-1.5948.2156-2.4138.2156h-.6681c-.3017 0-.6035.0646-.9052.1508-1.7672.5604-3.7069.819-6.0776.819Z" opacity=".8"/>
    <path stroke="url(#d)" stroke-width=".227457" d="M17.4631 41.8217c-1.4009 0-2.7586-.0862-3.8793-.1725l-.2586-.0215-.2587-.0431c-.1724-.0216-.3663-.0431-.5603-.0647-1.0991-.1077-2.90949-.3232-4.93535-1.2715l-.30173-.1509-.28017-.1508C3.04499 37.7699 1.60102 34.5156.738951 32.576c-.064655-.1293-.12931-.3018-.215517-.4526-.409483-.819-.668104-1.5948-.883621-2.2845l-.043103-.1509-.043104-.1293c-.560346-2.0474-.711206-3.7715-.452586-5.4741.258621-1.681.90517258-3.2543 2.02586-4.8923l.84052-1.3577c.15086-.2371.25862-.5173.30172-.7974.40949-2.3276 1.50862-3.9655 2.00431-4.7199l.06466-.0862.02155-.0431c0-.0215.02155-.0431.02155-.0646.02155-.1078.06466-.194.08621-.2802.12931-.9483.36638-1.89654.68965-2.80171l.04311-.12931.0431-.12931c.02155-.04311.02155-.08621.06466-.21552.23707-.71121.73276-2.19828 2.02586-3.7931l.47414-.56035.47413-.43103c1.27156-1.1638 2.80175-2.02587 4.43965-2.5.9483-.28018 1.8966-.45259 2.8879-.495693h.2156c.1724 0 .3232-.021552.4741-.021552.7112 0 1.4009-.193966 2.0905-.064655.5388.107758 1.0776.043103 1.5733-.172414.9267-.409483 2.1767-.5603447 3.5991-.75431.1078-.021552.194-.021552.2586-.043104.194-.021551.4957-.064655.8406-.086207.625-.064655 1.5948-.12931 2.6508-.12931 1.9828 0 3.6638.258621 5.1509.75431l.1293.043104.1078.043103C35.976 1.60614 37.5924 3.24407 38.864 4.86045c.0646.08621.1508.17242.1724.21552l.0215.02155.2371.21552.0215.0431c1.0992.84052 2.0259 1.875 2.7371 3.0388l.2155.34482.1724.36638c1.5518 3.16806 1.0776 6.07756.8621 7.30606l-.0215.0646c-.1509.9052-.388 1.7673-.7113 2.6293-.1077.819-.3017 1.638-.5603 2.4138-.431 1.2931-1.056 2.5216-1.8534 3.6423-.5388.7758-1.1854 1.487-1.875 2.112-.3233.3018-.5388.6897-.5819 1.1423-.0431.3233-.0862.625-.1294.9483-.4741 2.5215-1.5517 4.2456-2.0689 5.0215l-1.25 1.8104c-1.6595 2.1336-3.6207 3.5129-5.9914 4.2456l-.5388.1725-.5819.1077c-.6896.1293-1.4008.194-2.0905.1724h-.9698c-.3233.0216-.6466.0647-.9699.1724-1.5732.5173-3.4051.7544-5.6465.7544Z" opacity=".8"/>
    <path stroke="url(#e)" stroke-width=".213233" d="M17.4686 40.041c-1.3362 0-2.6509-.0863-3.75-.1725l-.2155-.0215-.2156-.0216c-.1939-.0215-.4094-.0431-.625-.0646-1.0344-.1078-2.6077-.2802-4.37496-1.1207l-.23707-.1078-.21552-.1293c-3.38362-1.8965-4.63362-4.6983-5.45258-6.5517-.06466-.1509-.15087-.3448-.21552-.4957-.36638-.7328-.60345-1.4224-.79741-2.069l-.04311-.1077-.02155-.1078c-.49569-1.7672-.625-3.2758-.409483-4.6983.215513-1.4439.797413-2.8017 1.788793-4.2456l.12931-.1725.12931-.1724c.08621-.1077.15086-.2155.23707-.3017l.49569-.9267c.17241-.3017.28017-.625.32328-.9698.32327-2.069 1.31465-3.5561 1.76724-4.2457.02155-.0431.06465-.0862.0862-.1078l.10776-.1509c.04311-.0862.08621-.1939.12931-.3232.04311-.1293.10776-.3233.15086-.4957.10776-.8836.32328-1.7457.625-2.58623l.04311-.10776.0431-.10776c.02155-.08621.06466-.15086.10776-.30172.21552-.66811.625-1.89655 1.72414-3.23276l.36638-.45259.38793-.34482c1.07756-.99138 2.37066-1.70259 3.77156-2.13363.819-.23706 1.6379-.38793 2.5-.43103h.5819c.7327 0 1.444.08621 2.1552.28017.6034.15086 1.25.08621 1.8103-.19396.9052-.43104 2.1121-.90518 3.5129-1.07759.0862-.02155.1724-.02155.2371-.0431.1724-.02155.4526-.06466.7974-.08621.5819-.06465 1.5086-.12931 2.4785-.12931 1.7672 0 3.2543.21552 4.5689.6681l.0862.04311.0862.0431c3.0173 1.14224 4.3535 2.62931 5.388 3.94397.237.28017.2586.32327.4095.47413l.1939.17242.0647.0862c.4957.38794 1.5086 1.18535 2.3922 2.62931l.1724.28018.1509.28017c1.3147 2.65091.9052 5.06461.7112 6.22841l-.0215.0647c-.1294.8405-.3664 1.681-.7113 2.4784v.0647c-.0862.7543-.2586 1.5086-.4956 2.2198-.3664 1.1423-.9052 2.1983-1.6164 3.1681-.5819.8405-1.2931 1.5949-2.0905 2.2414-.194.1509-.3449.3448-.4526.5604-.1078.2155-.1724.4525-.194.6896-.0215.4741-.0862.9483-.1724 1.4224-.4095 2.1767-1.3578 3.6854-1.8319 4.4397l-.9698 1.4224c-1.444 1.9396-3.1681 3.1896-5.2587 3.8362l-.431.1293-.4741.0862c-.5819.1078-1.1854.1509-1.7888.1509h-.7974l-.4957.0215c-.3448.0216-.6897.0647-1.013.194-1.487.4741-3.1896.6897-5.3232.6897Z" opacity=".8"/>
    <path stroke="url(#f)" stroke-width=".19903" d="M17.4624 38.2346c-1.2716 0-2.5431-.0862-3.5992-.1724l-.1508-.0215-.1509-.0216c-.2155-.0215-.4526-.0646-.6681-.0862-.9698-.1077-2.306-.2586-3.81466-.9483l-.17242-.0862-.17241-.0862c-2.86638-1.6163-3.92242-3.987-4.69828-5.7112-.08621-.1724-.17241-.3664-.23707-.5388-.32327-.6681-.53879-1.2931-.7112-1.8319l-.02156-.0862-.06465-.0646c-.84052-2.9742-.51724-5.0647 1.12069-7.4569l.08621-.1293.0862-.1293c.10776-.1294.21552-.2802.32328-.4095.15086-.194.30172-.4095.47414-.6035.10775-.1293.19396-.2801.25862-.431l.19396-.4741c.08621-.2156.12931-.4311.15086-.6466.17242-1.9181 1.09914-3.2974 1.55173-3.9871.0431-.0431.08621-.1293.10776-.1508l.10776-.1724.0431-.0431c.06465-.1078.17241-.3664.25862-.625.0431-.1725.12931-.4526.21552-.6897v-.0216c.0862-.7974.28017-1.5948.56034-2.3491l.02155-.0646.02156-.0647c.0431-.1293.0862-.23707.12931-.38793.19396-.5819.51724-1.57328 1.40084-2.67242l.2802-.34483.2802-.25862c2.0905-1.89655 4.4181-2.04741 5.1939-2.11207h.4526c.9267 0 1.8319.19397 2.694.56035.1508.06465.3233.08621.4741.08621.1724 0 .3233-.04311.4742-.12931.7974-.45259 2.2413-1.29311 4.0948-1.50863.0862-.02155.1724-.02155.2371-.02155.1724-.02155.431-.0431.7327-.0862.5604-.04311 1.4009-.10776 2.306-.10776 1.5733 0 2.8664.19396 3.9656.56034l.0646.02155.0647.02156c2.5862.96982 3.6853 2.19827 4.612 3.36206.2371.32328.3664.45259.625.71121l.1509.12931.1078.12931.0862.06466c.431.34483 1.25.96983 1.9827 2.15516l.1293.2155.1078.2155c1.056 2.1552.7112 4.0949.5388 5.1294v.0646c-.1293.7543-.3448 1.5086-.6466 2.2198l-.0215.0647c0 .0215 0 .0215-.0216.0646-.0215.0647-.0215.1294-.0215.194l-.0216.0862c-.0646.6466-.2155 1.2716-.431 1.875-.3233.9698-.7759 1.875-1.3793 2.694-.5819.8405-1.25 1.5302-1.9828 2.069-.3233.237-.5819.5387-.7758.9051-.194.3664-.2802.7543-.2802 1.1638 0 .4957-.0647 1.0129-.1509 1.5086-.3448 1.8535-1.1207 3.1035-1.6163 3.8578l-.7113 1.056c-1.25 1.7457-2.737 2.8664-4.5258 3.4268l-.0862.0215c-.1509.0431-.3017.0862-.4526.1078l-.1078.0215c-.4957.0862-.9913.1293-1.487.1293h-.8406c-.237 0-.5387.0216-.7974.0216-.3663.0215-.7112.0862-1.056.2155-1.2931.3879-2.8664.6034-4.8922.6034Z" opacity=".8"/>
    <path stroke="url(#g)" stroke-width=".184806" d="M17.4632 36.4364c-1.2285 0-2.4354-.0862-3.4699-.1724h-.1077l-.1078-.0215c-.2371-.0431-.4957-.0647-.7328-.0863-.9051-.1077-2.0258-.2155-3.23271-.7974l-.12931-.0646-.10776-.0647c-2.34914-1.3146-3.23276-3.2974-3.92241-4.8922-.08621-.194-.17242-.3879-.25862-.6035-.28018-.5603-.47414-1.1207-.625-1.5948l-.02156-.0646-.02155-.0647c-.68965-2.4569-.45258-4.0086.88362-5.9483l.06466-.0862.06465-.0862c.10776-.1509.21552-.2802.32328-.431.34483-.4526.68965-.9052 1.18534-1.444.10776-.1077.17242-.2802.19397-.431l.02155-.4957-.02155-.194v-.1939c.0431-1.5949.84052-2.7802 1.27155-3.4268.0431-.0646.10776-.1508.12931-.1939l.06466-.1078.06465-.0862c.08621-.1293.28017-.5819.45259-.9914.06465-.1724.15086-.5172.25862-.7974.02155-.0862.02155-.1078.0431-.3017.06466-.6681.23707-1.3362.45262-1.9612l.0215-.0431.0216-.0431c.0646-.1724.1077-.3018.1724-.4742.1724-.51721.431-1.27152 1.0991-2.11204l.194-.23707.194-.17241c1.4655-1.31466 3.0387-1.57328 4.1163-1.63793h.3233c.9052 0 2.0043.43103 2.5862.7112.1293.06466.2802.10776.4311.10776.1508 0 .3017-.02155.4525-.06465.3664-.12931.7112-.28018 1.0345-.45259.7328-.43103 1.9397-1.12069 3.4483-1.2931.0862-.02155.1509-.02155.2155-.02155.1509-.02156.3879-.04311.6897-.08621.5172-.0431 1.2931-.10776 2.1336-.10776 1.3577 0 2.4784.15086 3.3836.47414l.0431.02155.0431.02155c2.1552.81897 3.0173 1.74569 3.8362 2.80172.2586.34483.4526.5819.8405.92673l.0862.08621.0863.0862c.0862.08621.1724.15087.2586.21552.3664.28017.9914.77583 1.5301 1.68103l.0863.1293.0646.1509c.7974 1.6164.5388 3.1465.3879 4.0517v.0647c-.1077.625-.2801 1.2284-.5388 1.8103-.0646.1509-.1077.3017-.1508.4741-.0216.1078-.0431.2156-.0431.3018l-.0216.0862c-.0646.5172-.1724 1.0345-.3448 1.5301-.2586.7975-.6466 1.5518-1.1207 2.2199-.7327 1.0345-1.5733 1.7672-2.5862 2.2413-.2371.1078-.4526.2802-.6034.5173-.1509.2155-.2371.4957-.2587.7543v.2586c.0431.7759.1078 1.6595-.0646 2.5862-.2802 1.5086-.9267 2.5216-1.4009 3.2759 0 0-2.1983 3.0603-4.2026 3.6853l-.2155.0647-.2371.0431c-.3879.0647-.7758.1078-1.1853.1078h-.4095c-.0862 0-.2155 0-.4095.0215h-.0862c-.7758.0216-1.487.0431-1.7026.0862-.1077.0216-.2155.0431-.3232.0862-1.0561.4526-2.5431.6681-4.5905.6681Z" opacity=".8"/>
    <path stroke="url(#h)" stroke-width=".184806" d="M17.4669 34.6948c-1.1638 0-2.3276-.0862-3.319-.1509h-.0862c-.2802-.0431-.5388-.0646-.7759-.0862-.8405-.0862-1.7241-.194-2.6724-.625l-.0646-.0215-.0647-.0216c-1.83188-1.0345-2.52154-2.5647-3.16809-4.0517-.08621-.2155-.19397-.4311-.30173-.6466-.21551-.431-.38793-.9051-.51724-1.3577v-.0431c-.56034-1.9612-.40948-2.9526.625-4.4612l.02156-.0431.02155-.0432c.12931-.1508.23707-.3017.34482-.431.49569-.6465.92673-1.2069 1.89656-2.1121.06465-.0646.12931-.1508.15086-.2586.02155-.0862.02155-.1939-.02155-.2801l-.17242-.4957c-.0431-.1509-.06465-.3233-.06465-.4742v-.237c.0431-1.0776.60345-1.9181.96983-2.4785.0647-.0862.1078-.1724.1509-.2371l.0431-.0646.0431-.0647c.1939-.2586.5172-1.0129.6896-1.4655.0431-.1509.1509-.5172.2586-.7974.0647-.2155.1078-.431.1294-.6466.0646-.5387.1724-1.0775.3663-1.5732v-.0431c.0862-.2156.1509-.388.194-.5604.1509-.4526.3233-.96981.7974-1.5517l.0862-.10776.0862-.08621c1.0345-.94827 2.1767-1.12069 3.0388-1.18534h.194c.862 0 1.5086.34482 1.9396.58189l.1078.04311h.0215c.1294.06465.2156.12931.3233.17241.2586.12931.5819.17241.8621.08621.6034-.15086 1.5302-.51724 2.1336-.86207h.0216c.6465-.38793 1.6379-.94828 2.8017-1.07759.0646-.02155.1509-.02155.2155-.02155.1293-.02155.3664-.0431.625-.06465.4741-.04311 1.2069-.10776 1.9612-.10776 1.1638 0 2.0905.12931 2.8017.36638h.0431c1.7242.64655 2.3707 1.3362 3.0604 2.24138.2802.36638.5603.71125 1.0776 1.16375l.0431.0431.0431.0431c.1293.1294.2802.2587.4526.388.3017.237.7327.5603 1.0991 1.1853l.0431.0647.0431.0646c.5388 1.1207.3664 2.1768.2371 2.9742v.0646c-.0862.4957-.2155.9699-.4311 1.444-.1077.2586-.1939.5388-.237.819-.0216.1724-.0431.3017-.0647.4094l-.0215.0862c-.0431.4095-.1293.7975-.2587 1.1854-.1939.625-.4956 1.2069-.8836 1.7457-.6465.9483-1.3793 1.5302-2.3491 1.8319-.4741.1508-.8621.4526-1.1207.862l-.0862.1078-.0862.1078c-.2371.2801-.1724 1.3577-.1293 2.0043.0431.7112.0862 1.4439-.0431 2.1336-.2155 1.1853-.7328 1.9828-1.1854 2.6724 0 0-1.681 2.4354-3.2112 2.8879l-.1077.0431-.1078.0216c-.2802.0431-.5819.0862-.8836.0862h-.4311c-.1077 0-.2586 0-.5172.0216h-.0431c-1.0129.0431-1.6379.0646-1.9828.1293-.237.0431-.4525.1077-.6681.1939-.9267.3664-2.1767.5604-3.987.5604Z" opacity=".8"/>
  </g>
  <defs>
    <linearGradient id="c" x1="-1.8015" x2="44.0235" y1="-3.4954" y2="44.6005" gradientUnits="userSpaceOnUse">
      <stop offset=".2057" stop-color="#89D0FF"/>
      <stop offset=".3984" stop-color="#EBBF9A"/>
      <stop offset=".6015" stop-color="#EB8280"/>
      <stop offset=".8411" stop-color="#A281FF"/>
    </linearGradient>
    <linearGradient id="d" x1="-.0263505" x2="42.2192" y1="-1.42461" y2="43.0959" gradientUnits="userSpaceOnUse">
      <stop offset=".2057" stop-color="#89D0FF"/>
      <stop offset=".3984" stop-color="#EBBF9A"/>
      <stop offset=".6015" stop-color="#EB80DA"/>
      <stop offset=".8411" stop-color="#A281FF"/>
    </linearGradient>
    <linearGradient id="e" x1="1.77385" x2="40.4393" y1=".372758" y2="41.317" gradientUnits="userSpaceOnUse">
      <stop offset=".2057" stop-color="#89D0FF"/>
      <stop offset=".3984" stop-color="#EBBF9A"/>
      <stop offset=".6015" stop-color="#EB8280"/>
      <stop offset=".8411" stop-color="#A281FF"/>
    </linearGradient>
    <linearGradient id="f" x1="3.5599" x2="38.6372" y1="2.15074" y2="39.5077" gradientUnits="userSpaceOnUse">
      <stop offset=".2057" stop-color="#89D0FF"/>
      <stop offset=".3984" stop-color="#EBBF9A"/>
      <stop offset=".6015" stop-color="#EB80E7"/>
      <stop offset=".8411" stop-color="#A281FF"/>
    </linearGradient>
    <linearGradient id="g" x1="5.3425" x2="36.8385" y1="3.94026" y2="37.7071" gradientUnits="userSpaceOnUse">
      <stop offset=".2057" stop-color="#89D0FF"/>
      <stop offset=".3984" stop-color="#EBBF9A"/>
      <stop offset=".6015" stop-color="#EB80D3"/>
      <stop offset=".8411" stop-color="#A281FF"/>
    </linearGradient>
    <linearGradient id="h" x1="7.15118" x2="35.0628" y1="5.74316" y2="35.9335" gradientUnits="userSpaceOnUse">
      <stop offset=".2057" stop-color="#89D0FF"/>
      <stop offset=".3984" stop-color="#EBBF9A"/>
      <stop offset=".6015" stop-color="#A280EB"/>
      <stop offset=".8411" stop-color="#A281FF"/>
    </linearGradient>
    <radialGradient id="a" cx="0" cy="0" r="1" gradientTransform="rotate(90 -1.04435 22.04515) scale(22.4667)" gradientUnits="userSpaceOnUse">
      <stop offset=".1667" stop-color="#073183"/>
      <stop offset="1" stop-color="#0054F9"/>
    </radialGradient>
  </defs>
</svg>
