<svg xmlns="http://www.w3.org/2000/svg" fill="none" viewBox="0 0 42 42">
  <rect width="42" height="42" fill="#F3F3F3" rx="21"/>
  <path fill="#0A0B0D" fill-rule="evenodd" d="M35.3921 27.5147c.5351-1.1804.9292-2.4383 1.161-3.7522H20.5017l-2.4678-1.9742-2.4677 1.9742H5.44698c.23173 1.3139.62589 2.5718 1.16101 3.7522h7.77831l2.4677-1.9742 2.4678 1.9742h16.0703Zm-2.5606 3.9485H15.3734l-2.4678-1.9742-2.4677 1.9742H9.16855C12.0622 34.733 16.2904 36.7944 21 36.7944c4.7097 0 8.9379-2.0614 11.8315-5.3312Zm-8.3814-11.6491h12.2997c-.1019-1.372-.3791-2.6951-.8092-3.9471h-9.5115l-2.4678-1.9742-2.4677 1.9742H6.05944c-.43012 1.252-.70729 2.5751-.8092 3.9471H19.5146l2.4677-1.9743 2.4678 1.9743ZM8.07731 11.9185C10.9355 7.85916 15.6581 5.20703 21 5.20703c5.342 0 10.0645 2.65213 12.9227 6.71147h-3.5452l-2.4677-1.97416-2.4678 1.97416H8.07731Z" clip-rule="evenodd"/>
</svg>
