<svg xmlns="http://www.w3.org/2000/svg" fill="none" viewBox="0 0 42 42">
  <rect width="42" height="42" fill="#F5F5F5" rx="21"/>
  <path fill="#2D374B" d="M33.6351 12.0716c.8098.5111 1.3268 1.3892 1.3649 2.3483v13.1222c-.0359.8611-.4343 1.6559-1.1116 2.183l-11.799 6.864c-.3367.1325-.6925.1998-1.0575.1998-.398 0-.8397-.0872-1.1467-.237-.0389-.0189-.149-.0797-.3108-.1709-.1044-.059-.2317-.1313-.3745-.2128l-4.3193-2.4981L7 27.9926V14.414c.04527-.8885.48593-1.6972 1.20883-2.2177.13726-.0986.28311-.1855.43452-.2584 0 0 10.94285-6.3751 11.03765-6.42312.8023-.40542 1.8031-.40493 2.6041.00029l11.35 6.55653Z"/>
  <path fill="#28A0F0" d="m21.0854 25.5823 4.3364 6.8365 4.0056-2.3319-5.6948-9.0166-2.6472 4.512Zm11.9933 1.7601-.0029-1.8683-6.2227-9.7358-2.3087 3.935 6.0072 9.7592 2.172-1.2643c.2131-.1737.3419-.4288.3555-.7041l-.0004-.1217Z"/>
  <path fill="#F3F3F3" d="m7.0001 29.1125 3.0672 1.7753 10.2068-16.4426-1.7323-.046c-1.476-.0209-3.0659.3645-3.7957 1.5611l-5.79613 9.0243L7 27.9942v1.1183h.0001Zm19.1634-14.6594-4.5653.0167L11.269 31.5917l3.6103 2.0881.9818-1.6727 10.3024-17.554Z"/>
  <path fill="#96BEDC" d="M35 14.4199c-.0381-.9591-.5551-1.8372-1.3649-2.3483l-11.35-6.55653c-.801-.40522-1.8018-.40571-2.6041-.00029-.0948.04802-11.03765 6.42312-11.03765 6.42312-.15141.0729-.29726.1598-.43452.2584-.7229.5205-1.16356 1.3292-1.20883 2.2177v13.5786l1.94997-3.0096-.01708-10.4772c.00235-.0383.00713-.0759.01386-.1132.044-.2465.18106-.4664.3874-.615.05151-.037 11.18115-6.50838 11.21665-6.52621.2616-.13201.594-.13338.8559-.00402l11.2032 6.47333c.265.1695.4312.457.4459.7713v12.9786c-.0136.2753-.1219.5303-.3349.7042l-2.172 1.2642-1.1207.6524-4.0057 2.3318-4.0622 2.3649c-.2188.0794-.4746.075-.6916-.0137l-4.8062-2.7769-.9819 1.6726 4.3193 2.4981c.1428.0815.2701.1538.3745.2128.1618.0912.2719.152.3108.1709.307.1498.7487.237 1.1467.237.365 0 .7208-.0673 1.0575-.1998l11.799-6.864c.6773-.5271 1.0757-1.3219 1.1116-2.183V14.4199Z"/>
</svg>
