<svg xmlns="http://www.w3.org/2000/svg" fill="none" viewBox="0 0 36 36">
  <rect width="36" height="36" fill="#BCBDAA" rx="18"/>
  <path fill="#030303" d="M29.0911 17.9999c0-6.1151-4.9751-11.09121-11.0912-11.09121-6.1162 0-11.09121 4.97501-11.09121 11.09121 0 6.1161 4.97501 11.0912 11.09121 11.0912 6.1161 0 11.0912-4.9751 11.0912-11.0912ZM17.0569 7.58242 8.7065 22.7944c-.76875-1.4812-1.16953-3.1257-1.16845-4.7945 0-5.4507 4.19095-9.93824 9.51885-10.41645v-.00103Zm.6273 10.23228L9.59121 22.488 17.6842 7.74698V17.8147Zm0 10.6372c-1.7285-.0525-3.4172-.5328-4.9146-1.3977-1.4975-.865-2.7572-2.0877-3.6664-3.5587l8.581-4.9524v9.9088Zm2.7996-15.8846c-.0027.9103-.1973 1.8099-.5712 2.6398-.374.8301-.9189 1.5718-1.5991 2.1769V7.74956c.6851.60133 1.2332 1.34249 1.6076 2.17354.3743.8311.5662 1.7327.5627 2.6442Zm6.4087-.0687-7.0158 4.0497c.801-1.1734 1.231-2.5603 1.2344-3.981.0035-.9235-.1756-1.8385-.5272-2.69244-.3516-.85393-.8686-1.62987-1.5213-2.28315 1.5931.16507 3.1271.69324 4.4841 1.5439 1.357.85066 2.5009 2.00119 3.3437 3.36299h.0021Zm.3162 10.4573-8.583-4.956 8.583-4.9575c.8214 1.523 1.2515 3.2263 1.2515 4.9567 0 1.7304-.4301 3.4337-1.2515 4.9568Zm-.3167.5437c-.9096 1.4699-2.169 2.6915-3.666 3.5557-1.497.8642-3.1847 1.344-4.9125 1.3966v-9.9078l8.5785 4.9555Z"/>
</svg>
