<svg xmlns="http://www.w3.org/2000/svg" fill="none" viewBox="0 0 42 42">
  <path fill="#5064FB" d="M42 21c0 11.598-9.402 21-21 21C9.40202 42 0 32.598 0 21 0 9.40202 9.40202 0 21 0c11.598 0 21 9.40202 21 21Z"/>
  <g clip-path="url(#a)">
    <path fill="url(#b)" fill-rule="evenodd" d="M22.551 31.5506c.5115-2.2321.8673-5.357.9532-8.8902l.7836.0189c-.0865 3.5672-.4459 6.748-.9728 9.0464-.2626 1.146-.5716 2.094-.9208 2.7643-.1745.3348-.3685.6197-.5877.8258-.2208.2074-.4923.357-.8069.357-.3613 0-.6638-.1956-.9026-.4534-.2394-.2587-.4524-.6177-.6438-1.0433-.3839-.854-.718-2.0616-.9898-3.516l.7706-.144c.2665 1.4282.5873 2.5666.9343 3.3385.1741.3871.3452.6609.5037.8317.1591.1718.2685.2022.3273.2022.0519 0 .1408-.0229.2701-.1444.131-.1231.2767-.324.4293-.6167.3044-.5848.5955-1.4583.8519-2.5774l.0004.0006Z" clip-rule="evenodd"/>
    <path fill="url(#c)" fill-rule="evenodd" d="M19.6944 9.48651c-.4691 1.64089-.8418 3.97719-1.046 6.72049l-.7817-.0581c.2065-2.7724.5847-5.1666 1.0741-6.87766.2437-.8526.5213-1.55787.8323-2.05865.2957-.47628.6984-.88788 1.2273-.88788.3149 0 .5861.14961.8069.35704.2192.20613.4135.49131.5877.82582.3492.67064.6582 1.6183.9208 2.76453.5269 2.2985.8859 5.4792.9728 9.0464l-.7836.019c-.0859-3.5333-.4417-6.6585-.9532-8.8903-.2565-1.11912-.5475-1.99295-.852-2.57736-.1525-.29302-.2986-.49392-.4292-.61675-.1294-.12152-.2182-.14438-.2699-.14438-.0914 0-.2907.08166-.5612.51744-.2554.4116-.5089 1.03749-.7444 1.86069l-.0007-.00033Z" clip-rule="evenodd"/>
    <path fill="url(#d)" fill-rule="evenodd" d="M18.6479 16.2061c-.1114 1.4958-.1725 3.1089-.1725 4.7912 0 3.6727.2914 7.0116.7592 9.5171l-.7706.1441c-.4786-2.5637-.7726-5.9522-.7726-9.6612 0-1.7009.0617-3.3336.1748-4.8494l.7817.0582Z" clip-rule="evenodd"/>
    <path fill="url(#e)" fill-rule="evenodd" d="M18.2823 22.3297c-2.5431-1.5527-4.7403-3.1269-6.3723-4.5182l-.5086.5965c1.6699 1.424 3.9023 3.0217 6.4722 4.5907l.4087-.669Z" clip-rule="evenodd"/>
    <path fill="url(#f)" fill-rule="evenodd" d="M29.3459 27.6171c-2.1887-.6729-5.0725-1.9273-8.1752-3.6191l-.3753.6883c3.1324 1.7085 6.0662 2.9874 8.3202 3.6802 1.1237.3456 2.0992.5518 2.8544.5848.377.0163.721-.0092 1.0091-.0961.2901-.0875.5553-.2476.7128-.5204.2656-.4599.1081-1.0169-.1588-1.5134-.2809-.5224-.7572-1.1185-1.3788-1.7598-1.2479-1.2867-3.1471-2.8201-5.4619-4.3927l-.4407.6485c2.2906 1.5562 4.1428 3.0556 5.3397 4.2898.6008.6193 1.0199 1.1554 1.2512 1.5853.245.4557.2162.6703.1705.75-.0258.0451-.0902.1104-.2601.1617-.1718.0519-.4187.0778-.7487.0634-.6585-.0288-1.5605-.2133-2.6577-.5508l-.0007.0003Z" clip-rule="evenodd"/>
    <path fill="url(#g)" fill-rule="evenodd" d="M22.2458 18.8093c1.4344.8281 2.7813 1.6742 4.0056 2.5059l.4407-.6485c-1.2407-.8428-2.6039-1.6989-4.0543-2.5365-3.4316-1.9813-6.7156-3.4898-9.2512-4.3319-1.2648-.4201-2.3627-.6811-3.2088-.7452-.42207-.032-.80394-.0166-1.12081.066-.31752.083-.61152.2457-.78138.5397-.18196.3152-.16203.6781-.05619 1.0162.10649.3394.31458.7066.59192 1.0888.55664.767 1.44946 1.6699 2.58946 2.6421l.5086-.5965c-1.1201-.9552-1.95963-1.8117-2.46367-2.5062-.25284-.3482-.40768-.6373-.47824-.8627-.07122-.2271-.0428-.3381-.01307-.3897.02777-.0481.10061-.1209.30021-.1728.20024-.0523.48608-.0713.86367-.0428.7533.0568 1.7817.2956 3.021.7072 2.4726.8212 5.7072 2.3043 9.1065 4.2669Z" clip-rule="evenodd"/>
    <path fill="url(#h)" fill-rule="evenodd" d="M21.2765 17.9582c2.6336-1.4318 5.1078-2.5477 7.1299-3.2582l-.2601-.7396c-2.07.7275-4.5831 1.8624-7.2444 3.3092l.3743.6886h.0003Z" clip-rule="evenodd"/>
    <path fill="url(#i)" fill-rule="evenodd" d="M11.0845 24.949c1.6651-1.551 4.1765-3.4127 7.1756-5.2476l-.409-.6687c-3.0282 1.8525-5.586 3.7452-7.301 5.3426-.8552.7968-1.51637 1.5347-1.91948 2.1694-.20122.3169-.34953.6263-.4178.9183-.0686.294-.06174.6027.09506.8742.26525.4593.82516.6017 1.38735.619.59157.0183 1.34427-.0954 2.20827-.3123 1.7339-.4354 4.0062-1.3103 6.5199-2.5245l-.341-.7059c-2.4876 1.2015-4.7069 2.0528-6.3697 2.4702-.8343.2094-1.5066.3042-1.99297.2891-.51548-.016-.68665-.1479-.73271-.2273-.02581-.0448-.05031-.1326-.01046-.3041.04051-.1738.14047-.3992.31622-.6762.35084-.5528.95712-1.2381 1.79172-2.0159v-.0003Z" clip-rule="evenodd"/>
    <path fill="url(#j)" fill-rule="evenodd" d="M22.2782 23.182c-1.4425.833-2.8563 1.5801-4.1957 2.2269l.3411.7059c1.3573-.6556 2.7881-1.4118 4.2466-2.254 3.4317-1.9812 6.3798-4.0709 8.3774-5.8457.9963-.8853 1.7715-1.7058 2.2497-2.4065.2385-.3496.4165-.6877.5034-1.0036.0869-.3165.0931-.6523-.0767-.9463-.18-.3117-.4992-.4756-.8399-.554-.342-.0784-.7572-.084-1.2188-.0379-.9258.0927-2.1318.4034-3.5185.8908l.26.7396c1.3619-.4786 2.5007-.7667 3.3369-.8504.4195-.0418.7399-.03.9653.0219.2267.052.3071.131.3365.182.0278.048.0545.1473-.0003.3466-.0549.1996-.1813.4567-.395.7696-.426.6239-1.1469 1.3949-2.123 2.2625-1.9476 1.7307-4.8494 3.7903-8.2486 5.7529l-.0004-.0003Z" clip-rule="evenodd"/>
    <path fill="#fff" d="M18.9738 31.5765c.5656 0 1.0241-.4585 1.0241-1.0241s-.4585-1.0241-1.0241-1.0241-1.0241.4585-1.0241 1.0241.4585 1.0241 1.0241 1.0241ZM11.696 19.0006c.5656 0 1.0241-.4585 1.0241-1.0241s-.4585-1.0241-1.0241-1.0241-1.0241.4585-1.0241 1.0241.4585 1.0241 1.0241 1.0241Zm16.5815-3.509c.5656 0 1.0241-.4585 1.0241-1.0241s-.4585-1.0241-1.0241-1.0241-1.0241.4585-1.0241 1.0241.4585 1.0241 1.0241 1.0241Z"/>
    <path fill="#fff" fill-rule="evenodd" d="M21.0007 19.2151c.9846 0 1.783.7984 1.783 1.7829 0 .9846-.7984 1.783-1.783 1.783-.9846 0-1.7829-.7984-1.7829-1.783 0-.9845.7983-1.7829 1.7829-1.7829Z" clip-rule="evenodd"/>
  </g>
  <defs>
    <linearGradient id="b" x1="19.7256" x2="23.5133" y1="35.1832" y2="22.4301" gradientUnits="userSpaceOnUse">
      <stop offset=".38" stop-color="#fff" stop-opacity=".6"/>
      <stop offset=".99" stop-color="#fff" stop-opacity="0"/>
    </linearGradient>
    <linearGradient id="c" x1="18.392" x2="23.2779" y1="7.38637" y2="19.7409" gradientUnits="userSpaceOnUse">
      <stop offset=".63" stop-color="#fff" stop-opacity=".81"/>
      <stop offset="1" stop-color="#fff" stop-opacity="0"/>
    </linearGradient>
    <linearGradient id="d" x1="18.463" x2="18.463" y1="16.1479" y2="30.6751" gradientUnits="userSpaceOnUse">
      <stop stop-color="#fff" stop-opacity=".81"/>
      <stop offset=".65" stop-color="#fff"/>
    </linearGradient>
    <linearGradient id="e" x1="11.6049" x2="18.0115" y1="18.1725" y2="22.6916" gradientUnits="userSpaceOnUse">
      <stop stop-color="#fff" stop-opacity=".6"/>
      <stop offset="1" stop-color="#fff" stop-opacity="0"/>
    </linearGradient>
    <linearGradient id="f" x1="34.8594" x2="20.6543" y1="25.7542" y2="23.3904" gradientUnits="userSpaceOnUse">
      <stop offset=".61" stop-color="#fff" stop-opacity=".81"/>
      <stop offset="1" stop-color="#fff" stop-opacity="0"/>
    </linearGradient>
    <linearGradient id="g" x1="26.0767" x2="7.63665" y1="21.1665" y2="14.3291" gradientUnits="userSpaceOnUse">
      <stop stop-color="#fff" stop-opacity=".81"/>
      <stop offset=".48" stop-color="#fff"/>
    </linearGradient>
    <linearGradient id="h" x1="28.3041" x2="20.6216" y1="14.2188" y2="17.7887" gradientUnits="userSpaceOnUse">
      <stop stop-color="#fff" stop-opacity=".6"/>
      <stop offset="1" stop-color="#fff" stop-opacity="0"/>
    </linearGradient>
    <linearGradient id="i" x1="9.74162" x2="19.3584" y1="30.1724" y2="20.1434" gradientUnits="userSpaceOnUse">
      <stop offset=".55" stop-color="#fff" stop-opacity=".81"/>
      <stop offset="1" stop-color="#fff" stop-opacity="0"/>
    </linearGradient>
    <linearGradient id="j" x1="33.5979" x2="18.0701" y1="12.6689" y2="25.5843" gradientUnits="userSpaceOnUse">
      <stop offset=".52" stop-color="#fff"/>
      <stop offset="1" stop-color="#fff" stop-opacity=".81"/>
    </linearGradient>
    <clipPath id="a">
      <path fill="#fff" d="M0 0h25.7214v29.3477H0z" transform="translate(8.13916 6.32544)"/>
    </clipPath>
  </defs>
</svg>
