<svg xmlns="http://www.w3.org/2000/svg" fill="none" viewBox="0 0 42 42">
  <circle cx="21.0002" cy="20.9999" r="18.6667" fill="#F3F3F3"/>
  <path fill="#D54F49" fill-rule="evenodd" d="M42 21c0 11.5981-9.4019 21-21 21C9.40201 42 0 32.5981 0 21 0 9.40201 9.40201 0 21 0c11.5981 0 21 9.40201 21 21Zm-26.9508 8.3569h-4.0755c-.8564 0-1.27942 0-1.53735-.1649-.27859-.1807-.44883-.4799-.46946-.8101-.01549-.3043.19604-.6758.61906-1.4187L19.6489 9.22588c.4282-.75321.6448-1.12981.9183-1.26909.294-.1496.6448-.1496.9389 0 .2734.13928.4901.51588.9183 1.26909l2.0687 3.61122.0105.0184c.4625.8081.697 1.2178.7994 1.6479.1135.4695.1135.9647 0 1.4342-.1031.4333-.3353.846-.8048 1.6663l-5.2858 9.3438-.0136.024c-.4656.8147-.7015 1.2276-1.0285 1.5391-.3559.3406-.7841.588-1.2536.7276-.4282.1185-.9079.1185-1.8675.1185Zm10.292 0h5.8397c.8616 0 1.295 0 1.5531-.17.2785-.1806.4538-.4851.4695-.8151.0148-.2944-.1921-.6515-.5976-1.3512-.014-.0239-.0279-.0481-.0422-.0728l-2.9252-5.0041-.0333-.0563c-.411-.6951-.6185-1.0461-.885-1.1818-.2939-.1496-.6398-.1496-.9337 0-.2683.1393-.4849.5056-.9131 1.2433l-2.9148 5.0041-.01.0172c-.4266.7366-.6399 1.1046-.6245 1.4066.0206.3303.1909.6345.4694.8152.2528.1649.6862.1649 1.5477.1649Z" clip-rule="evenodd"/>
</svg>
