<svg xmlns="http://www.w3.org/2000/svg" fill="none" viewBox="0 0 42 42">
  <circle cx="21" cy="21" r="21" fill="#0055D5"/>
  <path fill="#F3F3F3" fill-rule="evenodd" d="M10.6058 13.0625s-2.37472-1.8989-2.53804 2.7911c-.16332 3.6345-.1589 10.6916 1.52283 14.0259.71061 1.2542 1.65971.87 3.42531-.3798 1.536-1.135 7.0932-6.2578 9.4459-8.5057 2.3527-2.2478 7.1242-8.6955 8.1174-4.3146.3928 1.8416.8783 3.4049.5076 7.4899-.1148 1.2586-.6533 2.2125-3.1075.5079-1.8539-1.1924-3.6151-2.4731-3.6151-2.4731s-.3398-.6094-1.1432.3798c-.6312.7905-.949.9848.0618 1.5854 1.0152.6006 6.1487 4.1424 8.1174 4.6944 1.6243.4726 2.5512.4637 2.5998-2.7292-.0088-2.5349-.1545-9.7907-1.077-12.8821-.6974-1.9254-1.7215-2.7999-3.9329-.6359-2.2114 2.1639-9.1855 8.9296-12.9992 11.9944-2.5292 1.899-3.6107 3.6125-4.5641.4461-.6709-2.398-1.54047-9.8614 1.205-8.4394 1.7171.8214 2.5734.817 1.9025 1.3337-.671.5123-2.5999 2.2832-2.5999 2.2832s-.5959.4813-.3178 1.5236c.2781.7286.2781 1.0908 1.7744-.318 1.4964-1.4088 2.5999-2.4731 2.5999-2.4731s.2383-.3754.949.318c.7107.6933.8254.8876.8254.8876s.1898.5167.949-.3798c.7636-.8965 1.2536-1.4441-.1898-2.2831-1.4389-.848-7.9187-4.4472-7.9187-4.4472Z" clip-rule="evenodd"/>
</svg>
