<svg xmlns="http://www.w3.org/2000/svg" fill="none" viewBox="0 0 42 42">
  <path fill="#222" fill-rule="evenodd" d="M21 0c11.5962 0 21 9.4038 21 21s-9.4038 21-21 21S0 32.5962 0 21 9.4038 0 21 0Z" clip-rule="evenodd"/>
  <path fill="#F3F3F3" d="M20.9998 30.1521c-6.7158 0-12.15898-1.9404-12.15898-4.5402 0-1.3566 1.48258-2.5788 3.85558-3.4398 1.8522 1.1886 4.9602 1.7976 8.484 1.7976 3.4398 0 6.4806-.7434 8.3496-1.8816 2.2386.8526 3.6288 2.0412 3.6288 3.3516 0 2.604-5.4432 4.7124-12.159 4.7124Z"/>
  <path fill="#F3F3F3" d="M21.0711 23.3877c-5.0904 0-9.219-1.596-9.219-3.5658 0-1.092 1.2726-2.0706 3.2676-2.7216 1.4238.7434 3.5574 1.218 5.9514 1.218 2.394 0 4.5276-.4746 5.9514-1.218 1.9992.6552 3.2676 1.6296 3.2676 2.7216.0042 1.9698-4.1244 3.5658-9.219 3.5658Z"/>
  <path fill="#F3F3F3" d="M21.0376 17.7257c-3.9354 0-7.1274-1.3188-7.1274-2.94s3.192-2.94 7.1274-2.94c3.9354 0 7.1274 1.3188 7.1274 2.94s-3.192 2.94-7.1274 2.94Z"/>
</svg>
