<svg xmlns="http://www.w3.org/2000/svg" fill="none" viewBox="0 0 42 42">
  <rect width="42" height="42" fill="#4520E6" rx="21"/>
  <path fill="#F3F3F3" fill-rule="evenodd" d="m26.4862 10.8235 2.946-2.94602 2.3454-.00248-1.1639 1.18399-2.7061 2.70611c.9508.9035 1.6976 2.31 1.6976 4.2222 0 2.3548-1.1174 3.9633-2.5699 4.9095.4091.197.8074.4408 1.1735.7466 1.0996.9185 1.8141 2.3138 1.8141 4.3694 0 2.0465-.7074 3.4356-1.6933 4.3032-.9573.8424-2.1025 1.1273-2.9017 1.1273H15.3308l-2.6794 2.6793-2.4287.0024 1.2472-1.1839 12.7107-12.7107.248-.0496c1.8054-.361 3.5057-1.6841 3.5057-4.1935 0-1.4605-.5663-2.4445-1.2088-3.0401L14.1493 25.5234V10.5569h11.3249l.046.0051c.3039.0338.6322.1209.966.2615Zm-1.4043 1.4043h-9.2617v9.2617l9.2617-9.2617Zm-.2209 9.6853-7.8593 7.8592h8.4262c.454 0 1.1886-.1746 1.7978-.7107.5806-.5109 1.1263-1.4193 1.1263-3.0488 0-1.6204-.5386-2.5226-1.2144-3.087-.6173-.5157-1.4215-.8112-2.2766-1.0127Z" clip-rule="evenodd"/>
</svg>
