<svg xmlns="http://www.w3.org/2000/svg" fill="none" viewBox="0 0 42 42">
  <path fill="#222" d="M21 41c11.0457 0 20-8.9543 20-20S32.0457 1 21 1 1 9.9543 1 21s8.9543 20 20 20Z"/>
  <path fill="#F3F3F3" d="M21.0087 28.7522h-.0312c-4.2836.0469-7.7855-3.3768-7.8481-7.6448-.0469-4.2836 3.3769-7.7855 7.6448-7.848h.1877c4.2835 0 7.7542 3.455 7.7542 7.7386 0 .8442-.1407 1.6728-.4065 2.4545l3.4863 4.6744c3.9396-5.972 2.2981-14.0233-3.6895-17.9629-5.972-3.93969-14.0233-2.29817-17.9629 3.6895-3.9397 5.9876-2.29818 14.0232 3.6895 17.9629 3.1579 2.0793 7.082 2.689 10.7246 1.6415-.1251-.1563-3.5489-4.7213-3.5489-4.7057Z"/>
  <path fill="#4FAFE7" d="m27.1368 24.719-.1563-.2188c-.0313-.0469-.0938-.1095-.1407-.172-.1251-.1407-.2502-.2658-.3909-.3908-.0625-.0626-.125-.1095-.2032-.172l-.1094-.0938-.1095-.0938c-.0782-.0625-.1563-.1094-.2501-.172-1.0318-.6722-2.1262-1.0005-3.455-1.0005h-3.3925s5.5812 7.4572 6.9569 9.3488c.1564.2189.3283.4221.5159.6097l.0782.0782c.0625.0625.1251.1094.2032.172l.1095.0938.1094.0938c.0782.0625.1563.1094.2501.1719 1.0318.6723 2.2356 1.0162 3.455 1.0006h3.3925l-6.8631-9.2551Z"/>
</svg>
