<svg xmlns="http://www.w3.org/2000/svg" fill="none" viewBox="0 0 42 42">
  <path fill="#ADFF00" d="M21 41c11.0457 0 20-8.9543 20-20S32.0457 1 21 1 1 9.9543 1 21s8.9543 20 20 20Z"/>
  <path fill="#030303" d="M28 17h-5.5v14.5H25V20h3v11.5h5.5v-3h-3V20h3v-3h-3v-5.5H28V17Z"/>
  <path fill="#030303" fill-rule="evenodd" d="M8.5 11.5V31H17c2.2091 0 4-1.7909 4-4v-3c0-1.6569-1.3431-3-3-3 .8587-.1145 1.5-.847 1.5-1.7133V15.5c0-2.2091-1.7909-4-4-4h-7ZM11 14v6h4c1.1046 0 2-.8954 2-2v-2c0-1.1046-.8954-2-2-2h-4Zm0 8.5V28h5.5c1.1046 0 2-.8954 2-2v-1.5c0-1.1046-.8954-2-2-2H11Z" clip-rule="evenodd"/>
  <path fill="#030303" d="M22.5 11.5H25V14h-2.5z"/>
</svg>
