<svg xmlns="http://www.w3.org/2000/svg" fill="none" viewBox="0 0 42 42">
  <circle cx="20" cy="20" r="20" fill="#EAB300"/>
  <path fill="#F3F3F3" fill-rule="evenodd" d="M25.6544 18.9596c.0402-.0261.0548-.03.0695-.0338.0128-.0111.0301-.0195.0475-.028.0174-.0084.0348-.0168.0475-.028.9795-.5676 1.578-1.3961 1.7218-2.5288.0475-.4192.0326-.8378-.0155-1.2634-.0404-.3963-.1433-.792-.3157-1.154-.3264-.7132-.8492-1.2188-1.5251-1.5907-.5504-.3106-1.1474-.4996-1.7732-.6185-.6295-.1336-1.277-.2156-1.913-.2536-.099-.0067-.1467-.0099-.1695-.0354-.0212-.0238-.0207-.0669-.0197-.1501l-.0008-1.2673c.0023-.3526.0018-.70062.0013-1.04864-.0005-.34801-.001-.69607.0012-1.04871.0059-.158.0059-.158-.1668-.16002-.3455-.00406-.6909-.00812-1.0402-.02683l-.9923-.0236c-.0624.00059-.0918.00822-.0874.08531.0038.01466.003.0266.0022.03855-.0008.01194-.0016.02389.0022.03854.0029.31219.0086.61976.0142.92734.0056.30757.0112.61514.0142.92733l.0021.24953c.0033.4125.0066.8177.0227 1.2305-.0013.0551-.002.0827-.0161.0961-.0141.0135-.0417.0128-.0968.0115l-.8815.0415c-.123.0085-.2433.0124-.3636.0163-.1203.0039-.2406.0078-.3636.0163-.0552-.0013-.0827-.002-.0962-.0161-.0134-.0141-.0128-.0416-.0114-.0968-.0019-.0073-.0011-.0192-.0003-.0312.0008-.0119.0016-.0239-.0003-.0312.0024-.5326.0074-1.0699.0125-1.6071.0051-.53725.0102-1.07449.0126-1.60712.0003-.0182.0006-.03498.001-.05046.0021-.10449.0031-.14965-.0189-.16955-.0167-.01515-.0467-.01565-.0995-.01655-.0273-.00046-.0608-.00103-.1016-.00378l-1.8299.00641c-.1249.00119-.1249.00119-.1237.12607-.0091.20577-.0036.40773.002.60969-.0059.94038-.008 1.89539.0007 2.83199.0012.1249.0012.1249-.1346.1445-.6648.0321-1.3187.0457-1.9764.0446-.4398-.0021-.8783.0006-1.3197.0033-.3295.002-.6607.004-.9952.004-.158-.0058-.158-.0058-.1607.1044-.0057.3692-.0078.7375-.0098 1.1057-.0021.3683-.0042.7365-.0099 1.1057-.0014.0551-.002.0827.0114.0968.0135.0141.041.0148.0962.0161.2829.0046.5621-.0054.8413-.0154.1488.0004.293-.0019.4372-.0041.1442-.0023.2884-.0046.4372-.0042.6909.0081 1.0785.5958 1.0832 1.0953.0104.5215.0161 1.0402.0219 1.559.0057.5188.0115 1.0376.0219 1.5591.0194 1.098.0352 2.197.051 3.2959.0157 1.0991.0315 2.1983.0509 3.2964.0004.0388.0022.0774.0039.1154.0039.0842.0077.166-.0042.2445-.0443.3714-.3613.6573-.7654.6685-.3539.0161-.7044.0163-1.0526.0165-.154 0-.3079.0001-.4611.0016-.1873.0081-.1879.0145-.1979.1206-.0016.0166-.0034.0357-.0062.0576-.0522.3109-.1008.6208-.1493.9308-.0486.3099-.0971.6198-.1493.9307-.0192.1067-.0375.217-.0558.3274-.0182.1104-.0365.2208-.0557.3275.0625-.0006.1102.0026.158.0058.0805.0019.1606.004.2403.006.3568.0091.707.018 1.0644.0146.2608.0002.5231.0061.7861.0121.4634.0105.9291.021 1.3929.0002.2461-.017.4959-.0194.7496-.0071.1434.0096.1434.0096.1483.1492.0017.0062.0026.0098.0023.0133-.0004.0047-.0031.0092-.0093.0198l.0103 3.471c.005.1395.005.1395.1299.1384.0501.0015.0996.0032.1488.0049.2145.0075.4225.0146.6377.0096.2202.0052.444.0095.6678.0138l.0021.0001c.2239.0042.4477.0085.6679.0138.0179-.0516.0211-.0994.0243-.1472-.0037-.797-.0037-1.5794.0072-2.3803.0041-.3453.0083-.6906-.0023-1.0321l-.0001-.0096c-.0012-.116-.0013-.1304.1309-.1496.0679-.0098.1331-.015.1982-.0202.0652-.0052.1304-.0104.1983-.0203.2772-.0179.551-.0199.8225-.0219.1205-.0009.2407-.0018.3604-.004.1103.0026.1103.0026.1114.1275-.0035.0165-.0024.0358-.0013.0551.0011.0192.0022.0385-.0013.0551.0033.5546.002 1.1065.0008 1.6584-.0013.5519-.0026 1.1038.0007 1.6584-.0057.1534.008.1543.1399.163l.0123.0008c.3176.019.6389.0371.9602.0551l.0024.0001c.3213.0181.6426.0361.9602.0551l.0168.0011c.1284.0087.1813.0123.2018-.0118.0145-.0169.0129-.0474.0102-.0995-.0015-.0282-.0033-.0628-.003-.105.0094-.5653.0179-1.1343.0263-1.7033v-.0013c.0085-.5694.017-1.1388.0264-1.7046.0059-.158.0059-.158.1454-.163.8223-.0886 1.6554-.1957 2.4656-.3908.6158-.1601 1.224-.3496 1.7909-.6378 1.0348-.5351 1.7659-1.3355 2.134-2.4483.1751-.5306.247-1.0969.2896-1.6556.0375-.6983.0165-1.3813-.2067-2.0587-.1665-.52-.4535-.9617-.8503-1.3436-.4706-.4253-1.0134-.7066-1.6251-.8918-.2287-.097-.4313-.1538-.6486-.2068Zm-3.4313 6.8531c-.6744.1754-1.3609.2444-2.055.2841-.4737.0293-.9539.0338-1.434.0384-.1601.0015-.3202.0031-.48.0055-.0601.0006-.0913.0009-.108-.0145-.0181-.0166-.0193-.0515-.0219-.1238-.0115-.6464-.024-1.2964-.0365-1.9464-.0125-.65-.025-1.3001-.0366-1.9465l-.0031-.1271c-.0057-.2257-.0116-.459-.0044-.6846-.0012-.1248.0135-.1286.1052-.1369.1736-.0042.347-.0093.5201-.0144.8199-.0241 1.6367-.0482 2.4563.0228.5774.0533 1.1331.1435 1.6823.3293.2727.0855.5275.2227.7715.3783 1.1421.7201 1.1922 2.5378.0385 3.3385-.3616.2349-.7932.441-1.3944.5973Zm-3.447-11.476c-.2406.0006-.4825.0011-.7269-.0029-.007.0331-.0141.0662-.0065.0955.0266 1.2073.0404 2.4069.0542 3.6139.0027.2396.0055.4795.0083.7198.0026.0724.0039.1072.0219.1238.0167.0154.0479.0151.108.0146.0845 0 .1691.0001.2536.0003.6987.0013 1.3988.0026 2.0862-.0924.5577-.0824 1.1079-.1942 1.609-.4341.3622-.1724.6798-.3958.9044-.7359.5182-.7763.3573-1.8767-.3649-2.4869-.2446-.218-.5325-.3622-.8422-.4695-.4313-.1538-.8729-.2267-1.3254-.2812-.5972-.0675-1.1845-.0663-1.7797-.065Z" clip-rule="evenodd"/>
</svg>
