<svg xmlns="http://www.w3.org/2000/svg" fill="none" viewBox="0 0 42 42">
  <circle cx="21" cy="21" r="20" fill="#8DC351"/>
  <path fill="#F3F3F3" fill-rule="evenodd" d="M26.2345 18.6452c.0328-.0349.0462-.0421.0595-.0493.0097-.0139.0246-.0262.0395-.0385.0149-.0123.0297-.0247.0395-.0385.8163-.7844 1.2005-1.7315 1.0707-2.8658-.0536-.4185-.1676-.8215-.3156-1.2235-.1335-.3753-.3276-.7352-.5812-1.0458-.4866-.615-1.1147-.9817-1.8597-1.1821-.6085-.1708-1.2333-.2124-1.8694-.179-.6433.02-1.2917.0944-1.9185.2088-.0977.0171-.1448.0253-.173.006-.0262-.0181-.036-.0601-.0548-.1412l-.3023-1.2307c-.0817-.343-.165-.6809-.2483-1.01881-.0832-.33791-.1665-.67586-.2482-1.0189-.0319-.15486-.0319-.15486-.2002-.11574-.3364.07823-.6729.15648-1.0166.22139l-.9694.21314c-.0606.01544-.0872.02982-.0646.10365.0072.01333.0092.02513.0113.03692.002.0118.0041.02359.0113.03692.0771.30253.1557.59994.2343.89733.0787.2974.1573.5948.2344.8973l.0614.2419c.1014.3998.201.7927.3148 1.1898.0119.0538.0178.0807.0073.0972-.0105.0164-.0375.0223-.0913.0341l-.8463.25c-.1175.0375-.2334.07-.3493.1024-.116.0324-.2319.0648-.3493.1023-.0539.0119-.0808.0178-.0972.0073-.0165-.0105-.0224-.0374-.0342-.0913-.0036-.0066-.0057-.0184-.0077-.0302-.0021-.0118-.0041-.0236-.0077-.0303-.1244-.5179-.2473-1.0409-.3702-1.5639-.1228-.5231-.2457-1.0461-.3701-1.56401-.004-.01775-.0077-.03413-.011-.04925-.0228-.102-.0326-.14608-.0587-.16019-.0198-.01073-.0491-.00409-.1006.0076-.0266.00605-.0593.01346-.0996.0205l-1.7758.44155c-.121.0309-.121.0309-.0902.1519.0401.202.0936.3968.147.5917.218.9148.4432 1.8429.6744 2.7505.0309.121.0309.121-.0963.1724-.6381.1893-1.27.358-1.9091.5135-.4276.1025-.8529.2095-1.2811.3171-.3195.0803-.6407.1611-.9655.2407-.1549.0319-.1549.0319-.1313.1396.0823.36.1679.7182.2535 1.0763.0855.3582.1711.7164.2534 1.0764.0118.0538.0177.0807.0341.0912.0165.0105.0434.0046.0973-.0072.2759-.0628.5447-.139.8134-.2151.1447-.035.2842-.0715.4237-.1081.1395-.0365.2791-.073.4237-.108.673-.1565 1.1893.3221 1.3126.8061.1342.5041.2632 1.0066.3922 1.5091.129.5025.258 1.005.3922 1.5091.2801 1.0619.5568 2.1255.8336 3.1892.2768 1.0637.5536 2.1276.8337 3.1896.0096.0376.0205.0746.0312.1112.0238.0808.047.1594.0541.2385.0453.3713-.1946.7243-.5844.8313-.3399.0999-.6803.1834-1.0185.2664-.1495.0368-.299.0734-.4474.1113-.1801.0525-.1792.0588-.1636.1643.0024.0165.0052.0354.0077.0574.0233.3144.0498.6269.0764.9395s.0532.6252.0764.9395c.0067.1083.0152.2198.0238.3313.0085.1116.017.2231.0237.3313.0605-.0154.1077-.0236.1549-.0319.0786-.0173.1569-.0343.2348-.0513.3487-.0761.691-.1507 1.0373-.239.2534-.0619.5095-.1185.7664-.1753.4526-.1.9074-.2006 1.353-.3312.235-.075.4771-.1368.7263-.1852.1416-.0247.1416-.0247.1796.1096.0031.0057.0049.0089.0054.0124.0007.0046-.0008.0096-.0043.0214l.8358 3.3689c.038.1344.038.1344.1591.1035.0489-.0104.0974-.0205.1456-.0305.2102-.0439.4139-.0864.6217-.1425.2151-.0472.4335-.0963.6519-.1454l.0021-.0005c.2184-.0491.4368-.0981.6519-.1454.0051-.0544-.0031-.1016-.0113-.1488-.1933-.7732-.3794-1.5331-.5593-2.3136-.0781-.3364-.1563-.6728-.2478-1.0019l-.0023-.0093c-.0288-.1125-.0324-.1264.0915-.1765.0636-.0257.1257-.0462.1877-.0668.0621-.0206.1242-.0411.1878-.0668.2649-.0834.5304-.1505.7937-.217.1168-.0295.2333-.059.349-.0897.1078-.0237.1078-.0237.1386.0974.0005.0169.0062.0353.0118.0538.0057.0185.0113.0369.0119.0538.1351.5379.2652 1.0743.3952 1.6107.1301.5363.2601 1.0727.3953 1.6106.031.1503.0445.1479.1747.125l.0121-.0021c.313-.0571.6294-.116.9457-.1749l.0024-.0005c.3164-.0589.6327-.1178.9457-.1749l.0167-.0029c.1267-.0221.1789-.0312.1932-.0595.0099-.0199.0011-.0492-.0139-.0991-.0081-.0271-.0181-.0602-.0279-.1013-.1253-.5513-.2525-1.106-.3796-1.6606l-.0003-.0013c-.1272-.5551-.2545-1.1102-.3799-1.6619-.0319-.1549-.0319-.1549.1025-.1929.7775-.2817 1.5612-.584 2.3018-.9662.5601-.302 1.1057-.6307 1.5877-1.0455.8779-.766 1.3976-1.7173 1.4904-2.8857.0438-.557-.0211-1.1242-.1127-1.677-.1296-.6871-.3126-1.3455-.6904-1.9504-.2855-.4654-.6694-.8262-1.1456-1.1027-.5583-.3011-1.1524-.4453-1.7906-.4796-.2452-.0398-.4555-.0468-.6792-.0466Zm-1.7024 7.4727c-.6134.3308-1.2637.5611-1.9285.7648-.4531.1411-.9184.2598-1.3837.3784-.1551.0396-.3102.0792-.4648.1196-.0583.0148-.0885.0225-.1084.0116-.0215-.0119-.031-.0454-.0507-.1151-.165-.625-.3318-1.2534-.4985-1.8817-.1668-.6285-.3336-1.2569-.4986-1.882l-.0333-.1227c-.0592-.2179-.1205-.4431-.1672-.6639-.0308-.121-.0175-.1282.0697-.158.1676-.0454.3348-.0916.5018-.1377.7906-.2185 1.5782-.4362 2.3912-.5622.5734-.0856 1.1346-.1302 1.7123-.0804.2852.0182.5653.0908.8393.1839 1.2807.4277 1.7617 2.1813.8317 3.2335-.2954.3141-.6656.617-1.2123.9119Zm-6.0782-10.3265c-.2336.0578-.4684.1158-.7067.1701.001.0338.0021.0677.0165.0943.313 1.1662.6117 2.3282.9123 3.4972.0596.2321.1194.4645.1793.6972.0198.0697.0292.1032.0507.1151.0199.011.0501.0033.1084-.0116.0821-.0201.1642-.0401.2464-.06.679-.165 1.3592-.3302 2.0043-.5861.5221-.2127 1.0299-.4522 1.4596-.8044.3107-.2536.566-.5461.7033-.9299.3187-.8773-.0994-1.9078-.9461-2.3287-.2894-.1536-.6033-.2251-.9296-.2556-.4556-.0468-.9019-.0126-1.3543.0421-.5962.0765-1.1663.2175-1.7441.3603Z" clip-rule="evenodd"/>
</svg>
