<svg xmlns="http://www.w3.org/2000/svg" fill="none" viewBox="0 0 42 42">
  <circle cx="21" cy="21" r="21" fill="#F0B90B"/>
  <path fill="#F3F3F3" d="M13.6321 11.2547 21 7l7.368 4.2547-2.7089 1.5719L21 10.1436l-4.6591 2.683-2.7088-1.5719Zm14.7359 5.3659-2.7089-1.5718L21 17.7317l-4.6591-2.6829-2.7088 1.5718v3.1436l4.6591 2.683v5.3658L21 29.3849l2.7088-1.5719v-5.3658l4.6592-2.683v-3.1436Zm0 8.5096v-3.1437l-2.7089 1.5718v3.1436l2.7089-1.5717Zm1.9232 1.1111-4.6592 2.6828v3.1438L33 27.813v-8.5095l-2.7088 1.5719v5.3659Zm-2.7087-12.3036 2.7087 1.5718v3.1436L33 17.0813v-3.1436l-2.7088-1.5718-2.7087 1.5718Zm-9.2913 16.1247v3.1437L21 34.7778l2.7088-1.5717v-3.1437L21 31.6342l-2.7088-1.5718Zm-4.6591-4.9322 2.7088 1.5717v-3.1436l-2.7088-1.5718v3.1437Zm4.6591-11.1925L21 15.5095l2.7088-1.5718L21 12.3659l-2.7088 1.5718Zm-6.5824 1.5718 2.7088-1.5718-2.7088-1.5718L9 13.9377v3.1436l2.7088 1.5718v-3.1436Zm0 5.3659L9 19.3035v8.5095l7.3679 4.2549v-3.1438l-4.6591-2.6828v-5.3659Z"/>
</svg>
