<svg xmlns="http://www.w3.org/2000/svg" fill="none" viewBox="0 0 42 42">
  <g clip-path="url(#a)">
    <mask id="b" width="42" height="42" x="0" y="0" maskUnits="userSpaceOnUse" style="mask-type:alpha">
      <circle cx="21" cy="21" r="21" fill="#D9D9D9"/>
    </mask>
    <g mask="url(#b)">
      <path fill="#229E45" d="M52.6251 0H-13v45.9373h65.6251V0Z"/>
      <path fill="#F8E509" fill-rule="evenodd" d="m21.0294 37.1221 24.8138-16.105L20.8807 4.86914-4.01562 21.0558 21.0294 37.1221Z" clip-rule="evenodd"/>
      <path fill="#2B49A3" fill-rule="evenodd" d="M31.8415 20.9977c.0141-1.3853-.2469-2.7596-.7681-4.0435s-1.2921-2.4519-2.2682-3.4364c-.9761-.9846-2.138-1.7662-3.4186-2.2996-1.2805-.5334-2.6542-.808-4.0418-.808-1.3875 0-2.7612.2746-4.0418.808-1.2805.5334-2.4424 1.315-3.4186 2.2996-.9761.9845-1.747 2.1525-2.2681 3.4364-.5212 1.2839-.7823 2.6582-.7681 4.0435-.0142 1.3852.2469 2.7595.7681 4.0434.5211 1.2839 1.292 2.4519 2.2681 3.4365.9762.9846 2.1381 1.7661 3.4186 2.2995 1.2806.5334 2.6543.8081 4.0418.8081 1.3876 0 2.7613-.2747 4.0418-.8081 1.2806-.5334 2.4425-1.3149 3.4186-2.2995.9761-.9846 1.747-2.1526 2.2682-3.4365.5212-1.2839.7822-2.6582.7681-4.0434Z" clip-rule="evenodd"/>
      <path fill="#FFFFEF" fill-rule="evenodd" d="m17.8928 27.2752-.3243-.1872-.3368.1666.0754-.3743-.2602-.2744.372-.0436.1748-.3357.1558.3473.3671.0666-.2753.2577.0515.377Zm7.0347 1.7812-.3243-.1872-.3369.1667.0754-.3744-.2602-.2743.3721-.0436.1747-.3358.1559.3473.367.0667-.2752.2577.0515.3769Zm-3.0301-2.8458-.2802-.1617-.2911.144.0652-.3235-.2248-.237.3215-.0376.1509-.2901.1347.3.3171.0576-.2379.2226.0446.3257Zm7.1029-1.0243-.2751-.1588-.2858.1414.064-.3176-.2207-.2327.3156-.0369.1482-.2848.1322.2946.3113.0565-.2335.2186.0438.3197Zm-7.2334-2.1299-.3243-.1872-.3369.1667.0754-.3744-.2602-.2743.3721-.0436.1747-.3358.1559.3473.367.0667-.2753.2577.0516.3769Zm-8.6612-3.252-.3243-.1871-.3369.1666.0755-.3743-.2602-.2744.372-.0436.1748-.3357.1558.3473.3671.0666-.2753.2577.0515.3769Zm1.0405 4.3262-.3243-.1872-.3368.1667.0754-.3744-.2602-.2743.3721-.0436.1747-.3358.1559.3473.367.0667-.2753.2577.0515.3769Zm10.8101-5.9192-.2865-.1653-.2976.1472.0666-.3307-.2298-.2423.3287-.0385.1543-.2966.1377.3067.3242.0589-.2432.2277.0456.3329Zm-.5943 2.815-.2256-.1302-.2344.1159.0525-.2604-.1811-.1909.2589-.0303.1215-.2336.1085.2416.2553.0464-.1915.1793.0359.2622ZM12.6229 24.911l-.2165-.125-.2249.1113.0503-.2499-.1737-.1832.2484-.0291.1167-.2242.104.2319.2451.0445-.1838.1721.0344.2516Zm16.4379.9995-.1764-.0935-.1833.0832.041-.187-.1415-.137.2024-.0218.0951-.1677.0848.1735.1997.0333-.1498.1287.028.1883Z" clip-rule="evenodd"/>
      <path fill="#FFFFEF" fill-rule="evenodd" d="m12.6229 24.911-.2165-.125-.2249.1113.0503-.2499-.1737-.1832.2484-.0291.1167-.2242.104.2319.2451.0445-.1838.1721.0344.2516Z" clip-rule="evenodd"/>
      <path fill="#FFFFEF" fill-rule="evenodd" d="m12.6229 24.911-.2165-.125-.2249.1113.0503-.2499-.1737-.1832.2484-.0291.1167-.2242.104.2319.2451.0445-.1838.1721.0344.2516Zm3.4478 0-.2166-.125-.2249.1113.0504-.2499-.1737-.1832.2484-.0291.1166-.2242.1041.2319.245.0445-.1838.1721.0345.2516Zm-.4288 1.1484-.2165-.1249-.2249.1113.0504-.25-.1738-.1832.2485-.0291.1166-.2241.1041.2318.245.0446-.1838.172.0344.2516Zm7.1563-2.0859-.2165-.125-.2249.1113.0503-.2499-.1737-.1832.2484-.0291.1167-.2242.104.2319.2451.0445-.1838.1721.0344.2516Zm-2.0996 0-.2165-.125-.2249.1113.0503-.2499-.1737-.1832.2484-.0291.1166-.2242.1041.2319.2451.0445-.1838.1721.0344.2516Zm-5.6962-.734-.1357-.0783-.141.0697.0316-.1566-.1089-.1148.1557-.0182.0731-.1405.0652.1453.1536.0279-.1152.1078.0216.1577Zm13.7909 3.5778-.2165-.125-.2249.1113.0503-.25-.1737-.1831.2484-.0291.1167-.2242.104.2319.2451.0445-.1838.172.0344.2517Zm-1.7473.2289-.1794-.1038-.1863.0924.0417-.2075-.1439-.1521.2058-.0242.0966-.1862.0862.1926.203.037-.1522.1428.0285.209Zm.8243-.0212-.167-.0965-.1736.0859.0389-.193-.134-.1414.1916-.0225.09-.1731.0803.179.1891.0344-.1418.1329.0265.1943Zm2.3687-2.0673-.1609-.0929-.1671.0827.0374-.1857-.1291-.1361.1846-.0216.0867-.1666.0773.1723.1821.0331-.1365.1278.0255.187Zm-3.2143 3.2552-.2101-.1147-.2183.1021.0489-.2294-.1686-.1681.241-.0267.1132-.2058.101.2128.2378.0409-.1783.1579.0334.231Zm.0119.9414-.1917-.1147-.1991.1021.0446-.2294-.1538-.1681.2199-.0267.1033-.2058.0921.2128.2169.0409-.1627.1579.0305.231Zm-1.5886-2.1302-.1609-.0928-.1671.0826.0374-.1857-.1291-.1361.1846-.0216.0867-.1666.0773.1723.1821.0331-.1365.1278.0255.187Zm-1.4887.0039-.1609-.0928-.1672.0826.0374-.1857-.129-.1361.1845-.0216.0867-.1666.0774.1723.1821.0331-.1366.1278.0256.187Zm-2.5289-2.2148-.1608-.0929-.1672.0827.0374-.1857-.1291-.1361.1846-.0217.0867-.1665.0774.1723.1821.033-.1366.1279.0255.187Zm.282 4.5102-.1363-.0786-.1415.07.0317-.1573-.1094-.1153.1564-.0183.0734-.1411.0655.146.1543.028-.1157.1083.0216.1583Zm-3.8196-7.2904-.3243-.1872-.3368.1666.0754-.3743-.2602-.2744.372-.0436.1748-.3357.1558.3473.3671.0666-.2753.2577.0515.377Z" clip-rule="evenodd"/>
      <path fill="#fff" fill-rule="evenodd" d="M31.1503 24.7686c.1597-.4188.3662-1.0491.4763-1.6282-5.5759-4.8985-11.7907-7.4071-19.6453-6.8902-.2822.5391-.5066 1.1044-.6966 1.7153 9.3056-.8873 16.1262 3.2329 19.8656 6.8031Z" clip-rule="evenodd"/>
      <path fill="#309E3A" d="m28.6445 22.0144.1983.1078c-.0303.0705-.0386.1327-.0248.1852.0137.0539.0509.0995.1101.1396.0606.0415.117.0608.1652.0553.0496-.0042.0868-.0249.1102-.0594.0151-.0235.0206-.047.0179-.0719-.0014-.0249-.0152-.0539-.04-.0885-.0178-.0235-.0592-.0719-.1266-.1465-.0854-.0954-.1363-.1755-.1528-.2419-.0234-.0912-.0097-.1755.0426-.2515.0317-.0484.0771-.0843.1322-.1078.0565-.0235.1184-.0291.1845-.0166.0661.0124.1363.0442.2093.094.1198.0815.1927.1686.2161.2626.0262.0926.0097.1852-.0454.275l-.1983-.123c.0248-.0539.0303-.1009.0179-.141-.0124-.04-.0454-.0787-.0991-.1147-.0564-.0387-.1074-.0567-.1542-.0553-.0317.0014-.0537.0139-.0716.0387-.0151.0235-.0179.0484-.0096.0774.0096.0374.055.0982.1335.1839.0785.0857.1322.1561.1597.2101.0303.0539.0427.1105.04.1686-.0014.058-.0234.1175-.0634.1783-.0371.0539-.0867.0953-.15.123-.062.0263-.1281.0332-.1997.0193-.0716-.0152-.1487-.0497-.2313-.1064-.1198-.0815-.1941-.1728-.2203-.2723-.0275-.0995-.011-.2073.0496-.322Zm-.9447-.6222.2024.1009c-.0276.0705-.0345.134-.0179.1852.0179.0525.055.0981.1156.1341.0633.04.1198.0566.168.0497.0495-.0069.0853-.029.1074-.065.0137-.0234.0192-.0469.0151-.0718-.0027-.0249-.0179-.0539-.044-.0871-.0179-.0221-.062-.0691-.1308-.141-.0895-.0912-.1446-.17-.1639-.235-.0261-.0912-.0151-.1755.0317-.2529.0317-.0497.0743-.0884.1294-.1133.0551-.0263.1157-.0346.1831-.0249.0675.0111.1391.0401.2134.0857.1226.076.1983.1617.2272.2529.0289.0926.0165.1852-.0358.2778l-.2024-.1147c.022-.0553.0262-.1023.0124-.1423-.0138-.0387-.0482-.0761-.1046-.1106-.0565-.036-.1088-.0512-.1556-.0484-.0303.0028-.0537.0166-.0688.0415-.0152.0235-.0179.0497-.0083.0774.0124.0373.0592.0967.1404.1783.0826.0829.1391.1506.1694.2032.0316.0525.0468.1091.0468.1672 0 .0581-.0193.1175-.0565.1811-.0358.0553-.084.0981-.1445.1285-.062.029-.1281.0387-.1997.0276-.0716-.0124-.15-.0442-.234-.0967-.1239-.0774-.201-.1645-.2327-.2626-.0303-.0995-.0179-.2073.0372-.3248Zm-1.1705-.3143.5989-.9841.7283.445-.1019.1673-.5287-.3249-.1335.2184.4929.3027-.1005.1659-.4929-.3027-.1625.2681.548.3359-.1019.1659-.7462-.4575Zm-1.7016-1.3968.0882-.1741.4447.2308-.2093.4077c-.0647.0208-.1473.0249-.2465.0138-.0977-.0096-.1886-.0373-.2726-.0801-.106-.0553-.1886-.1258-.245-.2115-.0551-.0871-.0826-.1824-.0799-.2861.0028-.1051.0303-.2059.0799-.3041.055-.1078.1266-.1907.2134-.2502.0867-.0608.1858-.0898.2946-.0898.0826 0 .1721.0249.2699.0746.128.0664.2134.1438.256.235.0441.0899.0524.1866.0248.2916l-.2244-.0677c.011-.0566.0041-.1106-.0207-.1603-.0247-.0498-.066-.0899-.1252-.1216-.0909-.0457-.1776-.0553-.2602-.0249-.0827.0304-.1529.1009-.2107.2142-.062.1216-.0826.2267-.0606.3165.0234.0885.0785.1548.1666.2004.0427.0222.0895.036.1418.0415.0523.0055.1005.0042.1446-.0041l.0661-.13-.2355-.1216Zm-7.4288-1.8402.168-1.1417.3442.0512.0922.8085.3167-.7477.3456.0497-.168 1.1417-.2134-.0304.1322-.8998-.358.8652-.2203-.0317-.0936-.9316-.1322.8984-.2134-.0318Zm-1.1606-.1376.1074-1.1486.8481.0802-.0179.1948-.6168-.058-.0248.2543.5755.0539-.0179.1935-.5755-.0539-.0289.3124.6388.0608-.0179.1935-.8701-.0829Zm-3.8429-.7165c.0028-.1181.0234-.2157.0602-.295.0283-.0579.065-.1101.1108-.1553.0477-.0449.0977-.0785.1527-.0994.0722-.0287.1545-.0415.248-.0392.1695.0045.3035.0606.4015.1699.1002.1079.1469.2564.1416.4429-.0052.1866-.0594.3312-.1636.4345-.1037.1014-.2394.1501-.4089.1455-.1696-.0046-.3046-.0599-.403-.1674-.0973-.1082-.1437-.2537-.1393-.4365Z"/>
      <path fill="#F7FFFF" d="M12.635 16.9844c-.0038.1314.0228.2307.0811.3001.0583.0694.1348.1048.2264.1067.0924.003.1691-.0286.2298-.0929.0611-.0662.0947-.1657.0982-.3002.0037-.1314-.0228-.2307-.0797-.2978-.0551-.0667-.1308-.1011-.2262-.1037-.0964-.002-.1739.0284-.2346.0928-.0606.0643-.092.1624-.095.295Z"/>
      <path fill="#309E3A" d="m13.7582 17.5823.0145-1.1536.4875.0053c.1232.0021.2119.0126.267.0356.0556.0211.1003.0575.1327.1117.0335.0534.0492.1138.0477.1824-.0011.086-.0263.1574-.0782.2127-.0511.0563-.1277.091-.228.1043.05.0296.0907.0622.122.0978.0332.0359.0764.0991.1305.1887l.138.2272-.2775-.0028-.1647-.253c-.0585-.0916-.0983-.1473-.1205-.1712-.0221-.024-.0451-.0394-.0691-.0492-.0245-.0079-.0638-.0141-.1169-.0143l-.0471-.001-.0056.4816-.2323-.0022Z"/>
      <path fill="#fff" d="m13.9991 16.9178.1714.0023c.1109.0005.1811-.0025.2082-.0124.0279-.0088.0495-.0247.0659-.0485.0161-.0219.024-.0513.0242-.0852.0002-.0387-.0097-.0708-.03-.0944-.0203-.0235-.0488-.0401-.0862-.0458-.0197-.0031-.0753-.0049-.1696-.0068l-.181-.0024-.0029.2932Z"/>
      <path fill="#309E3A" d="m15.0711 16.4839.4236.0205c.0953.0049.1676.016.217.033.0661.0242.1232.0618.1684.116.0456.0523.0784.1172.1.1919.0216.0748.0296.1658.0245.2741-.0057.0944-.0219.1765-.0489.2432-.033.0828-.0763.1484-.1331.197-.0413.0377-.0979.0657-.1667.084-.0522.0145-.1215.0189-.2071.0143l-.4358-.0225.0581-1.1515Z"/>
      <path fill="#fff" d="m15.2939 16.6903-.039.7631.1731.0094c.0645.0033.1124.0024.1402-.0035.0389-.008.0708-.0226.0955-.0439.0265-.0208.0489-.0564.067-.1067.0187-.0521.0299-.1217.0341-.2106.0043-.089-.0001-.1585-.0136-.2068-.0123-.049-.0322-.0872-.0596-.1145-.0263-.028-.0615-.0475-.1044-.0591-.0315-.0107-.0951-.0176-.1896-.0214l-.1037-.006Z"/>
      <path fill="#309E3A" d="m20.7196 18.5464.2681-1.1211.3627.0871c.1367.0331.2254.06.2647.081.0592.0322.1051.0824.1342.1489.0292.0664.0342.1449.0117.2337-.0156.069-.0424.1236-.0781.1657-.0361.0409-.077.0692-.1216.0875-.0451.017-.0875.0258-.1295.0244-.0564-.0017-.1356-.0149-.2377-.0396l-.1479-.0361-.1007.4225-.2259-.054Z"/>
      <path fill="#fff" d="m21.1692 17.6678-.0767.3186.1239.0294c.0897.0221.1502.0309.1826.0259.0329-.0038.0608-.0172.0828-.0384.0238-.0205.0393-.0478.047-.0809.0103-.0411.0056-.0767-.0109-.1092-.0177-.0321-.044-.0566-.0797-.0718-.0258-.0118-.0789-.0277-.1605-.0471l-.1085-.0265Z"/>
      <path fill="#309E3A" d="m21.7872 18.8672.3817-1.0874.46.1623c.116.0418.1966.0803.2427.1195.0459.038.0753.0872.0899.1486.013.0604.0089.124-.0131.1881-.0287.0811-.0767.1409-.1435.1765-.0664.0369-.1488.0447-.2492.0253.0378.0442.0658.0882.0841.1319.02.0448.0406.1185.0632.2209l.058.2596-.2619-.0922-.075-.2927c-.0261-.1056-.046-.1712-.0593-.201-.0133-.0298-.0288-.0521-.0497-.0688-.0197-.0171-.0559-.034-.1061-.0513l-.0443-.0161-.1595.4542-.218-.0774Z"/>
      <path fill="#fff" d="m22.2259 18.3192.1615.0575c.1049.0363.1723.0561.2012.0554.0292.0007.0561-.0078.0779-.0246.0223-.0156.0392-.0409.0515-.0732.0126-.0367.0122-.0699.0005-.0988-.0104-.0292-.0334-.0537-.066-.0729-.0173-.0079-.0707-.0272-.1593-.0594l-.1707-.0607-.0966.2767Z"/>
      <path fill="#309E3A" d="M23.1367 18.8246c.0363-.112.082-.2016.1381-.2663.0428-.048.0923-.0882.1486-.1193.0576-.0314.1153-.0489.1735-.0553.0772-.0079.1603.0034.2496.0311.1619.0506.2757.1411.3414.2713.066.1315.0708.2872.0157.4666-.0555.1781-.1468.3025-.2741.3719-.1281.071-.2719.0808-.4325.0298-.1636-.0515-.2787-.1415-.3427-.2708-.0656-.1303-.0709-.283-.0176-.459Z"/>
      <path fill="#fff" d="M23.3682 18.8874c-.0396.1242-.0405.2283-.0018.3106.037.0814.0997.1367.1878.1648.0881.0281.1705.0186.2472-.0285.0758-.0454.1346-.1333.1747-.2605.0388-.1267.0404-.2282.0038-.3083-.0349-.0792-.0986-.1329-.1896-.1615-.091-.0286-.1751-.02-.2509.0254-.0745.045-.1324.1313-.1712.258Z"/>
      <path fill="#309E3A" d="m25.3836 20.4302.5275-1.0254.4333.2259c.109.0561.1837.1068.2239.1507.0402.0439.0627.098.0686.1596.0047.063-.0084.124-.0388.1858-.0396.0763-.0955.1276-.1664.1549-.0709.0274-.1535.0236-.2505-.0109.0315.0504.0533.0979.0654.1438.0136.047.0237.1216.0321.2274l.0216.2639-.2467-.1277-.034-.3003c-.0112-.1068-.022-.1759-.0309-.2059-.0091-.0314-.0215-.057-.0398-.0751-.0171-.0196-.0507-.0413-.098-.0655l-.0416-.0221-.2205.4278-.2052-.1069Z"/>
      <path fill="#fff" d="m25.8939 19.9452.1522.0793c.099.0519.1629.0795.1917.0842.0288.0047.0566 0 .0806-.0136.024-.0137.0444-.035.0609-.0667.0176-.0332.0218-.0662.0142-.0964-.0064-.0317-.0256-.0578-.0553-.0814-.0161-.0102-.0665-.0381-.1497-.081l-.1607-.0837-.1339.2593Z"/>
      <path fill="#309E3A" d="M29.6482 22.5361c.0656-.098.1351-.1692.2087-.2162.0549-.0336.1137-.0578.1766-.0712.0642-.0134.1245-.0134.182-.0027.0762.0161.1525.0497.2301.1021.1405.0954.2234.2149.2488.36.0255.1437-.0147.2941-.119.4499-.1044.1545-.2275.2471-.3693.278-.1431.0296-.2836-.0027-.4241-.098-.1405-.0954-.2248-.2163-.2502-.3586-.0241-.1437.0147-.2915.1164-.4433Z"/>
      <path fill="#fff" d="M29.8517 22.6637c-.0736.1074-.1044.2068-.0923.2968.0134.09.0575.1598.1338.2122.0762.0524.1578.0672.2435.0457.0869-.0229.1685-.0887.2435-.2001.0735-.1088.1043-.2069.0923-.2942-.0121-.0859-.0562-.1558-.1352-.2095-.0802-.0537-.1618-.0698-.2475-.0484-.0856.0215-.1645.0873-.2381.1975Z"/>
      <path fill="#309E3A" d="m19.418 18.0756.1845-.81.5989.1382-.0317.1369-.4351-.1009-.0413.1797.4048.0939-.0317.1355-.4047-.0926-.0496.2198.4502.105-.0317.1355-.6126-.141Z"/>
    </g>
  </g>
  <defs>
    <clipPath id="a">
      <rect width="42" height="42" fill="#fff" rx="21"/>
    </clipPath>
  </defs>
</svg>
