<svg xmlns="http://www.w3.org/2000/svg" fill="none" viewBox="0 0 42 42">
  <path fill="#92D3CF" d="M0 21C0 9.40202 9.40202 0 21 0c11.598 0 21 9.40202 21 21 0 11.598-9.402 21-21 21C9.40202 42 0 32.598 0 21Z"/>
  <mask id="a" width="31" height="31" x="5.30005" y="5.30005" fill="#000" maskUnits="userSpaceOnUse">
    <path fill="#fff" d="M5.30005 5.30005h31v31h-31z"/>
    <path fill-rule="evenodd" d="M20.9099 14.0097c.1787 0 .3235.1448.3235.3234v6.3073h5.1752c.1786 0 .3234.1448.3234.3234s-.1448.3235-.3234.3235h-5.1752v6.3072c0 .1786-.1448.3234-.3235.3234-.1786 0-.3234-.1448-.3234-.3234V14.3331c0-.1786.1448-.3234.3234-.3234Z" clip-rule="evenodd"/>
    <path fill-rule="evenodd" d="M21 7.03626 7.03626 21 21 34.9638 34.9638 21 21 7.03626Zm.305-.6099c-.1684-.16842-.4415-.16842-.6099 0L6.42636 20.6951c-.16842.1684-.16842.4415 0 .6099L20.6951 35.5737c.1684.1685.4415.1685.6099 0L35.5737 21.305c.1685-.1684.1685-.4415 0-.6099L21.305 6.42636Z" clip-rule="evenodd"/>
    <path fill-rule="evenodd" d="M20.9099 26.0851c2.8582 0 5.1752-2.317 5.1752-5.1752s-2.317-5.1752-5.1752-5.1752c-2.8581 0-5.1751 2.317-5.1751 5.1752s2.317 5.1752 5.1751 5.1752Zm0 .6469c3.2155 0 5.8221-2.6067 5.8221-5.8221s-2.6066-5.8221-5.8221-5.8221c-3.2154 0-5.822 2.6067-5.822 5.8221s2.6066 5.8221 5.822 5.8221Z" clip-rule="evenodd"/>
  </mask>
  <path fill="#F3F3F3" fill-rule="evenodd" d="M20.9099 14.0097c.1787 0 .3235.1448.3235.3234v6.3073h5.1752c.1786 0 .3234.1448.3234.3234s-.1448.3235-.3234.3235h-5.1752v6.3072c0 .1786-.1448.3234-.3235.3234-.1786 0-.3234-.1448-.3234-.3234V14.3331c0-.1786.1448-.3234.3234-.3234Z" clip-rule="evenodd"/>
  <path fill="#F3F3F3" fill-rule="evenodd" d="M21 7.03626 7.03626 21 21 34.9638 34.9638 21 21 7.03626Zm.305-.6099c-.1684-.16842-.4415-.16842-.6099 0L6.42636 20.6951c-.16842.1684-.16842.4415 0 .6099L20.6951 35.5737c.1684.1685.4415.1685.6099 0L35.5737 21.305c.1685-.1684.1685-.4415 0-.6099L21.305 6.42636Z" clip-rule="evenodd"/>
  <path fill="#F3F3F3" fill-rule="evenodd" d="M20.9099 26.0851c2.8582 0 5.1752-2.317 5.1752-5.1752s-2.317-5.1752-5.1752-5.1752c-2.8581 0-5.1751 2.317-5.1751 5.1752s2.317 5.1752 5.1751 5.1752Zm0 .6469c3.2155 0 5.8221-2.6067 5.8221-5.8221s-2.6066-5.8221-5.8221-5.8221c-3.2154 0-5.822 2.6067-5.822 5.8221s2.6066 5.8221 5.822 5.8221Z" clip-rule="evenodd"/>
  <path fill="#F3F3F3" d="M21.2334 20.6404h-.3c0 .1656.1343.3.3.3v-.3Zm0 .6469v-.3c-.1657 0-.3.1343-.3.3h.3ZM7.03626 21l-.21213-.2121L6.612 21l.21213.2122L7.03626 21ZM21 7.03626l.2122-.21213L21 6.612l-.2121.21213.2121.21213Zm0 27.92754-.2121.2122.2121.2121.2122-.2121L21 34.9638ZM34.9638 21l.2122.2122.2121-.2122-.2121-.2121-.2122.2121ZM20.6951 6.42636l.2121.21214-.2121-.21214Zm.6099 0-.2121.21214.2121-.21214ZM6.42636 20.6951l-.21213-.2121.21213.2121Zm0 .6099.21214-.2121-.21214.2121ZM20.6951 35.5737l-.2121.2122.2121-.2122Zm14.8786-14.8786.2122-.2121-.2122.2121Zm-14.0403-6.362c0-.3443-.2791-.6234-.6235-.6234v.6c.013 0 .0235.0105.0235.0234h.6Zm0 6.3073v-6.3073h-.6v6.3073h.6Zm4.8752-.3h-5.1752v.6h5.1752v-.6Zm.6234.6234c0-.3443-.2791-.6234-.6234-.6234v.6c.0129 0 .0234.0105.0234.0234h.6Zm-.6234.6235c.3443 0 .6234-.2792.6234-.6235h-.6c0 .013-.0105.0235-.0234.0235v.6Zm-5.1752 0h5.1752v-.6h-5.1752v.6Zm.3 6.0072v-6.3072h-.6v6.3072h.6Zm-.6235.6234c.3444 0 .6235-.2791.6235-.6234h-.6c0 .0129-.0105.0234-.0235.0234v.6Zm-.6234-.6234c0 .3443.2791.6234.6234.6234v-.6c-.0129 0-.0234-.0105-.0234-.0234h-.6Zm.6234-13.8848c-.3443 0-.6234.2791-.6234.6234h.6c0-.0129.0105-.0234.0234-.0234v-.6Zm-.6234.6234v13.2614h.6V14.3331h-.6ZM7.24839 21.2122 21.2122 7.24839l-.4243-.42426L6.82413 20.7879l.42426.4243ZM21.2122 34.7517 7.24839 20.7879l-.42426.4243L20.7879 35.176l.4243-.4243Zm13.5395-13.9638L20.7879 34.7517l.4243.4243L35.176 21.2122l-.4243-.4243ZM20.7879 7.24839 34.7517 21.2122l.4243-.4243L21.2122 6.82413l-.4243.42426Zm.1193-.60989c.0513-.05127.1344-.05127.1857 0l.4242-.42427c-.2855-.28558-.7486-.28558-1.0341 0l.4242.42427ZM6.6385 20.9072 20.9072 6.6385l-.4242-.42427L6.21423 20.483l.42427.4242Zm0 .1857c-.05127-.0513-.05127-.1344 0-.1857l-.42427-.4242c-.28558.2855-.28558.7486 0 1.0341l.42427-.4242Zm14.2687 14.2687L6.6385 21.0929l-.42427.4242L20.483 35.7859l.4242-.4243Zm.1857 0c-.0513.0513-.1344.0513-.1857 0l-.4242.4243c.2855.2855.7486.2855 1.0341 0l-.4242-.4243Zm14.2687-14.2687L21.0929 35.3616l.4242.4243 14.2688-14.2688-.4243-.4242Zm0-.1857c.0513.0513.0513.1344 0 .1857l.4243.4242c.2855-.2855.2855-.7486 0-1.0341l-.4243.4242ZM21.0929 6.6385l14.2687 14.2687.4243-.4242L21.5171 6.21423l-.4242.42427Zm4.6922 14.2714c0 2.6925-2.1827 4.8752-4.8752 4.8752v.6c3.0239 0 5.4752-2.4513 5.4752-5.4752h-.6Zm-4.8752-4.8752c2.6925 0 4.8752 2.1827 4.8752 4.8752h.6c0-3.0239-2.4513-5.4752-5.4752-5.4752v.6Zm-4.8751 4.8752c0-2.6925 2.1827-4.8752 4.8751-4.8752v-.6c-3.0238 0-5.4751 2.4513-5.4751 5.4752h.6Zm4.8751 4.8752c-2.6924 0-4.8751-2.1827-4.8751-4.8752h-.6c0 3.0239 2.4513 5.4752 5.4751 5.4752v-.6Zm5.5221-4.8752c0 3.0498-2.4723 5.5221-5.5221 5.5221v.6c3.3812 0 6.1221-2.741 6.1221-6.1221h-.6Zm-5.5221-5.5221c3.0498 0 5.5221 2.4723 5.5221 5.5221h.6c0-3.3811-2.7409-6.1221-6.1221-6.1221v.6Zm-5.522 5.5221c0-3.0498 2.4723-5.5221 5.522-5.5221v-.6c-3.3811 0-6.122 2.741-6.122 6.1221h.6Zm5.522 5.5221c-3.0497 0-5.522-2.4723-5.522-5.5221h-.6c0 3.3811 2.7409 6.1221 6.122 6.1221v-.6Z" mask="url(#a)"/>
</svg>
