<svg xmlns="http://www.w3.org/2000/svg" fill="none" viewBox="0 0 42 42">
  <circle cx="21" cy="21" r="20" fill="#222"/>
  <path fill="#fff" d="M35.6921 17.9841c-.1987-.9652-.4924-1.9083-.8769-2.8155-.3789-.8937-.8425-1.749-1.3845-2.5542-.5374-.7956-1.1505-1.5373-1.8305-2.215-.6781-.68012-1.4203-1.29314-2.2162-1.83049-.8065-.53925-1.6611-1.00273-2.553-1.3845-1.8444-.78226-3.8273-1.18539-5.8307-1.18539s-3.9864.40313-5.8308 1.18539c-1.7834.75226-3.4033 1.84469-4.7691 3.21629-.68001.6772-1.29303 1.4186-1.83051 2.2137-.53932.8068-1.0028 1.6619-1.38451 2.5542C6.40313 17.0129 6 18.9959 6 20.9993s.40313 3.9864 1.18538 5.8308c.36937.892.84679 1.7375 1.38451 2.5529.53745.7959 1.15046 1.5381 1.83051 2.2162.678.6801 1.4202 1.2932 2.2162 1.8305.7991.5377 1.6609 1.0001 2.5529 1.3845 1.8444.7823 3.8274 1.1854 5.8308 1.1854s3.9863-.4031 5.8307-1.1854c.8921-.3694 1.7376-.8468 2.553-1.3845.7959-.5373 1.5381-1.1504 2.2162-1.8305.6801-.678 1.2931-1.4202 1.8305-2.2162.5377-.7991 1-1.6609 1.3845-2.5529 1.1835-2.7913 1.4894-5.8767.8769-8.846ZM21.0141 34.122c-7.2454 0-13.10631-5.8773-13.10631-13.1076S13.785 7.90681 21.0141 7.90681c7.2303 0 13.1076 5.87729 13.1076 13.10759S28.2457 34.122 21.0141 34.122Z"/>
  <path fill="#fff" d="M21.2464 32.9844h.3543c.0616 0 .1219 0 .1834-.0164h.0164c.0615 0 .1068 0 .1683-.015h.0465c.0465 0 .093 0 .1382-.0151H22.2c.0465 0 .093-.0151.1545-.0151h.0302c.0615 0 .1231-.0163.1847-.0163.0615 0 .108-.0151.1696-.0302h.0301c.0465 0 .093-.015.1382-.015h.0314c.0616-.0164.1081-.0164.1696-.0315.1219-.015.245-.0464.3531-.0766h.0314c.0452-.0151.1068-.0151.1533-.0314h.015c.1232-.0302.2312-.0616.3543-.0917-1.1523.0365-2.3046-.072-3.4298-.3229-1.6936-.3694-3.308-1.0302-4.6774-2.1697-1.0796-.8985-1.9461-2.0257-2.5366-3.3-.5906-1.2744-.8906-2.6641-.8782-4.0686.0111-2.0953.7566-4.1204 2.1069-5.7227 1.7539-2.0767 4.2465-3.1698 6.7994-3.2313h.3543v-2.0454h-.3995c-.7767.0143-1.5499.1069-2.308.2764-.7628.1725-1.5052.4252-2.2149.7538-.7237.3393-1.4009.7539-2.0315 1.2313-.6518.4954-1.2452 1.0631-1.769 1.6923-.4932.5823-.9212 1.2167-1.2765 1.8921-.3514.651-.6352 1.3364-.8467 2.0453-.2076.698-.3464 1.4146-.4146 2.1396l-.0465.6759v.3995c.0151.7852.108 1.5541.2764 2.308.1696.7701.4309 1.5076.7538 2.2162.3857.8455 1.0779 2.0918 2.1082 3.0303 2.1035 1.6583 4.705 2.5582 7.3836 2.5542h.2776Z"/>
  <path fill="#fff" d="M24.5998 31.0121c-.7588-.0271-1.5146-.1094-2.2614-.2463-3.1686-.5691-5.8924-2.5077-6.8912-5.4299-1.2161-3.5543.6458-7.4 4.1837-8.5684.6742-.2259 1.3808-.3405 2.0918-.3392.9084 0 1.8155.1847 2.6472.5226l.8606-1.8305c-.2588-.1037-.5202-.2009-.784-.2915-.8814-.2766-1.7999-.4168-2.7238-.4158-.9255.0017-1.8448.1523-2.7225.446-1.1202.3695-2.1519.9666-3.0303 1.7539-.4237.3773-.8099.7947-1.1534 1.2463-.3395.4464-.6333.9258-.8769 1.431-.4961 1.0156-.7888 2.1184-.8619 3.2464-.0766 1.1684.0767 2.3368.4611 3.4449.3917 1.1399 1.0213 2.1836 1.8469 3.0618.7538.8153 1.6307 1.431 2.6911 2.0001 1.1081.5842 2.4775.892 3.9073 1.093.9234.1219 2.1546.1533 2.877.1533.6307-.2312.892-.3392 1.2312-.4774.2928-.1382.5843-.2764.877-.446.2927-.1696.3392-.201.8304-.5227.0438-.0272.085-.0583.1232-.0929-1.6924.2927-2.1233.2764-3.3231.2613Z"/>
  <path fill="#fff" d="M28.3845 28.7226c-.4774.0302-1.1546.0754-1.9235.0754-1.3694 0-3.0467-.1219-4.4764-.5993-2.2162-.7375-4.3081-2.6295-4.3081-4.9689-.0004-.5536.1082-1.102.3199-1.6136.2116-.5116.5221-.9765.9136-1.368.3915-.3915.8564-.702 1.368-.9136.5116-.2117 1.06-.3203 1.6136-.3198 1.5843 0 2.9537.8769 3.6774 2.1533l1.8305-.907c-.287-.5404-.6557-1.0333-1.093-1.4612-.5795-.5805-1.2678-1.041-2.0254-1.3552-.7577-.3142-1.5699-.4759-2.3901-.4759-.8202 0-1.6324.1617-2.3901.4759-.7576.3142-1.4459.7747-2.0254 1.3552-.5803.5795-1.0406 1.2677-1.3547 2.0252-.3141.7575-.4758 1.5696-.4758 2.3897.0041.8594.1881 1.7085.5403 2.4926.3216.7073.7688 1.3694 1.338 1.985 1 1.0755 2.3682 1.9373 3.8306 2.4298 1.3996.4611 3.4613.6307 5.4614.4925.5528-.0465.9686-.093 1.676-.2463.6826-.5386 1.3021-1.1527 1.8468-1.8305-.4774.0465-1.3543.1382-1.9536.1847Z"/>
</svg>
