<svg xmlns="http://www.w3.org/2000/svg" fill="none" viewBox="0 0 42 42">
  <path fill="#B02728" d="M21 41c11.0457 0 20-8.9543 20-20S32.0457 1 21 1 1 9.9543 1 21s8.9543 20 20 20Z"/>
  <circle cx="10.8998" cy="10.8998" r="1.6" fill="#F3F3F3"/>
  <circle cx="16.1" cy="22.3002" r="1.6" fill="#F3F3F3"/>
  <circle cx="31.1" cy="10.8998" r="1.6" fill="#F3F3F3"/>
  <circle cx="25.8002" cy="22.3002" r="1.6" fill="#F3F3F3"/>
  <circle cx="21.1" cy="34.1" r="1.6" fill="#F3F3F3"/>
  <path stroke="#F3F3F3" d="M11 11h20m-20 0 15 11.75M11 11l5 11.75M31 11l-5 11.75M31 11 16 22.75m10 0L21 34.5l-5-11.75"/>
</svg>
