<svg xmlns="http://www.w3.org/2000/svg" fill="none" viewBox="0 0 42 42">
  <mask id="a" width="42" height="42" x="0" y="0" maskUnits="userSpaceOnUse" style="mask-type:alpha">
    <circle cx="21" cy="21" r="21" fill="#D9D9D9"/>
  </mask>
  <g mask="url(#a)">
    <path fill="#EE1C25" d="M63 0H0v42h63V0Z"/>
    <path fill="#FF0" d="m10.4985 4.2041 3.703 11.3968-9.69466-7.04361H16.4902L6.79545 15.6009 10.4985 4.2041Zm11.3243-1.946-.3506 3.97902-2.0552-3.4252 3.676 1.56307-3.8927.89609 2.6225-3.01298Zm4.8847 4.67152-1.8672 3.53108-.5649-3.95424 2.7813 2.86705-3.9354-.6847 3.5862-1.75919Zm.4632 7.04608-3.1453 2.4622 1.0974-3.8407 1.3697 3.7522-3.3137-2.2305 3.9919-.1432Zm-5.4298 2.9506-.1854 3.9902-2.1954-3.3371 3.7376 1.4093-3.8522 1.0568 2.4954-3.1192Z"/>
  </g>
</svg>
