<svg xmlns="http://www.w3.org/2000/svg" fill="none" viewBox="0 0 42 42">
  <path fill="#60D09A" d="M21 42c11.5983 0 21-9.4017 21-21S32.5983 0 21 0 0 9.4017 0 21s9.4017 21 21 21Z"/>
  <path fill="#F3F3F3" fill-rule="evenodd" d="M12.1318 28.0403c-.6279-.3843-1.0122-1.0668-1.0122-1.8018v-4.1034c0-.4872.3969-.882.8841-.8799.1554 0 .3087.042.4431.1197l9.2589 5.3991c.5418.315.8757.8946.8757 1.5225v4.2504c.0021.5838-.4704 1.0584-1.0542 1.0584-.1953 0-.3885-.0546-.5544-.1554l-8.841-5.4096Zm13.8012-7.7889c.5418.315.8736.8967.8757 1.5225v8.6268c0 .2541-.1365.4893-.3591.6132l-2.0265 1.1403c-.0252.0147-.0525.0252-.0819.0336v-4.7901c0-.6195-.3255-1.1949-.8589-1.5141L15.3511 21.02v-5.4075c0-.4872.3969-.882.8841-.8799.1554 0 .3087.042.4431.1197l9.2547 5.3991Zm4.053-6.3714c.5439.315.8778.8967.8778 1.5246v12.6c-.0021.2583-.1449.4956-.3717.6195l-1.9215 1.0374v-8.7717c0-.6195-.3255-1.1928-.8547-1.512l-8.3118-4.9854V9.26421c0-.1554.042-.3087.1176-.4431.2457-.42.7854-.5628 1.2054-.3192L29.986 13.88Z" clip-rule="evenodd"/>
</svg>
