<svg xmlns="http://www.w3.org/2000/svg" fill="none" viewBox="0 0 42 42">
  <circle cx="21" cy="21" r="21" fill="#721BFF"/>
  <path fill="#F3F3F3" fill-rule="evenodd" d="M19.0795 7.42438c3.087.64525 10.2497 3.36612 13.5784 6.71002 1.0009.9916 1.7424 2.2144 2.1588 3.5604.4164 1.3459.4949 2.7737.2287 4.1572-.2956 1.6211-.6644 3.1818-2.8899 4.0273-1.0861.4141-4.99 1.5539-8.2108 2.4943-1.6336.477-3.0915.9027-3.9168 1.1563l-.0232.0811c-.4165 1.4176-1.5165 4.4977-3.5957 5.1779-3.0329.9917-5.2552-1.6529-6.60952-4.9809-.78208-1.923-2.09826-6.0838-2.27312-9.7582-.13988-2.9879.15896-8.1309 3.85004-11.47795 2.2127-2.00251 4.9245-1.72915 7.7031-1.14747ZM18.0441 25.3457c.3958 3.3117-.7464 6.1716-2.5511 6.3877-1.8048.2161-3.5887-2.2935-3.9845-5.6052-.3957-3.3118.7465-6.1716 2.5512-6.3877 1.8048-.2161 3.5886 2.2934 3.9844 5.6052Zm7.0985-9.3677c-3.3811-.967-4.6623-.7947-5.6223-.549-.2862.0732-.2119.3492-.1371.549.0256.0684.056.1448.0903.2309.1493.375.3723.9351.5953 1.8279.2434.9745.4 2.2393.4108 2.6976.0074.0299.0181.04.0478.0448.8529-.0496 2.8926-.223 4.6152-.5463 1.7241-.3236 3.7207-.9652 4.5724-1.2936.0406-.0157.0312-.0746 0-.1335-.331-.6249-1.5994-1.9775-4.5724-2.8278Z" clip-rule="evenodd"/>
</svg>
