<svg xmlns="http://www.w3.org/2000/svg" fill="none" viewBox="0 0 42 42">
  <circle cx="21.0002" cy="20.9999" r="18.6667" fill="#F3F3F3"/>
  <path fill="#EBBB4D" d="M21.6598 42h-1.297c-.0371-.0185-.0741-.0185-.1112-.0185-1.0561-.037-2.0937-.148-3.1313-.3515-2.1122-.407-4.1318-1.1101-6.0403-2.1276-2.35309-1.2581-4.39122-2.9047-6.11437-4.9398-1.96402-2.3311-3.37218-4.9953-4.205963-7.9739C.444683 25.4601.24087 24.3316.111171 23.166c-.0370571-.4255-.074114-.851-.0926425-1.2951v-.259c0-.0925.0185284-.2035-.0185285-.296v-.6105c.0185285-.037.0185285-.074.0185285-.1295v-.4996c.0370569-.888.1296995-1.7576.2779275-2.6271.370569-2.1461 1.056124-4.1997 2.075184-6.1423 1.61198-3.07119 3.8354-5.58732 6.67025-7.56693C10.728 2.57441 12.5438 1.66786 14.4893 1.03883c1.964-.647534 4.0021-.9805519 6.0773-1.03605485C21.771-.0157258 22.9568.0582781 24.1426.224787c1.5749.240513 3.1128.647534 4.5951 1.239563 3.2239 1.29507 6.0032 3.23767 8.2451 5.90182 2.9275 3.44113 4.558 7.41893 4.9471 11.91463.1112 1.3691.0927 2.7381-.0741 4.1072-.1482 1.2951-.4076 2.5531-.7967 3.7927-1.2785 4.0332-3.5575 7.4004-6.8555 10.083-2.1494 1.7576-4.5766 3.0157-7.2262 3.8113-1.5563.4625-3.1498.74-4.7618.8325-.1667.074-.3705.0555-.5558.0925ZM16.2865 9.36427h-5.1324c-.0926 0-.1482.0555-.1482.14801v7.10442c0 .296-.0185.296-.2964.296H7.94871c-.20381 0-.22234.0185-.22234.222v2.3496c0 .0925.05559.1295.1297.1295h2.92753c.1853 0 .2038.0185.2038.2035v2.4052c0 .2405-.0185.2775-.2779.2775H7.80049c-.07412 0-.11118 0-.11118.0925v2.3866c0 .2035.03706.222.24087.222h2.85342c.1667 0 .1853.0185.1853.2035v7.1229c0 .148 0 .148.1482.148h7.8005c.6299 0 1.2599.0185 1.9084 0 1.2599-.037 2.4828-.2035 3.6872-.5735 1.4081-.4255 2.7051-1.0361 3.8724-1.9241 1.649-1.2581 2.8905-2.8307 3.6316-4.7733.0556-.1295.1668-.2035.315-.2035h2.5013c.0371 0 .0741 0 .1112-.0185.0926-.0185.1482-.074.1668-.1665v-1.5356c0-.2775-.0186-.555.037-.8325.0185-.111-.0185-.148-.1297-.148h-1.9455c-.2779 0-.2964-.0185-.2779-.296.0556-.7771.0556-1.5726 0-2.3497-.0185-.2035.0185-.2405.2223-.2405h1.8529c.1853 0 .2594-.0555.2594-.2405v-2.2201c0-.2035-.0371-.2405-.2409-.2405h-2.4643c-.1482 0-.2964-.0925-.3335-.2405-.2038-.5736-.4632-1.1286-.7967-1.6466-1.0747-1.7761-2.5199-3.1637-4.3357-4.1442-1.9269-1.0361-3.9651-1.53563-6.1514-1.53563-1.4823 0-3.0016.0185-4.521.0185Z"/>
  <path fill="#EBBB4D" d="M21.4192 17.0063h-7.4485c-.3335 0-.3335 0-.3335-.3331v-4.4957c0-.296.0185-.333.3335-.333h6.9853c2.2975 0 4.3171.7215 6.0958 2.2016.8709.7215 1.5564 1.5911 2.0567 2.6086.037.0555.0556.1295.0556.2035-.0186.1481-.0186.1481-.1853.1481h-7.5596Zm-.278 8.233h6.9667c.2965 0 .5744-.037.8709-.0185.1853 0 .2594.0555.1482.259-.0926.185-.1853.37-.2964.555-.8153 1.3136-1.89 2.3496-3.2611 3.0712-.5002.259-1.019.4995-1.5563.6475-.5374.1665-1.0747.3145-1.6491.3885-.4817.074-.9449.1665-1.4267.1665h-6.9852c-.315 0-.315-.0185-.315-.333v-4.4032c0-.074 0-.148.0185-.222 0-.074.0556-.111.1297-.111h7.3558Zm.7037-2.7386h-7.8746c-.315 0-.315 0-.315-.3146v-2.3496c.0185-.1665.0741-.2035.2223-.222H29.738c.2594 0 .2964.037.315.296.0556.7956.0556 1.5911-.0186 2.4051-.0185.1481-.0555.1851-.2038.2036h-.1111c-2.6311-.0185-5.2621-.0185-7.8746-.0185Z"/>
</svg>
