<svg xmlns="http://www.w3.org/2000/svg" fill="none" viewBox="0 0 42 42">
  <path fill="#008CE7" d="M21 41c11.0457 0 20-8.9543 20-20S32.0457 1 21 1 1 9.9543 1 21s8.9543 20 20 20Z"/>
  <path fill="#F3F3F3" d="M24.8161 11h-8.9683l-.7438 4.1555 8.095.0096c3.9876 0 5.1632 1.4491 5.1296 3.8483-.0192 1.2284-.5518 3.311-.7821 3.9876-.6142 1.7994-1.8762 3.8483-6.6075 3.8435l-7.8695-.0048L12.3281 31h8.9492c3.1574 0 4.4961-.3695 5.9213-1.0221 3.1526-1.4635 5.0288-4.5729 5.7821-8.6324C34.0964 15.2994 32.7048 11 24.8161 11Z"/>
  <path fill="#F3F3F3" d="M11.9772 18.9131c-2.35124 0-2.68713 1.5307-2.90786 2.4568-.29271 1.2092-.38868 1.7035-.38868 1.7035h9.18424c2.3513 0 2.6872-1.5308 2.9079-2.4569.2927-1.2092.3887-1.7034.3887-1.7034h-9.1843Z"/>
</svg>
