<svg xmlns="http://www.w3.org/2000/svg" fill="none" viewBox="0 0 42 42">
  <circle cx="21" cy="21" r="20" fill="#222"/>
  <path fill="#5B10FF" fill-rule="evenodd" d="M21 7c7.7389 0 14 6.2611 14 14 0 7.6611-6.1444 13.8833-13.7667 14H21V23.2167l-1.7889 1.7889-.2333 4.4333L20.8444 35c-1.0888 0-2.1388-.1556-3.1888-.4278l-.2723-.0778-.8944-2.6833-2.5278 1.2833c-.9333-.5444-1.7889-1.1666-2.5667-1.9055l-.1944-.1945 4.7056-2.3722.1555-2.6833-2.6833.1555L11.0056 30.8c-.7389-.7778-1.40004-1.6333-1.94449-2.5278l-.15555-.2333 1.28334-2.5278-2.68334-.8944c-.27223-1.05-.42778-2.1-.46667-3.15v-.2723l5.60001 1.8667 4.4333-.2333 1.7889-1.7889-1.7889-1.7889-4.4333-.2333L7 20.8444c0-1.0888.15556-2.1777.38889-3.1888l.07778-.2723 2.68333-.8944-1.28333-2.5278c.54444-.9333 1.16663-1.7889 1.90553-2.5667l.1945-.1944 2.3722 4.7056 2.6833.1555-.1555-2.6833-4.7056-2.3722c.7778-.7389 1.6333-1.40004 2.5278-1.94449l.2333-.15555L16.45 10.1889l.8944-2.68334c1.05-.27223 2.1-.42778 3.15-.46667h.2723L18.9 12.6l.2333 4.4333 1.7889 1.7889C21 18.7833 21 7 21 7Zm3.1111 3.5778v20.8833C28.5833 30.1 31.8889 25.9389 31.8889 21c0-4.8611-3.2278-8.9833-7.6222-10.3833l-.1556-.0389Z" clip-rule="evenodd"/>
</svg>
