<svg xmlns="http://www.w3.org/2000/svg" fill="none" viewBox="0 0 42 42">
  <path fill="#C3A634" d="M21 41c11.0457 0 20-8.9543 20-20S32.0457 1 21 1 1 9.9543 1 21s8.9543 20 20 20Z"/>
  <path fill="#F3F3F3" fill-rule="evenodd" d="M13.5425 31.8022h7.243s10.1844.8536 10.1844-10.6282c0-11.0366-9.3001-10.9975-11.0976-10.9899-.042.0001-.08.0003-.1136.0003h-6.2164v9.6298h-2.553v2.3588h2.5532v9.6292Zm4.0796-17.6215h2.8576c1.0688 0 6.446.4302 6.4546 7.0716.0085 6.5623-5.413 6.5555-6.2851 6.5544h-3.0271v-5.6334h4.4958v-2.3588h-4.4958v-5.6338Z" clip-rule="evenodd"/>
</svg>
