<svg xmlns="http://www.w3.org/2000/svg" fill="none" viewBox="0 0 42 42">
  <circle cx="21" cy="21" r="20" fill="#F3F3F3"/>
  <path fill="#fff" d="m23.6719 16.5996-4.9546 2.8531c-.0629.0361-.1149.0883-.1509.1511-.036.0629-.0546.1343-.0538.2067v2.3938c-.0007.0707.018.1403.0541.2012.0361.0609.0882.1107.1506.1441l2.075 1.1969c.0591.0375.1276.0574.1976.0574s.1386-.0199.1977-.0574l8.5625-4.9313c1.4531-.8406 1.4531-3.2625 0-4.1031l-7.6953-4.4313c-.3211-.1939-.689-.29642-1.0641-.29642-.3751-.00001-.743.10252-1.0641.29642l-7.6937 4.4328c-.3285.1836-.6017.4519-.7911.777-.1893.3252-.2879.6952-.2855 1.0715 0 2.9687.0125 5.9234 0 8.8781-.0031.3757.0946.7453.2828 1.0703.1883.3251.4602.5938.7875.7781l7.6938 4.4454c.3231.188.6902.287 1.064.287.3739 0 .741-.099 1.0641-.287l7.7016-4.4454c.3265-.1841.5972-.4531.7834-.7785.1863-.3254.281-.695.2744-1.0699v-3.8594l-9.1594 5.3c-.2005.119-.4293.1818-.6625.1818-.2331 0-.462-.0628-.6625-.1818l-4.0906-2.3703c-.2033-.114-.3721-.2806-.4887-.4825-.1166-.2018-.1766-.4313-.1738-.6644v-4.725c-.001-.2293.0583-.4549.1722-.654.1138-.1992.2781-.3648.4762-.4803 1.3641-.7907 2.7391-1.5797 4.1031-2.3703.2008-.1182.4296-.1805.6625-.1805.233 0 .4618.0623.6625.1805l2.0313 1.1593c.0262.0163.0478.0392.0625.0664.0147.0271.0222.0576.0215.0885-.0006.0309-.0093.0611-.0251.0877-.0158.0265-.0383.0485-.0652.0637Z"/>
  <path fill="#fff" d="M20.9988 6.83008c-2.8023 0-5.5417.83098-7.8717 2.38786-2.33 1.55686-4.14608 3.76976-5.21848 6.35876-1.0724 2.589-1.35299 5.4378-.80629 8.1863.54671 2.7485 1.89615 5.2731 3.87767 7.2546 1.9816 1.9816 4.5062 3.331 7.2546 3.8777 2.7485.5467 5.5974.2661 8.1864-.8063 2.589-1.0724 4.8018-2.8884 6.3587-5.2184 1.5569-2.3301 2.3879-5.0695 2.3879-7.8718 0-1.8606-.3665-3.7031-1.0785-5.4221-.7121-1.7191-1.7558-3.281-3.0714-4.5967C29.702 9.66432 28.14 8.62066 26.421 7.90861c-1.7191-.71205-3.5615-1.07853-5.4222-1.07853Zm2.6719 9.45942-2.0312-1.1594c-.2008-.1182-.4296-.1805-.6625-.1805-.233 0-.4618.0623-.6625.1805-1.3641.7906-2.7391 1.5797-4.1032 2.3703-.1981.1155-.3624.2811-.4762.4803-.1138.1991-.1732.4247-.1722.6541v4.725c-.0028.233.0572.4625.1738.6644.1166.2018.2854.3684.4887.4824l4.0891 2.3704c.2005.1189.4293.1817.6625.1817.2331 0 .4619-.0628.6625-.1817l9.1593-5.3v3.8593c.0075.3741-.0861.7432-.2709 1.0685-.1848.3254-.454.5948-.7791.78l-7.6937 4.4453c-.3231.188-.6903.287-1.0641.287s-.7409-.099-1.064-.287l-7.6954-4.4453c-.3284-.1835-.6016-.4519-.791-.777-.1894-.3252-.288-.6952-.2855-1.0715.0125-2.9547 0-5.9109 0-8.8781-.0031-.3756.0946-.7452.2828-1.0703.1882-.3251.4602-.5938.7875-.7781l7.6937-4.4328c.3211-.194.689-.29651 1.0641-.29651.3751 0 .743.10251 1.0641.29651l7.7015 4.4328c1.4532.8406 1.4532 3.2625 0 4.1031l-8.5625 4.9297c-.0591.0375-.1276.0574-.1976.0574s-.1386-.0199-.1977-.0574l-2.075-1.1969c-.0624-.0334-.1144-.0832-.1505-.1441-.0361-.0609-.0548-.1304-.0542-.2012v-2.3938c-.0007-.0724.0179-.1437.0538-.2066.036-.0629.0881-.1151.1509-.1512l4.9547-2.8531c.0266-.0158.0486-.0382.0638-.065.0153-.0269.0233-.0572.0233-.0881 0-.0309-.008-.0613-.0233-.0881-.0152-.0269-.0372-.0493-.0638-.065Z"/>
  <path fill="url(#a)" d="M21 1c-3.9556 0-7.8224 1.17298-11.1114 3.37061-3.28898 2.19763-5.85243 5.3212-7.36618 8.97569C1.00867 17.0009.612599 21.0222 1.3843 24.9018c.77171 3.8796 2.67652 7.4433 5.47357 10.2403 2.79705 2.7971 6.36073 4.7019 10.24033 5.4736s7.901.3756 11.5555-1.1381c3.6545-1.5138 6.7781-4.0772 8.9757-7.3662C39.827 28.8224 41 24.9556 41 21c0-5.3043-2.1071-10.3914-5.8579-14.14214C31.3914 3.10714 26.3043 1 21 1Zm2.6719 15.2906-2.0313-1.1593c-.2008-.1182-.4295-.1805-.6625-.1805-.2329 0-.4617.0623-.6625.1805-1.364.7906-2.739 1.5796-4.1031 2.3703-.1982.1155-.3624.2811-.4762.4802-.1139.1992-.1733.4248-.1722.6541v4.725c-.0028.2331.0572.4626.1738.6644.1166.2018.2854.3685.4887.4825l4.089 2.3703c.2005.119.4294.1818.6625.1818.2332 0 .462-.0628.6625-.1818l9.1594-5.3v3.8594c.0074.3741-.0862.7432-.271 1.0685-.1848.3253-.4539.5948-.779.7799l-7.6937 4.4453c-.3231.1881-.6903.2871-1.0641.2871s-.741-.099-1.0641-.2871l-7.6953-4.4453c-.3285-.1835-.6017-.4518-.791-.777-.1894-.3251-.288-.6951-.2855-1.0714.0125-2.9547 0-5.9109 0-8.8781-.0031-.3757.0945-.7453.2828-1.0704.1882-.325.4601-.5937.7875-.7781l7.6937-4.4328c.3211-.1939.689-.29643 1.0641-.29643.3751 0 .743.10253 1.064.29643l7.7016 4.4328c1.4531.8407 1.4531 3.2625 0 4.1032l-8.5625 4.9296c-.0591.0376-.1276.0575-.1976.0575-.0701 0-.1386-.0199-.1977-.0575l-2.075-1.1968c-.0624-.0334-.1145-.0832-.1505-.1441-.0361-.0609-.0549-.1305-.0542-.2012v-2.3938c-.0007-.0724.0178-.1438.0538-.2067.036-.0628.0881-.115.1509-.1511l4.9547-2.8531c.0265-.0158.0485-.0382.0638-.0651.0153-.0268.0233-.0572.0233-.0881 0-.0308-.008-.0612-.0233-.088-.0153-.0269-.0373-.0493-.0638-.0651Z"/>
  <defs>
    <linearGradient id="a" x1="-13.2531" x2="54.5641" y1="-20.1047" y2="61.2766" gradientUnits="userSpaceOnUse">
      <stop stop-color="#273498"/>
      <stop offset=".53" stop-color="#0074C2"/>
      <stop offset="1" stop-color="#00ABE7"/>
    </linearGradient>
  </defs>
</svg>
