<svg xmlns="http://www.w3.org/2000/svg" fill="none" viewBox="0 0 42 42">
  <path fill="#F3F3F3" d="M21 41c11.0457 0 20-8.9543 20-20S32.0457 1 21 1 1 9.9543 1 21s8.9543 20 20 20Z"/>
  <path fill="#030303" fill-rule="evenodd" d="M28.2108 13.7701c-.0939-.0939-.1503-.1878-.1503-.3192 0-.1315.0564-.2254.1503-.3193.1878-.169.4882-.169.6948 0 .0939.0939.1502.1878.1502.3193 0 .1314-.0563.2253-.1502.3192-.0939.0751-.2253.1315-.338.1315-.1315.0188-.2629-.0188-.3568-.1315Zm-1.2014 1.2959c-.0751-.0939-.1315-.1878-.1315-.3192 0-.1315.0564-.2254.1315-.3193.169-.169.4695-.169.6385 0 .0751.0939.1314.1878.1314.3193 0 .1314-.0563.2253-.1314.3192-.0939.0751-.1878.1315-.3193.1315-.1314 0-.2253-.0564-.3192-.1315Zm-1.315 1.2393c-.0751-.0751-.1314-.1878-.1314-.3193 0-.1314.0563-.2253.1314-.3192.1691-.169.4695-.169.6385 0 .0751.0751.1315.1878.1315.3192 0 .1315-.0564.2254-.1315.3193-.0939.0939-.1878.1314-.3192.1314-.1315 0-.2441-.0563-.3193-.1314Zm-1.258 1.2578c-.0939-.0751-.1503-.1878-.1503-.3192 0-.1315.0564-.2254.1503-.3193.1878-.169.4882-.169.6948 0 .0939.0751.1502.1878.1502.3193 0 .1314-.0563.2441-.1502.3192-.0939.0939-.2254.1315-.338.1315-.1315 0-.2442-.0188-.3568-.1315Zm-1.2019 1.2578c-.0939-.0751-.1315-.1878-.1315-.3192 0-.1315.0564-.2254.1315-.3193.169-.169.4695-.169.6385 0 .0939.0751.1314.1878.1314.3193 0 .1314-.0563.2441-.1314.3192-.0751.0939-.1878.1315-.3193.1315-.1126.0187-.2441-.0188-.3192-.1315Zm-1.4459.9396c0-.1315.0563-.2254.1314-.3193.169-.169.4695-.169.6385 0 .0939.0939.1315.1878.1315.3193 0 .1314-.0564.2253-.1315.3192-.0751.0751-.1878.1315-.3192.1315-.1315 0-.2254-.0564-.3193-.1315-.0939-.0751-.1314-.1878-.1314-.3192Zm-2.3476 2.7792c-.0751-.0752-.1314-.1878-.1314-.3193 0-.1314.0563-.2253.1314-.3192.169-.169.4695-.169.6385 0 .0939.0939.1315.1878.1315.3192 0 .1315-.0564.2254-.1315.3193-.0751.0939-.1878.1314-.3192.1314-.1127.0188-.2254-.0188-.3193-.1314Zm-1.2957 1.2578c-.0938-.0751-.1502-.1878-.1502-.3193 0-.1314.0564-.2253.1502-.3192.1878-.169.4883-.169.6949 0 .0939.0939.1502.1878.1502.3192 0 .1315-.0563.2254-.1502.3193-.0939.0939-.2254.1314-.338.1314-.1503.0188-.263-.0375-.3569-.1314Zm-1.2204 1.2773c-.0751-.0751-.1314-.1878-.1314-.3192 0-.1315.0563-.2442.1314-.3193.169-.169.4695-.169.6385 0 .0751.0751.1315.1878.1315.3193 0 .1314-.0564.2253-.1315.3192-.0939.0939-.1878.1315-.3192.1315-.1315 0-.2066-.0564-.3193-.1315Zm-1.2583 1.2578c-.0939-.0751-.1314-.1878-.1314-.3192 0-.1315.0563-.2254.1314-.3193.169-.169.4695-.169.6385 0 .0751.0939.1315.1878.1315.3193 0 .1314-.0564.2441-.1315.3192-.0939.0939-.1878.1315-.3192.1315-.1127 0-.2442-.0376-.3193-.1315Zm-1.2957 1.2588c-.0939-.0751-.1502-.1878-.1502-.3192 0-.1315.0563-.2254.1502-.3193.1878-.169.4883-.169.6573 0 .0939.0939.1502.1878.1502.3193 0 .1314-.0563.2441-.1502.3192-.0939.0751-.2253.1315-.338.1315-.1315 0-.2441-.0376-.3193-.1315Zm-1.2394 1.2578C13.0376 28.7553 13 28.6614 13 28.53c0-.1315.0563-.2254.1315-.3193.169-.169.4694-.169.6384 0 .0939.0939.1315.1878.1315.3193 0 .1314-.0563.2253-.1315.3192-.0751.0751-.1877.1315-.3192.1315-.0939.0188-.2066-.0376-.3192-.1315Zm.6384-15.0791c.0752-.0939.1315-.1878.1315-.3192 0-.1315-.0563-.2254-.1315-.3193-.169-.169-.4694-.169-.6384 0-.0939.0939-.1315.1878-.1315.3193 0 .1314.0563.2253.1315.3192.0751.0751.1877.1315.3192.1315.1315.0188.2441-.0188.3192-.1315Zm1.2583 1.2959c.0939-.0939.1502-.1878.1502-.3192 0-.1315-.0563-.2254-.1502-.3193-.1878-.169-.4883-.169-.6949 0-.0939.0939-.1502.1878-.1502.3193 0 .1314.0563.2253.1502.3192.0939.0751.2254.1315.3381.1315.1314-.0188.2629-.0564.3568-.1315Zm1.2769 1.2393c.0751-.0751.1315-.1878.1315-.3193 0-.1314-.0564-.2253-.1315-.3192-.169-.169-.4695-.169-.6385 0-.0751.0751-.1314.1878-.1314.3192 0 .1315.0563.2254.1314.3193.0939.0939.1878.1314.3193.1314.1126 0 .2253-.0563.3192-.1314Zm1.2583 1.2578c.0751-.0751.1315-.1878.1315-.3192 0-.1315-.0564-.2254-.1315-.3193-.169-.169-.4695-.169-.6385 0-.0751.0751-.1314.1878-.1314.3193 0 .1314.0563.2441.1314.3192.0939.0939.1878.1315.3193.1315.1126 0 .2253-.0188.3192-.1315Zm1.2392 1.2578c.0939-.0751.1503-.1878.1503-.3192 0-.1315-.0564-.2254-.1503-.3193-.169-.169-.4882-.169-.6573 0-.0938.0751-.1502.1878-.1502.3193 0 .1314.0564.2441.1502.3192.0939.0939.2254.1315.3381.1315.1126.0187.2441-.0188.3192-.1315Zm1.4084.9396c0-.1315-.0564-.2254-.1315-.3193-.169-.169-.4695-.169-.6385 0-.0939.0939-.1314.1878-.1314.3193 0 .1314.0563.2253.1314.3192.0751.0751.1878.1315.3193.1315.1314 0 .2253-.0564.3192-.1315.0939-.0751.1315-.1878.1315-.3192Zm1.1268 1.5965c.0939-.0939.1315-.1877.1315-.3192 0-.1315-.0564-.2253-.1315-.3192-.169-.1691-.4695-.1691-.6385 0-.0939.0939-.1314.1877-.1314.3192 0 .1315.0563.2253.1314.3192.0751.0752.1878.1315.3193.1315.1314 0 .2441-.0563.3192-.1315Zm1.2583 1.1827c.0939-.0752.1502-.1878.1502-.3193 0-.1314-.0563-.2253-.1502-.3192-.1878-.169-.4883-.169-.6573 0-.0939.0939-.1502.1878-.1502.3192 0 .1315.0563.2254.1502.3193.0939.0939.2254.1314.338.1314.0939.0188.2254-.0188.3193-.1314Zm1.2769 1.2578c.0751-.0751.1314-.1878.1314-.3193 0-.1314-.0563-.2253-.1314-.3192-.169-.169-.4695-.169-.6385 0-.0751.0939-.1315.1878-.1315.3192 0 .1315.0564.2254.1315.3193.0939.0939.1878.1314.3192.1314.0939.0188.2254-.0375.3193-.1314Zm1.2583 1.2773c.0751-.0751.1314-.1878.1314-.3192 0-.1315-.0563-.2442-.1314-.3193-.169-.169-.4695-.169-.6385 0-.0751.0751-.1315.1878-.1315.3193 0 .1314.0564.2253.1315.3192.0939.0939.1878.1315.3192.1315.1315 0 .2254-.0564.3193-.1315Zm1.1831 1.2578c.0939-.0751.1314-.1878.1314-.3192 0-.1315-.0563-.2254-.1314-.3193-.169-.169-.4695-.169-.6385 0-.0751.0939-.1315.1878-.1315.3193 0 .1314.0564.2441.1315.3192.0939.0939.1878.1315.3192.1315.1127 0 .2442-.0376.3193-.1315Zm1.3335 1.2588c.0939-.0751.1314-.1878.1314-.3192 0-.1315-.0563-.2254-.1314-.3193-.169-.169-.4695-.169-.6385 0-.0939.0939-.1315.1878-.1315.3193 0 .1314.0564.2441.1315.3192.0751.0751.1878.1315.3192.1315.1315 0 .2442-.0376.3193-.1315Zm1.2577 1.2578c.0939-.0939.1503-.1878.1503-.3192 0-.1315-.0564-.2254-.1503-.3193-.1877-.169-.4882-.169-.6572 0-.0939.0939-.1503.1878-.1503.3193 0 .1314.0564.2253.1503.3192.0939.0751.2253.1315.338.1315.0939.0188.2066-.0376.3192-.1315ZM16.7557 14.1267c1.277-.8451 2.6854-1.2394 4.2441-1.2582 1.5211 0 2.9295.4131 4.2441 1.2582l2.7042-2.7042C25.826 9.8075 23.535 9 20.9998 9c-2.5352 0-4.8638.8075-6.9295 2.4225l2.6854 2.7042Zm-2.7041 11.0987c-.8639-1.3145-1.277-2.7042-1.277-4.2065 0-1.5211.4131-2.9296 1.277-4.2065l-2.6854-2.6854C9.78872 16.1927 9 18.4837 9 21.0377c0 2.5164.78872 4.8262 2.3849 6.9294l2.6667-2.7417Zm11.1737 2.6848c-1.277.8638-2.6854 1.3145-4.2065 1.3333-1.5587 0-2.9859-.4132-4.2629-1.3146l-2.7041 2.6854c2.0844 1.6338 4.413 2.4413 6.967 2.4225 2.5352-.0187 4.8262-.845 6.8919-2.4225l-2.6854-2.7041ZM27.873 16.775c.8639 1.3145 1.3146 2.7417 1.277 4.2816-.0188 1.5023-.4507 2.8732-1.277 4.1314l2.7042 2.6854c1.5963-2.0657 2.4225-4.3568 2.4225-6.8732.0188-2.5539-.7887-4.8825-2.4225-6.967L27.873 16.775Zm2.8171 11.9809c1.0329 0 1.8967.845 1.8967 1.8966 0 1.0329-.845 1.8967-1.8967 1.8967-1.0328 0-1.8966-.845-1.8966-1.8967 0-1.0516.845-1.8966 1.8966-1.8966Zm-19.343 0c1.0329 0 1.878.845 1.878 1.8966 0 1.0329-.8451 1.8967-1.878 1.8967-1.0328 0-1.87786-.845-1.87786-1.8967 0-1.0516.84506-1.8966 1.87786-1.8966ZM30.7275 9.41309c1.0329 0 1.8779.84501 1.8779 1.89671 0 1.0516-.845 1.8967-1.8779 1.8967-1.0328 0-1.8779-.8451-1.8779-1.8967 0-1.0517.8451-1.89671 1.8779-1.89671Zm-19.4177 0c1.0328 0 1.8967.84501 1.8967 1.87791 0 1.0328-.8451 1.8779-1.8967 1.8779-1.0329 0-1.89671-.8451-1.89671-1.8779 0-1.0329.84501-1.87791 1.89671-1.87791Z" clip-rule="evenodd"/>
</svg>
