<svg xmlns="http://www.w3.org/2000/svg" fill="none" viewBox="0 0 42 42">
  <rect width="42" height="42" fill="url(#a)" rx="21"/>
  <path fill="#F3F3F3" d="M10.2658 17.9584c.318.6757 1.1129 2.0271 1.1129 2.0271l9.1017-15.06362-8.8633 6.20032c-.5166.3577-.9538.8346-1.2718 1.3911-.83467 1.709-.83467 3.6963-.0795 5.4451Zm-3.58003 4.9204c.19873 2.9014 1.66932 5.6041 3.97453 7.3529l9.8172 6.8363S14.3169 28.2047 9.15 19.3812c-.51669-.9142-.8744-1.9475-1.03338-3.0207-.0795-.4769-.0795-.9539 0-1.4308-.11924.2385-.39746.7552-.39746.7552-.51669 1.0731-.8744 2.2257-1.07313 3.4181-.11924 1.2718-.11924 2.5437.03974 3.7758Zm25.04013 1.2049c-.318-.6757-1.1129-2.0271-1.1129-2.0271l-9.1018 15.0239 8.903-6.1606c.5167-.3577.9539-.8346 1.2719-1.3911.7949-1.709.8347-3.6963.0398-5.4451Zm3.6181-4.9726c-.1988-2.9015-1.6693-5.6042-3.9746-7.353l-9.8172-6.83622s6.1606 8.86322 11.3275 17.68682c.5167.9141.8744 1.9475 1.0334 3.0206.0795.477.0795.9539 0 1.4309.1193-.2385.3975-.7552.3975-.7552.5167-1.0731.8744-2.2257 1.0731-3.3784.0795-1.3116.0795-2.5437-.0397-3.8155Z"/>
  <path fill="#F3F3F3" d="M10.3424 12.5133c.3179-.5565.7154-1.0334 1.2718-1.3911l8.8633-6.20032-9.1017 15.02382s-.795-1.3513-1.1129-2.027c-.75519-1.7091-.75519-3.6964.0795-5.4054ZM6.68577 22.8869c.19873 2.9014 1.66932 5.6041 3.97453 7.3529l9.8172 6.8363S14.3169 28.2128 9.15 19.3893c-.51669-.9142-.8744-1.9476-1.03338-3.0207-.0795-.4769-.0795-.9539 0-1.4308-.11924.2384-.39746.7551-.39746.7551-.51669 1.0732-.8744 2.2258-1.07313 3.4182-.11924 1.2718-.11924 2.5437.03974 3.7758Zm25.03973 1.1924c-.318-.6757-1.1129-2.0271-1.1129-2.0271l-9.1017 15.0239 8.903-6.1606c.5167-.3577.9539-.8347 1.2719-1.3911.7949-1.7091.8346-3.6963.0397-5.4451Zm3.5771-4.9285c-.1987-2.9014-1.6693-5.6041-3.9745-7.3529l-9.7775-6.87602s6.1606 8.86322 11.3275 17.68682c.5167.9141.8744 1.9475 1.0334 3.0206.0795.477.0795.9539 0 1.4309.1193-.2385.3975-.7552.3975-.7552.5167-1.0731.8744-2.2257 1.0731-3.3784.0795-1.3116.0795-2.5437-.0795-3.7758Z"/>
  <defs>
    <linearGradient id="a" x1="21" x2="21" y1="0" y2="42" gradientUnits="userSpaceOnUse">
      <stop stop-color="#7B99FA"/>
      <stop offset="1" stop-color="#51B4F2"/>
    </linearGradient>
  </defs>
</svg>
