<svg xmlns="http://www.w3.org/2000/svg" fill="none" viewBox="0 0 42 42">
  <path fill="#8A92B2" d="M21 42c11.598 0 21-9.402 21-21C42 9.40202 32.598 0 21 0 9.40202 0 0 9.40202 0 21c0 11.598 9.40202 21 21 21Z"/>
  <g fill="#F3F3F3" clip-path="url(#a)">
    <path d="M20.9964 5.79932 11.6665 21.2817l9.3299-4.2405V5.79932Z"/>
    <path d="m20.9964 17.04-9.3299 4.2406 9.3299 5.5163V17.04Z"/>
    <path d="M30.3277 21.2817 20.9961 5.79932V17.0412l9.3316 4.2405Z"/>
    <path d="m20.9961 26.7969 9.3316-5.5163-9.3316-4.2406v9.7569Zm-9.3296-3.7459 9.3299 13.1486v-7.6357l-9.3299-5.5129Z"/>
    <path d="M20.9961 28.5639v7.6357l9.3368-13.1486-9.3368 5.5129Z"/>
  </g>
  <defs>
    <clipPath id="a">
      <path fill="#fff" d="M0 0h18.6667v30.4012H0z" transform="translate(11.6665 5.79907)"/>
    </clipPath>
  </defs>
</svg>
