<svg xmlns="http://www.w3.org/2000/svg" fill="none" viewBox="0 0 42 42">
  <path fill="#17DE8D" d="M21 41c11.0457 0 20-8.9543 20-20S32.0457 1 21 1 1 9.9543 1 21s8.9543 20 20 20Z"/>
  <path fill="#F3F3F3" d="m12.5 22.5518 8.4972 13.1486v-7.6358L12.5 22.5518Zm0-3.1036 8.4972-13.14857v7.63577L12.5 19.4482Z"/>
  <path fill="#F3F3F3" d="M20.9971 28.0646v7.6358l8.5035-13.1486-8.5035 5.5128Zm0-14.1292V6.29963l8.5035 13.14857-8.5035-5.5128Z" opacity=".6"/>
  <path fill="#F3F3F3" d="M20.9972 16.5498 12.5 20.7903l8.4972.7595v-5Z"/>
  <path fill="#F3F3F3" d="m20.9971 21.5498 8.4987-.7595-8.4987-4.2405v5Z" opacity=".6"/>
  <path fill="#F3F3F3" d="M20.9972 21.5495 12.5 20.79l8.4972 5.5164v-4.7569Z" opacity=".85"/>
  <path fill="#F3F3F3" d="m20.9971 26.3064 8.4987-5.5164-8.4987.7595v4.7569Z" opacity=".4"/>
</svg>
