<svg xmlns="http://www.w3.org/2000/svg" fill="none" viewBox="0 0 42 42">
  <mask id="a" width="42" height="42" x="0" y="0" maskUnits="userSpaceOnUse" style="mask-type:alpha">
    <circle cx="21" cy="21" r="21" fill="#D9D9D9"/>
  </mask>
  <g mask="url(#a)">
    <path fill="#039" d="M52.4959 0h-62.9915v42h62.9915V0Z"/>
    <path fill="#FC0" d="m19.6939 9.43289 1.313-.95946 1.3129.95946-.4881-1.54861 1.3298-.95946h-1.6496l-.505-1.56544-.505 1.56544h-1.6328l1.3298.95946-.505 1.54861Zm-6.7978 1.83181 1.3129-.9595 1.313.9595-.4882-1.54864 1.3298-.95947H14.714l-.505-1.58227-.5049 1.58227h-1.6328l1.3298.95947-.505 1.54864Zm-3.65362.8928-.50498 1.5822H7.08789l1.32979.9595-.50499 1.5486 1.32979-.9594 1.31292.9594-.505-1.5486 1.3298-.9595H9.73063l-.48815-1.5822Zm-1.83789 9.9119 1.31295.9594-.50498-1.5486 1.34661-.9594h-1.6496l-.50498-1.5655-.50498 1.5823L5.25 20.5208l1.34662.9594-.50498 1.5486 1.31295-.9594Zm2.32604 5.2495-.48815-1.5655-.50498 1.5655H7.08789l1.32979.9594-.50499 1.5486 1.32979-.9594 1.31292.9594-.505-1.5486 1.3298-.9594H9.73063Zm5.00027 4.9834-.505-1.5655-.505 1.5655h-1.6496l1.3298.9594-.4882 1.5486 1.313-.9594 1.3129.9594-.505-1.5486 1.3298-.9594h-1.6327Zm6.781 1.8317-.505-1.5822-.505 1.5822h-1.6328l1.3298.9595-.505 1.5486 1.313-.9595 1.3129.9595-.4881-1.5486 1.3298-.9595h-1.6496Zm6.7917-1.8317-.505-1.5655-.505 1.5655H25.644l1.3298.9594-.4881 1.5486 1.3129-.9594 1.313.9594-.505-1.5486 1.3298-.9594h-1.6328Zm4.9912-4.9834-.505-1.5655-.5049 1.5655h-1.6496l1.3466.9594-.505 1.5486 1.3129-.9594 1.313.9594-.505-1.5486 1.3466-.9594h-1.6496Zm3.4551-6.7981h-1.6496l-.505-1.5655-.505 1.5655h-1.6328l1.3298.9594-.505 1.5486 1.313-.9594 1.3129.9594-.4881-1.5486 1.3298-.9594Zm-5.273-4.3037 1.3129-.9595 1.313.9595-.505-1.5487 1.3466-.9594h-1.6496l-.505-1.5823-.5049 1.5823h-1.6496l1.3466.9594-.505 1.5487Zm-3.6548-9.04278-.505 1.58227h-1.6496l1.3466.95947-.505 1.54864 1.313-.9595 1.3129.9595-.505-1.54864 1.3467-.95947H28.327l-.5049-1.58227Z"/>
  </g>
</svg>
