<svg xmlns="http://www.w3.org/2000/svg" fill="none" viewBox="0 0 42 42">
  <path fill="#00EF8B" d="M21 41c11.0457 0 20-8.9543 20-20S32.0457 1 21 1 1 9.9543 1 21s8.9543 20 20 20Z"/>
  <path fill="#F3F3F3" d="M32.5006 14V8.5H25c-.6667 0-2.5 0-4.5 2s-2.1666 5.3333-2 6.5H24c0-.3333-.1318-1.1154.5-2s1.5716-1 2.1075-1h5.8931ZM24 17h5.5v5.5H24z"/>
  <path fill="#F3F3F3" fill-rule="evenodd" d="M24 24.7507c0 4.2802-3.4698 7.75-7.75 7.75s-7.75-3.4698-7.75-7.75 3.4698-7.75 7.75-7.75c.544 0 1.3549-.0002 2.25-.0005V22.5c-.0201 0-1.5915.0007-2.1498.0007-1.1874 0-2.15.9625-2.15 2.1497 0 1.1872.9626 2.1496 2.15 2.1496 1.1874 0 2.15-.9624 2.15-2.1496V22.5H24v2.2507ZM24 17v-.002s-2.4866.0012-4.7619.002H24Z" clip-rule="evenodd"/>
</svg>
