<svg xmlns="http://www.w3.org/2000/svg" fill="none" viewBox="0 0 42 42">
  <rect width="42" height="42" fill="#000" rx="21"/>
  <path fill="#F3F3F3" d="M10.4306 10.349c-.80784.8482-1.47432 1.5618-1.48105 1.5753-.00674.0202.72033.7338 1.61575 1.582.8953.855 1.6763 1.6023 1.7301 1.6494l.101.0942-.1818.303c-1.5955 2.639-1.9254 5.8165-.9223 8.7383.1885.552.5117 1.2589.7877 1.7234.1346.2289.1952.377.1817.4039-.0134.027-.828.8887-1.8109 1.9187-.98288 1.0233-1.784 1.8782-1.79747 1.8917-.00673.0202 2.74667 2.6794 3.00927 2.8948l.101.0875 1.5551-1.6224c.855-.8954 1.6561-1.7369 1.7773-1.8648l.2289-.2289.2154.1346c1.0973.7002 2.3832 1.1849 3.8036 1.4407.7136.1279 2.0735.1616 2.8343.0673 1.4676-.1683 2.9217-.6597 4.1133-1.38l.3097-.1885.3298.3231c.7204.7001 3.4132 3.2583 3.4401 3.2718.027.0135 2.9824-3.0766 2.9756-3.117-.0067-.0202-2.0331-1.9657-3.2718-3.1304l-.4106-.3905.1885-.3096c1.582-2.6323 1.9119-5.8233.8886-8.7653-.1481-.4308-.5991-1.4002-.8617-1.8446l-.1279-.2221 1.7301-1.811c.9493-.9896 1.7235-1.8176 1.7167-1.8378-.0269-.0673-3.0563-2.92849-3.0967-2.92849-.027 0-.7877.77419-1.6965 1.73019-.9089.9492-1.6629 1.7301-1.6831 1.7368-.0134.0068-.1009-.0336-.1817-.0942-.2289-.1548-.8079-.4713-1.131-.6194-.9829-.451-1.8985-.727-2.9622-.8819-.552-.0808-2.2081-.0942-2.7197-.0202-1.2253.1751-2.2284.478-3.2516.9897-.2963.1413-.6396.3298-.7742.4106l-.2424.1481-.276-.2693c-.1481-.1481-.8213-.7809-1.4878-1.4204-.6665-.63285-1.3464-1.27914-1.508-1.44071l-.2962-.28948-1.4609 1.56189Zm11.3032 4.3893c1.0704.1279 2.0264.4914 2.9083 1.1108.4511.3164 1.1243.9896 1.4407 1.4407 1.7975 2.5447 1.4541 6.005-.8079 8.1256-1.9321 1.8042-4.7259 2.2082-7.0754 1.0099-1.6965-.8685-2.8948-2.4573-3.2786-4.3625-.1211-.6058-.1211-1.7368 0-2.336.1145-.5924.2693-1.0165.5588-1.609 1.1579-2.3293 3.669-3.6892 6.2541-3.3795Z"/>
</svg>
