<svg xmlns="http://www.w3.org/2000/svg" fill="none" viewBox="0 0 36 36">
  <path fill="#fff" d="M17.9991 35.9982c-2.4294 0-4.7865-.4762-7.0064-1.4147-2.14364-.9068-4.06762-2.2047-5.72111-3.8569-1.65221-1.6522-2.95011-3.5775-3.85686-5.7211C.476234 22.7856 0 20.4285 0 17.9991c0-2.4294.476234-4.7865 1.41473-7.0064.90675-2.14364 2.20465-4.06762 3.85686-5.72111 1.65349-1.65221 3.57747-2.95011 5.72111-3.85686C13.2126.476234 15.5697 0 17.9991 0c2.4294 0 4.7865.476234 7.0064 1.41473 2.1436.90675 4.0676 2.20465 5.7211 3.85686 1.6522 1.65222 2.9501 3.57747 3.8569 5.72111.9385 2.2199 1.4147 4.577 1.4147 7.0064 0 2.4294-.4762 4.7865-1.4147 7.0064-.9068 2.1436-2.2047 4.0676-3.8569 5.7211-1.6522 1.6522-3.5775 2.9501-5.7211 3.8569-2.2199.9397-4.577 1.4147-7.0064 1.4147Z"/>
  <path fill="#000" d="M17.999 35.0439c9.4139 0 17.0453-7.6315 17.0453-17.0454 0-9.41391-7.6314-17.045375-17.0453-17.045375C8.58508.953125.953613 8.58459.953613 17.9985c0 9.4139 7.631467 17.0454 17.045387 17.0454Z"/>
  <path fill="#fff" d="M18.4182 14.7988v7.8534l7.6883-4.6594-7.6883-3.194Zm0-.8851 7.6185 3.166-1.8211-2.9692 3.8721-3.8721-2.3139-2.31514-3.3171 3.31844-4.0385-6.5835v9.2555Zm-.819 8.7385v-7.8534l-7.68831 3.194 7.68831 4.6594Zm-7.6178-5.5725 7.6185-3.166V4.6582l-4.0372 6.5835-3.3184-3.31844-2.31388 2.31514 3.87208 3.8708-1.8211 2.9705Zm16.0388 3.3578-7.602 4.6074v6.1021l3.1279-4.408 3.2651 3.2651 2.3138-2.3139-3.6574-3.6575 2.5526-3.5952Zm-8.4198 4.6074-7.60198-4.6074 2.55258 3.5952-3.65745 3.6575 2.31385 2.3139 3.2651-3.2638 3.1279 4.4055v-6.1009Z"/>
</svg>
