<svg xmlns="http://www.w3.org/2000/svg" fill="none" viewBox="0 0 42 42">
  <circle cx="21" cy="21" r="21" fill="#26B6EA"/>
  <path fill="#F3F3F3" fill-rule="evenodd" d="m22.166 8.23228 6.6318 3.40682c.2515.1239.4401.3097.5658.4955v17.7153c-.0943.1858-.2829.3717-.5343.4955l-6.6319 3.4068c-.3143.1549-.7229.2478-1.1001.2478-.4086 0-.7857-.0929-1.1-.2478l-6.6319-3.4068c-.2515-.1238-.4401-.3097-.5343-.4955V12.1346c.0942-.1858.2828-.3716.5343-.4955l6.6004-3.40682c.6286-.30971 1.5716-.30971 2.2002 0Zm-8.3284 4.18202 6.5376-3.40677c.3772-.18582 1.0058-.18582 1.383 0l6.5376 3.40677c.0628.031.0942.0619.1257.0929-.0315.031-.0629.062-.1257.0929l-6.5376 3.4068c-.3772.1859-1.0058.1859-1.383 0l-6.5376-3.4068c-.0628-.0309-.0943-.0619-.1257-.0929.0314-.0309.0629-.0619.1257-.0929Zm-.1257 1.0574v6.349l6.0976-3.19-6.0976-3.159Zm8.6426 3.1805 6.0975-3.159v6.349l-6.0975-3.19Zm-1.7278.5666c-.0943.0309-.1886.0619-.2515.0929l-6.5376 3.3758c-.0628.0309-.0942.0619-.1256.0928.0314.031.0628.062.1256.093l6.5376 3.4068c.0472.0155.0865.031.1257.0464.0393.0155.0786.031.1258.0465v-7.1542Zm.8743 0v7.1542c.0943 0 .1886-.031.2514-.0619l6.5376-3.4068c.0629-.031.0943-.062.1257-.0929-.0314-.031-.0628-.062-.1257-.093l-6.5376-3.4067c-.0471-.0155-.0863-.031-.1256-.0465-.0392-.0154-.0787-.031-.1258-.0464Zm-7.7891 4.583 6.2861 3.2519c.0315.0155.0708.031.1101.0465.0392.0154.0785.0309.11.0464-.0315.0155-.0708.031-.11.0465-.0393.0154-.0786.0309-.1101.0464l-6.2861 3.2519v-6.6896Zm14.7405 0-6.2861 3.2519c-.048.0473-.1144.0765-.171.1015-.0176.0077-.0342.0151-.049.0224.0314.0155.0707.0309.11.0464.0393.0155.0786.031.11.0465l6.2861 3.2519v-6.7206Zm-6.6942 11.2149 6.5376-3.4068c.0628-.0309.0942-.0619.1256-.0928-.0314-.031-.0628-.0621-.1256-.093l-6.5376-3.4068c-.3772-.1858-1.0058-.1858-1.383 0l-6.5376 3.4068c-.0628.031-.0943.0619-.1257.0929.0314.031.0629.0619.1257.0929l6.5376 3.4068c.3772.1858 1.0058.1858 1.383 0Z" clip-rule="evenodd"/>
  <path fill="#F3F3F3" d="m30.0515 9.25697-.1571-.09291-.4715.7433.1571.09294c1.1631.6813 1.5403.8981 1.5403 2.5086h.8801c0-2.075-.723-2.5086-1.9489-3.25193ZM10.8806 29.2012h-.8801c0 2.075.7544 2.5086 1.9489 3.2519l.1572.0929.4715-.7433-.1572-.0929c-1.1631-.6814-1.5403-.9291-1.5403-2.5086Z"/>
</svg>
