<svg xmlns="http://www.w3.org/2000/svg" fill="none" viewBox="0 0 42 42">
  <path fill="#222" d="M21 41c11.0457 0 20-8.9543 20-20S32.0457 1 21 1 1 9.9543 1 21s8.9543 20 20 20Z"/>
  <path fill="#fff" d="M12.314 9.8176 11 11.1316l1.6624 1.6624 1.6661 1.6624-.1379.4066c-.1779.5336-.2505.98-.2505 1.5717 0 1.9274 1.0091 3.568 2.7949 4.5444.7187.392 1.9528.8349 3.3213 1.187 2.6715.686 3.0816.8058 3.6079 1.0526.7187.3412 1.0745.7114 1.2233 1.2704.0653.2432.0617.7877-.0037 1.049-.1669.6352-.7078 1.2741-1.3793 1.6225-.9074.4755-2.4863.6062-3.6769.3013-.4428-.1089-1.0708-.4174-1.3866-.6752-.6425-.5299-1.1434-1.4446-1.3648-2.5009-.0363-.1669-.0653-.3085-.0689-.3157-.0109-.0146-3.7278.3484-3.746.3702-.0145.0109-.0036.1633.0218.3376.1162.8384.4102 1.8366.7478 2.5299l.196.4029-1.6153 1.6152L11 30.8412l1.3176 1.3176 1.314 1.314 1.666-1.6661 1.6625-1.6624.2867.1198c1.5173.6388 3.7931.8384 6 .519.53-.0762 1.2958-.2577 1.6988-.4065l.2395-.0871 1.5935 1.5934 1.5898 1.5899 1.314-1.314L31 30.8412l-1.4773-1.4773-1.4737-1.4737.1851-.3775c.3848-.7731.5445-1.4301.5772-2.3339.058-1.7242-.3884-3.0236-1.4048-4.0944-1.0599-1.1143-2.2541-1.6443-5.6261-2.4937-2.3775-.5952-3.4011-1.0054-3.8076-1.5208-.4029-.5082-.4392-1.2196-.0871-1.7387.2032-.3013.7041-.6243 1.2486-.8058.6134-.2069 1.6443-.3013 2.4102-.2214 1.6152.1706 2.4283.8602 2.784 2.3702.0436.1851.0835.3412.0871.3485.0073.0109 2.6352-.0835 3.4229-.1234l.4501-.0218-.0254-.3158c-.0509-.6425-.1779-1.216-.4102-1.8149l-.127-.3375 1.637-1.6407L31 11.1316l-1.314-1.31763L28.3684 8.5l-1.6552 1.6552-1.6588 1.6588-.4029-.1525c-.9909-.3702-1.9491-.5336-3.3611-.5735-1.5427-.0399-2.8966.1597-3.9347.5808l-.3847.1561-1.6697-1.6625L13.6316 8.5 12.314 9.8176Z"/>
</svg>
