<svg xmlns="http://www.w3.org/2000/svg" fill="none" viewBox="0 0 42 42">
  <path fill="#222" d="M21 41c11.0457 0 20-8.9543 20-20S32.0457 1 21 1 1 9.9543 1 21s8.9543 20 20 20Z"/>
  <path fill="#C85553" d="m22.2496 8.76477 10.0837 5.60213-4 2.3333-6.5711-3.5594c-.8914-.4828-1.9663-.4828-2.8577 0l-6.5712 3.5594V23.58c0 1.101.6031 2.1135 1.5712 2.6379l6.4288 3.4823 6.4289-3.4823c.9681-.5244 1.5711-1.5369 1.5711-2.6379v-1.5465l-2.6666 1.3334v-4L34 15.0335v4.6667l-1.6667.6667v4.7025c0 1.4227-.7556 2.7383-1.9845 3.4551l-10.0155 5.8424-10.3077-5.8504C8.77358 27.8059 8 26.4774 8 25.0378V14.3669l10.4049-5.62433c1.2013-.64936 2.6509-.64099 3.8447.0222Z"/>
</svg>
