<svg xmlns="http://www.w3.org/2000/svg" fill="none" viewBox="0 0 42 42">
  <path fill="#222" d="M21 41c11.0457 0 20-8.9543 20-20S32.0457 1 21 1 1 9.9543 1 21s8.9543 20 20 20Z"/>
  <path fill="#5FC0C1" d="M25.9069 8.77457c3.538 1.50923 5.8967 5.22833 5.6287 9.00133-6.3255 0-12.651.0538-18.9765-.054 0-2.5332.8577-5.1204 2.6803-6.8991 2.6803-2.74892 7.1296-3.61132 10.6675-2.04823Z"/>
  <path fill="#E1177C" d="M25.6383 33.0303c.3753 0 .6969.2156.6969.4851 0 .2695-.3216.4851-.6969.4851H15.4532c-.3752 0-.6969-.2156-.6969-.4851 0-.2695.3217-.4851.6969-.4851h10.1851ZM13.2561 34c.385 0 .6971-.3137.6971-.7007s-.3121-.7007-.6971-.7007c-.3849 0-.697.3137-.697.7007s.3121.7007.697.7007Zm6.1113-2.5869c.385 0 .6971-.3137.6971-.7007s-.3121-.7007-.6971-.7007c-.3849 0-.697.3137-.697.7007s.3121.7007.697.7007Zm11.9535-1.4014c.3752 0 .6969.3234.6969.7007 0 .3773-.3217.7007-.6969.7007h-9.9707c-.3752 0-.6969-.3234-.6969-.7007 0-.3773.3217-.7007.6969-.7007h9.9707ZM6.28737 28.8262c.38497 0 .69703-.3137.69703-.7007s-.31206-.7007-.69703-.7007c-.38496 0-.69704.3137-.69704.7007s.31208.7007.69704.7007Zm9.91733-1.4014c.3753 0 .6969.3234.6969.7007 0 .3773-.3216.7007-.6969.7007H8.00303c-.37524 0-.69688-.3234-.69688-.7007 0-.3773.32164-.7007.69688-.7007h8.20167Zm18.3865 0c.3753 0 .6969.3234.6969.7007 0 .3773-.3216.7007-.6969.7007H18.295c-.3752 0-.6969-.3234-.6969-.7007 0-.3773.3217-.7007.6969-.7007h16.2962Zm-3.0561-2.5869c.3753 0 .6969.3234.6969.7007 0 .3773-.3216.7007-.6969.7007h-19.995c-.3752 0-.6968-.3234-.6968-.7007 0-.3773.3216-.7007.6968-.7007h19.995ZM9.34352 26.2393c.38497 0 .69708-.3137.69708-.7007s-.31211-.7007-.69708-.7007c-.38496 0-.69704.3137-.69704.7007s.31208.7007.69704.7007ZM27.354 22.3037c.3752 0 .6969.3234.6969.7007 0 .3773-.3217.7007-.6969.7007H7.35899c-.37524 0-.69688-.3234-.69688-.7007 0-.3773.32164-.7007.69688-.7007H27.354ZM4.94704 23.7051c.38496 0 .69703-.3137.69703-.7007s-.31207-.7007-.69703-.7007-.69704.3137-.69704.7007.31208.7007.69704.7007Zm4.39648-2.5869c.38497 0 .69708-.3137.69708-.7007s-.31211-.7007-.69708-.7007c-.38496 0-.69704.3137-.69704.7007s.31208.7007.69704.7007Zm24.12128-1.4014c.3752 0 .6969.3234.6969.7007 0 .3773-.3217.7007-.6969.7007h-21.764c-.3753 0-.6969-.3234-.6969-.7007 0-.3773.3216-.7007.6969-.7007h21.764Z"/>
</svg>
