<svg xmlns="http://www.w3.org/2000/svg" fill="none" viewBox="0 0 36 36">
  <rect width="36" height="36" fill="#BBC0DA" rx="18"/>
  <path fill="#030303" d="M17.0533 15.9992v-.6378c0-4.4128-2.6128-5.60603-5.5032-5.60603-2.89049 0-5.50322 1.56353-5.50322 5.97633v4.5261c0 2.9624 1.25493 5.9763 4.61862 5.9763 1.5429 0 2.5304-.7406 2.9624-1.4503l.3498 1.224h3.0756v-8.4451h-5.3386v2.7156h1.1932v.5761c0 1.3783-.1954 2.6539-1.0595 2.6539-.8744 0-1.0595-1.2653-1.0595-2.6539v-5.8015c0-1.3476.0926-2.5819.7612-2.5819s.7612 1.2343.7612 2.5819v.9463h4.742Zm8.1992-1.0492h4.3819v-.6789c0-3.1271-2.0883-4.51573-5.1844-4.51573-2.9625 0-5.1844 1.65613-5.1844 4.55683 0 5.4312 6.1514 4.238 6.1514 7.9205 0 .967-.3806 1.2858-.8437 1.2858-.4627 0-.8433-.3188-.8433-1.2858v-1.3372h-4.4334v.6378c0 3.2711 2.1393 4.7111 5.3282 4.7111 3.0549 0 5.3283-1.6972 5.3283-4.742 0-6.0587-6.3262-4.382-6.3262-7.7353 0-.967.3909-1.2858.8128-1.2858.4116 0 .8128.3188.8128 1.2858V14.95Z"/>
</svg>
