<svg xmlns="http://www.w3.org/2000/svg" fill="none" viewBox="0 0 42 42">
  <circle cx="21" cy="21" r="20" fill="#222"/>
  <path fill="#F3F3F3" d="m31.8677 14.2926-.9882.9855c.7854 1.2318 1.0325 2.777.4941 4.2539-.8983 2.5079-3.6817 3.8295-6.2194 2.9337-.3598-.1339-.6955-.2905-.9882-.4927L21 25.1303l-2.7619-2.777c-1.2796.8502-2.919 1.0966-4.4685.5596-2.6048-.9399-3.9514-3.7839-3.009-6.3588.1343-.403.337-.7619.5613-1.0966l-1.1896-1.1863-.22427.3802c-1.24577 2.0285-1.906 4.3605-1.90796 6.7391-.02283 7.1421 5.81513 12.9868 12.97703 12.9868H21c7.1619 0 12.9784-5.7991 13-12.9426-.0002-2.376-.6526-4.7065-1.8865-6.7391l-.2458-.403Z"/>
  <path fill="#F3F3F3" d="M12.7773 16.9087c-.35.465-.539 1.0308-.5384 1.6121 0 1.4555 1.1896 2.6419 2.6491 2.6419.6069 0 1.1681-.2022 1.6166-.5597l-3.7273-3.6943Zm13.0024 3.4685c.427.2906.9211.4473 1.4823.4473 1.4595 0 2.6491-1.1864 2.6491-2.6418 0-.537-.157-1.0525-.4484-1.4783l-3.683 3.6728Zm-4.7361 2.7841L10.3115 12.4132l.427-.4472c2.6491-2.79844 6.2636-4.36639 10.148-4.36639h.0228c3.9287 0 7.7017 1.67908 10.328 4.58999l.4041.4473-10.5978 10.5244Zm-8.9799-10.7481 8.9812 8.9793 8.8685-8.7998c-2.3806-2.3727-5.6138-3.7398-8.9813-3.7398h-.0228c-3.346 0-6.4664 1.2546-8.8456 3.5603Z"/>
</svg>
