<svg xmlns="http://www.w3.org/2000/svg" fill="none" viewBox="0 0 42 42">
  <g clip-path="url(#a)">
    <circle cx="21" cy="21" r="21" fill="#222"/>
    <path fill="url(#b)" fill-rule="evenodd" d="m8.09616 22.3051.22175.3881c.72071 1.2566 2.32839 1.6817 3.58509.961l11.0877-6.4126.6653 1.0719.4435.7576.0739.3327v11.4206c0 1.4414 1.1827 2.6241 2.6241 2.6241h.4435c1.4414 0 2.6241-1.1827 2.6241-2.6241V12.8249c0-1.349-.8315-2.5132-2.0142-3.01218-1.0903-.57288-2.3839-.5544-3.4557.05544L9.07558 18.72c-1.25662.7207-1.68165 2.3285-.96094 3.5851h-.01848Z" clip-rule="evenodd"/>
    <path fill="url(#c)" fill-rule="evenodd" d="M16.4143 16.9698c1.1457-.1664 3.6774.0554 4.7307.2956 1.0534.2403 1.9958.998 1.9958.998s-.0369-.0185-.0924-.037c.7947.3511 1.1273 1.1642 1.1273 1.1642-.3511-3.8808-3.0861-6.7821-7.5767-5.0265l-7.24396 4.1764c-.03696.0185.88706-.6837 7.07766-1.5892l-.0184.0185Zm5.0634 1.2196c-.1848.0555-.3881.1479-.6099.2587.2033-.1108.4066-.2032.6099-.2587Z" clip-rule="evenodd"/>
    <path fill="url(#d)" fill-rule="evenodd" d="m13.2565 28.9357 4.0655-2.31.2587-.1478s.4435-.2403.8131 0c.3696.2402.3511.5544.3511.5544l.0555 5.1559s-.1479.425-.4066.5728c-.2587.1479-.425.1848-.8316.0555-1.2925-.3095-3.4925-1.4095-4.6014-2.809-.1293-.2217-.0924-.4804-.0369-.6098.0739-.2772.2402-.4066.3326-.462Z" clip-rule="evenodd"/>
    <path fill="url(#e)" fill-rule="evenodd" d="M7.74586 21.0685s-.22175-1.1827.97942-2.1436c.14784-.1109.31415-.2218.49895-.3142 1.73707-1.0164 6.04287-1.4784 7.18857-1.6447 1.1457-.1663 3.6774.0554 4.7308.2957 1.0533.2402 1.9958.9979 1.9958.9979s-1.0903-.4805-2.2545.1848c-1.1643.6653-8.9811 5.1929-8.9811 5.1929s-.887.4619-1.4969.3511c-.62828-.1294-1.31203-.2033-1.90337-1.0164-.11088-.1848-.1848-.2772-.33264-.5359l-.24023-.499-.12936-.462-.03696-.4066h-.01848Z" clip-rule="evenodd"/>
  </g>
  <defs>
    <linearGradient id="b" x1="18.8146" x2="18.8146" y1="9.39648" y2="33.4485" gradientUnits="userSpaceOnUse">
      <stop stop-color="#4DFC8D"/>
      <stop offset="1" stop-color="#1FC3F1"/>
    </linearGradient>
    <linearGradient id="c" x1="18.2514" x2="16.4773" y1="13.5924" y2="20.005" gradientUnits="userSpaceOnUse">
      <stop stop-color="#216882"/>
      <stop offset=".298" stop-color="#3AA698"/>
      <stop offset=".5412" stop-color="#53E4AF"/>
      <stop offset="1" stop-color="#53E4AF"/>
    </linearGradient>
    <linearGradient id="d" x1="13.7929" x2="18.8748" y1="27.1769" y2="30.5956" gradientUnits="userSpaceOnUse">
      <stop stop-color="#4DFC8D"/>
      <stop offset=".502" stop-color="#1FC3F1"/>
      <stop offset="1" stop-color="#1FC3F1"/>
    </linearGradient>
    <linearGradient id="e" x1="16.4428" x2="13.7632" y1="16.3952" y2="24.3046" gradientUnits="userSpaceOnUse">
      <stop stop-color="#216882"/>
      <stop offset="1" stop-color="#53E4AF"/>
    </linearGradient>
    <clipPath id="a">
      <path fill="#fff" d="M0 0h42v42H0z"/>
    </clipPath>
  </defs>
</svg>
