<svg xmlns="http://www.w3.org/2000/svg" fill="none" viewBox="0 0 42 42">
  <circle cx="21" cy="21" r="20" fill="#222"/>
  <path fill="url(#a)" d="M28.3912 8c-1.485-.00115-2.9098.58698-3.9616 1.63529-1.0519 1.04831-1.6448 2.47111-1.6486 3.95611v6.1996c-.5778.039-1.1686.0636-1.781.0636-.6124 0-1.2003.0245-1.781.0592v-6.3224c-.0236-1.4721-.625-2.876-1.6744-3.90866-1.0494-1.03271-2.4628-1.6115-3.9351-1.6115-1.4723 0-2.8857.57879-3.93507 1.6115C8.62501 10.7154 8.02362 12.1193 8 13.5914v14.8172c.02362 1.4721.62501 2.876 1.67443 3.9087 1.04937 1.0327 2.46277 1.6115 3.93507 1.6115 1.4723 0 2.8857-.5788 3.9351-1.6115 1.0494-1.0327 1.6508-2.4366 1.6744-3.9087V22.209c.5778-.039 1.1686-.0636 1.781-.0636.6124 0 1.2003-.0245 1.781-.0592v6.3224c.0236 1.4721.625 2.876 1.6744 3.9087 1.0494 1.0327 2.4628 1.6115 3.9351 1.6115 1.4723 0 2.8857-.5788 3.9351-1.6115 1.0494-1.0327 1.6508-2.4366 1.6744-3.9087V13.5914c-.0038-1.4847-.5965-2.9073-1.648-3.9556C31.3004 8.58753 29.876 7.99923 28.3912 8Zm-14.7824 2.2909c.8764-.0004 1.7172.3469 2.3378.9657.6207.6187.9705 1.4584.9728 2.3348v6.565c-1.6412.2379-3.2439.691-4.7666 1.3477-.6598.2896-1.2809.6603-1.8489 1.1036v-9.0163c.0023-.8754.3513-1.7142.9708-2.3328.6194-.6186 1.4587-.9666 2.3341-.9677Zm3.3106 18.1177c0 .878-.3488 1.7201-.9696 2.341-.6209.6208-1.463.9696-2.341.9696-.8781 0-1.7201-.3488-2.341-.9696-.6209-.6209-.9697-1.463-.9697-2.341v-1.4864c0-1.313 1.04-2.5566 2.7835-3.3309 1.2284-.53 2.5174-.9069 3.8378-1.1223v5.9396Zm11.4718 3.3005c-.8764.0004-1.7172-.3469-2.3378-.9657-.6207-.6187-.9705-1.4584-.9728-2.3348v-6.565c1.6412-.2379 3.2439-.691 4.7666-1.3477.6598-.2896 1.2809-.6603 1.8489-1.1036v9.0163c-.0023.8754-.3513 1.7142-.9708 2.3328-.6194.6186-1.4587.9666-2.3341.9677ZM28.9184 18.4c-1.2284.53-2.5174.9069-3.8378 1.1223v-5.9309c0-.878.3488-1.7201.9696-2.3409.6209-.6209 1.463-.9697 2.341-.9697.8781 0 1.7201.3488 2.341.9697.6209.6208.9697 1.4629.9697 2.3409v1.4864c0 1.3072-1.04 2.5509-2.7835 3.3222Z"/>
  <defs>
    <linearGradient id="a" x1="9.64667" x2="32.205" y1="31.997" y2="9.37707" gradientUnits="userSpaceOnUse">
      <stop stop-color="#00AEE9"/>
      <stop offset="1" stop-color="#69FABD"/>
    </linearGradient>
  </defs>
</svg>
