<svg xmlns="http://www.w3.org/2000/svg" fill="none" viewBox="0 0 42 42">
  <path fill="#38A2FF" d="M21 41c11.0457 0 20-8.9543 20-20S32.0457 1 21 1 1 9.9543 1 21s8.9543 20 20 20Z"/>
  <path fill="#030303" d="M25.8878 12.1848c1.0672-1.0662 2.8203-1.0662 3.8874 0 1.0672 1.0662 1.0672 2.8178 0 3.884-.6288.6283-1.4673.8949-2.3248.7806h-.1334c-.2477-.0381-.5145 0-.7813.1143-.362.1713-.6098.4569-.7431.7996-.1334.3427-.1144.7235.0381 1.0662.9146 1.9801.4954 4.3791-1.0672 5.9213-1.5625 1.5612-3.9445 1.9801-5.9263 1.0662-.3621-.1714-.7432-.1714-1.0862-.0381-.343.1333-.6289.3808-.7813.7235-.0953.2285-.1525.4569-.1334.7044v.1333c.1524.8758-.1525 1.7707-.7622 2.399-1.0672 1.0662-2.8203 1.0662-3.8874 0-.5145-.5141-.8004-1.1995-.8004-1.942 0-.7235.2859-1.428.8004-1.9421.6288-.6283 1.4673-.8948 2.3248-.7806h.0381c.0953.0191.1905.0381.2858.0381.2096 0 .4002-.0381.5908-.1333.362-.1713.6097-.4569.7241-.7806.1334-.3427.1334-.7425-.0381-1.1043-.9147-1.9991-.4955-4.379 1.0671-5.9212 1.5626-1.5612 3.9446-1.9801 5.9264-1.0662.343.1713.7432.1713 1.0862.0381.343-.1333.6288-.3808.8003-.7235.1334-.2666.1525-.5712.1143-.8568-.1334-.8568.1525-1.7516.7813-2.3799Zm-2.725 10.9667c1.1815-1.1805 1.1815-3.1035 0-4.3029-1.1814-1.1805-3.1061-1.1805-4.3066 0-1.1814 1.1804-1.1814 3.1034 0 4.3029 1.2005 1.1804 3.1252 1.1804 4.3066 0Zm7.6224-6.0546c1.6197-1.6183 1.6197-4.2458 0-5.8831-1.6198-1.61839-4.2495-1.61839-5.8883 0-.6098.6092-.9718 1.3518-1.1433 2.1133-2.9537-1.1043-6.3266-.3998-8.5752 1.8469-2.2486 2.2466-2.9536 5.6356-1.8293 8.5867-.7813.1523-1.5245.5331-2.1343 1.1424-1.61974 1.6183-1.61974 4.2458 0 5.8831 1.6198 1.6184 4.2495 1.6184 5.8883 0 .6098-.6092.9909-1.3708 1.1433-2.1514.9147.3427 1.8675.5141 2.8203.5141 2.1152 0 4.1923-.8187 5.7358-2.3609 2.2486-2.2467 2.9537-5.5976 1.8675-8.5297.7622-.1904 1.5054-.5712 2.1152-1.1614Z"/>
</svg>
