<svg xmlns="http://www.w3.org/2000/svg" fill="none" viewBox="0 0 42 42">
  <path fill="#2A3069" d="M21 41c11.0457 0 20-8.9543 20-20S32.0457 1 21 1 1 9.9543 1 21s8.9543 20 20 20Z"/>
  <path fill="#F3F3F3" d="M17 29c0 4 1.6667 6.3333 2.5 7.5 0 0-1.1561-.078-3-1S11 31 11 25.5s6-9 7.5-12.5c1.2-2.8 1.1667-6.16667 1-7.5 1.6667 1.66667 4.9 6.1 4.5 10.5-.5 5.5-7 8-7 13Z"/>
  <path fill="#F3F3F3" d="M30.5 27c0-3-1.5-6.5-3.5-9-.5 2-.7 2.4-1.5 4-1 2-4.1228 4.9821-4.5 8-.5 4 1.8333 6 3 6.5.1667-.3333.1783-.2855 2-1.5 1.8217-1.2145 4.5-3.9689 4.5-8Z"/>
</svg>
