<svg xmlns="http://www.w3.org/2000/svg" fill="none" viewBox="0 0 42 42">
  <circle cx="21" cy="21" r="20" fill="#20C5C9"/>
  <circle cx="29.75" cy="12" r="2" fill="#F3F3F3"/>
  <circle cx="12.25" cy="30" r="2" fill="#F3F3F3"/>
  <path fill="#F3F3F3" fill-rule="evenodd" d="M26.75 20.5c0 3.3137-2.6863 6-6 6-.9873 0-1.919-.2385-2.7405-.661l-2.1466 2.07c-.0317.0306-.065.0587-.0996.0843 1.4274.9519 3.1423 1.5067 4.9867 1.5067 4.9706 0 9-4.0294 9-9 0-1.7242-.4848-3.3351-1.3256-4.7039l-2.2392 2.1592c.3623.7726.5648 1.635.5648 2.5447Zm-.1536-6.8427c-.0183.0158-.0361.0324-.0535.0498l-2.0796 2.0796C23.4418 14.9809 22.1521 14.5 20.75 14.5c-3.3137 0-6 2.6863-6 6 0 1.4021.4809 2.6918 1.2867 3.7133l-1.9714 1.9714c-.0556.0556-.1031.1159-.1428.1795C12.5684 24.7891 11.75 22.7401 11.75 20.5c0-4.9706 4.0294-9 9-9 2.2317 0 4.2737.8123 5.8464 2.1573Z" clip-rule="evenodd"/>
</svg>
