<svg xmlns="http://www.w3.org/2000/svg" fill="none" viewBox="0 0 42 42">
  <circle cx="21" cy="21" r="20" fill="#fff"/>
  <path fill="url(#a)" d="M28.201 14c-1.5612 0-3.2707.8487-5.0739 2.5228-.8508.7864-1.6002 1.6429-2.1466 2.3203 0 0 .8742 1.0045 1.8344 2.0868.523-.6541 1.2646-1.5417 2.131-2.3437 1.6002-1.495 2.6463-1.7987 3.2473-1.7987 2.2481 0 4.0748 1.8843 4.0748 4.2125 0 2.3048-1.8267 4.1891-4.0748 4.2124-.1093 0-.2342-.0156-.3903-.0467.6557.3037 1.3661.5217 2.0296.5217 4.1215 0 4.9334-2.842 4.9802-3.0445.1171-.5217.1874-1.0667.1874-1.6273C34.9922 17.1457 31.9479 14 28.201 14Z"/>
  <path fill="url(#b)" d="M13.799 28.0009c1.5612 0 3.2707-.8487 5.0739-2.5228.8509-.7864 1.6003-1.6429 2.1467-2.3204 0 0-.8743-1.0044-1.8344-2.0867-.523.654-1.2646 1.5417-2.1311 2.3437-1.6002 1.4794-2.654 1.7987-3.2473 1.7987-2.2481 0-4.0747-1.8844-4.0747-4.2125 0-2.3048 1.8266-4.1891 4.0747-4.2124.1093 0 .2342.0155.3903.0467-.6557-.3037-1.366-.5217-2.0295-.5217-4.1216-.0078-4.93342 2.8342-4.98026 3.0445C7.07025 19.8797 7 20.4247 7 20.9853c0 3.8699 3.0443 7.0156 6.799 7.0156Z"/>
  <path fill="#29ABE2" fill-rule="evenodd" d="M16.9367 18.6485c-.4527-.4361-2.654-2.2191-4.7616-2.2814-3.76253-.0935-4.86317 2.6318-4.96465 2.9822C7.93641 16.297 10.6217 14.0156 13.8065 14c2.5994 0 5.23 2.5462 7.1737 4.8431l.0078-.0077s.8743 1.0044 1.8345 2.0867c0 0 1.0928 1.2848 2.2481 2.4138.4527.436 2.6462 2.1958 4.7538 2.2581 3.864.109 4.9334-2.772 4.9881-2.99-.7104 3.0756-3.4034 5.3648-6.6039 5.3804-2.5994 0-5.23-2.5462-7.1815-4.8432 0 .0078-.0078.0078-.0078.0156 0 0-.8743-1.0044-1.8344-2.0867.0078 0-1.0851-1.2926-2.2482-2.4216Z" clip-rule="evenodd"/>
  <defs>
    <linearGradient id="a" x1="24.5467" x2="34.1456" y1="15.1093" y2="24.8116" gradientUnits="userSpaceOnUse">
      <stop offset=".21" stop-color="#F15A24"/>
      <stop offset=".6841" stop-color="#FBB03B"/>
    </linearGradient>
    <linearGradient id="b" x1="17.4558" x2="7.85693" y1="26.8932" y2="17.1909" gradientUnits="userSpaceOnUse">
      <stop offset=".21" stop-color="#ED1E79"/>
      <stop offset=".8929" stop-color="#522785"/>
    </linearGradient>
  </defs>
</svg>
