<svg xmlns="http://www.w3.org/2000/svg" fill="none" viewBox="0 0 36 36">
  <g clip-path="url(#a)">
    <mask id="b" width="36" height="36" x="0" y="0" maskUnits="userSpaceOnUse" style="mask-type:alpha">
      <circle cx="18" cy="18" r="18" fill="#D9D9D9"/>
    </mask>
    <g mask="url(#b)">
      <path fill="#F3F3F3" d="M-9 0h54v36H-9V0Z"/>
      <path fill="#FF9A33" d="M-9 0h54v12H-9V0Z"/>
      <path fill="#138807" d="M-9 24h54v12H-9V24Z"/>
      <path fill="#2C2C6F" d="M18.0012 23.5512c3.0652 0 5.55-2.4848 5.55-5.55s-2.4848-5.55-5.55-5.55-5.55 2.4848-5.55 5.55 2.4848 5.55 5.55 5.55Z"/>
      <path fill="#F3F3F3" d="M18.0012 22.8012c2.6509 0 4.8-2.1491 4.8-4.8 0-2.651-2.1491-4.8-4.8-4.8-2.651 0-4.8 2.149-4.8 4.8 0 2.6509 2.149 4.8 4.8 4.8Z"/>
      <path fill="#2C2C6F" d="M17.9991 18.9591c.5302 0 .96-.4298.96-.96s-.4298-.96-.96-.96-.96.4298-.96.96.4298.96.96.96Z"/>
      <path fill="#2C2C6F" d="m17.9986 13.1953.18 2.8885-.18 1.4301-.18-1.4301.18-2.8885Zm.6003.2446c.115.0151.2205-.0658.2357-.1808.0151-.115-.0659-.2205-.1808-.2356-.115-.0151-.2205.0658-.2357.1808-.0151.115.0659.2205.1808.2356Zm-.597 9.3531-.18-2.8885.18-1.4301.18 1.4301-.18 2.8885Zm-.6004-.2446c-.1149-.0152-.2204.0658-.2356.1808-.0151.115.0658.2204.1808.2356.115.0151.2205-.0658.2356-.1808.0152-.115-.0658-.2205-.1808-.2356Zm1.8388-9.1893-.5737 2.8366-.5441 1.3348.1963-1.428.9215-2.7434Zm.5156.3984c.1072.0443.23-.0065.2744-.1137.0444-.1071-.0065-.23-.1136-.2744-.1072-.0444-.23.0065-.2744.1137-.0444.1071.0065.23.1136.2744Zm-2.9962 8.8717.5737-2.8366.5441-1.3348-.1963 1.4279-.9215 2.7435Zm-.5156-.3925c-.1072-.0444-.23.0065-.2744.1136-.0444.1072.0065.23.1136.2744.1072.0444.23-.0065.2744-.1136.0444-.1072-.0065-.23-.1136-.2744ZM20.4 13.8439l-1.2883 2.5915-.871 1.1485.5592-1.3285L20.4 13.8439Zm.3937.5117c.092.0706.2239.0532.2945-.0388s.0532-.2238-.0388-.2944-.2238-.0533-.2944.0387-.0533.2239.0387.2945Zm-5.1935 7.7966 1.2884-2.5915.8709-1.1485-.5592 1.3285-1.6001 2.4115Zm-.3937-.5117c-.092-.0706-.2238-.0532-.2944.0388s-.0533.2238.0387.2944.2239.0533.2945-.0387c.0706-.0921.0532-.2239-.0388-.2945Zm6.1845-7.0406-1.9152 2.1698-1.1386.8839.884-1.1385 2.1698-1.9152Zm.2415.5997c.0706.092.2025.1094.2945.0388.092-.0706.1093-.2024.0387-.2945-.0706-.092-.2024-.1093-.2944-.0387s-.1094.2024-.0388.2944Zm-7.0352 6.1907 1.9152-2.1697 1.1385-.884-.8839 1.1385-2.1698 1.9152Zm-.2474-.6016c-.0706-.0921-.2024-.1094-.2944-.0388-.0921.0706-.1094.2024-.0388.2944s.2024.1094.2944.0388.1094-.2024.0388-.2944Zm7.8065-5.1816-2.4115 1.6001-1.3285.5592 1.1485-.871 2.5915-1.2883Zm.0828.6441c.0444.1072.1672.1581.2744.1137.1071-.0444.158-.1672.1136-.2744-.0443-.1072-.1672-.158-.2743-.1137-.1072.0444-.1581.1673-.1137.2744Zm-8.3959 4.1515 2.4115-1.6001 1.3286-.5592-1.1486.871-2.5915 1.2883Zm-.0828-.6442c-.0443-.1071-.1672-.158-.2743-.1136-.1072.0444-.1581.1672-.1137.2744.0444.1071.1672.158.2744.1136.1071-.0444.158-.1672.1136-.2744Zm8.8796-2.9967-2.7435.9214-1.4279.1963 1.3348-.544 2.8366-.5737Zm-.084.6458c.0151.1149.1206.1959.2356.1807.115-.0151.1959-.1206.1808-.2356-.0152-.115-.1206-.1959-.2356-.1808-.115.0152-.196.1207-.1808.2357ZM13.3655 19.25l2.7435-.9215 1.428-.1963-1.3349.544-2.8366.5738Zm.084-.64c-.0151-.115-.1206-.1959-.2356-.1808-.115.0152-.1959.1207-.1808.2356.0152.115.1207.196.2357.1808.1149-.0151.1959-.1206.1807-.2356Zm9.361-.5999-2.8884.18-1.4301-.18 1.4301-.18 2.8884.18Zm-.2504.6003c-.0151.115.0658.2205.1808.2356.115.0152.2205-.0658.2356-.1808.0151-.115-.0658-.2204-.1808-.2356-.115-.0151-.2205.0658-.2356.1808Zm-9.3531-.6029 2.8885-.18 1.4301.18-1.4301.18-2.8885-.18Zm.2505-.6003c.0151-.115-.0658-.2205-.1808-.2356-.115-.0152-.2205.0658-.2356.1807-.0152.115.0658.2205.1808.2357.115.0151.2205-.0658.2356-.1808Zm9.1776 1.837-2.8367-.5737-1.3348-.5441 1.428.1963 2.7435.9215Zm-.3984.5157c-.0444.1071.0065.2299.1136.2743.1072.0444.23-.0065.2744-.1136.0444-.1072-.0065-.23-.1136-.2744-.1072-.0444-.23.0065-.2744.1137Zm-8.8718-3.0021 2.8367.5737 1.3348.544-1.428-.1963-2.7435-.9214Zm.3926-.5098c.0443-.1072-.0065-.23-.1137-.2744-.1071-.0444-.23.0065-.2744.1136-.0444.1072.0065.23.1137.2744.1071.0444.23-.0065.2744-.1136Zm8.4008 4.1501-2.5915-1.2884-1.1485-.8709 1.3285.5592 2.4115 1.6001Zm-.5175.3995c-.0706.0921-.0533.2239.0387.2945s.2239.0532.2945-.0388.0532-.2238-.0388-.2944-.2238-.0533-.2944.0387Zm-7.8047-5.1996 2.5915 1.2884 1.1485.8709-1.3285-.5592-2.4115-1.6001Zm.5175-.3995c.0706-.0921.0533-.2239-.0387-.2945-.0921-.0706-.2239-.0532-.2945.0388s-.0532.2238.0388.2944.2238.0533.2944-.0387Zm7.0406 6.1983-2.1697-1.9152-.884-1.1385 1.1385.884 1.9152 2.1697Zm-.5997.2455c-.092.0706-.1094.2024-.0388.2944.0707.092.2025.1094.2945.0388.092-.0706.1094-.2024.0388-.2944-.0706-.0921-.2025-.1094-.2945-.0388Zm-6.1887-7.0352 2.1697 1.9152.884 1.1385-1.1385-.884-1.9152-2.1697Zm.5997-.2455c.092-.0706.1094-.2024.0388-.2944-.0707-.092-.2025-.1094-.2945-.0388-.092.0706-.1094.2024-.0388.2945.0706.092.2025.1093.2945.0387Zm5.1874 7.787-1.6001-2.4115-.5592-1.3285.871 1.1485 1.2883 2.5915Zm-.6441.0828c-.1072.0444-.1581.1672-.1137.2744.0444.1071.1672.158.2744.1136.1072-.0444.158-.1672.1137-.2744-.0444-.1071-.1673-.158-.2744-.1136Zm-4.1535-8.3937 1.6001 2.4115.5592 1.3285-.8709-1.1485-1.2884-2.5915Zm.6442-.0828c.1072-.0444.158-.1672.1137-.2743-.0444-.1072-.1673-.1581-.2744-.1137-.1072.0444-.1581.1672-.1137.2744.0444.1071.1673.158.2744.1136Zm3.0048 8.8718-.9214-2.7435-.1963-1.428.544 1.3348.5737 2.8367Zm-.6458-.0841c-.1149.0152-.1959.1207-.1807.2357.0151.1149.1206.1959.2356.1808.115-.0152.1959-.1207.1808-.2357-.0152-.115-.1207-.1959-.2357-.1808ZM16.75 13.3597l.9215 2.7434.1963 1.428-.544-1.3348-.5738-2.8366Zm.6458.084c.115-.0152.196-.1206.1808-.2356-.0151-.115-.1206-.196-.2356-.1808-.115.0151-.1959.1206-.1808.2356.0152.115.1206.1959.2356.1808Z"/>
    </g>
  </g>
  <defs>
    <clipPath id="a">
      <rect width="36" height="36" fill="#fff" rx="18"/>
    </clipPath>
  </defs>
</svg>
