<svg xmlns="http://www.w3.org/2000/svg" fill="none" viewBox="0 0 42 42">
  <path fill="#1C1C1C" d="M21 41c11.0457 0 20-8.9543 20-20S32.0457 1 21 1 1 9.9543 1 21s8.9543 20 20 20Z"/>
  <path fill="#F3F3F3" d="M21 7.15039 9 14.0784v13.856l12 6.928 12-6.928v-13.856L21 7.15039Zm.2453 22.44271-9.2106-5.2534.0373-2.5546 9.168 5.248 4.4213-2.5494-2.9653-1.712-1.1093.64-2.08-1.1946 1.1146-.6454-1.456-.8426-.88.512L16.2 20.0464l.8853-.512-4.6986-2.7147 8.8533-5.1093 8.352 4.7627-2.24 1.3013-6.112-3.504-4.4213 2.5493 2.4746 1.4294 1.264-.736 2.0854 1.1946-1.2747.736 1.456.8427 1.0347-.6027 2.0853 1.1947-1.0453.608 5.184 2.992-8.8374 5.1147Z"/>
</svg>
