<svg xmlns="http://www.w3.org/2000/svg" fill="none" viewBox="0 0 42 42">
  <circle cx="21" cy="21" r="20" fill="#19263B"/>
  <path fill="#39F2B1" d="M22.3647 9v5.7751l5.0142-2.8838L22.3647 9Z"/>
  <path fill="#39F2B1" d="M27.3794 11.8916v5.7751l5.0131-2.8912-5.0131-2.8839Z" opacity=".9"/>
  <path fill="#39F2B1" d="M22.3647 14.7754v5.7751l5.0142-2.8838-5.0142-2.8913Zm5.0142 2.8913v5.7751l5.0132-2.8913-5.0132-2.8838Z" opacity=".8"/>
  <path fill="#39F2B1" d="M22.3647 20.5498v5.7751l5.0142-2.8838-5.0142-2.8913Z" opacity=".8"/>
  <path fill="#39F2B1" d="M27.3794 23.4424v5.7751l5.0131-2.8913-5.0131-2.8838Z"/>
  <path fill="#39F2B1" d="M9.40576 14.5811v5.7751L14.42 17.4649l-5.01424-2.8838Z" opacity=".4"/>
  <path fill="#39F2B1" d="M15.731 16.7275v5.7752l5.0057-2.8839-5.0057-2.8913Z" opacity=".2"/>
  <path fill="#39F2B1" d="M12.0146 20.3799v5.7751l5.0132-2.8913-5.0132-2.8838Z" opacity=".3"/>
  <path fill="#39F2B1" d="M15.3184 24.7383v5.7751l5.0057-2.8913-5.0057-2.8838Z" opacity=".9"/>
  <path fill="#39F2B1" d="M22.3247 27.2236v5.7762l5.0057-2.8923-5.0057-2.8839Z" opacity=".7"/>
  <path fill="#39F2B1" d="M16.5659 13.876v5.7761l5.0058-2.8838-5.0058-2.8923Z" opacity=".9"/>
  <path fill="#39F2B1" d="M22.3658 9v5.7751l-5.0142-2.8838L22.3658 9Z" opacity=".8"/>
  <path fill="#39F2B1" d="M16.5655 11.4561v5.774l-5.0152-2.8913 5.0152-2.8827Zm5.0146 2.8564v5.7762l-5.0142-2.8923 5.0142-2.8839Z" opacity=".6"/>
  <path fill="#39F2B1" d="M15.708 16.7275v5.7752l-5.0142-2.8839 5.0142-2.8913Z" opacity=".95"/>
  <path fill="#39F2B1" d="M22.3656 20.5498v5.7751l-5.0057-2.8838 5.0057-2.8913Z" opacity=".6"/>
  <path fill="#39F2B1" d="M12.0142 21.8945v5.7751L7 24.7773l5.0142-2.8828Z" opacity=".55"/>
  <path fill="#39F2B1" d="M32.3925 14.7754v5.7751l-5.0131-2.8838 5.0131-2.8913Z"/>
  <path fill="#39F2B1" d="M27.3789 17.668v5.774l-5.0142-2.8912 5.0142-2.8828Z" opacity=".95"/>
  <path fill="#39F2B1" d="M32.3925 20.5498v5.7751l-5.0131-2.8838 5.0131-2.8913Z" opacity=".9"/>
  <path fill="#39F2B1" d="M27.3789 23.4424v5.7751l-5.0142-2.8913 5.0142-2.8838Z" opacity=".7"/>
  <path fill="#39F2B1" d="M21.2558 25.8477v5.7751l-5.0131-2.8839 5.0131-2.8912Z" opacity=".4"/>
  <path fill="#39F2B1" d="M27.3789 11.8916v5.7751l-5.0142-2.8912 5.0142-2.8839Z"/>
</svg>
