<svg xmlns="http://www.w3.org/2000/svg" fill="none" viewBox="0 0 42 42">
  <circle cx="21" cy="21" r="21" fill="#DDD"/>
  <path fill="#3C1A26" d="M32.8192 29.1802v3.2203l-4.9005 2.8703v-3.2203l4.9005-2.8703Z"/>
  <path fill="#29121A" d="m27.9151 35.2877-8.681-5.0405v-3.2203l8.681 5.0405v3.2203Z"/>
  <path fill="#421D2A" d="m27.8467 32.0666-8.6809-5.0405 4.9005-2.8703 8.7509 5.0405-4.9705 2.8703Z"/>
  <path fill="#3C1A26" d="M27.1425 32.3931v3.2203l-4.9006 2.8703v-3.2203l4.9006-2.8703Z"/>
  <path fill="#29121A" d="m22.2383 38.5009-8.6809-5.0406V30.24l8.6809 5.0405v3.2204Z"/>
  <path fill="#421D2A" d="m22.2383 35.2797-8.6809-5.0405 4.9005-2.8703 8.6809 5.0405-4.9005 2.8703Z"/>
  <path fill="#DB5B54" d="M32.7093 23.6719v4.5505L20.738 35.1531v-4.5505l11.9713-6.9307Z"/>
  <path fill="#DB5B54" d="M32.7093 23.6719v4.5505L20.738 35.1531v-4.5505l11.9713-6.9307Z"/>
  <path fill="#A24741" d="M20.7047 35.1533 8.80347 28.2226v-4.5505l11.90123 6.9308v4.5504Z"/>
  <path fill="#A24741" d="M20.7047 35.1533 8.80347 28.2226v-4.5505l11.90123 6.9308v4.5504Z"/>
  <path fill="#DB5B54" d="M20.7047 30.5951 8.80347 23.6644l11.97123-6.9308 11.9013 6.9308-11.9713 6.9307Z"/>
  <path fill="#BD967F" d="M32.6068 14.4775v9.171l-11.9713 6.9308v-9.171l11.9713-6.9308Z"/>
  <path fill="#886B59" d="M20.6364 30.5795 8.73511 23.6488v-9.171l11.90129 6.9307v9.171Z"/>
  <path fill="#B88D73" d="M20.6364 21.4289 8.73511 14.4981 20.7064 7.56738l11.9013 6.93072-11.9713 6.9308Z"/>
  <path fill="#fff" d="M26.5902 20.2881v1.8202l-1.6102.9101v1.8202l1.6102-.9101-3.2203 1.8202v-3.6404l3.2203-1.8202Z"/>
  <path fill="#493239" d="M26.6549 22.0996v1.8202l-1.6102.9101v-1.8202l1.6102-.9101Z"/>
  <path fill="#fff" d="M31.3083 17.5879v1.8202l-1.6102.9101v1.8202l1.6102-.9101-3.1503 1.8902v-3.6404l3.1503-1.8902Z"/>
  <path fill="#493239" d="M31.3746 19.4678v1.8202l-1.6102.9101v-1.8202l1.6102-.9101Z"/>
  <path fill="#886B59" d="M13.5117 32.8237v2.7303l-3.99046-2.3103v-2.7303l3.99046 2.3103Z"/>
  <path fill="#BD967F" d="m13.489 32.8237 3.9904-2.3103v2.7303L13.489 35.554v-2.7303Z"/>
  <path fill="#CAA390" d="m9.52124 30.5336 3.99046-2.3102 3.9904 2.3102-3.9904 2.3103-3.99046-2.3103Z"/>
  <path fill="#A24741" d="M14.6956 31.6587v1.8202l-1.1901-.7001-3.99042-2.3102-1.19013-.7001v-1.7502l6.37065 3.6404Z"/>
  <path fill="#A24741" d="M14.6956 31.6587v1.8202l-1.1901-.7001-3.99042-2.3102-1.19013-.7001v-1.7502l6.37065 3.6404Z"/>
  <path fill="#C4524C" d="m14.6853 31.6616 3.9904-2.3103v1.8202l-3.9904 2.3103v-1.8202Z"/>
  <path fill="#C4524C" d="m14.6853 31.6616 3.9904-2.3103v1.8202l-3.9904 2.3103v-1.8202Z"/>
  <path fill="#DB5B54" d="m8.32495 28.0043 3.99045-2.3102 6.3707 3.7104-3.9905 2.3102-6.37065-3.7104Z"/>
  <path fill="#DB5B54" d="m8.32495 28.0043 3.99045-2.3102 6.3707 3.7104-3.9905 2.3102-6.37065-3.7104Zm24.28185-17.56v4.5505l-11.9713 6.9308v-4.5505l11.9713-6.9308Z"/>
  <path fill="#A24741" d="M20.6364 21.9258 8.73511 14.9951v-4.5505l11.90129 6.9307v4.5505Z"/>
  <path fill="#F2716A" d="M20.6364 17.2915 8.73511 10.3607 20.7064 3.5l11.9013 6.9307-11.9713 6.8608Z"/>
  <path fill="#DB5B54" d="M30.4555 18.5079c.9801-.5601 2.1002-1.0501 3.2203-1.3302v1.8202c-1.1201.2801-2.1702.7001-3.2203 1.3302-1.1202.7-2.2403 1.4701-3.2204 2.3802v-1.8202c.9801-.9101 2.0302-1.7502 3.2204-2.3802Z"/>
  <path fill="#A24741" d="m27.2236 22.6754-3.9904-2.3103v-1.8202l3.9904 2.3103v1.8202Z"/>
  <path fill="#F2716A" d="m27.2236 20.8742-3.9904-2.3103c.9801-.9101 2.0302-1.6802 3.2203-2.3802 1.1201-.7001 3.1503-1.3302 3.1503-1.3302l3.9905 2.3803s-2.0303.63-3.2204 1.2601c-1.1201.6301-2.1702 1.4702-3.1503 2.3803Z"/>
  <path fill="#898989" d="m31.0179 27.2809-.77-.49-.2101-.14.7701.49.21.14Zm-1.5673 1.7823-.7701-.49-.42-.3501.7701.4901.42.35Z"/>
  <path fill="#888" d="m21.4056 31.0098-.7701-.49v-.2801l.7701.4901v.28Z"/>
  <path fill="#D6D6D6" d="M33.4629 22.4756v1.6102l-2.4502 3.2203-.2101-.14-1.3301 1.8202-.4201-.3501-1.5401 2.4503-1.6102-.6301-.42.8401-1.3302-.35-.21.42-2.5203-.35v-1.6102l12.0413-6.9307Z"/>
  <path fill="#888" d="m21.4056 30.7269-.7701-.49v-1.3302l.7701.4901v1.3301Z"/>
  <path fill="#FDFDFD" d="m21.4056 29.4179-.7701-.4901 12.0413-6.9307.7701.49-12.0413 6.9308Zm-6.6519-6.3153.77-.4901 5.1106 6.3007-.7701.4901-5.1105-6.3007Z"/>
  <path fill="#FDFDFD" d="m19.8835 29.3968.7701-.4901.7701.4901-.7701.49-.7701-.49Z"/>
  <path fill="#D6D6D6" d="m20.6355 29.9095.7701-.4901v1.6102l-.7701.4901v-1.6102Z"/>
  <path fill="#898989" d="M14.7706 19.3853v3.7804l5.1105 6.3006.7701.4901v1.6102l-5.9506-3.6404-1.4002-.8401-.7001-.4201v-1.6101l.7001-2.7303v-3.7804l1.4702.8401Z"/>
  <path fill="#FDFDFD" d="m14.7537 19.377.77-.49v3.7804l-.77.42V19.377Z"/>
  <path fill="#DCDCDC" d="m13.3865 18.5567.7701-.49 1.4001.84-.7701.4901-1.4001-.8401Z"/>
</svg>
