<svg xmlns="http://www.w3.org/2000/svg" fill="none" viewBox="0 0 36 36">
  <rect width="36" height="36" fill="#AECFCF" rx="18"/>
  <path fill="#030303" d="M7.01677 13.5994h3.94903v.2866h-.2137c-.4182 0-.6919.0343-.82114.1029-.12981.0704-.21616.199-.25657.3864-.04225.1898-.06369.6387-.06369 1.3466v2.9111c0 .7232-.02755 1.27-.08389 1.6478-.05756.3772-.21371.7453-.47396 1.1041-.25903.3564-.60562.6338-1.03733.8273-.43293.1923-.93506.2878-1.50822.2878-.64359 0-1.13959-.1194-1.48619-.3558-.3472-.2382-.52111-.5229-.52111-.8499 0-.1978.06185-.3644.18616-.5003.12492-.1341.27739-.2003.45926-.2003.18554 0 .34108.0594.46478.1801.12553.1206.18738.2694.18738.4458 0 .1047-.02572.2118-.07655.3264-.04592.0998-.06919.1739-.06919.2235 0 .1335.07838.2388.23698.3135.15982.0735.35578.1127.59031.1127.47641 0 .87689-.1519 1.20327-.455.32577-.3037.52173-.662.58909-1.0753.06613-.4115.10042-1.0931.10042-2.0422v-2.905c0-.6779-.02082-1.1145-.06001-1.3117-.04041-.1965-.12431-.3325-.2529-.4078-.12737-.0753-.40844-.1127-.84015-.1127h-.20208v-.2866Zm7.43893 4.1892h.6112c.4917 0 .8885-.0472 1.191-.1476.3019-.0968.5548-.3056.7556-.6203.2021-.316.3025-.7042.3025-1.1659 0-.7061-.1732-1.2241-.5198-1.5548-.346-.3307-.9075-.496-1.6852-.496-.2854 0-.504.0092-.6553.0269v3.9577Zm0 .3068v1.7991c0 .6748.0166 1.1151.0484 1.3226.0319.2076.1164.3638.2554.4636.1384.1023.4004.1525.7844.1525h.2841v.2859h-3.9276v-.2859h.2278c.3668 0 .6209-.0478.7618-.1372.1408-.0937.2314-.2382.2694-.4342.0373-.1928.0563-.646.0563-1.36v-4.1842c0-.6803-.019-1.1169-.0563-1.3147-.038-.1978-.1225-.3331-.2535-.4091-.1305-.0753-.414-.1127-.8463-.1127h-.1592v-.2865l1.0728-.0435c.8573-.0349 1.526-.0514 2.0061-.0514.883 0 1.564.0691 2.0404.2063.4782.1396.8689.3833 1.1745.7373.3055.3503.458.7954.458 1.3319 0 .466-.1053.8756-.3129 1.232-.2076.3564-.5052.6271-.8934.8108-.3895.1843-1.0729.2774-2.0514.2774h-.9388Zm11.3132 2.5581 3.1003-7.0537h2.6313v.2866h-.3148c-.4213 0-.6968.0343-.8266.1029-.1305.071-.2162.199-.2603.3864-.0447.1898-.0661.6393-.0661 1.3471v4.1843c0 .6711.0165 1.1102.0502 1.3184.0331.2063.1182.3606.2541.4611.1366.1016.3993.1518.7857.1518h.3778v.2866h-4.1003v-.2866h.3037c.3631 0 .6148-.0477.7569-.1371.1396-.0937.2314-.2376.2712-.4324.0405-.1947.06-.6478.06-1.3618V14.481l-3.3581 7.644h-.3056l-3.3912-7.644v4.995c0 .6833.0202 1.1481.0625 1.3961.0422.2468.1714.463.3894.6497.218.1862.526.2915.9204.3166v.2866h-3.0703v-.2866c.3661-.0196.665-.12.8946-.2976.2309-.1788.3711-.3986.4201-.6564.052-.2615.0778-.7428.0778-1.4482v-3.7134c0-.6784-.0203-1.1169-.0601-1.3147-.0404-.1978-.1249-.3331-.2541-.409-.1274-.0747-.409-.1127-.8444-.1127h-.2339v-.2866h2.6006l3.1292 7.0537Z"/>
</svg>
