<svg xmlns="http://www.w3.org/2000/svg" fill="none" viewBox="0 0 42 42">
  <circle cx="21" cy="21" r="20" fill="#F3F3F3"/>
  <path fill="url(#a)" d="m22.0213 17.9111.627.814s3.773 5.5418 5.6628 8.3083c1.3035 1.9195 2.607 3.839 3.9127 5.7574.1001.1375.1925.2805.2761.4279-2.3232.0099-4.6464.0044-6.9685.0022-2.3122-3.432-6.9025-10.3191-6.9025-10.3191l-.396-.7216"/>
  <path fill="url(#b)" d="M16.594 25.011c-.0858.0682-.0792.1815-.0792.2805l-.0935.3124-.4521-7.2677.5533-.5918c.1419-.0968 5.6364-5.9048 8.2808-8.67022.0627-.088.176-.0616.2684-.0693 2.3012.0077 6.9025.0055 6.9025.0055S17.2639 24.3004 16.594 25.011Z"/>
  <path fill="#69009A" d="M10.5 9.01172h6.0214V33.2128H10.5V9.01172Z"/>
  <defs>
    <linearGradient id="a" x1="20.3051" x2="25.8853" y1="20.5528" y2="28.5461" gradientUnits="userSpaceOnUse">
      <stop stop-color="#EA078C"/>
      <stop offset="1" stop-color="#69009A"/>
    </linearGradient>
    <linearGradient id="b" x1="15.5012" x2="26.8502" y1="20.4734" y2="13.4981" gradientUnits="userSpaceOnUse">
      <stop stop-color="#EA078C"/>
      <stop offset="1" stop-color="#69009A"/>
    </linearGradient>
  </defs>
</svg>
