<svg xmlns="http://www.w3.org/2000/svg" fill="none" viewBox="0 0 42 42">
  <circle cx="21" cy="21" r="21" fill="#65C8A1"/>
  <path fill="#F3F3F3" fill-rule="evenodd" d="m22.6339 6.65777 7.1368 5.60013c.0739.0556.1331.1307.1719.2178.0389.0872.0559.1836.0496.2799-.0062.0963-.0357.1892-.0855.2698-.0498.0806-.1182.1462-.1987.1903l-10.5736 6.2372 2.6059-12.47436c.0245-.09587.0708-.18382.1348-.25609.0639-.07227.1436-.12665.2319-.15835.0883-.03169.1825-.03972.2744-.02339.0919.01633.1786.05653.2525.11706Zm7.3579 21.18913-10.4399-6.3798 10.4399-6.3842c.0834-.0551.1791-.0853.2771-.0874.0981-.0021.1948.0239.2802.0754.0854.0514.1562.1264.2051.2171.0489.0907.0741.1937.0728.2983V27.339c.0007.1044-.0248.2072-.0737.2976-.0489.0905-.1195.1654-.2045.2172-.0851.0517-.1815.0783-.2794.0771-.0979-.0012-.1937-.0302-.2776-.084Zm-7.3662 8.4244 7.1451-5.6001c.0749-.0562.135-.1319.1746-.22.0396-.0881.0573-.1856.0514-.2831-.0058-.0975-.0351-.1917-.0849-.2737-.0498-.082-.1185-.1489-.1996-.1944l-10.5778-6.2372 2.6059 12.4744c.0216.0969.0654.1866.1276.261.0621.0743.1406.1311.2283.1651.0878.034.1821.0442.2745.0297.0924-.0145.18-.0532.2549-.1128v-.0089ZM19.5523 7.69226 16.8379 21.2359l2.681 13.5525c.0208.1122.0096.2285-.0319.334-.0416.1054-.1117.1952-.2014.2579s-.1949.0954-.3021.0939c-.1073-.0015-.2116-.0371-.2998-.1022l-6.9196-5.6714c-.1783-.1459-.3222-.3343-.4201-.5501-.0979-.2158-.1471-.4531-.1436-.6928V14.023c-.0009-.2367.0496-.4705.1474-.683.0978-.2125.2403-.3981.4163-.5422l6.953-5.68916c.0882-.06512.1926-.10069.2998-.10216.1072-.00147.2124.03122.3021.0939.0897.06268.1598.15248.2014.25793.0415.10544.0527.22172.0319.33395Z" clip-rule="evenodd"/>
</svg>
