<svg xmlns="http://www.w3.org/2000/svg" fill="none" viewBox="0 0 42 42">
  <g clip-path="url(#a)">
    <mask id="b" width="42" height="42" x="0" y="0" maskUnits="userSpaceOnUse" style="mask-type:alpha">
      <circle cx="21" cy="21" r="21" fill="#D9D9D9"/>
    </mask>
    <g mask="url(#b)">
      <path fill="red" d="M52.5 0h-63v42h63V0Z"/>
      <path fill="#fff" d="M17.0625 7.875h7.875v9.1875h9.1875v7.875h-9.1875v9.1875h-7.875v-9.1875H7.875v-7.875h9.1875V7.875Z"/>
      <path fill="#fff" d="M46-1H-4v43h50V-1Z"/>
      <path fill="#C60C30" fill-rule="evenodd" d="M14.0165 16.4236c1.2263-1.8388 3.1327-3.115 5.3-3.5481 2.1673-.4331 4.4179.0125 6.2566 1.2388 1.8387 1.2263 3.115 3.1328 3.548 5.3.4331 2.1673-.0125 4.4179-1.2388 6.2566" clip-rule="evenodd"/>
      <path fill="#003478" fill-rule="evenodd" d="M27.9698 25.5579c-1.2262 1.8387-3.1327 3.115-5.3 3.5481-2.1673.433-4.4178-.0126-6.2565-1.2389-1.8388-1.2262-3.1151-3.1327-3.5481-5.3-.4331-2.1673.0125-4.4178 1.2388-6.2566" clip-rule="evenodd"/>
      <path fill="#003478" fill-rule="evenodd" d="M20.9435 21.0345c.6132-.9193 1.5664-1.5575 2.6501-1.774 1.0836-.2165 2.2089.0063 3.1282.6194.9194.6131 1.5575 1.5664 1.7741 2.65.2165 1.0837-.0063 2.2089-.6194 3.1283" clip-rule="evenodd"/>
      <path fill="#C60C30" fill-rule="evenodd" d="M21.1146 20.8024c-.6132.9193-1.5664 1.5575-2.6501 1.774-1.0836.2165-2.2089-.0063-3.1282-.6194-.9194-.6131-1.5575-1.5664-1.7741-2.65-.2165-1.0837.0063-2.2089.6194-3.1283" clip-rule="evenodd"/>
      <path fill="#000" d="m4.82367 15.2128 4.61627-6.92178-1.15364-.76938-4.61627 6.92186 1.15364.7693Zm3.46045 2.3067 4.61628-6.9218-1.1536-.76942-4.61632 6.92182 1.15364.7694Zm-1.72998-1.1543 4.61626-6.92184-1.1536-.76938-4.6163 6.92182 1.15364.7694ZM34.4824 29.5807l2.1157-3.1725-1.1536-.7694-2.1158 3.1725 1.1537.7694Zm-2.5 3.75 2.1157-3.1725-1.1536-.7694-2.1158 3.1725 1.1537.7694Zm4.2309-2.5947 2.1158-3.1725-1.1536-.7694-2.1158 3.1725 1.1536.7694Zm-3.4604-2.3096 2.1158-3.1725-1.1537-.7694-2.1158 3.1725 1.1537.7694Zm-2.5015 3.75 2.1158-3.1725-1.1537-.7694-2.1157 3.1725 1.1536.7694Zm3.4619 2.3076 2.1158-3.1725-1.1536-.7694-2.1158 3.1725 1.1536.7694Zm-1.4256-21.4385-2.1158-3.17245-1.1537.76935 2.1158 3.1725 1.1537-.7694Zm2.5 3.7501-2.1158-3.1726-1.1537.7694 2.1158 3.1725 1.1537-.7693Zm3.4614-2.3077-2.1158-3.1725-1.1536.7694 2.1158 3.1725 1.1536-.7694Zm-2.5015-3.75-2.1158-3.17247-1.1536.76938 2.1158 3.17249 1.1536-.7694Zm.771 4.9046-4.6163-6.9218-1.1536.76938 4.6163 6.92182 1.1536-.7694ZM7.96087 30.0892l2.11583 3.1725 1.1536-.7694-2.11579-3.1725-1.15364.7694Zm-2.50049-3.75 2.11579 3.1725 1.15364-.7694-2.11579-3.1725-1.15364.7694Zm-1.73095 1.155L8.3457 34.416l1.15364-.7694-4.61627-6.9218-1.15364.7694Zm3.46143-2.3066 4.61624 6.9218 1.1537-.7694-4.6163-6.9218-1.15364.7694Z"/>
    </g>
  </g>
  <defs>
    <clipPath id="a">
      <rect width="42" height="42" fill="#fff" rx="21"/>
    </clipPath>
  </defs>
</svg>
