<svg xmlns="http://www.w3.org/2000/svg" fill="none" viewBox="0 0 42 42">
  <path fill="#222" d="M21 41c11.0457 0 20-8.9543 20-20S32.0457 1 21 1 1 9.9543 1 21s8.9543 20 20 20Z"/>
  <path fill="#fff" d="M33.2936 13.4139c-.4213-.3322-.9236-.7859-1.8391-.8994-.8588-.1134-1.7338.4619-2.3252.8426-.5915.3808-1.7095 1.4989-2.1713 1.8392-.4619.3402-1.6447.6562-3.5487 1.7986-1.9039 1.1423-9.3738 5.9386-9.3738 5.9386l1.9444.0243-8.66894 4.4642h.8669l-1.24768.9479s1.10185.2916 2.02546-.2917v.2674s10.32176-4.0672 12.31486-3.0139l-1.2153.3565c.1053 0 2.0659.1296 2.0659.1296.0476.406.1841.7965.3998 1.1438.2156.3473.5051.6428.8479.8654 1.1829.7778 1.2072 1.2072 1.2072 1.2072s-.6157.2512-.6157.5672c0 0 .9074-.2755 1.75-.2512.5347.0203 1.0651.1046 1.5798.2512 0 0-.0648-.3403-.8831-.5672-.8183-.2268-1.6284-1.118-2.0254-1.6041-.2432-.3095-.4017-.6768-.4599-1.066-.0583-.3892-.0143-.7869.1277-1.1539.2836-.7373 1.272-1.1424 3.3136-2.1957 2.4063-1.2476 2.9572-2.1712 3.2975-2.8923.3403-.7211.8426-2.1551 1.1262-2.8276.3564-.8669.7939-1.3287 1.1585-1.6041.3646-.2755 1.985-.8831 1.985-.8831s-1.2396-1.0776-1.6366-1.3935Z"/>
</svg>
