<svg xmlns="http://www.w3.org/2000/svg" fill="none" viewBox="0 0 42 42">
  <path fill="#F69988" d="M21 41c11.0457 0 20-8.9543 20-20S32.0457 1 21 1 1 9.9543 1 21s8.9543 20 20 20Z"/>
  <path stroke="#2B3850" stroke-width="1.3" d="m21.0002 21.2618-5.5841-3.0068 5.5841-9.02009 5.5837 9.02009-5.5837 3.0068Z"/>
  <path fill="#2B3850" d="M30 24.9971c0 4.9705-4.0294 9-9 9s-9-4.0295-9-9c0-1.8502.5583-3.5699 1.5155-5C13.562 19.9277 21 23.9975 21 23.9975s7.438-4.0681 7.4845-4.0004c.9572 1.4301 1.5155 3.1498 1.5155 5Z"/>
</svg>
