<svg xmlns="http://www.w3.org/2000/svg" fill="none" viewBox="0 0 42 42">
  <circle cx="21" cy="21" r="20" fill="#0F011C"/>
  <path fill="url(#a)" d="M14.5907 19.1941h.0121l.2062.0728.194.0727.2062.0607.194.0849.2062.0727.194.0728.2062.0728.194.0727.1941.0728.194.0728.2062.0727.194.0849.2062.0606.194.0728.2062.0728.194.0849.2062.0727.194.0607.1941.0727.2061.0849.2062.0728v-2.8378h-4.475l-.194.097-.4609.2426-.4729.2546-.473.2304-.4487.2426-.473.2547-.4729.2304-.4609.2547-.473.2425-.46079.2304-.46084.2547-.42446.2183L9 27.5984l.47297.3274.46084.3274.46079.3154.473.3395.4609.3275.4729.3274.2062.1577.2668-.3396.4487-.6064.0485-.0606-.0485-.0364-.4487-.3274-.473-.3275-.4729-.3274-.4609-.3275-.473-.3395-.1212-.0728.0364-5.6271.0848-.0485.473-.2304.4609-.2304.4729-.2304.473-.2305.4487-.2425.473-.2304.4729-.2183.4609-.2426.4608-.2304Z"/>
  <path fill="url(#b)" d="m22.619 32.452-.388.1577-.4366.1819-.4366.1698-.4366.1819-.194.0727-.2304-.1091-.4366-.2304-.4366-.2062-.4245-.2304-.4365-.2183-.4366-.2062-.4366-.2304-.4366-.2183-.4366-.2183-.4366-.2183-.4366-.2304-.4123-.2062-.4366-.2183-.0485-.0242v-5.6756h-1.2612v6.4517l.4366.2062.4365.2183.4366.2304.4366.2062.4123.2304.4366.2183.4366.2183.4366.2183.4366.2183.4366.2183.4366.2183.4365.2304.4245.2061.4366.2305.4366.2061.1697.097.2547-.1212.4366-.1577.4366-.1819.4366-.1819.4244-.1698.4366-.1698-.4366-1.0914-.0364-.0728Z"/>
  <path fill="url(#c)" d="m30.3683 24.568.0243 2.668-.1091.097-.7398.5094-.7398.5336-.7397.5336-.7398.5215-.7398.5214-.7276.5336-.7398.5215-.4366.3153-.3032-.2304-.7276-.57-.7398-.5578-.7397-.57-.7277-.5579-.1334-.097v-2.8742l.1334-.1212.7277-.7762.7397-.764.7398-.7762.7276-.764.7155-.7519h-8.8165l.7397.7762.7277.764.7397.764.7398.7762.7277.764.1091.1091v3.4806l.6306.4972.7519.57.7277.5578.7397.57.7398.5579.7276.57.2668.2061.473-.3395.7398-.5094.7276-.5336.7398-.5336.7398-.5093.7397-.5336.7398-.5336.7398-.5094.7397-.5336.6064-.4487.1213-3.2744-.7277-.0242-.6549-.0243Z"/>
  <path fill="url(#d)" d="M10.2003 18.3599h.0849l.0121-3.5654.473-.3032.5942-.3517.5821-.3517.5821-.3638.5821-.3517.5943-.3638.57-.3517.5942-.3517.5821-.3638.5943-.3639h.0121l.5578.3275.5943.3274.5821.3396.5821.3274.5821.3275.5821.3274.5822.3396.5699.3274.0243-.0485.5821-1.0551-.5821-.3395-.5942-.3275-.5822-.3274-.5821-.3275-.5821-.3395-.5821-.3275-.5821-.3274-.5943-.3396-.5699-.32741-.0243-.01212-.57.33953-.5821.3639-.5942.3638-.57.3638-.5943.3517-.5821.3517-.5821.3638-.5821.3517-.5942.3638-.57.3517-.59426.3517-.55786.3517-.02425 4.2567h.58211l.59426.0121Z"/>
  <path fill="url(#e)" d="m32.9998 15.0957-.3032-.2425-.3032-.2426-.3032-.2547-.3032-.2425-.3032-.2426-.3153-.2425-.3032-.2425-.3031-.2426-.3153-.2547-.2305-.1697-.0849.097-.3031.3759-.3032.3881-.0849.097.0849.0849.3032.2547.3031.2547.3154.2546.3153.2547.3031.2668.3032.2547.3153.2546.1456.1213.0121 5.7363-.1577.1091-.3153.194-.3032.1941-.3031.194-.3153.1941-.3154.194-.3031.194-.3032.1941-.3032.194-.3032.194-.3032.1941-.3153.194-.3032.1941-.3032.194-.3031.194-.3154.1941-.3031.194.3031.4851.3154.4851.0485.0849.2546-.1577.3032-.1819.3032-.194.3153-.1819.3032-.2062.3032-.1819.3032-.194.3032-.1819.3031-.1941.3154-.1819.3153-.2062.3031-.1819.3032-.194.3153-.1819.3032-.1941.3032-.1819.3032-.2061.3032-.1819.3032-.1941v-7.0096Z"/>
  <path fill="url(#f)" d="M22.9948 18.5165v2.474l.097-.0364.4123-.1577.4124-.1697.4002-.1577.4123-.1698.4123-.1698.4002-.1576.4124-.1698.4123-.1577.4002-.1697.4123-.1577.4002-.1698v-7.5068l-.4608-.2911-.473-.2668-.4729-.2668-.4609-.291-.4729-.2668-.473-.26683-.4609-.27893-.4729-.27893-.4609-.27893-.4729-.2668-.473-.27893-.4608-.27893-.4609-.2668-.4729-.2668-.2547-.14553-.2183.12127-.473.25468-.4729.24255-.4487.2668-.473.25467-.473.24255-.4729.2668.4729.2668.473.2668.291.18189.182-.09699.4487-.24255.4729-.25468.473-.24254.1819-.09702.2911.16978.4729.2668.4609.2668.4608.2789.473.279.4729.2668.4609.2789.4729.2789.4609.2668.473.2668.4729.2911.4609.2668.1576.0849v5.53H23.019"/>
  <path fill="url(#g)" d="m22.9946 20.9898 4.5842-1.8434-4.5842-1.2734"/>
  <path fill="url(#h)" d="M18.7991 20.9911v-3.0682L14.603 19.172l4.1961 1.8069"/>
  <defs>
    <linearGradient id="a" x1="13.8964" x2="13.8964" y1="17.9001" y2="29.7158" gradientUnits="userSpaceOnUse">
      <stop stop-color="#F6E93D"/>
      <stop offset=".13" stop-color="#F8E330"/>
      <stop offset=".35" stop-color="#F7C730"/>
      <stop offset=".64" stop-color="#F59C2E"/>
      <stop offset=".98" stop-color="#EB5E2C"/>
      <stop offset="1" stop-color="#EB5C2C"/>
    </linearGradient>
    <linearGradient id="b" x1="18.54" x2="18.54" y1="24.7802" y2="34.5973" gradientUnits="userSpaceOnUse">
      <stop stop-color="#F6E93D"/>
      <stop offset=".13" stop-color="#F8E330"/>
      <stop offset=".35" stop-color="#F7C730"/>
      <stop offset=".64" stop-color="#F59C2E"/>
      <stop offset=".98" stop-color="#EB5E2C"/>
      <stop offset="1" stop-color="#EB5C2C"/>
    </linearGradient>
    <linearGradient id="c" x1="24.013" x2="24.013" y1="21.9109" y2="32.8789" gradientUnits="userSpaceOnUse">
      <stop stop-color="#F6E93D"/>
      <stop offset=".13" stop-color="#F8E330"/>
      <stop offset=".35" stop-color="#F7C730"/>
      <stop offset=".64" stop-color="#F59C2E"/>
      <stop offset=".98" stop-color="#EB5E2C"/>
      <stop offset="1" stop-color="#EB5C2C"/>
    </linearGradient>
    <linearGradient id="d" x1="15.1598" x2="15.1598" y1="9.8259" y2="18.3611" gradientUnits="userSpaceOnUse">
      <stop stop-color="#F6E93D"/>
      <stop offset=".13" stop-color="#F8E330"/>
      <stop offset=".35" stop-color="#F7C730"/>
      <stop offset=".64" stop-color="#F59C2E"/>
      <stop offset=".98" stop-color="#EB5E2C"/>
      <stop offset="1" stop-color="#EB5C2C"/>
    </linearGradient>
    <linearGradient id="e" x1="29.7909" x2="29.7909" y1="12.7163" y2="25.6841" gradientUnits="userSpaceOnUse">
      <stop stop-color="#F6E93D"/>
      <stop offset=".13" stop-color="#F8E330"/>
      <stop offset=".35" stop-color="#F7C730"/>
      <stop offset=".64" stop-color="#F59C2E"/>
      <stop offset=".98" stop-color="#EB5E2C"/>
      <stop offset="1" stop-color="#EB5C2C"/>
    </linearGradient>
    <linearGradient id="f" x1="22.6601" x2="22.6601" y1="7.65039" y2="20.9941" gradientUnits="userSpaceOnUse">
      <stop stop-color="#F6E93D"/>
      <stop offset=".13" stop-color="#F8E330"/>
      <stop offset=".35" stop-color="#F7C730"/>
      <stop offset=".64" stop-color="#F59C2E"/>
      <stop offset=".98" stop-color="#EB5E2C"/>
      <stop offset="1" stop-color="#EB5C2C"/>
    </linearGradient>
    <linearGradient id="g" x1="25.2818" x2="25.2818" y1="17.8815" y2="20.9971" gradientUnits="userSpaceOnUse">
      <stop stop-color="#F6E93D"/>
      <stop offset=".13" stop-color="#F8E330"/>
      <stop offset=".35" stop-color="#F7C730"/>
      <stop offset=".64" stop-color="#F59C2E"/>
      <stop offset=".98" stop-color="#EB5E2C"/>
      <stop offset="1" stop-color="#EB5C2C"/>
    </linearGradient>
    <linearGradient id="h" x1="16.6505" x2="17.6401" y1="20.2207" y2="17.5017" gradientUnits="userSpaceOnUse">
      <stop stop-color="#F6E93D"/>
      <stop offset=".13" stop-color="#F8E330"/>
      <stop offset=".35" stop-color="#F7C730"/>
      <stop offset=".64" stop-color="#F59C2E"/>
      <stop offset=".98" stop-color="#EB5E2C"/>
      <stop offset="1" stop-color="#EB5C2C"/>
    </linearGradient>
  </defs>
</svg>
