<svg xmlns="http://www.w3.org/2000/svg" fill="none" viewBox="0 0 42 42">
  <rect width="42" height="42" fill="#F3F3F3" rx="21"/>
  <path fill="#2EB6EA" d="M20.2328 31.6082c5.8618 0 10.6137-4.7519 10.6137-10.6137 0-5.8617-4.7519-10.6136-10.6137-10.6136S9.61914 15.1328 9.61914 20.9945c0 5.8618 4.75186 10.6137 10.61366 10.6137Z"/>
  <path fill="#1542CD" d="M20.1749 31.6086c-10.55604 0-14.72216-13.8871-5.398-19.7395-1.1089 11.6067 4.7898 11.8635 10.2636 11.6067 9.1721-.4302 9.1782 8.1328 9.1782 8.1328H20.1749Z"/>
  <path fill="#745DDF" fill-rule="evenodd" d="M30.265 24.4668c-1.5969 4.0926-5.5236 7.0192-10.15 7.1495.1087.003.2182.0045.3283.0045H34.399s-.0036-5.0189-4.134-7.154Z" clip-rule="evenodd"/>
</svg>
