<svg xmlns="http://www.w3.org/2000/svg" fill="none" viewBox="0 0 42 42">
  <circle cx="21" cy="21" r="21" fill="#345D9D"/>
  <path fill="#F3F3F3" d="m20.9113 22.3306-1.9101 6.4437h10.2154c.1366-.0049.2695.0448.3695.138.1001.0932.159.2223.1639.359v.1687l-.888 3.0704c-.0392.145-.1264.2724-.2474.3613-.1211.0889-.2687.1339-.4187.1277H12.5614l2.6202-8.9327-2.9316.8886.6668-2.0441 2.9308-.8893 3.687-12.53257c.0405-.14422.1281-.27073.2488-.35936.1207-.08863.2676-.13427.4172-.12965h3.953c.1366-.00467.2694.04513.3693.13846.0999.09333.1587.22254.1634.35921v.16949L21.5774 20.2447l2.9315-.8893-.6206 2.1335-2.977.8417Z"/>
</svg>
