<svg xmlns="http://www.w3.org/2000/svg" fill="none" viewBox="0 0 42 42">
  <g clip-path="url(#a)">
    <path fill="#F3F3F3" d="M0 0h21c11.598 0 21 9.40202 21 21 0 11.598-9.402 21-21 21C9.40202 42 0 32.598 0 21V0Z"/>
    <path fill="#2EB6EA" d="M0 0h26v42H0z"/>
    <path fill="#745DDF" d="M21 0h21v42H21l6-14.5-6-6.5-5-7 5-14Z"/>
    <path fill="#F3F3F3" d="M25.0802 27.596c.0517-.9499-.2822-1.8814-.9298-2.5934-.9054-.8099-1.9819-1.4169-3.1538-1.7785-1.3082-.4696-2.5883-1.0101-3.8344-1.6191-1.0038-.4894-1.9336-1.1109-2.7634-1.8472-.7651-.6901-1.3765-1.526-1.7963-2.4558-.4533-1.063-.6725-2.2069-.6434-3.3577-.0371-1.0156.1393-2.0279.5186-2.9747.3793-.9468.9533-1.80801 1.6869-2.53081C15.7517 6.95606 17.1318 6.3 18.3422 5.93594V0h6.0136v5.98303c1.596.31697 3.1629 1.27537 4.5848 2.93025.6003.76136 1.076 1.59952 1.4175 2.48472l-4.8263 2.882c-.42-.84-.8798-1.8237-1.4595-2.6248-.3273-.3857-.7416-.6929-1.2104-.8977-.4689-.2047-.9799-.3016-1.4934-.2831-.476-.0305-.9533.0359-1.4015.195-.4482.159-.8575.4071-1.2019.7286-.3186.3455-.5639.7491-.7215 1.1873-.1577.4383-.2247.9027-.1971 1.3663-.0215.4415.0466.8827.2004 1.2985.1538.4158.3902.798.6959 1.1247.9787.8313 2.1161 1.4664 3.3472 1.869 1.3721.5257 2.7109 1.1304 4.0092 1.811.9727.5101 1.8656 1.1529 2.6518 1.9088.7095.6935 1.2707 1.5171 1.6513 2.4232.4 1.0103.5945 2.0867.5727 3.1693.0414 1.0094-.1292 2.0165-.5014 2.9594-.3722.943-.9381 1.802-1.6632 2.5244-1.6231 1.4819-2.2026 1.8201-4.4546 2.7525V42h-6.0144v-5.6172c-2.9049-1.1028-3.4932-2.0148-5.2033-3.7377C11.9501 31.2962 11.2594 29.0346 11 27.3l5.712-1.68c0 1.26.3516 3.1006 1.1828 4.1275.4242.4344.9412.7728 1.5144.9913.5733.2184 1.1888.3115 1.8031.2728 1.0322.0561 2.0475-.2743 2.8377-.9237.3486-.317.6223-.7041.8021-1.1344.1798-.4303.2614-.8935.2392-1.3575"/>
  </g>
  <defs>
    <clipPath id="a">
      <path fill="#fff" d="M0 0h21c11.598 0 21 9.40202 21 21 0 11.598-9.402 21-21 21C9.40202 42 0 32.598 0 21V0Z"/>
    </clipPath>
  </defs>
</svg>
