<svg xmlns="http://www.w3.org/2000/svg" fill="none" viewBox="0 0 42 42">
  <g clip-path="url(#a)">
    <path fill="#EB445A" d="M21 42c11.598 0 21-9.402 21-21C42 9.40202 32.598 0 21 0 9.40202 0 0 9.40202 0 21c0 11.598 9.40202 21 21 21Z"/>
    <path fill="#EB445A" d="M8.3999 37.8005c3.5112 2.6376 7.8792 4.2 12.6 4.2s9.0972-1.5624 12.6-4.2h-25.2Zm19.7735-8.4013H1.75537c.6552 1.5036 1.4784 2.9064 2.4444 4.2H28.1818v-4.2h-.0084Z"/>
    <path fill="#F3F3F3" fill-rule="evenodd" d="M33.4237 13.65c0-2.898-2.352-5.25-5.25-5.25s-5.25 2.352-5.25 5.25 2.352 5.25 5.25 5.25 5.25-2.352 5.25-5.25Zm-15.918-5.7708c0-1.4532-1.176-2.6292-2.6292-2.6292-1.4448 0-2.6292 1.176-2.6292 2.6292s1.176 2.6292 2.6292 2.6292 2.6292-1.176 2.6292-2.6292ZM1.75586 29.3991H22.0543l-3.4986 4.2014h9.618v-11.55l-3.1452 3.777-8.9852-10.7789-1.1666-1.3994v-.0001h-.0001v.0001L1.75586 29.3991Zm21.27004-1.1667 1.2436-1.4934-8.2262-9.8683v11.3617h6.9826Zm5.148 5.3681h9.6264l-.9724-1.1667-7.4873-8.9835-1.1667-1.3998v11.55Zm1.1667-8.328 5.9686 7.1613h-5.9686v-7.1613Z" clip-rule="evenodd"/>
  </g>
  <defs>
    <clipPath id="a">
      <path fill="#fff" d="M0 0h42v42H0z"/>
    </clipPath>
  </defs>
</svg>
