<svg xmlns="http://www.w3.org/2000/svg" fill="none" viewBox="0 0 42 42">
  <rect width="42" height="42" fill="#2866ED" rx="21"/>
  <path fill="#F3F3F3" fill-rule="evenodd" d="M33.379 16.2909v6.8175H11.8503c.897 4.1263 4.6645 7.1762 9.1497 7.1762 3.6778 0 6.9071-2.0631 8.4321-5.113h4.0367v5.6513c0 1.3455-1.0765 2.4219-2.5117 2.4219H11.0429c-1.34551 0-2.51165-1.0764-2.51165-2.4219v-14.532H33.379Zm-6.3689 8.791c-1.3455 1.8837-3.4984 3.1396-6.0101 3.1396-2.5117 0-4.7543-1.2559-6.0101-3.1396h12.0202Zm-11.3026-7.1763c-1.9735 0-3.5881 1.4352-3.8572 3.2293h2.1528c.2692-.7176.8971-1.2558 1.7044-1.2558.8073 0 1.4353.5382 1.7044 1.2558h2.0631c-.2691-1.8838-1.8837-3.2293-3.7675-3.2293Zm10.585 0c-1.9735 0-3.5881 1.4352-3.8572 3.2293h2.1528c.2691-.7176.8971-1.2558 1.7044-1.2558.8073 0 1.4352.5382 1.7044 1.2558h2.1528c-.3588-1.8838-1.9734-3.2293-3.8572-3.2293Zm4.5749-9.14974c1.3455 0 2.5116 1.07644 2.5116 2.42194v2.9603H8.53125v-2.9603c0-1.3455 1.07644-2.42194 2.51165-2.42194h19.8245Z" clip-rule="evenodd"/>
</svg>
