<svg xmlns="http://www.w3.org/2000/svg" fill="none" viewBox="0 0 42 42">
  <circle cx="21" cy="21" r="21" fill="#7B3FE4"/>
  <path fill="#F3F3F3" d="M27.7347 15.9304c-.5117-.2924-1.1697-.2924-1.7545 0l-4.094 2.4125-2.7781 1.5353-4.0209 2.4125c-.5117.2925-1.1697.2925-1.7546 0l-3.1436-1.9008c-.51171-.2924-.87724-.8772-.87724-1.5352v-3.6554c0-.5848.29243-1.1697.87724-1.5352l3.1436-1.8277c.5118-.2924 1.1698-.2924 1.7546 0l3.1436 1.9008c.5118.2924.8773.8773.8773 1.5353v2.4125l2.7781-1.6084V13.591c0-.5849-.2925-1.1697-.8773-1.5353l-5.8486-3.43599c-.5117-.29243-1.1697-.29243-1.7545 0L7.41098 12.1289c-.58486.2924-.87729.8772-.87729 1.4621v6.8721c0 .5848.29243 1.1697.87729 1.5352l5.92162 3.436c.5118.2925 1.1698.2925 1.7546 0l4.0209-2.3394 2.7781-1.6083 4.0209-2.3395c.5117-.2924 1.1697-.2924 1.7545 0l3.1436 1.8277c.5118.2924.8773.8773.8773 1.5353v3.6553c0 .5849-.2924 1.1697-.8773 1.5353l-3.0705 1.8276c-.5117.2925-1.1697.2925-1.7545 0l-3.1436-1.8276c-.5118-.2925-.8773-.8773-.8773-1.5353V23.826l-2.7781 1.6083v2.4126c0 .5848.2924 1.1697.8773 1.5352l5.9217 3.436c.5117.2925 1.1697.2925 1.7545 0l5.9217-3.436c.5118-.2924.8773-.8773.8773-1.5352v-6.9452c0-.5849-.2924-1.1697-.8773-1.5353l-5.9217-3.436Z"/>
</svg>
