<svg xmlns="http://www.w3.org/2000/svg" fill="none" viewBox="0 0 36 36">
  <rect width="36" height="36" fill="#5097DB" rx="18"/>
  <path fill="#030303" d="M7.37732 20.8706c0 1.0347.22712 1.8292.52397 2.3098.38922.6295.96974.8962 1.56157.8962.76334 0 1.46164-.1894 2.80744-2.0506 1.0781-1.4919 2.3485-3.5859 3.2032-4.8987l1.4476-2.2241c1.0055-1.5446 2.1694-3.2616 3.5039-4.4255C21.5144 9.52775 22.6896 9 23.8723 9c1.9856 0 3.8771 1.1507 5.3246 3.3088 1.5842 2.3636 2.3532 5.3406 2.3532 8.4129 0 1.8264-.36 3.1684-.9726 4.2286C29.9857 25.9756 28.8322 27 26.8918 27v-2.9234c1.6614 0 2.0761-1.5267 2.0761-3.2739 0-2.4898-.5805-5.253-1.8594-7.2273-.9075-1.4004-2.0836-2.2561-3.3776-2.2561-1.3995 0-2.5256 1.0555-3.7913 2.9375-.6729.9998-1.3636 2.2184-2.1392 3.5934l-.8539 1.5125c-1.7152 3.0412-2.1496 3.7338-3.0072 4.877C12.4362 26.2414 11.1526 27 9.46286 27c-2.0045 0-3.27204-.868-4.05706-2.176-.64084-1.0659-.9556-2.4644-.9556-4.058l2.92712.1046Z"/>
  <path fill="#030303" d="M12.2109 11.9431c-1.1563 0-2.1383.8115-2.96008 2.0526-1.16199 1.7538-1.8735 4.3662-1.8735 6.8749 0 1.0347.22712 1.8292.52397 2.3098L5.4058 24.824c-.64084-1.0659-.9556-2.4644-.9556-4.058 0-2.8979.79539-5.9184 2.30795-8.2508C8.10014 10.4466 10.0368 9 12.258 9l-.0471 2.9431Z"/>
  <path fill="url(#a)" d="M6.75586 12.5152C8.09785 10.4466 10.0345 9 12.2558 9c1.2863 0 2.5652.38073 3.9006 1.4711 1.4607 1.1921 3.0176 3.1552 4.9599 6.3905l.6964 1.161c1.6813 2.8009 2.6378 4.2418 3.1976 4.9213.72.8726 1.2242 1.1327 1.8792 1.1327 1.6614 0 2.0761-1.5267 2.0761-3.2739l2.5822-.081c0 1.8264-.36 3.1684-.9726 4.2286C29.9834 25.9756 28.8299 27 26.8895 27c-1.2063 0-2.275-.262-3.4568-1.3769-.9085-.8557-1.9706-2.3758-2.7876-3.7423l-2.4305-4.0599c-1.2195-2.0374-2.3381-3.5566-2.9855-4.2446-.6965-.7398-1.5918-1.6332-3.0205-1.6332-1.1563 0-2.1383.8115-2.96007 2.0526l-2.49267-1.4805Z"/>
  <defs>
    <linearGradient id="a" x1="6.79453" x2="26.2645" y1="19.8" y2="26.8876" gradientUnits="userSpaceOnUse">
      <stop stop-color="#030303"/>
      <stop offset=".489583" stop-color="#8B8A8A"/>
      <stop offset="1" stop-color="#030303"/>
    </linearGradient>
  </defs>
</svg>
