<svg xmlns="http://www.w3.org/2000/svg" fill="none" viewBox="0 0 42 42">
  <circle cx="21" cy="21" r="20" fill="#00DACC"/>
  <path fill="#F3F3F3" d="M16.1463 30.5507c.1503-.4509.4509-.9017.6012-1.5029 0-.1503 0-.4509-.1503-.6012-.9018-1.2023-1.2024-2.555-.9018-3.9076 0-.1503 0-.3006.1503-.3006 0-.1503.1503-.1503.1503-.3006 1.0521 1.0521 1.3526 2.4047 1.5029 3.7574.3006-.6012.7515-1.2024 1.0521-1.9539 0-.1502-.1503-.3005-.1503-.4508-.9018-1.3527-1.0521-2.8556-.4509-4.5088 1.0521 1.052 1.3526 2.4047 1.3526 3.7573.4509-.6012.7515-1.2023 1.2024-1.6532 0-.1503 0-.3006-.1503-.4509-.4509-1.3526-.4509-2.7053.3006-4.0579.1503-.1503.1503-.3006.3006-.4509.7514 1.2024.6011 2.4047.4508 3.607h.1503c.3006-.4508.6012-.7514.7515-1.2023.6012-1.6532 1.5029-2.8556 3.1561-3.607.3006-.1503.4509-.1503.7515-.3006 0 .3006 0 .4509-.1503.7515-.4509 1.5029-1.5029 2.7052-3.0058 3.4567-.6012.3006-1.0521.7515-1.3527 1.3526 1.2024-.6011 2.4047-.9017 3.9076-.4509-.3005.3006-.4508.4509-.7514.6012-1.0521.7515-2.2544 1.0521-3.4568.9018-.4508 0-.6011 0-.7514.3006-.3006.4508-.6012 1.052-.9018 1.6532 1.3527-.6012 2.7053-.9018 4.2082-.1503-.4509.3006-.7514.6012-1.052.7515-1.0521.4508-2.1041.6011-3.3065.3005-.3006-.1503-.4508 0-.6011.3006-.3006.6012-.6012 1.2024-1.0521 1.9538 1.3526-.6011 2.7053-1.052 4.2082-.4508l.1503.1502c-.1503.1503-.3006.1503-.6012.3006-1.2023.7515-2.4047 1.0521-3.7573.9018-.3006-.1503-.6012 0-.6012.3006-.4508 1.2023-.9017 2.4047-1.3526 3.4567-.1503.4509-.4509.9018-.7515 1.3526-.1503.3006-.4508.4509-.7514.3006-4.0579-2.1041-6.91349-5.2602-7.96554-9.6187C4.42346 16.8741 8.78195 8.90855 16.5972 6.65416 25.6147 3.94889 34.482 9.9606 35.8347 18.6776c1.052 7.0637-3.0059 13.8269-9.6188 16.2316-.4509.1503-.7514.3006-1.052 0-.3006-.4509-.3006-.7515-.1503-1.2023.6011-1.503 1.052-3.0059 1.5029-4.5088.3006-.9018.6012-1.2024 1.5029-1.2024.9018-.1503 1.8035-.1503 2.7053-.3005.7515-.1503 1.052-.4509 1.052-1.2024v-.6012c-.1502-.3005 0-.6011.3006-.9017s.3006-.4509 0-.7515c-.1503-.1503-.1503-.4509 0-.4509.3006-.3005.3006-.6011 0-.9017s-.1503-.6012.1503-.7515.4509-.3006.6012-.6012c.4509-.3005.3006-.6011 0-.9017-.6012-.6012-1.3526-1.0521-1.9538-1.6532-.4509-.3006-.6012-.9018-.4509-1.3527.1503-.9017 0-1.6532-.4509-2.4047-.4508-.6011-.7514-1.3526-1.052-1.9538-.4509-1.052-1.2024-1.8035-2.2544-2.1041-1.0521-.3005-2.1041-.4508-3.3065-.6011-.7514-.1503-1.5029-.1503-2.2543-.3006-1.9538-.3006-3.7574.1503-5.2603 1.5029-.4509.3006-.9017.7515-1.5029.9018-.4509.1503-.7515.6011-1.0521.9017-.1503.4509-.4508.7515-.9017.9018-.7515.6012-1.503 1.052-2.1041 1.8035-.1503.3006-.60119.4509-.75149.6012-.90175.6011-1.05205 1.2023-.75146 2.1041.15029.6011.30058 1.2023.15029 1.8035-.15029.4509-.15029 1.052 0 1.5029 0 .6012.45088 1.2023 1.05205 1.3526.45091.1503.75151.4509.75151.9018.1502.6012.4508 1.2023.9017 1.6532.4509.4509.7515 1.0521 1.0521 1.6532.3005.7515.7514 1.2024 1.5029 1.503s1.3526.6011 2.1041.9017c-.4509.1503-.3006.1503-.1503.3006Z"/>
</svg>
