<svg xmlns="http://www.w3.org/2000/svg" fill="none" viewBox="0 0 42 42">
  <path fill="#F3F3F3" d="M0 21C0 9.40202 9.40202 0 21 0c11.598 0 21 9.40202 21 21 0 11.598-9.402 21-21 21C9.40202 42 0 32.598 0 21Z"/>
  <path fill="#F5DA51" fill-rule="evenodd" d="M26.8601 15.1393V9.66943H15.1392v5.46987H9.66943v11.7209h5.46977v5.4697h11.7209v-5.4697h5.4698V15.1393h-5.4698Z" clip-rule="evenodd"/>
  <path fill="#7441FC" d="M15.1392 4.19971h11.7209v2.73488H15.1392zM37.7998 15.1392v11.7209h-2.73488V15.1392zM4.19971 26.8604V15.1395h2.73488v11.7209zM26.8604 37.7998H15.1395v-2.73488h11.7209zm0-30.86523h2.73488v2.73488H26.8604zM15.1392 35.0649h-2.73488v-2.73488h2.73488z"/>
  <path fill="#A492F9" d="M15.1392 6.93457h11.7209v2.73488H15.1392zm19.9257 8.20463v11.7209h-2.73488V15.1392zM6.93457 26.8604V15.1395h2.73488v11.7209zm19.92583 8.2045H15.1395v-2.73488h11.7209z"/>
  <path fill="#7441FC" d="M12.4043 6.93457h2.73488v2.73488H12.4043zM29.5952 35.0649h-2.73488v-2.73488h2.73488zm0-25.39522h2.73488v2.73488H29.5952zM12.4043 32.3298H9.66942v-2.73488h2.73488z"/>
  <path fill="#7441FC" d="M9.66943 29.595H6.93455v-2.73488h2.73488zm0-14.4558H6.93455v-2.73488h2.73488zM32.3301 26.8604h2.73488v2.73488H32.3301zm0-14.4559h2.73488v2.73488H32.3301zM9.66943 9.66968h2.73488v2.73488H9.66943zM32.3301 32.3298h-2.73488v-2.73488h2.73488z"/>
  <path fill="#A492F9" d="M12.4043 9.66968h2.73488v2.73488H12.4043zM29.5952 32.3298h-2.73488v-2.73488h2.73488zM26.8604 9.66968h2.73488v2.73488H26.8604zM15.1392 32.3298h-2.73488v-2.73488h2.73488zm-2.7349-2.7348H9.66942v-2.73488h2.73488z"/>
  <path fill="#A492F9" d="M12.4043 15.1392H9.66942v-2.73488h2.73488zm17.1909 11.7212h2.73488v2.73488H29.5952zm0-14.4559h2.73488v2.73488H29.5952z"/>
  <path fill="#7441FC" d="M12.4043 12.4045h2.73488v17.1907H12.4043zm2.7349 2.7347h2.83256v2.73488H15.1392zm8.8884 0h2.83256v2.73488H24.0276z"/>
  <path fill="#7441FC" d="M17.8743 17.7766h6.25116v2.83256H17.8743zm8.9861-5.3721h2.73488v17.1907H26.8604z"/>
</svg>
