<svg xmlns="http://www.w3.org/2000/svg" fill="none" viewBox="0 0 42 42">
  <circle cx="21" cy="21" r="20" fill="#FF6B6B"/>
  <path fill="#100C0C" d="M29.7616 25.0382c-.3427 1.6323-.3101 3.1012-.0489 4.5702.0163.0816.0489.1632.0652.2285.098.555.1633 1.3221.7672 1.4037.6692.098.7834-.7018 1.0119-1.1915.2286-.4733.4081-.506.7019-.0489.6529 1.0119.6855 2.1218.0816 2.7094-.6039.5876-1.6812.457-2.6605-.3264-1.4853-1.1915-2.334-2.8237-3.1828-4.4723-.3428-.6529-.6039-1.3384-.8977-2.0076-.2122-.4896-.4733-.5386-.8161-.0979-.7671.9793-1.5669 1.9423-2.3177 2.938-.6529.865-.6366 1.8443-.2285 2.791.359.8651.7997 1.7138 1.4363 2.432.1142.1143.2611.2285.1959.4081-.0817.2285-.2938.1958-.4897.2121-.6039.0817-1.1915-.0489-1.7465-.2611-.1795-.0653-.408-.2938-.5876-.0816-.1632.1958.0653.408.1469.5876.2612.6202.7182 1.0772 1.2568 1.469.1306.0979.3428.1469.3102.3427-.0327.2449-.2612.2449-.4407.2612-2.889.4244-5.6148.3427-7.5245-2.3504-.0163-.0326-.0979-.0326-.1959-.049-.2938.6529-.0816 1.3711-.1795 2.1056-.506-.1469-.6855-.555-.8977-.8977-2.0566-3.3297-3.4603-6.8226-2.7748-10.8542.1469-.8977-.0489-1.7954-.4407-2.6278-.73446-1.567-.73446-3.0849.1469-4.6029.3591-.6039.3428-1.2078-.1795-1.7138-.34277-.3264-.37542-.7345-.27749-1.1262.96299-3.6888 2.74209-6.88791 6.16969-8.79759 4.6682-2.59521 10.1524-.53863 12.0784 4.42329.3917.9956.8487 1.926 1.6648 2.6605.6529.6039.8651 1.42.9304 2.2851.0326.4407.0326.865.0326 1.3057.0163 1.3384.3428 2.5789 1.2731 3.5909.1469.1469.3754.3101.2449.5386-.1306.2448-.4081.1796-.5876.0816-.7998-.3917-.963.0327-1.0283.7182-.1306 1.4363.2938 2.7258.8487 4.0152.098.2285.4244.4897.1633.7182-.2449.2285-.5713-.0163-.8325-.1469-.4733-.2285-.7508-.6529-1.1915-1.1426ZM16.1001 10.1689c.4407 0 .7671-.0164 1.0935 0 .2449.0163.6203-.1143.6529.2611.0327.2775-.3427.2938-.5549.3754-.6856.2285-1.3874.1959-2.1056.2285-.2448.0163-.5386.0327-.5549.3591-.0163.3591.2775.3428.5223.3428.3754 0 .7671-.0163 1.1425-.0327 1.0283-.0653 2.0566-.1305 3.0849-.1958.1632-.0164.3754 0 .4244.1632.0653.2122-.1306.3427-.3102.408-.1958.0816-.408.1143-.6202.1796-1.0936.2775-2.2035.2448-3.3297.2775-.963.0163-1.1752.2121-1.2731 1.1915-.0327.3264-.0816.6528-.0327.9793.2286 1.42-.1632 2.7421-.6692 4.0479-.2448.6039-.5059 1.2078-.4243 1.8933.0489.4407.2122.8324.7181.8324.8488.0164 1.6812-.0163 2.53-.0489.2611-.0163.4733-.1306.5223-.4244.0326-.2448-.1306-.4081-.3265-.5223-.1142-.0653-.2611-.0816-.3754-.1469-.2611-.1143-.7018-.1306-.5876-.5386.098-.3265.4897-.2775.7835-.2612 1.3057.0979 2.2524.7835 2.8074 1.926.6855 1.3711.865 2.9053 1.2568 4.3743.3264 1.2242.6202 1.3548 1.5832.506.3265-.2775.6366-.6039.8977-.9467 1.1262-1.4363 1.7465-3.1012 2.2525-4.8313.2611-.8814.1142-1.5832-.4897-2.2524-.2938-.3102-.6366-.6203-.6202-1.1099.0489-1.7302.2774-3.3787 2.0076-4.3417.2448-.1306.5386-.2938.5223-.6692-.0653-1.7628-.6039-3.81937-2.5299-4.79869-2.0076-1.01197-4.1295-1.06094-6.2677-.53863-.963.22851-1.8281.6692-2.5462 1.37105-.1306.13058-.2938.2938-.2285.48966.0652.22851.3101.16322.4896.16322.1143 0 .2122-.01632.3265-.01632.1632 0 .359.01632.3917.21219.0489.24483-.1143.34276-.3265.37541-.3427.06528-.7018.11425-1.0446.17954-.1632.03264-.3264.09793-.3101.31012.0163.21215.1796.26115.3591.26115.457.0163.8651-.0163 1.1589-.0326Zm-.2449 13.0902c-.5549.0817-1.0772.1143-1.5832.2122-1.1099.2122-1.5343.8651-1.3058 2.0076.0653.2938.098.6366.457.7019.3755.0653.4734-.2938.6203-.5386.7345-1.3548 1.2241-1.3711 2.0402-.0164.2938.4734.6366.8161 1.2242.7672.6039-.049 1.1262-.2122 1.2405-.9304.1142-.7671-.4407-1.7954-1.1263-1.9586-.5223-.1469-1.0772-.1796-1.5669-.2449Z"/>
  <path fill="#1A0F10" d="M17.9443 13.9072c1.0936.049 2.1218.3265 3.0032 1.012.2285.1795.4081.4244.5713.6692.0979.1469.1469.3591.0163.5386-.1305.1796-.3264.1796-.506.1143-1.1915-.457-2.4319-.4407-3.6724-.506-.6203-.0326-1.1915-.2122-1.1752-.9304.0163-.7018.6366-.7834 1.1752-.865.1795-.0327.3754-.0164.5876-.0327Zm-1.1914 3.1646c.8488-.7508 2.1709-.8161 2.938-.1958.1306.0979.3101.1958.2448.3754-.0653.1795-.2611.1632-.4243.1795-.9141.0163-1.8281.0653-2.7585-.3591Z"/>
</svg>
