<svg xmlns="http://www.w3.org/2000/svg" fill="none" viewBox="0 0 42 42">
  <circle cx="21" cy="21" r="21" fill="#22B1AB"/>
  <path fill="#F3F3F3" d="M27.5907 10.2479c.8853 0 1.6046-.72895 1.6046-1.62453C29.1953 7.7278 28.476 7 27.5907 7c-.8853.00463-1.6046.73243-1.6046 1.628 0 .89558.7193 1.6199 1.6046 1.6199Zm.4734 4.221c.3631-.0027.7102-.1492.965-.4072.2548-.258.3964-.6063.3936-.9684 0-.7568-.608-1.3758-1.3586-1.3758-.7507 0-1.3587.6144-1.3587 1.3758 0 .7613.6068 1.3756 1.3587 1.3756Zm3.7301.538c.7472 0 1.3552-.6144 1.3552-1.3722 0-.7579-.608-1.3723-1.3552-1.3723s-1.3551.6144-1.3551 1.3723c0 .7578.6091 1.3722 1.3551 1.3722Zm-.4478 3.6113c.6404 0 1.159-.5253 1.159-1.1721 0-.6469-.5186-1.1722-1.159-1.1722-.6405 0-1.1591.5253-1.1591 1.1722 0 .6468.5186 1.1721 1.1591 1.1721Zm2.9864 1.1709c.6451 0 1.1672-.5288 1.1672-1.1802 0-.6514-.5221-1.1802-1.1672-1.1802-.1543.0011-.307.0324-.4492.0923-.1421.0599-.2711.1471-.3795.2567-.1084.1096-.1941.2394-.2521.382-.0581.1427-.0875.2953-.0864.4492 0 .6514.5233 1.1802 1.1672 1.1802Zm-6.7398-1.6592c.157-.0009.3122-.0327.4568-.0934.1447-.0607.2759-.1493.3862-.2606.1103-.1113.1976-.2432.2568-.3881.0592-.145.0892-.3001.0883-.4566v-.0024c0-.663-.5302-1.201-1.1881-1.201-.6578 0-1.1881.5369-1.1881 1.201 0 .6596.5314 1.2011 1.1881 1.2011Zm-1.0767 2.873c.5511 0 .9955-.4513.9955-1.0055.0022-.2645-.1011-.519-.2871-.7076-.186-.1886-.4395-.2957-.7048-.2979h-.0036c-.5511 0-.9955.4513-.9955 1.0055s.4444 1.0055.9955 1.0055Zm3.736.5079c.1305-.0008.2596-.0274.3799-.078.1203-.0507.2294-.1245.3211-.2172s.1641-.2025.2133-.3231c.0491-.1207.0739-.2498.073-.38v-.0024c0-.5531-.4409-1.0009-.9873-1.0009-.5465 0-.9874.4478-.9874 1.0009-.0017.1297.0223.2585.0705.3791.0482.1205.1198.2303.2106.3232.0908.093.1991.1672.3186.2184.1196.0512.2481.0784.3782.08h.0095Zm2.9783 1.1664c.5511 0 .9955-.4513.9955-1.009 0-.5577-.4444-1.009-.9955-1.009s-.9955.4513-.9955 1.009c-.0028.2648.1.5199.2858.7091.1858.1892.4394.2971.7049.2999h.0048Zm-1.4712 2.1799c.4653 0 .8412-.383.8412-.8504 0-.4675-.3759-.8505-.8412-.8505-.4652 0-.8412.383-.8412.8505 0 .4674.376.8504.8412.8504Zm-2.9922-1.1478c.4733 0 .8609-.3911.8609-.8713 0-.4802-.3841-.8713-.8609-.8713-.4769 0-.8609.3911-.8609.8713 0 .4802.3875.8713.8609.8713Zm-3.7313-.5323c.2271-.0035.4437-.0959.6031-.2573s.2488-.3788.2489-.6053c.0002-.2265-.0889-.444-.2481-.6056-.1592-.1615-.3757-.2543-.6028-.2581h-.0011c-.2271.0035-.4437.096-.6031.2573-.1594.1614-.2488.3788-.249.6053-.0002.2265.089.444.2481.6056.1592.1616.3757.2543.6028.2581h.0012Zm2.0745 2.0481c.4118 0 .7425-.3379.7425-.7487.0019-.1967-.0747-.386-.2128-.5264-.1382-.1404-.3266-.2203-.5238-.2222h-.0059c-.4119 0-.7426.3379-.7426.7486-.0022.1964.074.3856.2117.526.1377.1404.3257.2205.5226.2227h.0083Zm2.991 1.1674c.4119 0 .7507-.3378.7507-.7567 0-.4188-.3341-.7567-.7507-.7567-.2012 0-.3942.0797-.5365.2216-.1423.1419-.2223.3344-.2223.5351 0 .2007.08.3932.2223.5351.1423.1419.3353.2216.5365.2216Zm-1.6846.8759c.326 0 .5917-.2684.5917-.5982.0009-.1575-.0609-.309-.1718-.4211-.1109-.1122-.262-.1758-.4199-.1771-.326 0-.5917.2685-.5917.5982-.0004.1574.0616.3085.1724.4205.1108.112.2615.1759.4193.1777Zm-1.5965.4698c.0707-.0004.1406-.0147.2057-.0421.0652-.0274.1242-.0673.1739-.1175.0497-.0501.089-.1095.1156-.1748.0266-.0653.0401-.1352.0397-.2057v-.0014c0-.3008-.2414-.5415-.5349-.5415-.0707.0004-.1406.0148-.2057.0421-.0651.0274-.1242.0673-.1739.1175-.0497.0501-.0889.1096-.1156.1748-.0266.0653-.0401.1352-.0397.2057v.0014c-.0024.1411.0514.2775.1498.379.0983.1015.233.1599.3745.1624l.0106.0001Zm-1.3981-1.5574c.3516 0 .637-.2893.637-.6433 0-.3541-.2854-.6434-.637-.6434-.3515 0-.6369.2893-.6369.6434-.0004.1693.0664.3319.1856.4524.1193.1205.2815.1891.4513.1909Zm-2.0513-1.4753c.4084 0 .7426-.3332.7426-.7486 0-.4154-.3307-.7486-.7426-.7486-.4084 0-.7425.3332-.7425.7486-.0003.1972.0775.3866.2166.5268.1391.1403.3282.22.5259.2218Zm6.0831 9.3793c.8818 0 1.5965-.7244 1.5965-1.6165s-.7147-1.6164-1.5965-1.6164c-.8817 0-1.5964.7243-1.5964 1.6164s.7147 1.6165 1.5964 1.6165Zm-4.055-2.0457c.7344 0 1.3308-.6029 1.3308-1.3469s-.5964-1.3468-1.3308-1.3468c-.7344 0-1.3308.6028-1.3308 1.3468s.5952 1.3469 1.3308 1.3469ZM23.082 35c.7426 0 1.3424-.6063 1.3424-1.3596 0-.7486-.5998-1.3595-1.3424-1.3595-.7425 0-1.3424.6063-1.3424 1.3595-.0027.3578.1371.7021.3888.9571.2518.2549.5947.3997.9535.4025h.0001Zm-.6973-5.4556c.1539-.0011.3061-.0323.4479-.092.1417-.0598.2703-.1467.3784-.256.108-.1093.1935-.2387.2514-.3809.0579-.1422.0871-.2944.0861-.4478.001-.1535-.0282-.3057-.0861-.4479-.0579-.1422-.1434-.2716-.2514-.3809-.1081-.1092-.2367-.1962-.3784-.2559-.1418-.0597-.294-.091-.4479-.0921-.1539.0011-.306.0324-.4478.0921-.1418.0597-.2703.1467-.3784.2559-.1081.1093-.1935.2387-.2514.3809-.0579.1422-.0871.2944-.0861.4479.0012.6479.5233 1.1767 1.1637 1.1767Zm-2.3111 3.0015c.6404 0 1.159-.5254 1.159-1.1722 0-.6468-.5186-1.1721-1.159-1.1721-.6405 0-1.1591.5253-1.1591 1.1721-.0031.3078.1166.6042.3326.824.216.2198.5108.345.8194.3482h.0071Zm-2.4911 2.0364c.6405 0 1.1556-.5253 1.1556-1.1686 0-.6468-.5186-1.1687-1.1556-1.1687-.6404 0-1.1556.5253-1.1556 1.1687 0 .6433.5187 1.1686 1.1556 1.1686Zm-2.0733-2.6509c.2633-.0024.515-.1086.7-.2955.185-.1869.2883-.4392.2874-.7019 0-.5496-.4409-.9973-.9874-.9973-.2626.0039-.5131.1108-.6974.2974-.1843.1866-.2876.438-.2876.6999 0 .262.1033.5134.2876.7.1843.1866.4348.2935.6974.2974Zm2.4957-2.0457c.2635-.0018.5155-.1079.7006-.2949.1851-.187.2883-.4397.2867-.7025 0-.553-.4409-.9974-.9873-.9974-.2627.0036-.5134.1099-.698.2962-.1847.1863-.2884.4376-.2889.6995-.0004.262.1024.5136.2864.7005.184.187.4344.2942.697.2986h.0035Zm2.3285-3.0002c.1306-.0009.2597-.0275.38-.0781.1203-.0507.2294-.1245.3211-.2172.0916-.0927.1641-.2025.2133-.3231.0491-.1207.0739-.2498.073-.38v-.0024c0-.5531-.4409-1.0009-.9874-1.0009-.1305.0009-.2596.0275-.3799.0781-.1203.0507-.2294.1244-.3211.2172-.0916.0927-.1641.2025-.2133.3231-.0491.1206-.0739.2497-.073.38v.0024c0 .5531.4409 1.0009.9873 1.0009Zm-3.5619.413c.4734 0 .8574-.3864.8574-.8666s-.384-.8667-.8574-.8667c-.4733 0-.8574.3865-.8574.8667s.3841.8666.8574.8666Zm-2.4829 2.0376c.1122-.0006.2231-.0232.3265-.0666.1033-.0433.1971-.1066.276-.1861.0789-.0795.1413-.1737.1836-.2773.0424-.1035.0638-.2144.0632-.3262v-.0023c.0022-.2256-.0856-.4427-.2439-.6037-.1584-.161-.3745-.2527-.6006-.2549h-.0048c-.1121.0006-.223.0233-.3264.0666-.1034.0434-.1972.1066-.276.1861-.0789.0795-.1413.1738-.1836.2773-.0424.1036-.0639.2144-.0633.3263v.0023c-.0007.112.0206.223.0629.3268.0423.1037.1046.1982.1835.2779s.1727.1432.2761.1867c.1035.0436.2145.0664.3268.0671Zm-.5708-2.3882c.1957-.0015.3829-.0803.5205-.219.1376-.1388.2146-.3263.2139-.5215 0-.4108-.3306-.7405-.7344-.7405-.4038 0-.7344.3332-.7344.7405 0 .4108.3306.7405.7344.7405Zm-.0209-2.0954c.0834-.0008.1657-.0179.2425-.0504.0767-.0325.1462-.0798.2046-.1391.0584-.0593.1045-.1295.1357-.2066.0312-.0771.0468-.1595.0461-.2426 0-.3506-.282-.6387-.6289-.6387-.3469 0-.6288.2846-.6288.6387 0 .354.2819.6387.6288.6387Zm.3458-1.7426c.2981 0 .5348-.2441.5348-.5415s-.2413-.5415-.5348-.5415c-.2982 0-.5349.2441-.5349.5415s.2367.5415.5349.5415Zm2.1406-.2916c.3515 0 .637-.2892.637-.6433 0-.3541-.2855-.6433-.637-.6433-.3516 0-.637.2892-.637.6433-.0006.1694.0661.3322.1854.4527.1194.1206.2817.1891.4516.1906Zm2.3495-.9129c.4084 0 .7425-.3379.7425-.7486.0019-.1967-.0747-.3861-.2128-.5265-.1382-.1404-.3266-.2203-.5238-.2221h-.0059c-.4084 0-.7426.3378-.7426.7486-.0007.0975.0178.1943.0545.2847.0367.0904.0909.1727.1596.2423.0686.0695.1503.1248.2404.1629.0901.038.1868.058.2846.0587h.0035Zm.5592 2.3766c.2234-.0004.4375-.0893.5953-.2471.1577-.1578.2462-.3716.246-.5945-.0002-.2228-.0892-.4364-.2472-.5939-.1581-.1575-.3724-.2459-.5958-.2459-.2235 0-.4378.0884-.5958.2459-.1581.1575-.247.3711-.2473.5939-.0002.2229.0883.4367.246.5945.1578.1578.3719.2467.5953.2471h.0035Zm-2.8785.633c.4084 0 .7344-.3333.7344-.7452s-.3307-.7452-.7344-.7452c-.0971.0006-.1931.0203-.2825.0579-.0894.0376-.1706.0924-.2388.1612-.0682.0689-.1221.1505-.1587.2401-.0366.0897-.0551.1856-.0545.2824v.0036c-.0013.0965.0163.1923.0521.2819.0357.0897.0888.1714.1562.2406.0675.0692.1479.1244.2367.1626.0889.0382.1844.0586.2811.0599h.0084v.0002ZM8.09184 23.81c.87713 0 1.59184-.7209 1.59184-1.6084 0-.8875-.71471-1.6083-1.59184-1.6083-.87714 0-1.59184.722-1.59184 1.6095S7.2147 23.81 8.09184 23.81Zm3.61296-2.8719c.7553 0 1.3633-.619 1.3633-1.3804 0-.7613-.6126-1.3804-1.3633-1.3804-.364.0025-.7121.149-.9678.4074-.2557.2585-.3979.6076-.3955.9706v.0024c0 .766.6126 1.3804 1.3633 1.3804Zm-1.4097-3.5406c.7507 0 1.3552-.6145 1.3552-1.3723 0-.7579-.608-1.3723-1.3552-1.3723-.1792.0012-.35634.0376-.52142.107-.16507.0695-.3148.1708-.44064.298-.12584.1272-.22533.2779-.29277.4434-.06744.1656-.10152.3427-.1003.5214v.0025c-.00368.3602.13627.7072.38908.9645.25281.2574.59776.404.95895.4078h.0071Zm3.483-1.6778c.6405 0 1.1637-.5253 1.1637-1.1767 0-.6515-.5221-1.1768-1.1637-1.1768s-1.1637.5253-1.1637 1.1768c0 .6514.5233 1.1767 1.1637 1.1767Zm1.4236 3.5325c.6451 0 1.1672-.5287 1.1672-1.1802 0-.6514-.5221-1.1802-1.1672-1.1802-.645 0-1.1672.5288-1.1672 1.1802 0 .6515.5222 1.1802 1.1672 1.1802Zm3.1698-.7335c.2652-.0022.5187-.1093.7047-.2979.1861-.1885.2894-.443.2873-.7075.002-.1299-.0217-.259-.0697-.3798-.048-.1208-.1194-.2309-.2101-.3242s-.199-.1678-.3185-.2194c-.1196-.0515-.2482-.0791-.3785-.0811-.1303-.002-.2597.0217-.3808.0695-.1211.0479-.2316.1191-.3251.2096-.0935.0904-.1683.1984-.22.3176-.0517.1193-.0793.2475-.0813.3775v.0303c-.0031.2636.099.5176.2837.7061.1847.1886.4369.2963.7012.2994l.0071-.0001Zm2.7381.0092c.4734 0 .8575-.3864.8575-.8632 0-.4767-.3841-.8631-.8575-.8631-.2295 0-.4497.0909-.612.2528-.1623.1619-.2535.3814-.2535.6103 0 .229.0912.4485.2535.6104.1623.1619.3825.2528.612.2528Zm2.2625.5195c.3956 0 .7228-.3251.7228-.7289s-.3225-.729-.7228-.729c-.1927.0015-.3769.0791-.5123.2157-.1355.1366-.2112.3212-.2105.5133.0046.3992.326.7289.7228.7289Zm.2947-2.6589c.1678-.0012.3283-.0688.4462-.1879.1179-.1191.1836-.28.1826-.4473 0-.3506-.2819-.6353-.6288-.6353-.3469 0-.6289.2847-.6289.6353-.0009.1673.0648.3282.1827.4473.1179.1191.2784.1867.4462.1879Zm-1.7404-.8701c.1921-.0005.3761-.077.5116-.2127.1356-.1356.2116-.3194.2113-.5109-.0002-.1916-.0767-.3751-.2125-.5105-.1359-.1353-.3201-.2113-.5122-.2113-.192 0-.3762.076-.5121.2113-.1358.1354-.2123.3189-.2125.5105-.0003.1915.0757.3753.2113.5109.1355.1357.3195.2122.5115.2127h.0036Zm-2.2357-.5277c.2267-.0018.4434-.0932.6026-.2541.1592-.161.2479-.3783.2467-.6044 0-.4767-.3794-.8586-.8493-.8586-.4699 0-.8493.3865-.8493.8586-.0009.1118.0202.2228.0623.3264.0421.1037.1042.1981.1829.2778.0786.0797.1722.1432.2755.1869.1033.0436.2141.0665.3263.0674h.0023Zm-2.7335.0035c.5511 0 .9955-.4512.9955-1.0055 0-.5542-.4444-1.0055-.9955-1.0055s-.9955.4513-.9955 1.0055c-.0009.2648.1032.5191.2898.7075.1865.1884.4402.2956.7057.298Zm-3.6814-2.5143c.6242 0 1.1265-.5091 1.1265-1.1397 0-.6306-.5058-1.1397-1.1265-1.1397-.6242 0-1.1266.5091-1.1266 1.1397 0 .6306.5058 1.1397 1.1266 1.1397Zm3.1685-.6908c.5512 0 .9955-.4512.9955-1.0055 0-.5542-.4443-1.00547-.9955-1.00547-.5511 0-.9954.45127-.9954 1.00547 0 .5543.4443 1.0055.9954 1.0055Zm2.737.0128c.4734 0 .8574-.3865.8574-.8667s-.384-.8666-.8574-.8666c-.1132.0006-.2251.0234-.3295.0672-.1044.0437-.1991.1076-.2787.1878-.0796.0803-.1426.1754-.1853.2799-.0428.1046-.0645.2165-.0639.3294v.0023c-.0009.2281.0887.4474.2494.6098s.3793.2547.608.2569Zm2.2462.516c.4003 0 .7229-.3251.7229-.7289 0-.4039-.3226-.729-.7229-.729-.1938 0-.3797.0768-.5168.2135-.1371.1367-.2141.3221-.2141.5155 0 .1933.077.3787.2141.5154s.323.2135.5168.2135Zm1.7253.8933c.1721-.0013.3367-.0705.4577-.1927.1209-.1221.1883-.2871.1874-.4588 0-.3621-.2901-.6514-.6451-.6514s-.6451.2927-.6451.6514c0 .3587.2901.6515.6451.6515Zm1.2658 1.0251c.0701-.0004.1394-.0146.204-.0418.0646-.0272.1232-.0668.1724-.1165.0492-.0498.0882-.1087.1146-.1734.0264-.0648.0397-.1341.0393-.204v-.0011c.0006-.0699-.0126-.1393-.0389-.2041-.0263-.0648-.0651-.1238-.1142-.1737-.0491-.0498-.1076-.0895-.1721-.1168-.0645-.0274-.1338-.0417-.2039-.0423h-.0012c-.0701.0004-.1394.0146-.204.0418-.0645.0272-.1231.0668-.1723.1165-.0493.0498-.0882.1087-.1146.1734-.0264.0648-.0398.1341-.0393.204v.0012c-.0011.0694.0116.1384.0372.2029.0257.0646.0639.1235.1123.1733.0485.0499.1064.0897.1703.1172.0639.0276.1327.0423.2023.0433h.0084l-.0003.0001Z"/>
</svg>
