<svg xmlns="http://www.w3.org/2000/svg" fill="none" viewBox="0 0 42 42">
  <circle cx="21" cy="21" r="20" fill="#1AAB9B"/>
  <path fill="#F3F3F3" d="M10.1273 28V17.0132l8.3319 6.2707V28h2.1266v-5.1588c-.0004-.1917-.0452-.3807-.131-.5522-.0857-.1714-.21-.3207-.3631-.436L9.98727 14.2455c-.18482-.1373-.40408-.2206-.63341-.2407-.22934-.0202-.45976.0237-.66568.1266-.20591.103-.37924.261-.50073.4566-.12149.1955-.18638.4209-.18745.6512V28h2.1273ZM33.17 28V17.0132l-8.3319 6.2707V28h-2.1266v-5.1588c.0004-.1917.0453-.3807.131-.5522.0857-.1714.21-.3207.3631-.436l10.1045-7.6044c.1846-.1371.4035-.2204.6326-.2407.2291-.0202.4593.0234.6651.1259.2058.1026.3791.2602.5009.4553.1217.1951.187.4201.1886.6501V28H33.17Z"/>
</svg>
