<svg xmlns="http://www.w3.org/2000/svg" fill="none" viewBox="0 0 36 36">
  <rect width="36" height="36" fill="#F3F3F3" rx="18"/>
  <path fill="#030303" fill-rule="evenodd" d="m19.4152 27.3236.7049 4.6936c-.6967.1116-1.4098.1683-2.1202.1683h-.0109v-9.5753h.0109c.3904 0 .7762-.052 1.1483-.1541l1.1977 4.6661c-.3062.0842-.6171.1504-.9298.2014h-.0009Zm-3.6471-5.3319-2.304 4.1054h-.0009c-.2716-.1637-.5367-.3405-.7899-.5316l-2.75114 3.8992c.57874.437 1.19504.8294 1.83134 1.167l2.0937-4.2273c.4252.2241.8658.4142 1.3193.5675l-1.4244 4.5157c.6811.2298 1.3851.4057 2.0937.5221l.7323-4.7674c-.3099-.0511-.618-.1211-.9216-.2052l1.1923-4.5839c-.374-.104-.7343-.2601-1.0707-.4615Zm-9.99671 2.4361 4.15908-2.1903c-.21395-.435-.39584-.8909-.54123-1.3552L4.94853 22.368c.22034.7054.49737 1.3987.82286 2.0598Zm20.05401-1.7315-3.968-2.3851c.1956-.348.3456-.7206.4462-1.1074l4.4315 1.235c.0814-.3139.149-.6327.1984-.9523l4.6089.7594c-.1124.7329-.2825 1.4611-.5056 2.1657l-4.3648-1.4763c-.1481.4691-.3319.925-.5495 1.3647l4.086 2.1685c-.3265.6583-.7059 1.2947-1.1292 1.8934l-3.7686-2.8475c.1846-.2621.3565-.5363.5138-.8172l.0009-.0009Zm-1.6187 7.9564.0004-.0002v.001l-.0004-.0008Zm-1.9919.85c.6819-.2279 1.352-.5134 1.9919-.85l-2.1144-4.3031c-.4215.2212-.8622.4094-1.3111.5589l1.4336 4.5942Zm.3355-5.3216-2.3306-4.1829c.3374-.2014.6483-.4473.9253-.7329l6.5353 6.7827c-.5065.5229-1.0578 1.0081-1.6365 1.4422l-2.6953-3.8443c-.2569.1929-.523.3716-.7982.5352Zm-8.4141-5.8823-4.043 2.4126h-.0009c.1591.2837.3319.5589.5184.8246l-3.71568 2.7898c.42059.5987.88958 1.168 1.39521 1.6919l6.55547-6.7618c-.2761-.2866-.5148-.6081-.7095-.9571Zm-4.95364.1324 4.51024-1.2418h-.001c-.0987-.3849-.149-.7849-.149-1.1897H4.28564c0 .7367.05578 1.4772.16458 2.2007l4.53764-.7311c.04841.3234.11331.6451.1947.9619Zm16.88694-6.669 4.159-2.1903c.3255.6611.6025 1.3542.8229 2.0598l-4.4407 1.4857c-.1454-.4644-.3274-.9202-.5412-1.3552Zm-5.8378.2458 2.304-4.10542.0009-.00093c.2716.16365.5367.34045.7899.53155l2.7511-3.89922c-.5787-.43689-1.195-.82936-1.8313-1.16703L22.1526 9.5943c-.4252-.22411-.8658-.41418-1.3193-.56743l1.4244-4.51579c-.6811-.22976-1.3851-.40565-2.0937-.52201l-.7323 4.76827c.3099.05108.618.12108.9216.20526l-1.1923 4.5838c.374.1041.7342.2601 1.0707.4616Zm-10.0571-.7046 3.968 2.3851c-.1957.348-.3456.7207-.4462 1.1075l-4.43156-1.2352c-.08138.314-.14898.6327-.19837.9524l-4.60984-.7594c.11246-.733.28252-1.4612.50559-2.1657l4.36482 1.4762c.14809-.469.33185-.9248.54948-1.3646l-4.08595-2.1686c.3264-.6582.70583-1.2946 1.12915-1.89324l3.76868 2.84754c-.1847.2619-.3565.5362-.5138.8171v.0009Zm1.6185-7.95644-.0003.00022v-.00093l.0003.00071Zm0 0c.64-.33659 1.31-.62209 1.9919-.84999l1.4336 4.59431c-.4489.14945-.8896.33759-1.3111.5589l-2.1144-4.30322Zm1.6564 4.47159.0002.00035.0007-.00035h-.0009Zm.0002.00035 2.3303 4.1825c-.3373.2015-.6482.4473-.9253.7329L8.32036 7.95169c.50653-.52301 1.0578-1.00812 1.63657-1.44221l2.69527 3.84432c.2568-.1928.5225-.3714.7975-.5349Zm8.4149 5.882 4.043-2.4125v-.0009c-.1591-.2838-.3319-.559-.5184-.8248l3.7157-2.78981c-.4206-.59859-.8896-1.16796-1.3953-1.69182l-6.5544 6.76283c.276.2865.5147.608.7094.957Zm-5.013-2.1572v-.0003l-.0009.0003h.0009Zm0-.0003-1.1978-4.66591c.3063-.08419.6172-.15039.9299-.20147l-.7049-4.69354c.6967-.11162 1.4098-.16836 2.1202-.16836h.011v9.57538h-.011c-.3901 0-.7756.0519-1.1474.1539Zm5.4565 3.2668c.0986.3846.1489.7843.149 1.1887h9.2571c0-.7367-.0557-1.4772-.1646-2.2006l-4.5366.732c-.0485-.3235-.1134-.6451-.1948-.9619l-4.5101 1.2418Z" clip-rule="evenodd"/>
</svg>
