<svg xmlns="http://www.w3.org/2000/svg" fill="none" viewBox="0 0 42 42">
  <rect width="42" height="42" fill="#030303" rx="21"/>
  <path fill="#F2B705" d="M20.7749 7c-3.1839.00084-6.237 1.26168-8.4883 3.5053-2.2513 2.2437-3.51647 5.2865-3.51731 8.4596.00077.7558.07187 1.5099.2124 2.2526l1.55341-1.0584c2.7264-1.8641 7.1488-1.8641 9.8752 0l1.6263 1.1122.8845.6034c2.4569 1.6777 6.4387 1.6777 8.8924 0l.7228-.4929c.3578-1.7388.323-3.5352-.1017-5.259-.4247-1.7238-1.2288-3.3319-2.354-4.7079-1.1251-1.376-2.5432-2.48537-4.1516-3.24785-1.6084-.76247-3.3667-1.15896-5.1478-1.16073L20.7749 7Z"/>
  <path fill="#53CBC8" d="M27.5242 26.1542c-1.7145.0327-3.3999-.4447-4.8409-1.3712l-2.5077-1.7124c-1.3649-.8348-2.9351-1.2766-4.5365-1.2766-1.6015 0-3.1717.4418-4.5366 1.2766l-1.61998 1.1058c-.07639.0521-.16233.0886-.25291.1076-.09057.019-.18401.02-.27497.003-.09096-.017-.17768-.0518-.25518-.1022-.07751-.0504-.14429-.1155-.19654-.1916-.05225-.0762-.08893-.1618-.10797-.2521-.01903-.0903-.02005-.1834-.00297-.274.01707-.0907.0519-.1771.10248-.2544.05059-.0772.11594-.1437.19234-.1958l1.62-1.1058c1.6007-.9913 3.4477-1.5166 5.3323-1.5166 1.8845 0 3.7315.5253 5.3323 1.5166l2.5076 1.7124c1.2168.7436 2.6163 1.1372 4.0436 1.1372 1.4273 0 2.8268-.3936 4.0436-1.1372l.9511-.6477c.0763-.0521.1623-.0886.2529-.1076.0905-.019.184-.02.2749-.003.091.0171.1777.0518.2552.1022.0775.0504.1443.1155.1965.1917.0523.0761.089.1617.108.252.0191.0903.0201.1834.003.274-.0171.0907-.0519.1771-.1025.2544-.0506.0772-.1159.1438-.1923.1958l-.9511.6477c-1.4409.9241-3.1245 1.4013-4.8377 1.3712Z"/>
  <path fill="#53CBC8" d="M15.588 31.1803v-6.7612c-.0058-.1424-.0005-.285.0158-.4266.0218-.186.1112-.3576.2515-.4822.1402-.1246.3215-.1936.5094-.1939.1818.0055.3553.0775.4873.2021.1321.1247.2137.2934.2291.474.0289.2348.0374.4716.0254.7077v13.4814c.0038.1048-.0134.2093-.0505.3074-.0371.0981-.0935.1879-.1658.264-.0723.0762-.1591.1372-.2553.1796-.0962.0424-.1999.0653-.3051.0673-.1054-.0058-.2085-.0329-.303-.0796-.0946-.0468-.1787-.1121-.2471-.1922-.0685-.08-.1199-.1731-.1513-.2736-.0313-.1004-.0418-.2061-.0309-.3108v-4.4959l-.0095-2.4675Zm-1.4266-3.4042v3.3585c0 .575-.3171.9478-.745.9478-.428 0-.7672-.4012-.7704-.9478v-6.7233c0-.5877.3455-.9858.7925-.9479.447.0379.7133.376.7165.9668.0064 1.1058.0064 2.2243.0064 3.3459Zm4.3784-.007v-2.3569c0-.5466.2916-.9005.726-.9005.1096.0051.217.0323.3159.0798.0988.0475.187.1145.2592.1968.0723.0823.1271.1783.1612.2823.034.1039.0467.2137.0372.3226.0148 1.605.0148 3.2111 0 4.8182 0 .5466-.317.8783-.7704.872-.4533-.0063-.7291-.3412-.7323-.9005v-2.4106l.0032-.0032Zm-8.83204.4868v-2.3601c0-.5498.29166-.9036.72594-.9036.1097.0051.2171.0322.3159.0798.0989.0475.187.1144.2593.1967.0722.0824.127.1784.1611.2823.0341.104.0468.2137.0373.3227.0148 1.6071.0148 3.2142 0 4.8213 0 .5466-.3171.8752-.7672.872-.45019-.0031-.73234-.3412-.73551-.9036v-2.4075h.00317Zm13.25734-1.2595c0-.4101-.3336-.7425-.745-.7425-.4115 0-.745.3324-.745.7425v1.2827c0 .4101.3335.7425.745.7425.4114 0 .745-.3324.745-.7425v-1.2827Zm2.949 1.125c0-.4101-.3336-.7425-.745-.7425-.4115 0-.745.3324-.745.7425v7.2004c0 .41.3335.7424.745.7424.4114 0 .745-.3324.745-.7424v-7.2004Zm2.9289.2793c0-.4101-.3335-.7425-.745-.7425-.4114 0-.745.3324-.745.7425v6.1198c0 .4101.3336.7425.745.7425.4115 0 .745-.3324.745-.7425v-6.1198Zm2.9702-.7012c0-.4101-.3335-.7425-.745-.7425-.4114 0-.745.3324-.745.7425v2.6381c0 .4101.3336.7425.745.7425.4115 0 .745-.3324.745-.7425v-2.6381Z"/>
</svg>
