<svg xmlns="http://www.w3.org/2000/svg" fill="none" viewBox="0 0 42 42">
  <circle cx="21" cy="21" r="21" fill="#222"/>
  <path fill="#F3F3F3" d="m28.0312 10.5245-4.8686 7.2253c-.3367.4921.3107 1.0877.7769.6734l4.791-4.1695c.1294-.1036.3107-.0259.3107.1554v13.0263c0 .1812-.233.2589-.3366.1294l-14.5024-17.351c-.4662-.56978-1.1395-.88055-1.8905-.88055h-.518c-1.3466 0-2.4602 1.11355-2.4602 2.48615v18.3352c0 1.3725 1.1136 2.4861 2.4861 2.4861.8546 0 1.6574-.4403 2.1236-1.1913l4.8687-7.2253c.3366-.492-.3108-1.0877-.777-.6733l-4.7909 4.1435c-.1295.1036-.3108.0259-.3108-.1554V14.5386c0-.1813.2331-.259.3367-.1295l14.5024 17.3511c.4661.5697 1.1653.8805 1.8905.8805h.5179c1.3726 0 2.4861-1.1136 2.4861-2.4861V11.8194c0-1.3726-1.1135-2.48615-2.4861-2.48615-.8805 0-1.6833.44025-2.1495 1.19125Z"/>
</svg>
