<svg xmlns="http://www.w3.org/2000/svg" fill="none" viewBox="0 0 42 42">
  <circle cx="21" cy="21" r="20" fill="#222"/>
  <path stroke="#0009FF" d="M16.0234 18.9673c-5.1168-1.1916-8.37614.7009-9.53268 1.542L21.0001 6l15 15.035c-.5958.4907-4.1706 3.3295-10.2687 1.7874"/>
  <path stroke="#0009FD" stroke-linecap="round" d="M25.7313 22.7871c6.0981 1.5421 9.6729-1.2616 10.2687-1.7873l-15 15.035-15-15v-.035l.49065-.4907c1.15655-.8411 4.41585-2.7336 9.53275-1.6472"/>
  <path fill="#0109FA" d="M15.8836 17.5225c0 .3505.0701.5958.1401.9112.3856 1.507 1.7524 2.4182 3.9603 2.9439l.0701.0351c.5958.1051 1.1566.2103 1.5421.3505 2.1028.5257 2.6986 1.2616 2.6986 2.4532 0 .1402 0 .2804-.0351.4206 0 .035-.035.0701-.035.1051 0 .1052-.0351.2103-.0701.3155-.0351.07-.0351.1051-.0701.1401-.035.1052-.0701.1753-.1051.2454-.0351.0701-.0701.1051-.1052.1402-.035.07-.0701.1401-.1402.2102-.035.0701-.1051.1052-.1402.1402-.0701.0701-.1401.1402-.2102.1753-.0351.035-.1052.07-.1753.1051-.0701.0701-.1402.1051-.2453.1402-.0701.035-.1752.035-.2453.0701-.0701.035-.1753.0701-.2804.1051-.0701.0351-.1752.0351-.2804.0701-.1051.0351-.2453.0701-.3855.0701-.2103.035-.4556.0701-.7009.0701h-.1052c-.1752 0-.3154 0-.4906-.0351-.0701 0-.1402-.035-.2453-.035-.1402-.035-.2454-.035-.3505-.0701-.0701-.035-.1752-.035-.2804-.0701l-.3154-.1051c-.0701 0-.1752-.0351-.2453-.0701-.1052-.0351-.1753-.1052-.2804-.1402-.0351-.0351-.1051-.0701-.1752-.1051-.1052-.0351-.1753-.1052-.2454-.1753-.035-.035-.1051-.0701-.1402-.1051-.07-.0701-.1401-.1753-.2102-.2453l-.1052-.1052c-.0701-.1051-.1051-.2103-.1752-.3154-.0351-.0351-.0701-.0701-.0701-.1051-.1402-.2804-.2453-.5958-.2804-.9463H15.498c.1052 2.4883 2.208 4.0304 4.7664 4.2406v1.8575h1.2967v-1.8575c2.5234-.2102 4.6262-1.6121 4.6262-4.2056 0-.7009-.1752-1.2967-.4556-1.7873-.6308-1.1215-1.9276-1.7874-3.8551-2.243l-.3505-.0701c-.5608-.0701-1.0514-.1753-1.4369-.3154-.1402-.0701-.2454-.1052-.3855-.1402-.0701-.0351-.1753-.0701-.2454-.1052-.1051-.035-.2103-.0701-.2803-.1051l-.2103-.1052c-.0701-.035-.1402-.1051-.2103-.1401-.0701-.0351-.1051-.0701-.1752-.1052-.0701-.035-.1052-.1051-.1753-.1402-.035-.0701-.1051-.1051-.1402-.1402-.0701-.0701-.1051-.1051-.1401-.1752-.0351-.035-.0701-.1051-.1052-.1402-.035-.035-.0701-.1051-.1051-.1752-.0351-.0351-.0701-.1052-.0701-.1402-.0351-.0701-.0701-.1402-.0701-.2103s-.0351-.1051-.0351-.1402c-.035-.1051-.035-.2102-.035-.3154v-.0701c0-1.0514.8411-2.0327 2.4883-2.243v.0351c.2103-.0351.3855-.0701.5958-.0701h.1052c.2102 0 .4205 0 .6308.035 1.4719.1753 2.4883 1.0514 2.6285 2.4883h1.8575c-.0701-2.3831-1.9977-3.9602-4.486-4.1705v-1.8575h-1.2967v1.8575c-2.5234.2453-4.3458 1.7523-4.3458 4.0654Z"/>
</svg>
