<svg xmlns="http://www.w3.org/2000/svg" fill="none" viewBox="0 0 42 42">
  <circle cx="21" cy="21" r="20" fill="#1A4199"/>
  <path fill="#F3F3F3" d="m14.266 9.15873 13.7283 7.92237v8.0808L7 13.0407l6.7284-3.88197c.0825-.04457.1749-.06791.2688-.06791.0938 0 .1862.02334.2688.06791Z" opacity=".7"/>
  <path fill="#F3F3F3" d="m27.9946 9-7 4.0404 7 4.0404V9Z" opacity=".85"/>
  <path fill="#F3F3F3" d="m27.9946 9 6.7341 3.882c.0809.0492.1483.1181.1957.2001.0475.0821.0736.1748.0759.2695v15.8448l-7.0057-4.0348V9Z"/>
  <path fill="#F3F3F3" d="m34.9945 29.2019-6.7284 3.882c-.086.0496-.1836.0758-.2829.0758-.0994 0-.1969-.0262-.283-.0758l-13.7227-7.9224v-8.0922l21.017 12.1326Z" opacity=".85"/>
  <path fill="#F3F3F3" d="M7.00001 13.04v15.8448c-.00057.0977.02415.1938.07175.2791.04759.0853.11645.1568.19987.2076L14 33.2534V17.0691L7.00001 13.04Z" opacity=".55"/>
  <path fill="#F3F3F3" d="m14 33.242 6.9943-4.0405L14 25.1611v8.0809Z" opacity=".7"/>
</svg>
