<svg xmlns="http://www.w3.org/2000/svg" fill="none" viewBox="0 0 36 36">
  <g clip-path="url(#a)">
    <rect width="36" height="36" fill="#65DB9B" rx="18"/>
    <path fill="#404141" d="M16.503 14.026v-2.0329c.1969-.0146.3971-.0247.5996-.0315 5.5586-.1743 9.2059 4.7768 9.2059 4.7768s-3.9375 5.4709-8.1619 5.4709c-.5586.0024-1.1138-.0865-1.6436-.2633v-6.1627c2.1645.261 2.5987 1.2172 3.9004 3.3862l2.8935-2.4401c-.6945-.8381-1.5596-1.5186-2.5377-1.9962-.978-.4776-2.0466-.7413-3.1346-.7736-.3759.002-.7515.0242-1.125.0664m0-14.588988V10.3495c.1991-.0157.3994-.0281.5996-.036 7.7299-.261 12.7665 6.3394 12.7665 6.3394s-5.7847 7.0346-11.8125 7.0346c-.5216 0-1.0422-.046-1.5558-.1372v1.8765c.4294.0554.8619.0836 1.2948.0843 5.6082 0 9.6638-2.8642 13.5912-6.2538.6502.5208 3.3165 1.7898 3.8643 2.3456-3.7338 3.1252-12.4368 5.6452-17.37 5.6452-.4758 0-.9326-.0292-1.3815-.072v10.512h21.3154V-.561864l-21.312-.001124Zm0 22.510088v1.602c-5.1874-.9247-6.62623-6.3168-6.62623-6.3168 1.78503-1.784 4.11963-2.9137 6.62623-3.2063v1.7584h-.0079c-.735-.0092-1.4629.1445-2.1315.45-.6685.3056-1.2611.7555-1.7351 1.3174 0 0 .9506 3.4132 3.8745 4.3953Zm-9.21261-4.9488c1.09732-1.4352 2.48502-2.6228 4.07251-3.4852 1.5874-.8625 3.3389-1.3804 5.1401-1.52v-1.6458c-6.79837.5456-12.68661 6.3-12.68661 6.3s3.33449 9.6401 12.68661 10.5232v-1.7494c-6.86024-.8583-9.20924-8.4217-9.20924-8.4217l-.00337-.0011Z"/>
  </g>
  <defs>
    <clipPath id="a">
      <rect width="36" height="36" fill="#fff" rx="18"/>
    </clipPath>
  </defs>
</svg>
