<svg xmlns="http://www.w3.org/2000/svg" fill="none" viewBox="0 0 42 42">
  <circle cx="21" cy="21" r="20" fill="#222"/>
  <path fill="#88BDF3" d="M21.0002 19.4905c4.0014 0 7.2452-3.2438 7.2452-7.2452C28.2454 8.24382 25.0016 5 21.0002 5c-4.0015 0-7.2453 3.24382-7.2453 7.2453 0 4.0014 3.2438 7.2452 7.2453 7.2452Z"/>
  <path fill="#3075EE" d="M21.0002 37.0003c4.0014 0 7.2452-3.2438 7.2452-7.2453 0-4.0014-3.2438-7.2452-7.2452-7.2452-4.0015 0-7.2453 3.2438-7.2453 7.2452 0 4.0015 3.2438 7.2453 7.2453 7.2453Z"/>
  <path fill="#5795F1" d="M29.7545 28.2444c4.0015 0 7.2453-3.2438 7.2453-7.2452 0-4.0015-3.2438-7.2453-7.2453-7.2453-4.0014 0-7.2452 3.2438-7.2452 7.2453 0 4.0014 3.2438 7.2452 7.2452 7.2452Z"/>
  <path fill="#205FEC" d="M12.2453 28.2444c4.0014 0 7.2452-3.2438 7.2452-7.2452 0-4.0015-3.2438-7.2453-7.2452-7.2453C8.24382 13.7539 5 16.9977 5 20.9992c0 4.0014 3.24382 7.2452 7.2453 7.2452Z"/>
  <path fill="#134BEF" d="M19.2946 19.2951c-1.2914-.314-2.4716-.9772-3.4113-1.917-.9398-.9397-1.603-2.1199-1.917-3.4113 1.2891.3188 2.4667.9835 3.4057 1.9226.939.939 1.6038 2.1166 1.9226 3.4057Z"/>
  <path fill="#0932E8" d="M13.9512 28.049c.314-1.2914.9772-2.4716 1.9169-3.4113.9398-.9398 2.12-1.603 3.4114-1.917-.3188 1.2891-.9836 2.4667-1.9226 3.4057-.939.939-2.1166 1.6038-3.4057 1.9226Z"/>
  <path fill="#164BEA" d="M22.7051 22.7051c1.2914.314 2.4715.9772 3.4113 1.9169.9398.9398 1.603 2.12 1.917 3.4114-1.2892-.3188-2.4668-.9836-3.4058-1.9226-.939-.939-1.6037-2.1166-1.9225-3.4057Z"/>
  <path fill="#3170F1" d="M28.049 13.9512c-.314 1.2914-.9772 2.4715-1.917 3.4113-.9397.9398-2.1199 1.603-3.4113 1.917.3188-1.2892.9836-2.4668 1.9226-3.4058.939-.939 2.1166-1.6037 3.4057-1.9225Z"/>
</svg>
