<svg xmlns="http://www.w3.org/2000/svg" fill="none" viewBox="0 0 42 42">
  <circle cx="21" cy="21" r="20" fill="#222"/>
  <path fill="#F3F3F3" d="M7.657 16.1102c-2.1699.7845-3.5553 3.4718-3.05455 5.9755.25037 1.2519.53413 1.8361 1.31863 2.654 1.03487 1.1183 1.70254 1.3687 3.52192 1.3687 1.4522 0 1.6692-.0501 2.4703-.4841 1.4856-.8345 2.3035-2.1532 2.4871-4.0226.2337-2.5705-1.2519-4.9741-3.4385-5.5917-.8512-.2337-2.48701-.1836-3.3049.1002Zm3.6554 2.0864c.9849.7177 1.4856 2.3702 1.1351 3.8224-.6677 2.8041-4.35652 3.355-5.62508.8345-.76781-1.5022-.36721-3.8557.8012-4.6736.96811-.701 2.68738-.6843 3.68878.0167Zm18.9282-2.0199c-3.138 1.2519-4.0227 5.8754-1.6525 8.6796 1.2853 1.5356 4.3232 1.8194 5.6752.5174l.3672-.3505.0501.4674c.05.4173.1001.4506.8846.4506h.8346l.0501-2.6372.05-2.6206h-4.6903v1.6692h1.4188c1.5356 0 1.5857.0333 1.1517.9347-.3004.6176-1.3687 1.2352-2.1699 1.2352-1.9195 0-3.0712-1.352-3.0712-3.5386.0167-2.4203 1.569-3.8057 3.6888-3.305.8179.2003 1.6525.9181 1.6525 1.4355 0 .1669.2503.2337 1.0015.2337h.9848l-.2337-.7511c-.5175-1.7526-1.8027-2.6373-3.9225-2.7041-.9348-.0333-1.4522.0334-2.0698.2838Zm-14.4545 4.8411v5.0075h1.6692l.0334-3.3717.05-3.3884 1.2352 3.3884 1.2352 3.3884.8346-.0501.8346-.0501 1.2184-3.3383 1.2185-3.3383.0501 3.3383.0501 3.3383.8846.0501.868.0501-.0334-4.9741-.0501-4.9741h-2.3201l-1.3353 3.7056c-.7345 2.053-1.3854 3.6721-1.4355 3.5886-.0668-.0667-.6677-1.6524-1.3353-3.5386-.6677-1.8861-1.302-3.5219-1.3854-3.6387-.1002-.1169-.5675-.2003-1.2185-.2003h-1.0683v5.0074Z"/>
</svg>
