<svg xmlns="http://www.w3.org/2000/svg" fill="none" viewBox="0 0 42 42">
  <circle cx="21" cy="21" r="20" fill="#FF0420"/>
  <path fill="#fff" d="M13.7383 27.3067c-1.3925 0-2.5327-.3271-3.4206-.9813C9.43925 25.6618 9 24.7086 9 23.4843c0-.2617.02804-.5701.08411-.9439.14953-.8411.36448-1.8505.64485-3.0374.79434-3.2149 2.85044-4.8223 6.15884-4.8223.8971 0 1.7102.1495 2.4205.4579.7103.2897 1.271.7383 1.6822 1.3364.4112.5888.6168 1.2897.6168 2.1028 0 .243-.028.5514-.0841.9252-.1776 1.0374-.3832 2.0561-.6355 3.0374-.4112 1.5981-1.1121 2.8037-2.1215 3.5981-.9999.785-2.3457 1.1682-4.0279 1.1682Zm.2523-2.5234c.6542 0 1.2056-.1962 1.6635-.5794.4673-.3832.8037-.9719 1-1.7757.271-1.1028.4766-2.056.6168-2.8784.0467-.243.0748-.4954.0748-.757 0-1.0654-.5514-1.5982-1.6635-1.5982-.6542 0-1.215.1963-1.6823.5795-.4579.3832-.785.9719-.9813 1.7757-.2149.785-.4205 1.7383-.6355 2.8784-.0467.2337-.0747.4767-.0747.7383-.0094 1.0841.5607 1.6168 1.6822 1.6168Zm7.4301 2.3553c-.1308 0-.2243-.0374-.299-.1215-.0561-.0934-.0748-.1962-.0561-.3177l2.4205-11.4018c.0187-.1308.0841-.2336.1963-.3177.1028-.0841.2149-.1215.3364-.1215h4.6635c1.2991 0 2.3364.271 3.1215.8037.7944.5421 1.1962 1.3178 1.1962 2.3364 0 .2898-.0374.5982-.1028.9159-.2897 1.3458-.8785 2.3364-1.7757 2.9813-.8784.6448-2.084.9626-3.6167.9626h-2.3645l-.8037 3.8411c-.028.1308-.0841.2336-.1963.3177-.1028.0841-.2149.1215-.3364.1215h-2.3832Zm6.2056-6.7008c.4953 0 .9158-.1309 1.2803-.4019.3738-.271.6168-.6542.7383-1.1589.0374-.1962.0561-.3738.0561-.5233 0-.3365-.1028-.5981-.2991-.7757-.1962-.1869-.542-.2804-1.0186-.2804h-2.1028l-.6636 3.1402h2.0094Z"/>
</svg>
