<svg xmlns="http://www.w3.org/2000/svg" fill="none" viewBox="0 0 42 42">
  <rect width="42" height="42" fill="#222" rx="21"/>
  <path fill="#A892C5" stroke="#7534A4" stroke-width=".753772" d="M33.2856 14.8336c-.4254.4856-1.2218.6709-2.2796.4416-1.0433-.2263-2.2514-.8437-3.3598-1.8149-1.1085-.9712-1.8793-2.0877-2.2407-3.0922-.3663-1.01845-.2872-1.83228.1382-2.31785.4255-.48557 1.2218-.67094 2.2796-.44158 1.0433.22623 2.2514.84365 3.3599 1.81484 1.1084.97119 1.8792 2.08769 2.2406 3.09219.3664 1.0185.2873 1.8323-.1382 2.3179Z"/>
  <path fill="#A892C5" stroke="#7534A4" stroke-width=".753772" d="M25.8813 10.6248c-.3016.3015-1.382.8794-1.8845 1.1307l5.6533 4.8995c.1256-.5025.4523-1.5829.7538-1.8845.3769-.3768 1.1307-.7537 1.1307-1.5075s-.7538-1.5075-1.5076-2.2613c-.7538-.7538-1.8844-1.50756-2.6382-1.50756-.7538 0-1.1307.75376-1.5075 1.13066Z"/>
  <circle cx="19.4742" cy="23.4393" r="12.4372" fill="#A892C5" stroke="#7534A4" stroke-width=".753772"/>
  <path fill="url(#a)" d="M30.7609 24.5727c-.5672 5.7135-5.3879 10.1759-11.2507 10.1759-6.2445 0-11.30661-5.0621-11.30661-11.3066 0 0-.73963-1.5356 4.52131-1.1309 4.863.3742 8.5954-1.1334 12.4007-1.1334 4.1097 0 5.6353 1.8845 5.6353 2.6382v.7568Z"/>
  <path fill="url(#b)" d="M30.7253 24.5701c-.5673 5.7136-5.3879 10.1759-11.2507 10.1759-6.2445 0-11.30663-5.0621-11.30663-11.3065 0 0 2.42393 4.5226 8.66843 4.5226 3.2759 0 5.3425-.9522 9.0452-2.2613 1.5076-.533 4.1458-1.1307 4.8437-1.8419v.7112Z"/>
  <circle cx="23.243" cy="15.9019" r="2.26132" fill="#F3F3F3"/>
  <circle cx="26.6348" cy="18.5408" r="1.13066" fill="#F3F3F3"/>
  <defs>
    <linearGradient id="a" x1="8.40813" x2="30.6697" y1="34.6578" y2="34.6578" gradientUnits="userSpaceOnUse">
      <stop stop-color="#0C0096"/>
      <stop offset="1" stop-color="#B300C4"/>
    </linearGradient>
    <linearGradient id="b" x1="8.37427" x2="30.6358" y1="34.6582" y2="34.6582" gradientUnits="userSpaceOnUse">
      <stop stop-color="#1201C5"/>
      <stop offset="1" stop-color="#F21CCF"/>
    </linearGradient>
  </defs>
</svg>
