<svg xmlns="http://www.w3.org/2000/svg" fill="none" viewBox="0 0 42 42">
  <circle cx="21" cy="21" r="21" fill="#49D6DD"/>
  <path fill="#F3F3F3" fill-rule="evenodd" d="M12.5623 11.9769c-.4157-2.16141 1.247-4.15659 3.4084-4.15659 1.912 0 3.4916 1.57952 3.4916 3.49159v4.3228c.4987 0 .9975-.0831 1.4963-.0831.4988 0 .9145 0 1.4133.0831v-4.3228c0-1.91207 1.5795-3.49159 3.4915-3.49159 2.1615 0 3.8241 1.99518 3.4916 4.15659l-.9145 5.0711c3.2422 1.4132 5.7362 3.9072 5.7362 6.9831v1.9121c0 2.5771-1.6627 4.7385-4.0735 6.1517-2.4108 1.4964-5.5699 2.3277-9.1446 2.3277-3.5747 0-6.7337-.8313-9.1445-2.3277-2.32772-1.4132-3.99037-3.5746-3.99037-6.1517v-1.9121c0-3.0759 2.41087-5.5699 5.65297-6.9831l-.9144-5.0711Zm14.6313 5.7362 1.0807-5.9856c.2494-1.4964-.8313-2.9096-2.4109-2.9096-1.3301 0-2.4108 1.08072-2.4108 2.4108v5.4868c-.3325-.0832-.7482-.0832-1.0807-.0832-.4988 0-.9145-.0831-1.4133-.0831s-.9976 0-1.4963.0831c-.3326 0-.7482.0832-1.0808.0832v-5.4036c0-1.33015-1.0807-2.41087-2.4108-2.41087-1.4964 0-2.6602 1.41327-2.3277 2.90967l1.0807 5.9855c-3.4915 1.3301-5.81925 3.6578-5.81925 6.318v1.9121c0 4.0735 5.40365 7.3988 12.05415 7.3988 6.6506 0 12.0542-3.3253 12.0542-7.3988v-1.9121c.0831-2.7433-2.2446-5.071-5.8192-6.4011Z" clip-rule="evenodd"/>
  <path fill="#F3F3F3" fill-rule="evenodd" d="M8.86763 24.1504H8.8667v1.912c0 4.0735 5.4152 7.3988 12.08 7.3988 6.6648 0 12.08-3.3253 12.08-7.3988h.0833v-1.912h-.0842c.0006.0307.0009.0614.0009.0921 0 4.0735-5.4152 7.3988-12.08 7.3988-6.6648 0-12.08-3.3253-12.08-7.3988 0-.0307.00031-.0614.00093-.0921Z" clip-rule="evenodd"/>
  <path fill="#F3F3F3" d="M17.6329 23.5421c0 1.0807-.5819 1.9951-1.3301 1.9951-.7482 0-1.3301-.9144-1.3301-1.9951 0-1.0808.5819-1.9952 1.3301-1.9952.7482 0 1.3301.9144 1.3301 1.9952Zm9.2285 0c0 1.0807-.5819 1.9951-1.3301 1.9951-.7482 0-1.3301-.9144-1.3301-1.9951 0-1.0808.5819-1.9952 1.3301-1.9952.7482 0 1.3301.9144 1.3301 1.9952Z"/>
</svg>
