<svg xmlns="http://www.w3.org/2000/svg" fill="none" viewBox="0 0 42 42">
  <path fill="#222" d="M21 41c11.0457 0 20-8.9543 20-20S32.0457 1 21 1 1 9.9543 1 21s8.9543 20 20 20Z"/>
  <path fill="#EFE812" d="M13.9059 9.78175c.6087-.69317 1.1686-1.2797 1.7018-1.77736-9.00236-.28883-6.38075 6.22081-9.33117 12.82811-3.377 7.616.3999 10.5176 6.02527 11.424-.7856-.9361-1.4266-1.9845-1.9018-3.1103-3.63026-4.5901-2.15949-12.957 3.5059-19.36445Z"/>
  <path fill="#EDE70A" d="M35.5678 17.8955c-1.0631 2.7812-2.6012 5.3567-4.5456 7.6116-1.5589 1.8944-3.4261 3.5123-5.5232 4.7855-2.4355 1.5433-5.2661 2.3474-8.1492 2.3151-1.6833.0151-3.3651-.1023-5.03-.3511.9244 1.1042 2.0703 2.0019 3.3637 2.635 8.1403 3.9368 8.6513-3.3726 17.2627-7.0828 4.8344-2.084 4.8522-6.1542 2.6171-9.9133"/>
  <path fill="#EDE70A" d="M25.4984 10.2974c1.1785.2063 2.314.6088 3.3592 1.1909 2.7383 1.5396 5.0455 3.7429 6.7096 6.4074 1.4663-4.1324.782-7.3761-2.4217-7.96264-3.528-.64429-6.283-.85313-8.9312-2.70159-3.2615-2.26614-6.1231-1.52854-8.6025.77759l.5377.02222c3.4392.2044 6.7273.88868 9.3311 2.25722"/>
  <path fill="#DEC21C" d="M13.9058 9.78215C8.24043 16.1896 6.76966 24.5565 10.4177 29.1465c-.8439-1.9924-1.21218-4.1541-1.07567-6.3136.13651-2.1595.77407-4.2576 1.86217-6.1279 3.0704-5.1188 9.2334-7.34053 14.2945-6.4074-2.6217-1.38636-5.9098-2.05287-9.3312-2.25727l-.5377-.02666c-.551.50655-1.1108 1.07531-1.724 1.76848Z"/>
  <path fill="#E5CB22" d="M28.8582 11.4798c-1.0458-.5789-2.1813-.9785-3.3592-1.1819 3.4481 1.8129 5.7365 4.8877 5.7365 9.7488-.02 2.052-.5559 4.066-1.5583 5.8566-1.0025 1.7906-2.4393 3.3002-4.1782 4.3899 2.0981-1.2718 3.9656-2.8899 5.5232-4.7855 1.9444-2.2549 3.4825-4.8304 4.5456-7.6116-1.6629-2.6677-3.9702-4.8742-6.7096-6.4163Z"/>
  <path fill="#CCA727" d="M25.4985 10.2978c-5.061-.93316-11.224 1.2885-14.2944 6.3851-1.0927 1.8728-1.73279 3.9749-1.86934 6.1388-.13654 2.1639.23424 4.3298 1.08284 6.325.4735 1.1268 1.1146 2.1754 1.9018 3.1104 1.6648.2488 3.3466.3662 5.0299.351 2.8831.0324 5.7137-.7717 8.1492-2.315 1.7392-1.0894 3.1762-2.5989 4.1787-4.3896 1.0025-1.7906 1.5382-3.8048 1.5578-5.8569 0-4.8611-2.2884-7.9359-5.7365-9.7488Zm-.5687 17.6847c-1.8719 1.2023-4.1436 1.6146-6.3185 1.1466-2.1749-.4679-4.076-1.778-5.2877-3.6438-2.515-3.8791-1.2709-8.8868 2.5016-11.5528 4.2212-2.9993 9.6333-1.8174 11.6062 2.4972 1.924 4.2034 1.3952 9.0601-2.5016 11.5528Z"/>
</svg>
