<svg xmlns="http://www.w3.org/2000/svg" fill="none" viewBox="0 0 42 42">
  <circle cx="21" cy="21" r="20" fill="#F3F3F3"/>
  <path fill="#4460EF" fill-rule="evenodd" d="M21.6803 25.3607c5.0703 0 9.1804-4.1101 9.1804-9.1804C30.8607 11.1101 26.7506 7 21.6803 7c-4.9205 0-8.9367 3.8712-9.1695 8.7339l-.0108-.0126V35h3.2131c3.0421 0 5.5082-2.4663 5.5082-5.5082v-3.6721l-.4335-.5021c.2937.0283.5915.0431.8925.0431Zm-.459-9.4099c0 1.1408-.6166 2.0656-1.377 2.0656-.7605 0-1.3771-.9248-1.3771-2.0656s.6166-2.0656 1.3771-2.0656c.7604 0 1.377.9248 1.377 2.0656Zm5.0492 2.0656c.7605 0 1.377-.9248 1.377-2.0656s-.6165-2.0656-1.377-2.0656-1.3771.9248-1.3771 2.0656.6166 2.0656 1.3771 2.0656Z" clip-rule="evenodd"/>
</svg>
