<svg xmlns="http://www.w3.org/2000/svg" fill="none" viewBox="0 0 36 36">
  <g clip-path="url(#a)">
    <mask id="b" width="36" height="36" x="0" y="0" maskUnits="userSpaceOnUse" style="mask-type:alpha">
      <circle cx="18" cy="18" r="18" fill="#D9D9D9"/>
    </mask>
    <g mask="url(#b)">
      <path fill="#0038A8" d="M71.9987 0H0v17.9997h71.9987V0Z"/>
      <path fill="#CE1126" d="M71.9987 18H0v17.9997h71.9987V18Z"/>
      <path fill="#F3F3F3" d="M.0407772 35.9981-.0021286 0 31.1367 17.9626.0407772 35.9981Z"/>
      <path fill="#FCD116" d="m26.1981 19.9552-.8694-1.1412-1.3608.45.8154-1.179-.8478-1.155 1.3734.4116.837-1.1639.0324 1.4332 1.3662.4363-1.3536.4734.0072 1.4346ZM4.10577 32.6802l-1.26117-.6839-1.05623.9688.25969-1.4097L.800906 30.85l1.421354-.1883.28559-1.4048.61773 1.2936 1.42491-.1628-1.04006.9872.59534 1.3053Zm.50226-27.08153-1.42808-.1371-.59406 1.30437-.31142-1.39927L.85089 5.2043l1.235-.72833-.28565-1.40485 1.07382.9497 1.24821-.7063-.572 1.31498 1.05776.96917ZM14.8465 18.0844c0 .9548-.3793 1.8704-1.0544 2.5456-.6752.6751-1.5908 1.0544-2.5456 1.0544-.9548 0-1.87047-.3793-2.5456-1.0544-.67513-.6752-1.05442-1.5908-1.05442-2.5456 0-.9548.37929-1.8705 1.05442-2.5456.67513-.6751 1.5908-1.0544 2.5456-1.0544.9548 0 1.8704.3793 2.5456 1.0544.6751.6751 1.0544 1.5908 1.0544 2.5456Z"/>
      <path fill="#FCD116" fill-rule="evenodd" d="m11.2602 18.0467-.4614-7.0326.4614-.4614.4932.4455-.4932 7.0485Zm.0015.0201.875-6.6352h.016l.3499.382-1.2409 6.2532Z" clip-rule="evenodd"/>
      <path fill="#FCD116" fill-rule="evenodd" d="m11.2617 18.05 3.532-5.2824h.525l-4.057 5.2824Zm0 .0145 4.6617-5.3145h.6681v.6363l-5.3298 4.6782Z" clip-rule="evenodd"/>
      <path fill="#FCD116" fill-rule="evenodd" d="m11.2676 18.0502 5.328-4.14h.018l-.018.576-5.328 3.564Zm0 .0141 6.246-1.242h.018l.378.36-6.642.882Z" clip-rule="evenodd"/>
      <path fill="#FCD116" fill-rule="evenodd" d="m11.2676 18.0637 7.056-.468h.018l.486.45-.486.486-7.074-.468Z" clip-rule="evenodd"/>
      <path fill="#FCD116" fill-rule="evenodd" d="m11.2676 18.0469 6.696.882-.018.018-.342.36-6.336-1.26Zm0 0 5.328 3.564v.018l.018.522-5.346-4.104Zm0 .0176 5.346 4.68v.036l-.018.63h-.648l-4.68-5.346Z" clip-rule="evenodd"/>
      <path fill="#FCD116" fill-rule="evenodd" d="m11.2676 18.0469 4.122 5.364h.018-.558l-3.582-5.364Z" clip-rule="evenodd"/>
      <path fill="#FCD116" fill-rule="evenodd" d="m11.2676 18.0469 1.26 6.318-.378.342-.882-6.66Zm-.0008 0 .468 7.092-.018.018-.45.468-.468-.468.468-7.11Z" clip-rule="evenodd"/>
      <path fill="#FCD116" fill-rule="evenodd" d="m11.2678 18.0469-.882 6.696.036.036-.414-.414 1.26-6.318Zm-.0032 0-3.58202 5.364-.018-.018-.522.018 4.12202-5.364Z" clip-rule="evenodd"/>
      <path fill="#FCD116" fill-rule="evenodd" d="m11.2635 18.0645-4.67995 5.346h-.018l-.63-.018v-.648l5.32795-4.68Z" clip-rule="evenodd"/>
      <path fill="#FCD116" fill-rule="evenodd" d="m11.2635 18.0645-5.32795 4.086.018.018-.018-.54 5.32795-3.564Zm.0024-.0176-6.31801 1.26.018-.018-.378-.36 6.67801-.882Zm-.0032-.0008-7.11.468-.018-.018-.414-.45.468-.468 7.074.468Z" clip-rule="evenodd"/>
      <path fill="#FCD116" fill-rule="evenodd" d="m11.2646 18.0643-6.62398-.882.34201-.36 6.28197 1.242Zm-.0011-.0154-5.32795-3.564v-.522l5.32795 4.086Zm0-.0006-5.32795-4.68v.018-.648h.666l4.66195 5.31Z" clip-rule="evenodd"/>
      <path fill="#FCD116" fill-rule="evenodd" d="m11.2633 18.0663-4.06799-5.31h.054l.45-.018 3.56399 5.328Zm.0041-.0161-1.242-6.246v.036l.36-.432.882 6.642Z" clip-rule="evenodd"/>
    </g>
  </g>
  <defs>
    <clipPath id="a">
      <rect width="36" height="36" fill="#fff" rx="18"/>
    </clipPath>
  </defs>
</svg>
