<svg xmlns="http://www.w3.org/2000/svg" fill="none" viewBox="0 0 42 42">
  <circle cx="21" cy="21" r="21" fill="#E6007A"/>
  <path fill="#F3F3F3" d="M20.9998 12.8731c2.7885 0 5.0491-1.3147 5.0491-2.93656C26.0489 8.31474 23.7883 7 20.9998 7c-2.7886 0-5.0491 1.31474-5.0491 2.93654 0 1.62186 2.2605 2.93656 5.0491 2.93656Zm0 22.1267c2.7885 0 5.0491-1.3147 5.0491-2.9365 0-1.6219-2.2606-2.9366-5.0491-2.9366-2.7886 0-5.0491 1.3147-5.0491 2.9366 0 1.6218 2.2605 2.9365 5.0491 2.9365Zm-7.0356-18.0593c1.3943-2.4149 1.3852-5.0303-.0202-5.8418-1.4055-.8114-3.6751.4884-5.06935 2.9033-1.39427 2.4149-1.38522 5.0303.02021 5.8418 1.40544.8114 3.67504-.4884 5.06934-2.9033Zm19.1601 11.0578c1.3943-2.4148 1.386-5.0299-.0185-5.8408-1.4045-.8109-3.6733.4894-5.0676 2.9043-1.3942 2.4149-1.386 5.0299.0185 5.8408 1.4045.8109 3.6733-.4894 5.0676-2.9043Zm-19.1803 2.902c1.4054-.8114 1.4145-3.4269.0202-5.8418-1.3943-2.4149-3.6639-3.7147-5.06934-2.9033-1.40543.8115-1.41448 3.427-.02021 5.8418 1.39425 2.4149 3.66385 3.7148 5.06935 2.9033Zm19.1618-11.0591c1.4045-.8109 1.4128-3.4259.0185-5.8408-1.3943-2.4148-3.6631-3.7151-5.0676-2.9042-1.4045.8109-1.4127 3.4259-.0185 5.8408 1.3943 2.4149 3.6631 3.7151 5.0676 2.9042Z"/>
</svg>
