<svg xmlns="http://www.w3.org/2000/svg" fill="none" viewBox="0 0 42 42">
  <circle cx="21" cy="21" r="20" fill="#EF4F1F"/>
  <path fill="#F3F3F3" d="m13.3496 7.80781 7.6995 9.02099 5.1681-3.0401s-6.2353-8.3385-7.898-7.7491c-1.5635.59561-4.9696 1.76821-4.9696 1.76821Zm13.0606 5.98189s1.1726-2.0598 1.7558-4.80825c0 0 5.8506 2.35145 3.6046 8.23925l-5.3604-3.431Z"/>
  <path fill="#F3F3F3" d="m31.77 17.2255.4902 6.1794 2.2397-.2916s.5832-.1986.4901-1.2719c-.0992-1.1788-.2916-3.6295-.2916-3.6295s.0993-.5894-1.2656-.7817c-1.6628-.304-1.6628-.2047-1.6628-.2047Zm.4837 6.1807-4.4856 3.6295 2.0474 4.0204s.4901 1.5696 1.9481-.1986c1.3649-1.7682 1.9481-2.0598 1.8489-3.1393-.0869-1.0795-.3847-3.6295-1.3588-4.312Zm-4.5786 3.6235-6.1422-2.7485-5.3605 10.8885s-.3908.7817.9741.881c1.3649.1985 3.6047.6887 4.7773-.4901 1.1726-1.0734 5.7513-8.5309 5.7513-8.5309Zm-6.1423-2.844-.5832-7.2589-13.25842.8872s-.78174.0992-.68247 1.5696c.09927 1.9606.2916 4.1197.2916 4.1197s-.09927.881 1.65653.9802c1.75576.0931 12.38366.0931 12.57596-.2978Z"/>
</svg>
