<svg xmlns="http://www.w3.org/2000/svg" fill="none" viewBox="0 0 42 42">
  <mask id="a" fill="#fff">
    <path d="M42 21c0 11.598-9.402 21-21 21C9.40202 42 0 32.598 0 21 0 9.40202 9.40202 0 21 0c11.598 0 21 9.40202 21 21Z"/>
  </mask>
  <path fill="#fff" d="M42 21c0 11.598-9.402 21-21 21C9.40202 42 0 32.598 0 21 0 9.40202 9.40202 0 21 0c11.598 0 21 9.40202 21 21Z"/>
  <path fill="#408AC9" d="M40 21c0 10.4934-8.5066 19-19 19v4c12.7025 0 23-10.2975 23-23h-4ZM21 40C10.5066 40 2 31.4934 2 21h-4c0 12.7025 10.29745 23 23 23v-4ZM2 21C2 10.5066 10.5066 2 21 2v-4C8.29745-2-2 8.29745-2 21h4ZM21 2c10.4934 0 19 8.5066 19 19h4C44 8.29745 33.7025-2 21-2v4Z" mask="url(#a)"/>
  <path fill="#408AC9" d="M4.00586 21.1045c.02333-.4842.035-.9742.07584-1.4584.26253-3.1503 1.33013-6.0031 3.17364-8.5642.59505-.8284 1.26012-1.59848 2.00102-2.29855C13.8826 4.3846 20.825 2.86779 26.8397 5.07883c-1.0909 1.4118-2.4444 2.61942-3.9729 3.53534C23 7.49976 21 6.49976 22.5 5.99976c-4.5738-.78175-8.5824.71839-11.7793 3.62367-1.53434 1.39427-2.82363 3.16197-3.69288 5.08137-.44338.98-.78758 2.0068-1.02094 3.0569-.18085.8109-.32669 1.9252-.25085 3.2203.19252-.0933.32669-.2333.49004-.3733.56006-.4784 1.12011-.9568 1.69183-1.4294.16919-.14.31503-.3267.53672-.3967.04084.5368.12251 1.0618.24502 1.5869.05834.2392.06418.245.2567.0816.22168-.1866.4317-.3792.67673-.5308.07584.14.18085.2625.28586.385.75257.8692 1.72687 1.336 2.82357 1.581.3909.0875.7876.1633 1.2251.1808-.1225-.1458-.2216-.2567-.3091-.3792-.4026-.5484-.3151-1.0559.2508-1.4351.1575-.105.3267-.1925.5076-.2509 1.3593-.4842 2.7536-.4492 4.1537-.2742 1.1843.1459 2.316.4784 3.3778 1.0326.0175.0175.0409.0292.0584.0467h-.0059c.0234.0992.105.1575.1809.2159.07.0933.1458.1808.2158.2742.9509 1.2542 1.1901 2.6135.5659 4.0837-.5134 1.2018-1.4001 2.0827-2.4852 2.7711-2.2461 1.4176-4.6963 1.861-7.2924 1.3943-2.6544-.4784-4.76628-1.8902-6.48728-3.9321-1.09677-1.3009-1.92518-2.7711-2.59025-4.3287-.035-.0759-.04084-.1575-.12251-.1809Z"/>
  <path fill="#408AC9" stroke="#408AC9" stroke-width=".1" d="M23.4445 5.95389c-.0233-.0525-.0759-.10501-.1459-.11668-2.8877-.31503-5.7697-.04083-8.4533 1.12011-4.5796 1.97769-7.95157 6.30058-8.91999 11.17778-.18085.9159-.33253 1.8551-.27419 2.7944.00583.1342.11667.0992.19251.035.14002-.1167.26836-.2392.40838-.3559.56005-.4783 1.1201-.9567 1.69183-1.4293.16918-.14.31503-.3267.53671-.3967.01167-.4259-.01166-.8459.05834-1.2659.02917-.1109.05834-.2217.08751-.3384.10501-.455.2917-.8751.50755-1.2835.36753-.5833.80508-1.1026 1.31265-1.5693.2333-.21.49-.4025.7292-.6067.0467-.0408.105-.07.1575-.0408.0584.035.0175.105.0059.1575-.0292.1167-.0642.2392-.0934.3558-.0467.2976-.0875.5893.1459.8401.0991.1692.2625.2217.4375.2451.3034.0408.5951-.0351.8693-.1517.7934-.3151 1.4293-.8518 2.0185-1.4527.0817-.0816.1342-.175.28-.0641.4025.3033.8518.28 1.3476.1691-.4842-.0933-.875-.2683-1.1492-.665-.2276-.3326-.2101-.6943-.1926-1.0676.2042-.7584.7001-1.2718 1.3827-1.6102.2683-.1342.56-.2392.8401-.3558.035-.0059.07-.0117.105-.0234 1.0909-.43169 2.1468-.92174 3.1036-1.6043.5542-.39671 1.0618-.83425 1.4235-1.42347.07-.11668.1225-.32087.2042-.33837.1575-.02333.1458.21586.2625.30336.3208-.32669.6825-.59505 1.0209-.89842.0467-.035.1284-.06417.0992-.14001Zm-3.6404-.15751c-.0058.04667-.0291.0875-.0525.12251.0234-.04084.0467-.08168.0525-.12251Z"/>
  <path fill="#262F71" stroke="#262F71" stroke-width=".1" d="M21.9684 20.76c-1.0617-.5542-2.1935-.8868-3.3778-1.0326-1.4001-.175-2.7944-.21-4.1537.2742-.1809.0641-.3501.1458-.5076.2508-.5659.3792-.6534.8868-.2508 1.4352.0875.1225.1866.2333.3092.3792-.4376-.0175-.8343-.0934-1.2252-.1809-1.0967-.245-2.071-.7117-2.82356-1.581-.10501-.1225-.21002-.245-.28586-.385.01166-.0467.035-.0875.0875-.0875.01751-.0117.02918-.0233.04668-.035l.01166-.0058c.02334-.0175.04668-.035.07001-.0526l-.00583.0059c.04083 0 .08167-.0059.08167-.0642l-.00583.0058c.08746.0234.15166-.035.22166-.07.3326-.1575.6651-.3325 1.0035-.4842 1.5226-.6709 3.1269-.9509 4.7721-1.0034.5075-.0175 1.0151.0408 1.5168.0817.7351.0583 1.4643.1808 2.1819.3442.9217.2042 1.8201.4842 2.7069.8109.0408.0175.0817.0466.1225.0058s0-.0817-.0233-.1167c-.0934-.1633-.1867-.3267-.2917-.4842-.1984-.2858-.4084-.56-.6126-.8401.2684.0584.5309.1226.8284.1867-.175-.3383-.3967-.6009-.63-.8576-.1809-.1983-.3676-.385-.5543-.5775.1226-.1109.2451-.0117.3676 0 .8401.0758 1.6626.245 2.4619.5017 1.4235.455 2.7361 1.1259 3.9145 2.0594.9743.77 1.826 1.6626 2.5378 2.6777.6242.8926 1.1259 1.8494 1.4993 2.8761.3675.9976.6009 2.0361.6592 3.092.0525.9218.0233 1.8435-.1633 2.7536-.2801 1.3651-.8226 2.6136-1.651 3.7337-.0759.105-.2159.1808-.2217.3384l.0058-.0059c-.0175.0234-.0408.0409-.0583.0642-.4901.49-1.0326.9101-1.616 1.2834-1.5052.9626-3.1678 1.5052-4.918 1.7852-1.7035.2684-3.4186.3092-5.1338.0934-2.7536-.3501-5.268-1.3185-7.5491-2.8995-.4842-.3325-.9626-.6767-1.3826-1.0909.06418-.0292.1108.0058.1575.0408.1342.0992.2684.1984.4026.2917.9859.6709 2.0477 1.1726 3.1911 1.5052.6942.2041 1.4001.3442 2.1294.3733.035.0467.0875.0409.14.0409.5134.0291 1.0209.0466 1.5401.0116.7118-.0525 1.4118-.14 2.1002-.3033 1.0851-.2567 2.1177-.6534 3.1037-1.1785.8692-.4667 1.6743-1.0209 2.3977-1.6801.7759-.7059 1.4468-1.5052 1.966-2.4269.5426-.951.8576-1.9661.9334-3.0512.0467-.6184-.0408-1.2309-.1925-1.8318-.105-.4142-.2625-.8109-.4667-1.231-.035.0875-.0583.1284-.07.1751-.0933.5367-.3442.9976-.6709 1.4234-.07.0992-.2042.1517-.2159.2917-.1225.1167-.2391.2275-.3617.3442-.3967.3617-.8109.7001-1.2951.9276.0117-.0642.0117-.1283.0292-.1925.1167-.4551.2217-.9159.2742-1.3826.0292-.3501.0467-.7001.0117-1.056-.0584-.6067-.2042-1.1843-.4668-1.7268-.455-.9568-1.1726-1.6802-2.0477-2.2461-.1575-.105-.3033-.245-.5133-.2566h.0058c-.0058-.0176-.0292-.0292-.0467-.0467Z"/>
  <path fill="#161F42" d="M25.0428 26.0983c-.0525.4667-.1575.9276-.2741 1.3826-.0175.0642-.0175.1283-.0292.1925-.0058.0058-.0058.0117-.0117.0175.0059-.0058.0059-.0117.0117-.0175.49-.2275.9042-.5659 1.2951-.9276.1225-.1108.2392-.2275.3617-.3442.175.6067.28 1.2135.2334 1.8552-.0584.7584-.2626 1.4701-.5951 2.141-.6067 1.2368-1.5168 2.2228-2.5786 3.0803-1.0734.8693-2.2694 1.5343-3.5645 2.0069-1.3126.4784-2.6661.7292-4.0662.6651-.7234-.0292-1.4351-.1692-2.1294-.3734-1.1434-.3325-2.2052-.8343-3.1911-1.5052-.14-.0933-.2684-.1925-.4025-.2917-.0467-.035-.0934-.0758-.15756-.0408.00583-.035-.00584-.0467-.04084-.0408h-.00583c-.00584-.1109-.05834-.1575-.16919-.1284l-.00583-.0058c.00583-.035-.00584-.0467-.04084-.0408h-.00583c.01167-.0525-.02334-.0642-.06417-.0642-1.3418-1.1668-2.43274-2.5378-3.32532-4.0721-1.10844-1.9018-1.80851-3.9495-2.12354-6.1314-.11084-.7817-.15752-1.5635-.16335-2.351.08751.0233.09334.105.11668.1691.6709 1.5577 1.49347 3.0278 2.59025 4.3288 1.72099 2.0418 3.83287 3.4536 6.48727 3.932 2.5961.4667 5.0463.0234 7.2924-1.3943 1.0851-.6825 1.9777-1.5693 2.4852-2.7711.6242-1.4643.3909-2.8294-.5659-4.0837-.07-.0933-.14-.1809-.2158-.2742.0817-.0817.1167.0117.1517.0467.2333.2392.4842.455.6884.7234.945 1.2601 1.2659 2.6544.9334 4.2004-.0759.3559-.21.7001-.3967 1.0851.6067-.2392 1.0384-.6067 1.4759-.9684Z"/>
  <path fill="#408AC9" d="M28.4147 5.75537c.9976.46671 1.9194 1.0501 2.8003 1.7035.8576.63589 1.6335 1.35346 2.3511 2.14104 1.4759 1.62179 2.6077 3.46529 3.372 5.53049.6592 1.7735 1.0092 3.6054 1.0559 5.4956.0408 1.5459-.1225 3.0628-.4959 4.5621-.0117.0583.0058.1633-.0875.1458-.0817-.0116-.035-.1108-.0408-.1692-.1167-1.7618-.5659-3.4303-1.3768-5.0054-.6359-1.231-1.4585-2.3219-2.4386-3.2904-.4025-.3967-.8517-.7467-1.2893-1.0967.1225.0116.245.0233.3675.0408 1.1202.14 2.2169.385 3.2612.8343.2917.1225.8634.3967.8634.3967s-.2567-.3676-.2917-.4143c-1.4585-1.6393-3.1561-2.9694-5.0988-3.9845-1.6277-.8517-3.337-1.4468-5.1513-1.7502-.3851-.0641-.7759-.105-1.1668-.1575.7234-.6125 1.3943-1.27177 1.9485-2.04768.6301-.90425 1.0909-1.88435 1.4176-2.93445Z"/>
  <path fill="#192144" d="M30.6024 34.7265c.0059-.1575.14-.2333.2217-.3384.8284-1.1259 1.371-2.3685 1.651-3.7336.1867-.9101.2217-1.8319.1633-2.7536-.0641-1.0618-.2975-2.0944-.6592-3.092-.3734-1.0209-.8692-1.9835-1.4993-2.8761-.7117-1.0151-1.5635-1.9077-2.5377-2.6778-1.1785-.9276-2.4853-1.6043-3.9146-2.0593-.7992-.2567-1.6218-.4259-2.4619-.5017-.1225-.0117-.245-.1109-.3675 0-.1984-.0817-.3442-.2451-.5134-.3618-.3967-.28-.8109-.5192-1.2893-.7525.7059-.0584 1.3651-.0525 2.0244-.0117 1.7793.1167 3.4886.5192 5.0755 1.336 3.5878 1.8435 5.828 4.7604 6.6506 8.7041.5542 2.6545.1808 5.1922-1.2601 7.5316-.3559.5776-.7759 1.1201-1.2835 1.5868Z"/>
  <path fill="#1A2345" d="M28.4151 5.75549c-.3267 1.0501-.7875 2.03019-1.4234 2.92861-.5484.77591-1.2251 1.4351-1.9485 2.0477-.4026.2684-.8051.5484-1.2135.8109-.7584.4784-1.5693.8576-2.3977 1.1901-.0292.0117-.0642.0175-.0992.0292-.0233-.0525.0058-.0758.0292-.0992.5834-.5542.9509-1.2368 1.1901-1.9952.035-.1108.0817-.1692.1867-.21 1.7793-.70589 3.1969-1.87851 4.3521-3.38365.1108-.14001.2216-.27419.3091-.44338.0059-.01166.0117-.04667.0117-.04667s-.0233.01167-.0408.01167c-.3734.11084-.7468.22169-1.161.3442 1.3185-1.50514 2.2169-3.18531 2.7245-5.06965-.0059.7759-.0642 1.54598-.1867 2.31022-.07.53088-.2159 1.0501-.3326 1.57515Z"/>
  <path fill="#192144" d="M21.5541 17.9364c.2042.28.4142.5542.6125.8401.105.1517.1984.3209.2917.4842.0175.035.0584.0759.0234.1167s-.0817.0058-.1225-.0058c-.8868-.3267-1.7852-.6068-2.707-.811-.7175-.1633-1.4468-.2858-2.1818-.3442-.5076-.0408-1.0093-.0991-1.5169-.0816-1.651.0583-3.2553.3383-4.7721 1.0034-.3383.1517-.665.3267-1.0034.4842-.07.035-.1342.0934-.2217.07.8809-.6534 1.8493-1.1376 2.8761-1.511 1.686-.6125 3.4362-.8284 5.2213-.7525 1.1143.0466 2.2111.1983 3.2962.4433.07.0176.1342.0409.2042.0642Z"/>
  <path fill="#1D2648" d="M19.4538 11.0058c.2801-.1342.5601-.2683.8343-.4142.21-.1108.4025-.2508.6067-.4317-.0408.2859-.1342.5134-.2275.7468-.5367 1.3126-1.546 1.9835-2.9286 2.1468-.3034.035-.6067.0642-.9159.035.2683-.0816.5425-.1517.805-.2508.8926-.3267 1.5635-.8751 1.826-1.8319Z"/>
  <path fill="#408AC9" d="M19.4539 11.0061c-.2626.9568-.9335 1.5051-1.8202 1.8318-.2625.0992-.5367.1692-.8051.2509-.1167-.3267.0059-.6067.2042-.8517.1809-.2276.42-.3967.6826-.5251.5542-.2859 1.1434-.4959 1.7385-.7059Zm-7.9575 5.6877c.0117.0292-.0175.1984-.0291.2217-.0234.0584-.0525.1167-.0992.1692.0233-.1108 0-.2333-.0817-.3092-.0525-.0467-.1167-.0758-.1867-.0817-.0758-.0116-.1575 0-.2333.0234-.3267.0816-.5951.315-.7993.5775-.0058.0059-.0116.0117-.0175.0175-.0291.0059 0-.245.0059-.28.0116-.0758.1108-.1167.14-.175.1108-.1809.2042-.21.3675-.3442.1575-.1284.315-.2567.5367-.2684.2567-.0175.3617.0817.3676.3384 0 .0933-.0117.0175.0291.1108Z"/>
  <path fill="#1D2648" d="M11.4615 16.933c.0292-.2917.0233-.7118-.3675-.6884-.2159.0116-.3792.14-.5368.2683-.1633.1342-.2916.2684-.4025.4492-.035.0525-.1283.2159-.1283.1692.0408-.4959.6009-1.1434 1.0734-1.2426.2509-.0525.4434.0817.4784.3384.0408.245-.035.4783-.1167.7059Z"/>
  <path fill="#262F71" d="M9.729 33.7753c.11085-.0291.16335.0175.16919.1284-.07001-.0233-.12251-.07-.16919-.1284Z"/>
  <path fill="#192144" d="M9.95689 19.687c-.00587.0528-.04107.0587-.08213.0645.02933-.0234.05866-.041.08213-.0645Zm-.07594.0581c-.02347.0176-.04694.0352-.0704.0528.00586-.041.04107-.041.0704-.0528Z"/>
  <path fill="#262F71" d="M9.62378 33.6589c.04107.0059.07627.0118.06453.0646-.02346-.0176-.04693-.0411-.06453-.0646Z"/>
  <path fill="#192144" d="M30.5498 34.785c.0176-.0235.0411-.0411.0587-.0645-.0059.0293-.0294.0528-.0587.0645ZM9.79327 19.8093c-.0176.0118-.02933.0235-.04693.0352.0176-.0176.0352-.0293.04693-.0352Z"/>
  <path fill="#1A2345" d="M21.2683 12.762c.0059.0058.0118.0117.0118.0176-.0059.0058-.0118.0117-.0176.0117-.0059 0-.0118-.0059-.0176-.0117.0117-.0118.0176-.0176.0234-.0176Z"/>
  <path fill="#262F71" d="M9.68823 33.729c.0352-.0059.04694.0058.04107.041-.0176-.0117-.02933-.0234-.04107-.041Zm.21582.1748c.0352-.0059.04694.0059.04107.0411-.01173-.0118-.02347-.0235-.04107-.0411Z"/>
  <path fill="#101F64" d="M25.0427 26.098c-.4375.3617-.8692.7292-1.4643.9859.1867-.385.3209-.7292.3967-1.0851.3384-1.5401.0117-2.9403-.9334-4.2004-.2042-.2683-.4609-.4842-.6884-.7234-.035-.0408-.0759-.1283-.1517-.0466-.0758-.0584-.1517-.1167-.1808-.2159.21.0117.3558.1575.5133.2567.881.5659 1.5985 1.2893 2.0477 2.246.2567.5426.4084 1.1201.4667 1.7269.0409.3558.0234.7-.0058 1.0559Z"/>
  <path fill="#0E1F65" d="M21.9685 20.76c.0176.0176.0411.0293.0587.0469-.0176-.0176-.0411-.0293-.0587-.0469Z"/>
  <path fill="#101F64" d="M15.8254 36.1618c1.4002.0642 2.7536-.1867 4.0663-.6651 1.2951-.4725 2.491-1.1376 3.5645-2.0068 1.0617-.8576 1.9718-1.8435 2.5785-3.0803.3326-.6709.5368-1.3826.5951-2.141.0467-.6418-.0525-1.2485-.2333-1.8552.0116-.14.1458-.1984.2158-.2917.3209-.4317.5776-.8868.6709-1.4235.0058-.0467.035-.0875.07-.175.2042.42.3617.8167.4667 1.2309.1517.6009.2392 1.2135.1925 1.8319-.0816 1.0851-.3967 2.1002-.9334 3.0511-.525.9218-1.1901 1.721-1.966 2.4269-.7234.6592-1.5285 1.2193-2.3977 1.6802-.986.525-2.0186.9217-3.1037 1.1784-.6884.1634-1.3884.2509-2.1002.3034-.5192.0408-1.0267.0175-1.5401-.0117-.0584-.0175-.1109-.0117-.1459-.0525Z"/>
  <path fill="#262F71" d="M24.7397 27.668c-.006.0059-.006.0118-.0119.0178.0059 0 .0059-.006.0119-.0178 0 .0059 0 0 0 0Z"/>
  <path fill="#1D2648" d="M36.4715 16.7987s-.0642-.0583-.1167-.0992c-1.2543-.9917-2.5961-1.861-4.0312-2.5669-.07-.035-.14-.0933-.245-.0933.1866.3209.3675.6301.5775.9976-.1283-.0584-.1925-.0817-.2509-.1167-.7409-.3909-1.5168-.6826-2.316-.9217-1.0034-.2976-2.0302-.4901-3.0745-.5426-.1925-.0117-.385-.0233-.595-.035.245.0642.5775.1225.7934.1575 1.3534.2567 2.6194.7351 3.8212 1.406.4259.2392.8109.5309 1.2309.7759.1225.0117.2451.0233.3676.0408 1.1201.14 2.2168.3851 3.2611.8343.2917.1225.5776.2683.8634.3967h.0059l-.2917-.2334Z"/>
</svg>
