<svg xmlns="http://www.w3.org/2000/svg" fill="none" viewBox="0 0 42 42">
  <circle cx="21" cy="21" r="20" fill="#384182"/>
  <path fill="#F3F3F3" d="m19.401 30.3419-7.881 5.6584 5.0031-23.0231 2.8779 17.3647Zm.1594-.0531 4.7994.062-7.6507-17.285 2.8513 17.223Zm5.251-.3808 3.6748-13.619-1.3902-1.7001-2.2846 15.3191Zm-1.771-21.34941-6.048 4.07331 8.8373-2.86017-2.7893-1.21314Zm-.7615 0-3.7546.12397-.549 1.56734 4.3036-1.69131Zm4.5515 5.50811-9.6785-1.3283 8.7221-2.74501.9564 4.07331Zm-2.2935-5.1182.5313-1.44337-2.7893-1.21314 2.258 2.65651Zm.8058-1.58505.6287 2.26688 3.7192-.9829-4.3479-1.28398Zm-.7708 22.89925-7.757-17.3558 10.1125 1.4168-2.3555 15.939ZM22.7478 8.5591l-4.7817 1.8684-1.1512 2.1252 5.9329-3.9936Zm-2.9664-1.4168-1.1955 1.31939 3.9671-.0974-2.7716-1.22199Zm2.0898-1.02718-1.895.87664 4.3212 1.90383-2.4262-2.78047ZM24.0318 6h-2.0367l3.1524 1.22199L24.0318 6Zm1.1777 1.62047-.487 1.45222.974.46932-.487-1.92154Z"/>
</svg>
