<svg xmlns="http://www.w3.org/2000/svg" fill="none" viewBox="0 0 42 42">
  <path fill="#FF9931" d="M20.995 42C9.38026 42 0 32.5942 0 21 0 9.40576 9.40354 0 20.995 0c11.5915 0 20.9951 9.40576 20.9951 21-.0233 11.5942-9.4036 21-20.9951 21Z"/>
  <path fill="#006E3C" d="M39.4298 9.32517c-1.2248-.53731-2.5356-.8597-3.8678-.92418-1.1603-.06448-2.2992.17194-3.3306.70926-.1934.10746-.3868.21492-.5587.34388-1.5471 1.07467-2.3926 2.79407-2.7793 4.10507l-.1998.7408.6155-.4 2.7074-1.4c.5157-.2794 1.1818-.1873 1.4612.3285l.0215.0215c.0215.043.0215.0645.0429.1074l6.2744-3.48178c-.0644-.02149-.3223-.12895-.3867-.15045Z"/>
  <path fill="#06B23C" d="M38.4408 13.5162c-3.1158 5.1368-8.6381 2.5791-8.6381 2.5791l1.9984-1.0746c.1719-.1075 1.2463-.6663 1.2463-.6663.5157-.2794.7091-.9242.4512-1.4615l6.3174-3.41731c-.1505 1.44001-.6232 2.81551-1.3752 4.04061Z"/>
  <path fill="#fff" d="M41.506 7.8637c-.2793-.17194-2.7933-1.59046-5.8661-1.71941-1.5471-.08597-3.0727.25791-4.4479.98866-.4298.23642-.8165.49433-1.2033.79523-2.7719 2.21372-3.481 5.80302-3.6744 7.37202l-.0215.1289-.1074.0645-.8166.4299c-.795-.7523-1.7619-1.3111-2.8148-1.612l-.1504-.043.8165-3.2239-1.9339-.4943-.8165 3.2024-1.4612-.3869.7951-3.2024-1.9339-.49431-.7951 3.18091c-2.3421-.6018-3.8463-.9887-3.8463-.9887s-.3223 1.612-.4727 1.9989c0 0 .3868.0859.8166.2149.2793.086 1.6545.2364 1.2033 1.9343-.2579.9672-1.762 7.3935-1.891 7.8234-.1289.5158-.2578.7952-.9024.6663l-1.5471-.3439-.96698 2.2997c.3438.1289 1.56858.4083 3.86778.9887l-.8165 3.1809 1.9338.4943.7951-3.1809 1.4611.3869-.795 3.1809L17.8482 32l.8165-3.2239c2.2347.4084 3.524.2794 3.8463.2364 1.8694-.3439 2.6645-1.7839 3.0083-3.1594.9669-3.8687-2.2133-4.2126-1.805-4.2985 1.7835-.3654 2.643-2.0633 2.5355-3.5893l.9025-.4944.1075-.0644.1074.0644c1.6116.8597 3.3736 1.3541 5.1785 1.4615 1.2893.0645 2.5785-.1934 3.7603-.7092.1719-.0645.3224-.1505.4728-.2364 4.5339-2.4502 5.1355-8.40368 5.1785-9.06996l.043-.68776-.4943-.36538ZM21.7374 25.0364c-.5371 2.1063-4.1041 1.0531-4.1041 1.0531l-1.6975-.4298 1.0529-4.2341 2.0198.5158c.0215 0 3.3306.7308 2.7289 3.095Zm.6447-6.2974c-.4942 1.9344-3.4595 1.0317-3.4595 1.0317l-1.4182-.3654.9669-3.8687 1.6975.4298c0 .0215 2.7719.6018 2.2133 2.7726Zm17.362-9.0914v.02149c-.3224 1.76241-1.2463 4.92181-3.8893 6.34031l-.0645.043c-.9454.4729-2.0198.7093-3.0727.6448-.795-.043-1.5901-.1719-2.3421-.4299l-.5587-.1719.5157-.2794 2.7504-1.4615c.2579-.129.4512-.3654.5372-.6448.0215-.086.043-.1934.043-.2794 0-.1504-.0215-.3224-.086-.4513-.0215-.043-.0215-.0645-.043-.1075l-.0214-.0215c-.2794-.5158-.9455-.7093-1.4612-.4298l-2.7074 1.4615-.5802.2364.1719-.5588c.3868-1.3111 1.1818-3.009 2.7289-4.10514.1719-.12895.3653-.23642.5587-.34388 1.0314-.53732 2.1702-.77374 3.3306-.70926 1.3322.06448 2.643.38687 3.8677.92419.0645.02149.129.04298.1719.08597l.1719.08597-.0214.15045Z"/>
</svg>
