<svg xmlns="http://www.w3.org/2000/svg" fill="none" viewBox="0 0 36 36">
  <path fill="url(#a)" d="M17.9991 35.9982c9.9406 0 17.9991-8.0585 17.9991-17.9991C35.9982 8.0585 27.9397 0 17.9991 0 8.0585 0 0 8.0585 0 17.9991c0 9.9406 8.0585 17.9991 17.9991 17.9991Z"/>
  <mask id="c" width="36" height="36" x="0" y="0" maskUnits="userSpaceOnUse" style="mask-type:alpha">
    <path fill="url(#b)" d="M17.9991 35.9982c9.9406 0 17.9991-8.0585 17.9991-17.9991C35.9982 8.0585 27.9397 0 17.9991 0 8.0585 0 0 8.0585 0 17.9991c0 9.9406 8.0585 17.9991 17.9991 17.9991Z"/>
  </mask>
  <g mask="url(#c)">
    <path fill="url(#d)" d="M-.598633 9.8977c0-.3976.322339-.71997.719964-.71997H9.96084c.39756 0 .71996.32237.71996.71997v16.7392c0 .3976-.3224.7199-.71996.7199H.121331c-.397625 0-.719964-.3223-.719964-.7199V9.8977Z" opacity=".2"/>
    <path fill="#E74310" d="M21.7197 24.4172c0-.3976.3224-.7199.72-.7199h12.8394c.3976 0 .7199.3223.7199.7199v6.2397c0 .3976-.3223.72-.7199.72H22.4397c-.3976 0-.72-.3224-.72-.72v-6.2397Z" opacity=".2"/>
    <path fill="#DF3600" d="M30.0598 26.3398c.3976 0 .72.3224.72.72v12.1194c0 .3976-.3224.72-.72.72h-4.7397c-.3976 0-.72-.3224-.72-.72V27.0598c0-.3976.3224-.72.72-.72h4.7397Z" opacity=".2"/>
    <path fill="url(#e)" d="M14.58 11.6973c.3976 0 .7199.3223.7199.7199v9.6595c0 .3976-.3223.72-.7199.72H9.24023c-.3976 0-.71997-.3224-.71997-.72v-9.6595c0-.3976.32237-.7199.71997-.7199H14.58Z" opacity=".1"/>
    <path fill="url(#f)" d="M3.42065 14.5793c0-.3976.32234-.7199.71997-.7199h8.75958c.3976 0 .7199.3223.7199.7199v9.1796c0 .3976-.3223.7199-.7199.7199H4.14062c-.39763 0-.71997-.3223-.71997-.7199v-9.1796Z" opacity=".1"/>
    <path fill="#FF9776" d="M35.999 4.91797c.3976 0 .72.32234.72.71996V17.7573c0 .3976-.3224.72-.72.72H24.8396c-.3976 0-.72-.3224-.72-.72V5.63793c0-.39762.3224-.71996.72-.71996H35.999Z" opacity=".2"/>
    <path fill="#FFCA8C" d="M29.2184-3.12109c.3976 0 .72.32234.72.71996V10.9182c0 .3976-.3224.72-.72.72h-6.2396c-.3976 0-.72-.3224-.72-.72V-2.40113c0-.39762.3224-.71996.72-.71996h6.2396Z" opacity=".2"/>
    <path fill="url(#g)" d="M32.4578-.720703c.3976 0 .7199.322339.7199.71996464V14.8185c0 .3976-.3223.72-.7199.72H18.8984c-.3976 0-.7199-.3224-.7199-.72V-.0007386c0-.3976254.3223-.7199644.7199-.7199644h13.5594Z" opacity=".2"/>
    <path fill="#DF3600" d="M12.7192-4.91992c.3976 0 .72.32234.72.71996v9.95951c0 .3976-.3224.71996-.72.71996H7.97949c-.3976 0-.71997-.32236-.71997-.71996v-9.95951c0-.39762.32237-.71996.71997-.71996h4.73971Zm.5397 30.89842c.3976 0 .7199.3224.7199.72v8.5796c0 .3976-.3223.7199-.7199.7199H1.19946c-.397628 0-.719968-.3223-.719968-.7199l.000001-8.5796c0-.3976.322339-.72.719967-.72H13.2589Z" opacity=".1"/>
    <path fill="#FFD494" d="M23.8786 21.1777c.3976 0 .72.3224.72.72V35.277c0 .3976-.3224.72-.72.72H10.0793c-.39756 0-.71992-.3224-.71992-.72V21.8977c0-.3976.32236-.72.71992-.72h13.7993Z" opacity=".1"/>
    <path fill="#FFD494" d="M19.3204 6.3e-7c.3976 2e-8 .72.32233837.72.71996337V4.19979c0 .39762-.3224.71996-.72.71996H4.92114c-.39763 0-.71997-.32234-.71997-.71996V.719964C4.20117.322339 4.52351-2e-8 4.92114 0L19.3204 6.3e-7Z" opacity=".2"/>
    <path fill="#DF3600" d="M7.96528 35.6487 34.9285 8.68555l-.9248-.92474L7.04055 34.724l.92473.9247Zm-2.0227-1.9648L32.9058 6.7207l-1.204-1.20398L4.7386 32.4799l1.20398 1.204Z" opacity=".1"/>
    <path fill="#F45C2C" d="M4.80366 32.428 31.7668 5.46484l-1.2039-1.20398L3.59968 31.224l1.20398 1.204Z" opacity=".1"/>
    <path fill="#F45C2C" d="M3.72334 31.1058 30.6865 4.14258l-.9909-.99091L2.73244 30.1149l.9909.9909Z" opacity=".2"/>
    <path fill="#FFBC6E" d="M2.73189 30.1155 29.6951 3.15234l-.9909-.9909L1.74098 29.1246l.99091.9909Z" opacity=".1"/>
    <path fill="#DF3600" d="M2.071 28.7933 29.0342 1.83008l-.9909-.990906L1.08009 27.8024l.99091.9909Z" opacity=".1"/>
    <path fill="#FFD5A4" d="M-1.10886 20.874 20.1519-.386719l-.9909-.990901L-2.09977 19.8831l.99091.9909Z" opacity=".09"/>
    <path fill="#FFD5A4" d="M-2.24778 19.6709 19.0129-1.58984l-.9909-.99091L-3.23868 18.68l.9909.9909Z" opacity=".08"/>
    <path fill="#FFD5A4" d="M-3.26975 18.292 17.991-2.96875l-.9909-.9909L-4.26066 17.3011l.99091.9909Z" opacity=".05"/>
    <path fill="#FFD5A4" d="M.570368 23.7634 25.2634-.929688l-.9909-.990902L-.420536 22.7725l.990904.9909Zm.660642 1.5586L25.9241.628906l-.9909-.990904L.240108 24.3311l.990902.9909Z" opacity=".2"/>
    <path fill="#FFD5A4" d="M.150772 21.9549 22.0667.0390625l-.991-.9909045L-.840132 20.964l.990904.9909Z" opacity=".1"/>
    <path fill="#DF3600" d="M7.92525 35.6663 34.8884 8.70312l-1.9769-1.9769L5.94835 33.6894l1.9769 1.9769Z" opacity=".1"/>
    <path fill="#DF3600" d="M7.92525 35.6663 34.8884 8.70312l-1.9869-1.98697L5.93828 33.6793l1.98697 1.987Z" opacity=".1"/>
  </g>
  <path fill="#fff" d="m17.9732 21.8818-6.848-4.051 6.848-11.3601 6.8419 11.3601-6.8419 4.051Z"/>
  <path fill="#fff" d="m17.9732 28.7817-6.848-9.645 6.848 4.0449 6.8481-4.0449-6.8481 9.645Z"/>
  <defs>
    <linearGradient id="d" x1="5.04109" x2="5.04109" y1="9.17773" y2="27.3568" gradientUnits="userSpaceOnUse">
      <stop stop-color="#FFE090"/>
      <stop offset="1" stop-color="#FFE090" stop-opacity="0"/>
    </linearGradient>
    <linearGradient id="e" x1="11.8801" x2="11.8801" y1="11.6973" y2="21.9568" gradientUnits="userSpaceOnUse">
      <stop stop-color="#DF3600"/>
      <stop offset="1" stop-color="#DF3600" stop-opacity="0"/>
    </linearGradient>
    <linearGradient id="f" x1="3.42065" x2="12.8483" y1="19.2161" y2="19.2161" gradientUnits="userSpaceOnUse">
      <stop stop-color="#DF3600"/>
      <stop offset="1" stop-color="#DF3600" stop-opacity="0"/>
    </linearGradient>
    <linearGradient id="g" x1="25.6781" x2="25.6781" y1="-.720703" y2="15.5385" gradientUnits="userSpaceOnUse">
      <stop stop-color="#DF3600"/>
      <stop offset="1" stop-color="#DF3600" stop-opacity="0"/>
    </linearGradient>
    <radialGradient id="a" cx="0" cy="0" r="1" gradientTransform="rotate(54.167 -2.53847405 15.80276642) scale(29.8234)" gradientUnits="userSpaceOnUse">
      <stop stop-color="#FFD794"/>
      <stop offset="1" stop-color="#ED5A37"/>
    </radialGradient>
    <radialGradient id="b" cx="0" cy="0" r="1" gradientTransform="rotate(54.167 -2.53847405 15.80276642) scale(29.8234)" gradientUnits="userSpaceOnUse">
      <stop stop-color="#FFD794"/>
      <stop offset="1" stop-color="#ED5A37"/>
    </radialGradient>
  </defs>
</svg>
