<svg xmlns="http://www.w3.org/2000/svg" fill="none" viewBox="0 0 42 42">
  <path fill="#149DD9" d="M0 20.9996C0 9.40184 9.40223 0 21 0c11.5978 0 21 9.40184 21 20.9996 0 11.5978-9.4022 20.9996-21 20.9996-11.59777 0-21-9.4018-21-20.9996Z"/>
  <path fill="#F3F3F3" d="M12.1031 15.8348h7.5911c.022-.0016.0427-.0111.0584-.0267.0156-.0157.0251-.0364.0267-.0584V13.295c-.0016-.022-.0111-.0427-.0267-.0584-.0157-.0156-.0364-.0251-.0584-.0267h-7.5911c-.022.0016-.0427.0111-.0583.0267-.0156.0157-.0251.0364-.0268.0584v2.4547c-.0004.0113.0016.0225.0057.033.0041.0105.0104.0201.0184.0281s.0175.0142.028.0183c.0105.0042.0218.0061.033.0057Zm5.1364-4.4978h2.4547c.022-.0017.0427-.0112.0584-.0268.0156-.0156.0251-.0363.0267-.0584V8.79714c-.0016-.02203-.0111-.04275-.0267-.05837-.0157-.01562-.0364-.02512-.0584-.02676h-2.4547c-.022.00164-.0427.01114-.0584.02676-.0156.01562-.0251.03634-.0267.05837v2.45466c.0016.0221.0111.0428.0267.0584.0157.0156.0364.0251.0584.0268ZM6.73976 22.2198H4.28508c-.02203.0017-.04275.0111-.05837.0268-.01562.0156-.02512.0363-.02676.0583v2.4547c.00164.0221.01114.0428.02676.0584.01562.0156.03634.0251.05837.0268h2.45468c.02203-.0017.04275-.0112.05837-.0268.01563-.0156.02512-.0363.02676-.0584v-2.4547c-.00164-.022-.01113-.0427-.02676-.0583-.01562-.0157-.03634-.0251-.05837-.0268Zm9.00994 0H13.295c-.022.0017-.0427.0111-.0584.0268-.0156.0156-.0251.0363-.0267.0583v7.5911c.0016.022.0111.0427.0267.0584.0157.0156.0364.0251.0584.0267h2.4547c.022-.0016.0427-.0111.0584-.0267.0156-.0157.0251-.0364.0267-.0584v-7.5911c-.0016-.022-.0111-.0427-.0267-.0583-.0157-.0157-.0364-.0251-.0584-.0268Zm15.0118-2.4547h2.4547c.022-.0016.0427-.0111.0584-.0267.0156-.0156.0251-.0364.0267-.0584v-2.4547c-.0016-.022-.0111-.0427-.0267-.0583-.0157-.0157-.0364-.0252-.0584-.0268h-2.4547c-.022.0016-.0427.0111-.0584.0268-.0156.0156-.0251.0363-.0267.0583V19.68c-.0017.0116-.0006.0234.0031.0345.0036.011.0099.0211.0181.0294.0083.0082.0184.0145.0295.0182.011.0036.0228.0047.0344.003Zm-4.5121 0h2.4547c.0221-.0016.0428-.0111.0584-.0267.0156-.0156.0251-.0364.0268-.0584v-7.591c-.0017-.0221-.0112-.0428-.0268-.0584-.0156-.0156-.0363-.0251-.0584-.0268h-2.4547c-.022.0017-.0427.0112-.0583.0268-.0157.0156-.0251.0363-.0268.0584v7.591c-.0004.0113.0015.0225.0057.033.0041.0106.0104.0201.0184.0281s.0175.0142.028.0184c.0105.0041.0218.006.033.0056ZM17.2395 6.82489h2.4547c.022-.00164.0427-.01113.0584-.02676.0156-.01562.0251-.03634.0267-.05837V4.28508c-.0016-.02203-.0111-.04275-.0267-.05837-.0157-.01562-.0364-.02512-.0584-.02676h-2.4547c-.022.00164-.0427.01114-.0584.02676-.0156.01562-.0251.03634-.0267.05837v2.45468c-.0004.01128.0015.02253.0057.03304.0041.01051.0104.02005.0183.02804.008.00798.0176.01424.0281.01838.0105.00414.0217.00607.033.00567ZM11.2518 22.2198H8.79714c-.02203.0017-.04275.0111-.05837.0268-.01562.0156-.02512.0363-.02676.0583v2.4547c.00164.0221.01114.0428.02676.0584.01562.0156.03634.0251.05837.0268h2.45466c.0221-.0017.0428-.0112.0584-.0268.0156-.0156.0251-.0363.0268-.0584v-2.4547c-.0038-.0212-.014-.0407-.0292-.0559-.0152-.0153-.0348-.0254-.056-.0292Zm18.6584 3.9445h-7.5911c-.022.0017-.0427.0112-.0583.0268-.0157.0156-.0252.0363-.0268.0584v2.4546c.0016.0221.0111.0428.0268.0584.0156.0156.0363.0251.0583.0268h7.5911c.022-.0017.0427-.0112.0583-.0268.0157-.0156.0252-.0363.0268-.0584v-2.4546c-.0013-.0222-.0107-.0431-.0264-.0588-.0157-.0156-.0366-.025-.0587-.0264Zm5.1789-4.4695H24.334c-.0221.0017-.0428.0112-.0584.0268-.0156.0156-.0251.0363-.0268.0584v2.3837c.0017.022.0112.0427.0268.0584.0156.0156.0363.0251.0584.0267h10.7551c.022-.0016.0428-.0111.0584-.0267.0156-.0157.0251-.0364.0267-.0584V21.78c.0004-.0113-.0015-.0226-.0056-.0331-.0042-.0105-.0104-.02-.0184-.028s-.0175-.0143-.028-.0184c-.0106-.0041-.0218-.0061-.0331-.0057Zm-10.3295 8.9674h-2.4547c-.022.0016-.0427.0111-.0583.0267-.0157.0157-.0252.0364-.0268.0584v2.4547c.0016.022.0111.0427.0268.0584.0156.0156.0363.0251.0583.0267h2.4547c.0221-.0016.0428-.0111.0584-.0267.0156-.0157.0251-.0364.0267-.0584v-2.4547c.0004-.0113-.0015-.0225-.0056-.033-.0042-.0105-.0104-.0201-.0184-.0281-.008-.0079-.0175-.0142-.028-.0183-.0105-.0042-.0218-.0061-.0331-.0057Zm-7.0093-12.8267c-.0016-.0221-.0111-.0428-.0267-.0584-.0157-.0156-.0364-.0251-.0584-.0268H6.91002c-.02203.0017-.04275.0112-.05837.0268-.01562.0156-.02512.0363-.02676.0584v2.3837c.00164.022.01114.0427.02676.0584.01562.0156.03634.0251.05837.0267H17.6652c.022-.0016.0427-.0111.0584-.0267.0156-.0157.0251-.0364.0267-.0584v-2.3837Zm19.9638-.6811h-2.4547c-.0221.0016-.0428.0111-.0584.0267-.0156.0157-.0251.0364-.0268.0584v2.4547c.0017.022.0112.0427.0268.0584.0156.0156.0363.0251.0584.0267h2.4547c.022-.0016.0427-.0111.0583-.0267.0156-.0157.0251-.0364.0268-.0584v-2.4547c.0016-.0115.0006-.0233-.0031-.0344-.0037-.0111-.0099-.0212-.0182-.0295-.0082-.0082-.0183-.0144-.0294-.0181-.0111-.0037-.0229-.0048-.0344-.0031Zm-17.4949 7.0944h-2.3837c-.0221.0017-.0428.0112-.0584.0268-.0156.0156-.0251.0363-.0268.0584v10.7551c.0017.022.0112.0428.0268.0584.0156.0156.0363.0251.0584.0267h2.3837c.022-.0016.0427-.0111.0584-.0267.0156-.0156.0251-.0364.0267-.0584V24.334c-.0016-.0221-.0111-.0428-.0267-.0584-.0157-.0156-.0364-.0251-.0584-.0268Zm4.0296-6.5694V6.91002c-.0016-.02203-.0111-.04275-.0267-.05837-.0157-.01562-.0364-.02512-.0584-.02676H21.78c-.0221.00164-.0428.01114-.0584.02676-.0156.01562-.0251.03634-.0268.05837V17.6794c.0017.022.0112.0427.0268.0583.0156.0157.0363.0252.0584.0268h2.3837c.022-.0016.0427-.0111.0584-.0268.0156-.0156.0251-.0363.0267-.0583Zm.5108 17.4948h-2.4547c-.022.0017-.0427.0112-.0583.0268-.0157.0156-.0252.0363-.0268.0584v2.4547c.0016.022.0111.0427.0268.0583.0156.0157.0363.0252.0583.0268h2.4547c.0221-.0016.0428-.0111.0584-.0268.0156-.0156.0251-.0363.0267-.0583v-2.4547c.0017-.0116.0007-.0234-.003-.0345-.0037-.0111-.0099-.0211-.0182-.0294-.0083-.0083-.0183-.0145-.0294-.0182-.0111-.0037-.0229-.0047-.0345-.0031Z"/>
</svg>
