<svg xmlns="http://www.w3.org/2000/svg" fill="none" viewBox="0 0 42 42">
  <rect width="42" height="42" fill="#CF1011" rx="21"/>
  <path fill="#F3F3F3" fill-rule="evenodd" d="M20.995 15.4785c3.0408 0 5.5219 2.4625 5.5219 5.5219 0 3.0408-2.4624 5.5219-5.5219 5.5219-3.0407 0-5.5219-2.4625-5.5219-5.5219 0-3.0408 2.4625-5.5219 5.5219-5.5219Z" clip-rule="evenodd"/>
  <path fill="#F3F3F3" fill-rule="evenodd" d="M21.1213 6.56553c1.7349.01866 3.4511.35445 5.0555.97006 1.6043.61562 3.0967 1.51106 4.4026 2.66771l.0373.0373c2.9661 2.649 4.5891 6.2307 4.7943 9.9058.2239 3.6937-.9701 7.462-3.6004 10.4468l-.0373.0373c-2.649 2.9661-6.2308 4.5891-9.9058 4.7943-3.6937.2239-7.462-.97-10.4468-3.6004-2.98485-2.649-4.62649-6.2494-4.8317-9.9431-.22386-3.6937.97006-7.462 3.6004-10.4468l1.2499 1.1006c-2.33187 2.6304-3.37655 5.9696-3.19 9.2343.2052 3.2646 1.64164 6.4546 4.272 8.7865 2.6304 2.3319 5.9696 3.3765 9.2342 3.19 3.2647-.2052 6.4547-1.6417 8.7865-4.272l.0374-.0373c2.3132-2.6304 3.3579-5.951 3.1526-9.1969-.2052-3.2647-1.6416-6.4547-4.2719-8.7866l-.0374-.0373c-1.1379-1.0073-2.4438-1.79085-3.8429-2.33184-1.4178-.541-2.9288-.83948-4.4585-.85813l.0186-1.67895-.0186.01865Z" clip-rule="evenodd"/>
  <path fill="#F3F3F3" d="M12.7861 6.66016c1.0073 0 1.9028.41041 2.5557 1.06333.6529.65293 1.0633 1.56702 1.0633 2.55571 0 1.0074-.4104 1.9028-1.0633 2.5558-.6529.6529-1.567 1.0633-2.5557 1.0633-1.0074 0-1.9028-.4104-2.5558-1.0633-.6529-.653-1.06331-1.5671-1.06331-2.5558 0-1.00734.41041-1.90278 1.06331-2.55571.653-.65292 1.567-1.06333 2.5558-1.06333Zm1.3804 2.25725c-.3544-.35444-.8394-.5783-1.3804-.5783s-1.0261.22386-1.3805.5783c-.3545.35445-.5783.83948-.5783 1.38049 0 .541.2238 1.026.5783 1.3805.3544.3544.8395.5783 1.3805.5783s1.026-.2239 1.3804-.5783c.3545-.3545.5783-.8395.5783-1.3805 0-.54101-.2238-1.02604-.5783-1.38049Z"/>
</svg>
