<svg xmlns="http://www.w3.org/2000/svg" fill="none" viewBox="0 0 42 42">
  <path fill="#0293F6" d="M21 41c11.0457 0 20-8.9543 20-20S32.0457 1 21 1 1 9.9543 1 21s8.9543 20 20 20Z"/>
  <mask id="a" width="28" height="28" x="7" y="7" maskUnits="userSpaceOnUse" style="mask-type:luminance">
    <path fill="#fff" d="M35 7H7v28h28V7Z"/>
  </mask>
  <g mask="url(#a)">
    <path fill="#F3F3F3" fill-rule="evenodd" d="M32.1562 12.5563c-2.1218-2.71255-5.2281-4.44067-8.6625-4.44067-6.6499 0-11.5281 6.19067-11.5281 12.88437 0 4.6594 3.1063 8.1594 6.5406 8.1594.3282 0 .6344-.0219.9626-.0875C17.15 27.3875 15.6844 24.325 15.6844 21c0-5.2937 3.5875-9.4281 7.8093-9.4281 4.6157 0 7.8094 4.5719 7.8094 9.4281-.0219 3.5875-1.2906 7.1531-3.5437 9.7781-1.9688 2.2969-4.5063 3.7407-7.3063 4.2 0 0 .2407.0219.5469.0219 7.7219 0 14-6.2781 14-14 0-3.1719-1.05-6.1031-2.8438-8.4437ZM30.0344 21c0-4.6594-3.1063-8.1594-6.5407-8.1594-.3281 0-.6343.0219-.9625.0875C24.85 14.6125 26.3156 17.675 26.3156 21c0 5.2938-3.5875 9.4281-7.8094 9.4281-4.6156 0-7.8093-4.5718-7.8093-9.4281.0219-3.5875 1.2906-7.1531 3.5437-9.7781 1.9688-2.2969 4.5063-3.74065 7.3063-4.20003 0 0-.2407-.02187-.5469-.02187-7.7219 0-14 6.2781-14 14 0 3.1719 1.05 6.1031 2.84375 8.4438 2.12185 2.7124 5.22815 4.4187 8.66245 4.4187 6.65.0219 11.5282-6.1687 11.5282-12.8625Z" clip-rule="evenodd"/>
  </g>
</svg>
