<svg xmlns="http://www.w3.org/2000/svg" fill="none" viewBox="0 0 42 42">
  <rect width="40" height="40" x="1" y="1" fill="#FF916A" rx="20"/>
  <path stroke="#F3F3F3" stroke-linecap="round" stroke-linejoin="round" d="m5.625 35.535 6.3-6.5545m-5.4001 7.9579 8.55-8.8954M7.875 37.8749l6.3-6.5546"/>
  <path fill="#F3F3F3" fill-rule="evenodd" d="M30.3727 13.2791c-.0012-.0549-.0032-.1099-.0051-.165l-.0001-.0022c-.0005-.0139-.001-.0277-.0014-.0415-.0017-.0485-.0033-.0969-.0058-.1456-.0062-.1255-.014-.2516-.0242-.3782-.0162-.2029-.1708-.3638-.3654-.3809-.1214-.0107-.242-.0186-.3622-.0253-.0473-.0026-.0942-.0043-.1411-.006-.0136-.0005-.0271-.001-.0407-.0015-.0131-.0004-.0261-.0009-.0392-.0014-.0394-.0015-.0788-.003-.118-.0038-.0874-.0021-.1742-.0027-.2608-.0027-.0144 0-.029 0-.0434.0002-1.7257.0088-3.3097.4504-4.9089 1.3607-.0157.0091-.0313.0178-.047.0265-.0125.007-.0251.0139-.0376.0211-.005.0029-.0099.0056-.0149.0083-.0049.0027-.0099.0054-.0149.0083l-.0062.0046c-1.3112.7619-2.6202 1.8372-3.975 3.2496-.154.1606-.3046.3232-.4536.4867l-2.6329.2087c-.077.006-.1506.0352-.212.0838l-4.1294 3.2763c-.1314.1042-.188.2819-.1422.4472.0456.1654.184.2844.3484.3001l3.8746.3646.6134.6395c-.0774.2003-1.0704 3.8224-1.0704 3.8224-.06.1551-.0254.3326.0882.4508.0764.0798.1788.1222.283.1222.0502 0 .101-.01.1496-.0305l3.6211-1.163.5952.6205.3498 4.0392c.0148.1714.1292.3157.2878.3632.0366.0111.0738.0163.1106.0163.1228 0 .2414-.059.3184-.1645l3.1422-4.3049c.0466-.064.0746-.1407.0804-.221l.1942-2.6637c.1714-.1691.3412-.3409.5094-.516 1.3558-1.4135 2.3879-2.7788 3.1189-4.1466l.0028-.0042c.0018-.0033.0034-.0066.0051-.0099.0016-.0033.0033-.0066.0051-.0099.0315-.0593.0617-.1186.0919-.1781l.0053-.0104c.8414-1.6361 1.2502-3.26 1.259-5.0248.0002-.0173.0002-.0344.0002-.0517.0004-.0886-.0002-.1779-.0022-.2675Zm-6.2977 7.2732c.9941 0 1.8-.8385 1.8-1.8728 0-1.0342-.8059-1.8727-1.8-1.8727-.9941 0-1.8.8385-1.8 1.8727 0 1.0343.8059 1.8728 1.8 1.8728Z" clip-rule="evenodd"/>
  <rect width="40" height="40" x="1" y="1" stroke="#FED386" stroke-width="2" rx="20"/>
</svg>
