<svg xmlns="http://www.w3.org/2000/svg" fill="none" viewBox="0 0 42 42">
  <circle cx="21" cy="21" r="20" fill="#222"/>
  <path fill="#fff" fill-rule="evenodd" d="M14.3301 8h3.6296c.1387 0 .2496.11343.2496.25206v5.30334c0 .1412.1134.2521.252.2521h4.6606c.1386 0 .2521-.1109.2521-.2521V8.25206c0-.13863.1109-.25206.252-.25206h3.6272c.1386 0 .252.11343.252.25206v5.30334c0 .1412.1109.2521.2521.2521h4.4363c.1411 0 .252.1134.252.252v3.6196c0 .1412-.1109.2521-.252.2521h-4.4363c-.1412 0-.2521.1134-.2521.252v5.6336c0 .1386.1109.252.2521.252h4.4363c.1411 0 .252.1109.252.2521v3.6196c0 .1386-.1109.252-.252.252h-4.4363c-.1412 0-.2521.1135-.2521.2521v5.3033c0 .1387-.1134.2521-.252.2521H23.626c-.1411 0-.252-.1134-.252-.2521v-5.3033c0-.1412-.1135-.2521-.2521-.2521h-4.6581c-.1386 0-.252.1135-.252.2521v5.3033c0 .1387-.1109.2521-.2496.2521h-3.6296c-.1387 0-.2521-.1134-.2521-.2521v-5.3033c0-.1412-.1109-.2521-.252-.2521H9.3922c-.14116 0-.25206-.1134-.25206-.252v-3.6196c0-.1412.1109-.2521.25206-.2521h4.4363c.1411 0 .252-.1134.252-.252v-5.6336c0-.1386-.1109-.252-.252-.252H9.3922c-.14116 0-.25206-.1109-.25206-.2521v-3.6196c0-.1386.1109-.252.25206-.252h4.4363c.1411 0 .252-.1109.252-.2521V8.25206C14.0755 8.11343 14.1914 8 14.3301 8Zm9.0464 15.8193v-5.6361c0-.1386-.1134-.252-.2521-.252h-4.6606c-.1386 0-.252.1134-.252.252v5.6336c0 .1386.1134.252.252.252h4.6606c.1387.0026.2521-.1134.2521-.2495Z" clip-rule="evenodd"/>
</svg>
