<svg xmlns="http://www.w3.org/2000/svg" fill="none" viewBox="0 0 42 42">
  <path fill="#222" d="M21 41c11.0457 0 20-8.9543 20-20S32.0457 1 21 1 1 9.9543 1 21s8.9543 20 20 20Z"/>
  <path fill="url(#a)" d="M20.7693 30.7154c-4.557 0-8.2576-3.6986-8.2576-8.2533 0-4.4278 7.4752-12.2478 7.7924-12.57536l.3912-.41213.4018.40157c.3277.32762 7.9298 8.14762 7.9298 12.57542 0 4.5652-3.7006 8.2638-8.2576 8.2638Zm-.0634-19.6451c-.6556.708-2.0301 2.2403-3.394 4.0368-2.4212 3.1914-3.7006 5.7276-3.7006 7.3445 0 3.9417 3.2142 7.1542 7.158 7.1542 3.9438 0 7.158-3.2125 7.158-7.1542 0-1.6169-1.3005-4.1531-3.764-7.3445-1.3851-1.7859-2.7913-3.3288-3.4574-4.0368Z"/>
  <path fill="url(#b)" d="M20.7685 33.3584c-6.0161 0-10.90082-4.8928-10.90082-10.8951 0-5.8756 8.20472-14.07603 8.55362-14.41419.2115-.21135.571-.21135.7824 0 .2115.21135.2115.57065 0 .782-.0846.08454-8.2258 8.22159-8.2258 13.63219 0 5.4 4.3984 9.7961 9.8012 9.7961 5.4029 0 9.8013-4.3961 9.8013-9.7961 0-2.2192-1.438-5.2838-4.1658-8.8874-2.0935-2.7581-4.1976-4.85047-4.2187-4.8716-.222-.21135-.222-.56008 0-.782.2115-.22192.5604-.22192.7824 0 .3595.34873 8.7122 8.6548 8.7122 14.541-.0211 6.0023-4.9059 10.8951-10.922 10.8951Z"/>
  <path fill="url(#c)" d="M20.7692 36C13.4527 36 7.5 30.0505 7.5 22.7377c0-3.0223 1.52253-6.7421 4.5147-11.0431 2.2098-3.17025 4.3773-5.43171 4.4724-5.52682.2115-.22191.5604-.22191.7824-.01056.2221.21135.2221.56008.0106.782-.0211.02113-2.2098 2.30372-4.3667 5.39998-2.823 4.0474-4.3138 7.6404-4.3138 10.3985 0 6.6998 5.4557 12.1633 12.1696 12.1633 6.7139 0 12.1697-5.4529 12.1697-12.1633 0-2.7581-1.5014-6.3511-4.3456-10.3985-2.178-3.09626-4.3878-5.37885-4.409-5.39998-.2114-.22192-.2114-.57065.0106-.782.222-.21135.571-.21135.7824.01056.3701.38044 9.0612 9.40512 9.0612 16.56992C34.0385 30.0505 28.0858 36 20.7692 36Z"/>
  <defs>
    <linearGradient id="a" x1="20.7693" x2="20.7693" y1="30.7141" y2="9.47331" gradientUnits="userSpaceOnUse">
      <stop stop-color="#05AAC5"/>
      <stop offset="1" stop-color="#71E0EC"/>
    </linearGradient>
    <linearGradient id="b" x1="20.7791" x2="20.7791" y1="33.3571" y2="7.75457" gradientUnits="userSpaceOnUse">
      <stop stop-color="#05AAC5"/>
      <stop offset="1" stop-color="#71E0EC"/>
    </linearGradient>
    <linearGradient id="c" x1="20.7692" x2="20.7692" y1="35.9987" y2="5.9987" gradientUnits="userSpaceOnUse">
      <stop stop-color="#05AAC5"/>
      <stop offset="1" stop-color="#71E0EC"/>
    </linearGradient>
  </defs>
</svg>
