<svg xmlns="http://www.w3.org/2000/svg" fill="none" viewBox="0 0 36 36">
  <path fill="#fff" d="M17.9991 35.9982c-2.4294 0-4.7865-.4762-7.0064-1.4147-2.14364-.9068-4.06762-2.2047-5.72111-3.8569-1.65221-1.6522-2.95011-3.5775-3.85686-5.7211C.476234 22.7856 0 20.4285 0 17.9991c0-2.4294.476234-4.7865 1.41473-7.0064.90675-2.14364 2.20465-4.06762 3.85686-5.72111 1.65349-1.65221 3.57747-2.95011 5.72111-3.85686C13.2126.476234 15.5697 0 17.9991 0c2.4294 0 4.7865.476234 7.0064 1.41473 2.1436.90675 4.0676 2.20465 5.7211 3.85686 1.6522 1.65222 2.9501 3.57747 3.8569 5.72111.9385 2.2199 1.4147 4.577 1.4147 7.0064 0 2.4294-.4762 4.7865-1.4147 7.0064-.9068 2.1436-2.2047 4.0676-3.8569 5.7211-1.6522 1.6522-3.5775 2.9501-5.7211 3.8569-2.2199.9397-4.577 1.4147-7.0064 1.4147Z"/>
  <path fill="#000" d="M17.999 35.0439c9.4139 0 17.0453-7.6315 17.0453-17.0454 0-9.41391-7.6314-17.045375-17.0453-17.045375C8.58508.953125.953613 8.58459.953613 17.9985c0 9.4139 7.631467 17.0454 17.045387 17.0454Z"/>
  <path fill="#fff" d="M18.4172 11.2174c2.2771.2032 4.069 2.0891 4.1249 4.4055l3.4936 1.4516-1.8211-2.9692 3.8721-3.8721-2.3139-2.31384-3.3171 3.31844-4.0372-6.5835v6.5631h-.0013Zm4.0652 5.267c-.3353 2.0167-2.0015 3.5825-4.0652 3.7679V22.65l7.6884-4.6595-3.6232-1.5061Zm-8.9493 0-3.62319 1.5049 7.68829 4.6594v-2.3976c-2.0636-.1842-3.7298-1.75-4.0651-3.7667Zm12.4861 3.9492-7.602 4.6074v6.1021l3.1279-4.408 3.2651 3.2651 2.3139-2.3139-3.6575-3.6575 2.5526-3.5952Zm-8.4198 4.6074-7.60196-4.6074 2.55266 3.5952-3.65752 3.6575 2.31382 2.3139 3.2651-3.2638 3.1279 4.4055V25.041Zm-7.61898-7.9653 3.49368-1.4515c.0559-2.3164 1.8478-4.2023 4.1248-4.4055V4.6543l-4.0372 6.5835-3.3184-3.31844-2.31386 2.31514 3.87206 3.8721-1.82108 2.9691Zm8.18888-1.8608c-1.1214-.3441-1.1214-.5346-1.1214-.6883 0-.2133.3226-.508.9284-.508.3581 0 .9601.0889.9601.6883h1.0908c0-1.0642-.8242-1.7792-2.0509-1.7792-1.3119 0-2.0193.8242-2.0193 1.5989 0 1.0592.9296 1.4351 1.8846 1.7297 1.1214.3441 1.1278.5372 1.1278.6908 0 .2134-.3226.508-.9284.508-.3594 0-.9601-.0889-.9601-.6883h-1.0908c0 1.0642.8242 1.7792 2.0509 1.7792 1.3119 0 2.0193-.8242 2.0193-1.5989.0012-1.0604-.9347-1.4388-1.891-1.7322Z"/>
</svg>
