<svg xmlns="http://www.w3.org/2000/svg" fill="none" viewBox="0 0 42 42">
  <g clip-path="url(#a)">
    <mask id="b" width="42" height="42" x="0" y="0" maskUnits="userSpaceOnUse" style="mask-type:alpha">
      <circle cx="21" cy="21" r="21" fill="#D9D9D9"/>
    </mask>
    <g mask="url(#b)">
      <path fill="red" d="M52.5 0h-63v42h63V0Z"/>
      <path fill="#fff" d="M17.0625 7.875h7.875v9.1875h9.1875v7.875h-9.1875v9.1875h-7.875v-9.1875H7.875v-7.875h9.1875V7.875Z"/>
      <path fill="#ED2939" d="M-3 23h59V2.7875C56 .7125 54.5571-.9875 52.7828-1H.217211C-1.55706-.9875-3 .7125-3 2.7875V23Z"/>
      <path fill="#fff" d="M-.727668 44H52.7277C54.5323 43.9885 56 42.4302 56 40.5281V22H-4v18.5281C-4 42.4302-2.53234 43.9885-.727668 44ZM19.6202 12.6595c0 3.99-3.23 7.22-7.22 7.22-3.99002 0-7.22002-3.23-7.22002-7.22 0-3.99005 3.23-7.22005 7.22002-7.22005 3.98 0 7.22 3.23 7.22 7.22005Z"/>
      <path fill="#ED2939" d="M21.8802 12.6598c0 3.77-3.06 6.82-6.82 6.82-3.77 0-6.81997-3.06-6.81997-6.82 0-3.76996 3.05997-6.81996 6.81997-6.81996 3.77 0 6.82 3.05 6.82 6.81996Z"/>
      <path fill="#fff" d="m13.2902 12.8292-.98-.75-.98.75.38-1.21-.99-.75 1.22.01.37-1.22002.37 1.22002 1.21-.01-.98.75.38 1.21Zm7.6897 0-.98-.75-.98.75.38-1.21-.98-.75 1.21.01.37-1.22002.38 1.22002 1.21-.01-.98.75.37 1.21Zm-3.8401-2.84963-.98-.75-.98.75.38-1.21-.99-.75h1.22l.37-1.21.37 1.21h1.22l-.99.74.38 1.22Zm-2.4096 7.41993-.98-.75-.98.75.38-1.21-.99-.75 1.22.01.37-1.22.37 1.22 1.21-.01-.98.75.38 1.21Zm4.8098 0-.98-.75-.98.75.38-1.21-.98-.75 1.21.01.37-1.22.38 1.22 1.21-.01-.98.75.37 1.21Z"/>
    </g>
  </g>
  <defs>
    <clipPath id="a">
      <rect width="42" height="42" fill="#fff" rx="21"/>
    </clipPath>
  </defs>
</svg>
