<svg xmlns="http://www.w3.org/2000/svg" fill="none" viewBox="0 0 42 42">
  <circle cx="21" cy="21" r="20" fill="#1C2951"/>
  <path fill="#000" d="M28.5295 21.5842c-.0128.0686-.2143.2744-.4157.4244-.5916.4329-1.6503.8358-2.7262 1.0287-.6129.1114-1.2259.1286-1.4102.0386-.12-.06-.1371-.1072-.0943-.2615.09-.3215.3815-.6729.8359-1.003.2314-.1672 1.1701-.7372 1.6074-.9773.7201-.3943 1.303-.6301 1.6973-.6858.1244-.0171.2744-.0214.3215 0 .0772.03.1629.2572.1972.5315.0171.1457.0086.7887-.0129.9044Zm-10.0989 1.4182c-.0257.0515-.1543.1072-.3001.1286-.1457.0215-.5915.0086-.8444-.0214-.9087-.12-1.8731-.3986-2.5761-.7415-.3943-.1929-.6772-.3858-.8873-.5958l-.12-.1243-.0128-.1629c-.0215-.2829-.0172-.7287.0171-.8873.0214-.1329.0686-.2615.1329-.3772.0343-.0429.0343-.0429.1886-.0429.1886 0 .3472.03.6044.1115.5272.1629 1.3116.5572 2.2674 1.1316.7887.4715 1.0845.7029 1.3117 1.0201.1543.1972.2571.4758.2186.5615Zm6.0692 5.9678c0 .0129-.0515.2186-.1157.4629-.0643.2444-.1158.4415-.1158.4501-.0471.0043-.09.0086-.1371.0043h-.1372l-.1886.4458c-.1029.2443-.1972.4715-.21.5058l-.0258.06-.09-.1458-.09-.1457v-1.1873l-.0343.0085c-.0728.0172-.5915.0858-.8187.1072-.9387.0943-1.8817.0729-2.8161-.06-.15-.0214-.2786-.0386-.2829-.0343-.0043.0043 0 .2786.0086.6172l.0128.6087-.0728.1114c-.0386.0601-.0772.1115-.0772.1158-.0129.0128-.0557-.0557-.1543-.2529-.1072-.2058-.1843-.4244-.24-.6515l-.03-.1243-.1329.0085-.1329.0129-.0343-.1586c-.0171-.0857-.0386-.2186-.0471-.2915l-.0129-.1371-.1114-.0986c-.0643-.0558-.1286-.1115-.1415-.1201-.0214-.0171-.03-.0471-.03-.0728v-.0515l.5358.0043.5358.0043.0171.0557.0172.0558.1843.0085c.1029.0043.4286.0129.7201.0215l.5358.0128.1372-.2143.1414-.2143h.18l-.0043-.4458-.0042-.4458-.2358-.1028c-.7587-.3344-1.2045-.7159-1.3716-1.1788-.0343-.0943-.0343-.1286-.0429-.5572-.0043-.4244-.0043-.4629.0257-.5572.06-.2144.2272-.3815.4415-.4373.0729-.0214.2658-.0214 1.2774-.0214l1.1916.0043.1328.0643c.1586.0772.2315.1329.3215.2529.1029.1372.1329.2443.1329.5058 0 .3729-.0257.6944-.0643.823-.0557.1757-.1414.3429-.2486.4929-.2143.2743-.6044.5486-.9601.673l-.1029.0385.0043.4501.0043.4501.0943.0085.0943.0086.1285.1929.1243.1929h.5744c.3172 0 .5958.0043.6215.0086.0429.0085.0515.0042.0943-.0686l.0515-.0772h.4929c.3686-.0171.4801-.0086.4801.0043Z"/>
  <path fill="#000" d="M22.2369 30.1993c-.0814.0472-.1371.0686-.15.06-.0129-.0043-.0729-.0557-.1372-.1029l-.1157-.0943-.12.1286c-.2615.2829-.2701.2958-.3472.3001-.12.0128-.1457-.0086-.2915-.2272-.0771-.1114-.1371-.2058-.1371-.2058s-.0558-.0085-.1201-.0128l-.12-.0129-.0557.1158-.0557.1157-.0986-.03c-.0772-.0257-.1543-.0557-.2272-.09l-.1286-.0643v-.2443l1.1402.0042 1.1402.0043.0042.1158c.0043.1371.0086.1328-.18.24Z"/>
  <path fill="#fff" d="M32.9524 24.9711c-.0043-.0171-.0043-.0471-.0086-.0943-1.0287-.1114-3.9649-.18-6.691 2.0703 0 0-.8787-4.0291-4.9936-4.0291s-5.6409 4.0291-5.6409 4.0291c-2.306-2.4818-5.3922-2.3017-6.50665-2.1388 0 .0257-.00429.0557-.00429.0814-.03429.6215-.01715.9173.08573 1.3073.32147 1.2216 1.31161 2.5676 2.86331 3.8878 2.5418 2.1603 5.988 3.7205 8.5984 3.9005 2.7218.1844 6.7382-1.4059 9.4128-3.7291.4201-.3729.8145-.7672 1.1831-1.1873.2657-.3086.6601-.8401.6301-.8401-.0086 0 0-.0086.0171-.0172.0129-.0086.0257-.0214.0172-.03-.0043-.0043.0043-.0171.0171-.0214.0129-.0043.0214-.0129.0172-.0214-.0043-.0086 0-.0172.0171-.0215.0129-.0043.0172-.0171.0129-.0257s0-.0171.0085-.0171c.0086 0 .0172-.0129.0172-.0215 0-.0085.0086-.0214.0171-.0214.0086 0 .0172-.0086.0172-.0172.0128-.0342.0343-.0685.0557-.0985.0643-.0986.3215-.5573.3558-.6344.2443-.553.3986-1.0459.4715-1.5388.0257-.2358.0471-.6687.03-.7716Zm-10.7159 5.2294c-.0815.0471-.1372.0686-.15.06-.0129-.0043-.0729-.0557-.1372-.1029l-.1157-.0943-.1201.1286c-.2614.2829-.27.2958-.3472.3001-.12.0128-.1457-.0086-.2914-.2272-.0772-.1115-.1372-.2058-.1372-.2058s-.0557-.0085-.12-.0128l-.12-.0129-.0558.1158-.0557.1157-.0986-.03c-.0771-.0257-.1543-.0557-.2271-.09l-.1286-.0643v-.2443l1.1401.0042 1.1402.0043.0043.1158c.0043.1371.0086.1328-.18.24Zm2.1432-.7716c-.0643.2444-.1158.4415-.1158.4501-.0471.0043-.09.0086-.1371.0043h-.1372l-.1843.4501c-.1029.2443-.1972.4715-.2101.5058l-.0257.06-.09-.1458-.09-.1457v-1.1873l-.0343.0085c-.0729.0172-.5915.0858-.8187.1072-.9387.0943-1.8817.0729-2.8161-.06-.15-.0214-.2786-.0386-.2829-.0343-.0043.0043 0 .2786.0086.6172l.0128.6087-.0729.1114c-.0385.0601-.0771.1115-.0771.1158-.0129.0128-.0557-.0557-.1543-.2529-.1072-.2058-.1843-.4244-.2401-.6515l-.03-.1243-.1328.0085-.1329.0129-.0343-.1586c-.0172-.0857-.0386-.2186-.0472-.2915l-.0128-.1371-.1115-.0986c-.0643-.0558-.1285-.1115-.1414-.12-.0214-.0172-.03-.0472-.03-.0729v-.0515l.5358.0043.5358.0043.0171.0557.0172.0558.1843.0085c.1029.0043.4286.0129.7201.0215l.5358.0128.1372-.2143.1414-.2143h.18l-.0043-.4458-.0042-.4458-.2358-.1028c-.7587-.3344-1.2045-.7159-1.3716-1.1788-.0343-.0943-.0343-.1286-.0429-.5572-.0043-.4244-.0043-.4629.0257-.5572.06-.2144.2272-.3815.4415-.4373.0729-.0214.2658-.0214 1.2774-.0214l1.1916.0043.1328.0643c.1586.0772.2315.1329.3215.2529.1029.1372.1329.2443.1329.5058 0 .3729-.0257.6944-.0643.823-.0557.1757-.1415.3429-.2486.4929-.2143.2743-.6044.5486-.9602.673l-.1028.0385.0043.4501.0042.4501.0943.0085.0943.0086.1286.1929.1243.1929h.5744c.3172 0 .5958.0043.6215.0086.0429.0085.0515.0042.0943-.0686l.0515-.0772h.4929c.3815 0 .4929.0043.4929.0172-.0128-.0043-.0686.2057-.1328.4457Z"/>
  <path fill="#FFA409" d="M32.9185 24.5341c-.0086-.1929-.0257-.4629-.0386-.5958-.1843-1.946-.6815-3.5363-1.6245-5.2208-.0386-.0643-.0729-.1286-.0943-.18-.0086-.0129-.0128-.0257-.0171-.0343.1328-.3986.6772-2.066 1.1101-3.9735.5873-2.5889.9602-5.6151-.18-6.52381 0 0-1.9717-.14574-4.6121 2.44321-.7158.7158-1.3716 1.4917-1.9546 2.3189l-.1843-.06c-1.063-.3472-2.1646-.5615-3.2748-.6344-.3343-.0257-1.5817-.0257-1.9889 0-1.2301.0815-2.1731.2658-3.2447.6387-.0429.0172-.0815.03-.12.0429-.6044-.823-1.2774-1.5945-2.0189-2.3018-2.7476-2.60182-4.79217-2.4518-4.79217-2.4518-1.20875.93872-.79726 4.102-.17145 6.7767.41152 1.7703.91732 3.3263 1.10592 3.8878-.0129.03-.03.0643-.0472.0943-.99871 2.0231-1.53879 3.9734-1.66738 6.048 1.11878-.1629 4.20058-.3472 6.51098 2.1389 0 0 1.5259-4.0292 5.6408-4.0292s4.9936 4.0292 4.9936 4.0292c2.7262-2.2503 5.6623-2.1775 6.6911-2.0703-.0043-.0857-.0129-.2143-.0215-.3429Zm-21.2903-7.484s-1.6031-4.0077-1.1916-6.2967c.0686-.3857.1971-.7243.3986-.98153 0 0 1.8174.18003 4.7493 3.43763 0 0-.5572.2701-1.3031.8444 0 0-.0043.0043-.0085.0043-.8102.6215-1.8475 1.6074-2.6447 2.9919Zm6.8024 5.9538c-.0257.0514-.1543.1071-.3.1285-.1458.0215-.5915.0086-.8444-.0214-.9087-.12-1.8732-.3986-2.5761-.7415-.3944-.1929-.6773-.3858-.8873-.5958l-.12-.1243-.0129-.1629c-.0214-.2829-.0171-.7287.0172-.8873.0214-.1329.0685-.2615.1328-.3772.0343-.0429.0343-.0429.1886-.0429.1886 0 .3472.0301.6044.1115.5272.1629 1.3116.5572 2.2675 1.1316.7887.4715 1.0844.703 1.3116 1.0201.1543.1972.2572.4758.2186.5616Zm10.0987-1.4188c-.0129.0686-.2143.2743-.4158.4243-.5915.4329-1.6502.8359-2.7261 1.0287-.613.1115-1.2259.1286-1.4102.0386-.12-.06-.1372-.1071-.0943-.2614.09-.3215.3815-.673.8358-1.003.2315-.1672 1.1702-.7373 1.6074-.9773.7201-.3944 1.3031-.6301 1.6974-.6859.1243-.0171.2743-.0214.3215 0 .0771.03.1629.2572.1971.5316.0172.1457.0086.7886-.0128.9044Zm-.7115-7.5312-.0086-.0042c-.7201-.5744-1.2602-.8445-1.2602-.8445 2.8333-3.25759 4.5864-3.43762 4.5864-3.43762.1929.26152.3172.59582.3858.98162.3986 2.2889-1.1488 6.3009-1.1488 6.3009-.6472-1.153-1.5173-2.1732-2.5546-2.9962Z"/>
  <path fill="#FF9300" d="M31.5258 10.7511c-.3344-.0429-1.916-.0514-3.7077 3.3048l-.0086-.0043c-.7201-.5744-1.2602-.8444-1.2602-.8444 2.8333-3.25764 4.5864-3.43767 4.5864-3.43767.1972.26147.3215.59577.3901.98157Z"/>
  <path fill="#FF8300" d="M30.3768 17.0516c-.6515-1.1573-1.5173-2.1731-2.5589-2.9961 1.7917-3.3562 3.369-3.3477 3.7077-3.3048.3986 2.2932-1.1488 6.3009-1.1488 6.3009Zm1.2134-6.2878c-.0215-.0043-.0429-.0085-.0643-.0128l.0643.0128Z"/>
  <path fill="#FF9300" d="M15.5838 13.2072s-.5572.27-1.303.8444c0 0-.0043.0043-.0086.0043-1.856-3.3605-3.4891-3.3477-3.8406-3.3048.0686-.3858.1972-.7244.3987-.98157.0043 0 1.8217.18003 4.7535 3.43767Z"/>
  <path fill="#FF8300" d="M14.2773 14.0555c-.8144.6258-1.8517 1.6074-2.649 2.9961 0 0-1.6031-4.0077-1.1916-6.3009.3472-.0429 1.9846-.0514 3.8406 3.3048Zm-3.841-3.3045c-.0215.0043-.0472.0085-.0686.0128l.0686-.0128Z"/>
  <path fill="#fff" d="M26.0392 19.2741s-1.3716.0858-1.2001-.9858c.1714-1.0716 1.243-1.2002 1.543-1.1573.3001.0428 1.5003.4715 1.2859 1.3716-.2143.9001-.5143.7287-.6858.7715-.1714.0429-.943 0-.943 0Zm-10.1162 0s-1.3716.0858-1.2002-.9858c.1715-1.0716 1.2431-1.2002 1.5431-1.1573.3001.0428 1.5003.4715 1.2859 1.3716-.2143.9001-.5143.7287-.6858.7715-.1714.0429-.943 0-.943 0Z"/>
</svg>
