<svg xmlns="http://www.w3.org/2000/svg" fill="none" viewBox="0 0 42 42">
  <g clip-path="url(#a)">
    <circle cx="21" cy="21" r="21" fill="#60CDF9"/>
    <path fill="#F3F3F3" d="M13.9027 17.1802c-.1609-.1998-.405-.3107-.6658-.3107H7.86084c-.04438 0-.08322-.0167-.1165-.0444-.02774-.0277-.04439-.061-.04439-.0999v-3.6228c0-.0389.01665-.0722.04439-.0999.03328-.0333.07212-.0499.1165-.0444H13.542c1.4314 0 2.6687.5881 3.7117 1.7587l1.3815 1.6866-2.6908 3.2789-2.0417-2.5021Zm9.931-2.48c1.0375-1.1595 2.2802-1.7421 3.7283-1.7421h5.6645c.0389-.0055.0777.0111.1054.0333.0278.0277.0389.0666.0333.111v3.6228c0 .0389-.0111.0722-.0333.0999-.0277.0333-.0665.0499-.1054.0444h-5.376c-.2552-.0056-.4994.1109-.6658.3107l-3.9613 4.8212 3.9779 4.8546c.1609.1831.3995.294.6436.2885h5.3761c.0388-.0056.0832.0166.1054.0444.0222.0332.0388.0776.0333.1165v3.6228c0 .0389-.0111.0722-.0333.0999-.0277.0333-.0666.0499-.1054.0444h-5.659c-1.4481 0-2.6797-.5881-3.7117-1.7587l-3.2955-4.0224-3.2956 4.0224c-1.0374 1.1706-2.2802 1.7587-3.7282 1.7587H7.86084c-.03883.0055-.08322-.0167-.10541-.0444-.02774-.0333-.03884-.0777-.03329-.1165v-3.6229c0-.0388.0111-.0721.03329-.0998.02774-.0333.06658-.05.10541-.0444h5.37606c.2552 0 .4993-.1165.6658-.3107l3.8892-4.7492 6.0418-7.3844Z"/>
  </g>
  <defs>
    <clipPath id="a">
      <path fill="#fff" d="M0 0h42v42H0z"/>
    </clipPath>
  </defs>
</svg>
