<svg xmlns="http://www.w3.org/2000/svg" fill="none" viewBox="0 0 42 42">
  <circle cx="21" cy="21" r="21" fill="#14F195"/>
  <path fill="#F3F3F3" d="M11.8702 26.5003c.1549-.1545.3678-.2447.5937-.2447h20.4822c.3743 0 .5614.4508.2969.7149l-4.0462 4.0379c-.1548.1546-.3678.2448-.5936.2448H8.12095c-.37428 0-.56142-.4509-.29684-.7149l4.04609-4.038Zm0-15.0778c.1613-.1546.3743-.2448.5937-.2448h20.4822c.3743 0 .5614.4508.2969.7149l-4.0462 4.0379c-.1548.1546-.3678.2448-.5936.2448H8.12095c-.37428 0-.56142-.4508-.29684-.7149l4.04609-4.0379Zm17.3266 7.4899c-.1548-.1545-.3678-.2447-.5936-.2447H8.12095c-.37428 0-.56142.4508-.29684.7149l4.04609 4.0379c.1549.1546.3678.2448.5937.2448h20.4822c.3743 0 .5614-.4508.2969-.7149l-4.0462-4.038Z"/>
</svg>
