<svg xmlns="http://www.w3.org/2000/svg" fill="none" viewBox="0 0 36 36">
  <rect width="36" height="36" fill="#66BE92" rx="18"/>
  <path fill="#030303" d="M8.03815 17.2123c1.02375.9844 2.00815 1.8113 2.00815 3.5438 0 1.89-.94504 3.1893-3.11066 3.1893-1.53563 0-2.9925-.6299-3.11062-3.0712l-.03938-.9056 2.08688-.1182.03938.5513c.07875 1.1025.47249 1.4569 1.02374 1.4569.4725 0 .70876-.2757.70876-.8663 0-.7875-.86625-1.4962-1.7325-2.205-1.26-1.1025-1.96875-2.0475-1.96875-3.7012 0-1.6932.98437-3.0319 3.03187-3.0319 1.575 0 2.79562.7087 2.91374 3.0319l.03938.63-2.00813.1181v-.5513c0-.7087-.23624-1.2206-.86624-1.2206-.35437 0-.70876.2363-.70876.8269-.03937.8662.43314 1.1812 1.69314 2.3231ZM28.395 14.2198h.315c.4331 0 .8269.2363.8269 1.7325 0 1.4569-.4725 1.6931-.9056 1.6931h-.2363v-3.4256Zm3.8194 9.5682-1.3388-5.2369c.7875-.5907 1.26-1.6538 1.26-2.9532 0-2.1656-1.1812-3.3075-2.9925-3.3075h-3.3468V23.788h2.5987v-4.6463h.1969l1.0237 4.6463h2.5988Zm-9.9225-5.7488c0 3.1894-.4331 3.8587-1.1813 3.8587h-.3937v-7.6781h.3937c.7482 0 1.1813.63 1.1813 3.8194Zm-4.1738 5.7488h3.3075c2.3232 0 3.5044-1.8507 3.5044-5.7488 0-3.8981-1.1812-5.7488-3.5044-5.7488h-3.3075V23.788Zm-3.3468-7.7176c0 1.6144-.4332 1.89-.8269 1.89H13.59v-3.7406h.3544c.3937 0 .8269.2756.8269 1.8506Zm-.63 3.78c2.0475 0 3.2287-1.1812 3.2287-3.78 0-2.6775-1.1812-3.78-3.0319-3.78h-3.3862V23.788h2.5987v-3.9376h.5907Z"/>
</svg>
