<svg xmlns="http://www.w3.org/2000/svg" fill="none" viewBox="0 0 42 42">
  <circle cx="21" cy="21" r="20" fill="#222"/>
  <path fill="#00A3FF" d="m11.9421 19.5-.2308.3461c-2.65375 4.1538-2.07684 9.5767 1.5 13.0382 1.9615 2.0769 4.7306 3.1153 7.4998 3.1153L11.9421 19.5Z"/>
  <path fill="#00A3FF" d="m20.7114 24.4606-8.769-5.0768 8.769 16.615V24.4606Z" opacity=".6"/>
  <path fill="#00A3FF" d="m29.48 19.5.2307.3461c2.6538 4.1538 2.0769 9.5767-1.4999 13.0382-2.0769 2.0769-4.7307 3.1153-7.4999 3.1153L29.48 19.5Z" opacity=".6"/>
  <path fill="#00A3FF" d="m20.7109 24.4606 8.7691-5.0768-8.7691 16.615V24.4606Zm0-11.192v8.6536l7.6152-4.2691-7.6152-4.3845Z" opacity=".2"/>
  <path fill="#00A3FF" d="m20.7109 13.2686-7.6152 4.3845 7.6152 4.2691v-8.6536Z" opacity=".6"/>
  <path fill="#00A3FF" d="m20.7109 6-7.6152 11.6536 7.6152-4.3845V6Z"/>
  <path fill="#00A3FF" d="m20.7109 13.2691 7.6152 4.3845L20.7109 6v7.2691Z" opacity=".6"/>
</svg>
