<svg xmlns="http://www.w3.org/2000/svg" fill="none" viewBox="0 0 42 42">
  <path fill="#E6BC7B" d="M21 41c11.0457 0 20-8.9543 20-20S32.0457 1 21 1 1 9.9543 1 21s8.9543 20 20 20Z"/>
  <path stroke="#000" stroke-linecap="round" stroke-width="2" d="M29 15H13.3c-.1657 0-.3.1343-.3.3v11.4c0 .1657.1343.3.3.3h15.4c.1657 0 .3-.1343.3-.3v-5.4c0-.1657-.1343-.3-.3-.3H19m-.5-7v-3.2c0-.1657.1343-.3.3-.3h4.4c.1657 0 .3.1343.3.3V14m0 18v-4m-5 4v-4"/>
  <circle cx="21" cy="21" r="16.5" stroke="#030303" stroke-width="2"/>
</svg>
