<svg xmlns="http://www.w3.org/2000/svg" fill="none" viewBox="0 0 36 36">
  <path fill="#fff" d="M17.9991 35.9982c9.9406 0 17.9991-8.0585 17.9991-17.9991C35.9982 8.05847 27.9397 0 17.9991 0 8.05847 0 0 8.05847 0 17.9991c0 9.9406 8.05847 17.9991 17.9991 17.9991Z"/>
  <path fill="#00A3FF" d="m10.6158 16.7207-.2015.3092c-2.27283 3.4865-1.7652 8.0527 1.2204 10.9779 1.7564 1.7211 4.0584 2.5816 6.3604 2.5818l-7.3793-13.8689Z"/>
  <path fill="#00A3FF" d="m17.9937 20.9359-7.3793-4.2152 7.3793 13.8689v-9.6537Zm7.3894-4.2152.2015.3092c2.2728 3.4865 1.7652 8.0527-1.2204 10.9779-1.7564 1.7211-4.0584 2.5816-6.3604 2.5818l7.3793-13.8689Z" opacity=".6"/>
  <path fill="#00A3FF" d="m18.0015 20.9359 7.3793-4.2152-7.3793 13.8689v-9.6537Zm.0023-9.4164v7.27l6.3565-3.6326-6.3565-3.6374Z" opacity=".2"/>
  <path fill="#00A3FF" d="m18.0019 11.5195-6.361 3.6373 6.361 3.6327v-7.27Z" opacity=".6"/>
  <path fill="#00A3FF" d="m18.0019 5.4043-6.361 9.7535 6.361-3.6474V5.4043Z"/>
  <path fill="#00A3FF" d="m18.0038 11.5112 6.3613 3.6476-6.3613-9.75841v6.11081Z" opacity=".6"/>
</svg>
