<svg xmlns="http://www.w3.org/2000/svg" fill="none" viewBox="0 0 42 42">
  <path fill="#959696" d="M0 21C0 9.40202 9.40202 0 21 0c11.598 0 21 9.40202 21 21 0 11.598-9.402 21-21 21C9.40202 42 0 32.598 0 21Z"/>
  <circle cx="21" cy="21" r="19" fill="#030303"/>
  <path fill="#EEE" d="M29.2297 20.9377c.1908.9841-.3818 1.4921-1.1771 1.7778-2.6086.9524-4.422 2.6666-5.3127 5.3333-.2863.8254-.859 1.2063-1.8134 1.2381-.9862 0-1.4952-.4762-1.7815-1.2699-.9225-2.6349-2.7041-4.3809-5.3445-5.3015-.8271-.2857-1.2089-.8571-1.1771-1.8095 0-.9841.4772-1.4921 1.2725-1.7778 2.6087-.8889 4.3266-2.6031 5.2173-5.2063.3181-.8889.8908-1.2698 1.9088-1.2698s1.4634.5714 1.7179 1.3333c.8907 2.6032 2.6404 4.3174 5.2491 5.1746.8589.2857 1.4315.7936 1.2407 1.7777Z"/>
  <path fill="#959696" d="M5.01784 16.8103c.7635-2.3491 1.81332-4.5396 3.40396-6.4761 1.9088-2.31741 4.422-3.77771 7.126-4.92056.6681-.28571 1.5271-.69841 2.0997-.12698.5408.53967-.1273 1.26983-.3818 1.87299-1.2725 2.98415-3.0222 5.58725-5.6308 7.58725-1.68609 1.3016-3.62667 2.0635-5.50362 2.9523-.66807.3492-1.2407.0953-1.11344-.8889Zm31.87986.1629c.0954.9841-.5726.9841-1.1453.7619-3.6584-1.5238-6.967-3.5237-9.2257-6.984-.8589-1.3016-1.2725-2.76191-2.0996-4.03174-.2863-.44444-.6045-1.14284-.35-1.4603.35-.44444 1.1135-.22222 1.6225-.03175 2.6405.95238 5.0582 2.31744 7.0306 4.31742 1.7497 1.77777 2.8632 3.96817 3.8494 6.22217.2226.3809.2545.7936.3181 1.2063ZM17.3902 36.9145c-1.9724-.1587-3.3403-.9841-4.6128-1.7142-3.49944-1.9683-5.85358-4.9841-7.34878-8.6984-.15907-.3809-.28632-.7936-.34994-1.2063-.19088-.9841.19088-1.4603 1.20888-1.0476 4.61284 1.9365 8.52584 4.6349 10.46644 9.5237.2863.7302.7635 1.3968 1.018 2.127.159.5714.0318 1.0793-.3818 1.0158Zm6.5239-.1372c1.8769-6.0952 5.7263-10.2222 11.5798-12.4761.4136-.1587.8908-.381 1.1771-.0953.4135.4127.2227 1.0159.0636 1.4921-.9226 2.4762-2.0996 4.7619-3.9766 6.6983-1.9406 2-4.3265 3.2699-6.8715 4.254-.6045.2539-1.2407.2539-1.9724.127Z"/>
</svg>
