<svg xmlns="http://www.w3.org/2000/svg" fill="none" viewBox="0 0 42 42">
  <rect width="42" height="42" fill="#F3F3F3" rx="21"/>
  <path fill="#13B3FF" d="M27.6867 16.5583c-.4752-.2713-1.0862-.2713-1.6293 0l-3.8015 2.2382-2.5797 1.4243-3.7336 2.2383c-.4752.2713-1.0862.2713-1.6293 0l-2.919-1.7635c-.4752-.2713-.8147-.8139-.8147-1.4243V15.88c0-.5426.2716-1.0852.8147-1.4243l2.919-1.6956c.4752-.2713 1.0862-.2713 1.6293 0l2.919 1.7634c.4752.2713.8146.8139.8146 1.4243v2.2383l2.5797-1.4922v-2.306c0-.5426-.2716-1.0852-.8146-1.4244l-5.4309-3.18776c-.4752-.2713-1.0861-.2713-1.6292 0L8.81462 13.0314C8.27154 13.3027 8 13.8453 8 14.3879v6.3755c0 .5427.27154 1.0853.81462 1.4244l5.49868 3.1878c.4752.2713 1.0862.2713 1.6293 0l3.7336-2.1704 2.5797-1.4922 3.7337-2.1704c.4752-.2713 1.0861-.2713 1.6292 0l2.9191 1.6956c.4752.2713.8146.8139.8146 1.4244v3.3912c0 .5426-.2716 1.0852-.8146 1.4244l-2.8512 1.6956c-.4752.2713-1.0862.2713-1.6293 0l-2.919-1.6956c-.4752-.2713-.8146-.8139-.8146-1.4244v-2.1704l-2.5797 1.4922v2.2382c0 .5426.2716 1.0852.8146 1.4243l5.4987 3.1878c.4752.2713 1.0862.2713 1.6293 0l5.4987-3.1878c.4752-.2713.8146-.8139.8146-1.4243v-6.4434c0-.5426-.2715-1.0852-.8146-1.4243l-5.4987-3.1878Z"/>
</svg>
