<svg xmlns="http://www.w3.org/2000/svg" fill="none" viewBox="0 0 42 42">
  <path fill="#EFEFEF" d="M21 0c11.5967 0 21 9.40333 21 21 0 11.5967-9.4033 21-21 21C9.40333 42 0 32.6025 0 21S9.40333 0 21 0Z"/>
  <path fill="#F35555" fill-rule="evenodd" d="M32.292 9.26129c.8609.49706 1.1559 1.59791.6588 2.45881L25.314 24.9474c-.497.8609-1.5979 1.1559-2.4588.6588l-7.2593-2.0373-4.1912 7.2593c-.497.861-1.59791 1.1559-2.45883.6589-.86093-.4971-1.15591-1.5979-.65885-2.4589l5.09118-8.8181c.497-.861 1.5979-1.1559 2.4588-.6589l7.2594 2.0373 6.7367-11.66836c.4971-.86093 1.5979-1.1559 2.4589-.65885Z" clip-rule="evenodd"/>
</svg>
