<svg xmlns="http://www.w3.org/2000/svg" fill="none" viewBox="0 0 42 42">
  <rect width="42" height="42" fill="#EBF7FF" rx="21"/>
  <path stroke="#5697D5" stroke-width="3" d="M15.9459 13.0996c-.3376.6838-.9117 2.4615-.5065 4.1026.4052 1.641 2.5327 3.5897 8.1043 8.2051 1.317 1.0909 2.1274 1.9487 2.5326 3.5897.4052 1.6411.1688 3.4188 0 4.1026"/>
  <path stroke="#5697D5" stroke-width="3" d="M21 34.75c6.0751 0 11-4.9249 11-11 0-1.6032-.2996-3.5-2-6-1.7004-2.5-9-10.5-9-10.5s-5.5 6-9.5 11.5c-1.0569 1.4532-1.5 3.3968-1.5 5 0 6.0751 4.9249 11 11 11Z"/>
</svg>
