<svg xmlns="http://www.w3.org/2000/svg" fill="none" viewBox="0 0 42 42">
  <circle cx="21" cy="21" r="20" fill="#F056A3"/>
  <mask id="a" width="28" height="28" x="7" y="7" maskUnits="userSpaceOnUse" style="mask-type:luminance">
    <path fill="#fff" d="M35 7H7v28h28V7Z"/>
  </mask>
  <g mask="url(#a)">
    <path fill="#F3F3F3" d="m12.8335 9.68359 21.7 14.81671-5.3667 7.9333-21.7-14.9333 5.3667-7.81671Z"/>
    <path fill="#F3F3F3" d="M34.5336 24.5004c-1.8666 2.6834-8.1666 1.6334-14.1166-2.5666-6.0667-4.0834-9.3334-9.5667-7.5834-12.25005 1.8667-2.68333 8.1667-1.63333 14.1167 2.56665 6.0667 3.9667 9.3333 9.5667 7.5833 12.25Z"/>
    <path fill="#F3F3F3" d="M29.1667 32.3163C27.3 34.9996 21 33.9496 15.05 29.7496c-5.95001-4.2-9.33334-9.5666-7.46668-12.3666C9.44999 14.6996 15.75 15.7496 21.7 19.9496c5.95 4.2 9.2167 9.6834 7.4667 12.3667Z"/>
    <path fill="#F056A3" d="M12.3671 12.3671c0-.1166-.1167-.2333-.2334-.1166-.1166.1166-.2333.1166-.2333.2333.1167.35.2333.5833.2333.8167 0 .1166.1167.2333.2334.1166.1166 0 .2333-.1166.1166-.2333 0-.2333 0-.4667-.1166-.8167Zm.5835 1.8663c0-.1167-.1167-.2334-.2333-.1167-.1167.1167-.1167.1167-.1167.2333 1.2833 2.9167 3.9667 6.0667 7.4667 8.4.1166.1167.2333 0 .35 0 .1166-.1166 0-.2333 0-.35-3.6167-2.3333-6.1834-5.3666-7.4667-8.1666ZM27.0668 25.667c-.1166 0-.2333 0-.2333.1167 0 .1166 0 .2333.1167.2333.35.1167.8166.2333 1.1666.35.1167 0 .2334 0 .2334-.1167 0-.1166 0-.2333-.1167-.2333-.35-.1167-.8167-.2333-1.1667-.35Zm2.1001.4668c-.1166 0-.2333.1167-.2333.2333 0 .1167.1167.2334.2333.2334.9334.1166 1.9834.2333 2.8.1166.1167 0 .2334-.1166.2334-.2333 0-.1167-.1167-.2333-.2334-.2333-.9333.1166-1.8666 0-2.8-.1167Z"/>
    <path fill="#F056A3" fill-rule="evenodd" d="M33.7172 24.0339c-1.6333 2.3333-7.35 1.1666-12.8333-2.6834-5.6-3.85-8.8667-8.75-7.2333-11.0833 1.6333-2.33334 7.35-1.16668 12.8333 2.6833 5.4833 3.85 8.75 8.75 7.2333 11.0834Zm-5.1333-3.5c-.8167 1.1666-3.6167.5833-6.4167-1.2834-2.6833-1.8666-4.3166-4.3166-3.5-5.4833.8167-1.1667 3.6167-.5833 6.4167 1.2833 2.6833 1.8667 4.3167 4.3167 3.5 5.4834Z" clip-rule="evenodd"/>
  </g>
</svg>
