<svg xmlns="http://www.w3.org/2000/svg" fill="none" viewBox="0 0 36 36">
  <path fill="url(#a)" d="M35.9982 17.9991C35.9982 8.05847 27.9397 0 17.9991 0 8.05847 0 0 8.05847 0 17.9991c0 9.9406 8.05847 17.9991 17.9991 17.9991 9.9406 0 17.9991-8.0585 17.9991-17.9991Z"/>
  <path fill="#fff" fill-rule="evenodd" d="M10.7971 17.743 17.877 5.99805l6.417 10.64075c-.6671-.3425-1.655-.6803-2.8712-.6803-1.696 0-2.9963.527-4.301 1.0558-1.003.4065-2.0086.8141-3.1986.9841-1.5032.2147-2.5452.0196-3.1261-.2554Zm14.139 1.8356-7.0576 9.9983-6.7712-9.5926c.4413.2881 1.0669.534 2.2159.534 1.3499 0 2.6999-.525 4.0498-1.05 1.3499-.525 2.6999-1.0499 4.0498-1.0499 1.817 0 2.9751.6588 3.5133 1.1602Z" clip-rule="evenodd"/>
  <path fill="#7591F2" fill-rule="evenodd" d="m17.8801 19.2731.0006 10.3038 7.0577-9.9984c-.5382-.5014-1.6964-1.1601-3.5132-1.1601-1.1817 0-2.3634.4022-3.5451.8547Zm-.0002-2.5602c1.0642-.4108 2.1757-.7544 3.5453-.7544 1.216 0 2.2038.3377 2.8709.6802L17.8793 5.99805l.0006 10.71485Z" clip-rule="evenodd"/>
  <defs>
    <linearGradient id="a" x1="17.9991" x2="17.9991" y1="0" y2="35.9982" gradientUnits="userSpaceOnUse">
      <stop stop-color="#2041C9"/>
      <stop offset="1" stop-color="#2F65EC"/>
    </linearGradient>
  </defs>
</svg>
