<svg xmlns="http://www.w3.org/2000/svg" fill="none" viewBox="0 0 42 42">
  <circle cx="21" cy="21" r="20" fill="#222"/>
  <circle cx="21.7114" cy="20.9248" r="14.665" fill="#F2E373"/>
  <path fill="url(#a)" d="M27.8215 27.4443c1.2217 2.4444 4.9402 2.0344 6.1104 2.0344C31.8951 32.7376 27.2364 36 22.1184 36c-8.7742 0-15.47973-6.9768-15.47973-15.0761s13.44293.8174 22.81223-.812c-2.4441 2.0367-2.8515 4.8872-1.6294 7.3324Z"/>
  <path fill="url(#b)" d="M23.3405 5.03681C25.2959 4.38503 26.5994 3.40736 27.0068 3c-.1358 1.0863-.7334 3.50331-2.0369 4.48098-1.6295 1.22209-3.6663.81472-6.1104 3.66622-1.6297 1.9013-1.564 6.2395 2.4439 7.3325 4.0079 1.0931 6.5178-2.4441 12.2209-1.6294 2.8515.4074 4.0738 1.6294 4.8885 2.4442-1.6294-.1358-4.8885-.4074-7.74.4073-3.6112 1.0318-6.5176 6.5178-9.7765 8.962-3.2589 2.4442-10.1843 1.8622-12.62849-1.6295-2.85156-4.0735-2.14658-11.005 1.34517-15.0786C14.5014 6.25264 20.8963 5.85153 23.3405 5.03681Z"/>
  <defs>
    <linearGradient id="a" x1="20.0816" x2="26.192" y1="20.1094" y2="35.5891" gradientUnits="userSpaceOnUse">
      <stop stop-color="#F2E373"/>
      <stop offset="1" stop-color="#E62C21"/>
    </linearGradient>
    <linearGradient id="b" x1="8.67514" x2="21.7107" y1="7.88834" y2="26.2196" gradientUnits="userSpaceOnUse">
      <stop stop-color="#F2E373"/>
      <stop offset="1" stop-color="#ED2F24"/>
    </linearGradient>
  </defs>
</svg>
