<svg xmlns="http://www.w3.org/2000/svg" fill="none" viewBox="0 0 42 42">
  <circle cx="21" cy="21" r="20" fill="#222"/>
  <path fill="url(#a)" fill-rule="evenodd" d="M10.8634 8.26232 5.02617 19.7091c-.02334.0414-.03138.0889-.02287.1351.00851.0462.03309.0885.06994.1203L20.8304 34.0706c.0453.0382.1042.0593.1652.0593.061 0 .1199-.0211.1653-.0593l15.7665-14.1061c.0365-.0321.0608-.0743.0693-.1204.0084-.0461.0007-.0935-.0223-.135L31.1372 8.26232c-.0155-.03982-.044-.07405-.0816-.09781-.0376-.02376-.0822-.03585-.1275-.03453H11.0705c-.0448.00114-.0882.01421-.1253.03765-.0371.02345-.0662.0563-.0839.09469h.0021Z" clip-rule="evenodd"/>
  <path fill="#D8B35D" fill-rule="evenodd" d="M10.8634 8.26232 5.02617 19.7091c-.02334.0414-.03138.0889-.02287.1351.00851.0462.03309.0885.06994.1203L20.8304 34.0706c.0453.0382.1042.0593.1652.0593.061 0 .1199-.0211.1653-.0593l15.7665-14.1061c.0365-.0321.0608-.0743.0693-.1204.0084-.0461.0007-.0935-.0223-.135L31.1372 8.26232c-.0155-.03982-.044-.07405-.0816-.09781-.0376-.02376-.0822-.03585-.1275-.03453H11.0705c-.0448.00114-.0882.01421-.1253.03765-.0371.02345-.0662.0563-.0839.09469h.0021Z" clip-rule="evenodd"/>
  <path fill="#fff" fill-rule="evenodd" d="M23.0275 20.8802c-.1129.0087-.6976.0439-1.9992.0439-1.037 0-1.7728-.0264-2.0369-.0439-4.0074-.167-6.9966-.819-6.9966-1.5939 0-.775 2.9892-1.4352 6.9966-1.6022v2.5446c.2614.0176 1.0093.0616 2.0463.0616 1.2446 0 1.8669-.0528 1.9804-.0616v-2.5446c3.998.167 6.9872.8189 6.9872 1.5934s-2.9808 1.4357-6.9778 1.6027Zm0-3.4515v-2.281h5.5826v-3.4778H13.4094v3.4778h5.582v2.281c-4.5356.1953-7.9489 1.0299-7.9489 2.0426 0 1.0128 3.4133 1.8405 7.9489 2.0427v7.2999h4.0361V21.514c4.5262-.1953 7.9306-1.0304 7.9306-2.0339s-3.4044-1.858-7.9306-2.0509v-.0005Z" clip-rule="evenodd"/>
  <defs>
    <linearGradient id="a" x1="4.4936" x2="35.531" y1="20.6736" y2="20.6736" gradientUnits="userSpaceOnUse">
      <stop stop-color="#D8B35D"/>
      <stop offset="1" stop-color="#F5E7BF"/>
    </linearGradient>
  </defs>
</svg>
