<svg xmlns="http://www.w3.org/2000/svg" fill="none" viewBox="0 0 42 42">
  <g clip-path="url(#a)">
    <mask id="b" width="42" height="42" x="0" y="0" maskUnits="userSpaceOnUse" style="mask-type:alpha">
      <circle cx="21" cy="21" r="21" fill="#D9D9D9"/>
    </mask>
    <g mask="url(#b)">
      <path fill="#E30A17" d="M-7-2h71v47H-7V-2Z"/>
      <path fill="#fff" d="M14.5 30.5c5.2467 0 9.5-4.2533 9.5-9.5s-4.2533-9.5-9.5-9.5C9.25329 11.5 5 15.7533 5 21s4.25329 9.5 9.5 9.5Z"/>
      <path fill="#E30A17" d="M17.5 28.5c4.1421 0 7.5-3.3579 7.5-7.5s-3.3579-7.5-7.5-7.5S10 16.8579 10 21s3.3579 7.5 7.5 7.5Z"/>
      <path fill="#fff" d="m23 21 8 2.7812L26.0557 16.5v9L31 18.2188 23 21Z"/>
    </g>
  </g>
  <defs>
    <clipPath id="a">
      <rect width="42" height="42" fill="#fff" rx="21"/>
    </clipPath>
  </defs>
</svg>
