<svg xmlns="http://www.w3.org/2000/svg" fill="none" viewBox="0 0 36 36">
  <rect width="36" height="36" fill="#BC6CE1" rx="18"/>
  <path fill="#030303" d="m18.0034 29.7689 2.9904-16.8178c2.8503 0 3.7493.3126 3.8792 1.5884 0 0 1.912-.713 2.8764-2.1609-3.7633-1.7439-7.5445-1.8225-7.5445-1.8225l-2.2064 2.6874.0049-.0004-2.2064-2.6874s-3.7813.0787-7.54407 1.8225c.96354 1.448 2.87637 2.1609 2.87637 2.1609.1306-1.2758 1.0285-1.5884 3.8597-1.5904l3.0144 16.8202Z"/>
  <path fill="#030303" d="M18 9.77616c3.0421-.02326 6.5241.47064 10.0886 2.02414.4764-.8575.5989-1.2364.5989-1.2364-3.8965-1.54164-7.5456-2.06922-10.6879-2.08245-3.1422.01323-6.7911.54089-10.6871 2.08245 0 0 .17381.4668.59847 1.2364 3.56383-1.5535 7.04643-2.0474 10.08863-2.02414H18Z"/>
</svg>
