<svg xmlns="http://www.w3.org/2000/svg" fill="none" viewBox="0 0 36 36">
  <g clip-path="url(#a)">
    <path fill="#DDD" d="m10.5697 34.9405 7.3256.0628h7.535C31.7093 32.1778 36 25.8672 36 18.5731 36 8.66263 27.9417.5625 18.1045.5625 8.16271.5625 0 8.66263 0 18.5731c-.00020928 7.2523 4.39518 13.5316 10.5697 16.3674Z"/>
    <path fill="#878888" d="M9.11133 4.67899v2.76487h1.74777V4.67899H9.11133Zm0 24.77421v2.7649h1.74777v-2.7649H9.11133ZM10.8839 7.42345v2.76895h1.7372V7.42345h-1.7372Zm0 19.25285v2.7661h1.7372v-2.7661h-1.7372Zm0 5.5075v2.7626h1.7372v-2.7626h-1.7372Zm1.7862-2.7306v2.7649h1.7476v-2.7649h-1.7476Zm3.5544-27.53718v2.76264h1.7475V1.91602h-1.7475Zm1.879 24.76028v2.7661h1.7477v-2.7661h-1.7477Zm7.1226-19.25285v2.76895h1.7478V7.42345h-1.7478Zm0 22.02975v2.7649h1.7478v-2.7649h-1.7478Zm1.7772-2.7769v2.7661h1.7476v-2.7661h-1.7476Z"/>
    <path stroke="#878888" stroke-width=".338512" d="M10.8863 32.1816H9.10711v2.0197c.5232.2722.94159.5232 1.46479.743h.314v-2.7627m1.7728-27.50505h-1.779V2.0709l.314-.157h1.465v2.76265Zm0 0v2.7652h-1.7374V4.67688l1.7374-.00033Zm1.7827.00033v2.76487h-1.7475V4.67688m1.7475 0h-1.7475m1.7475 0V1.9139h-1.7475v2.76298m3.5238 0v2.76487h-1.7374V4.67688m1.7374 0h-1.7374m1.7374 0V1.9139h-1.7374v2.76298m3.5155 0v2.76487h-1.7475V4.67688m1.7475 0h-1.7475m1.7475 0V1.9139h-1.7475v2.76298m3.5339 0v2.76487h-1.7475V4.67688m1.7475 0h-1.7475m1.7475 0V1.9139h-1.7475v2.76298m3.5203 0v2.76487h-1.7477V4.67688m1.7477 0h-1.7477m1.7477 0V1.9139h-1.7477v2.76298m3.5293 0v2.76487h-1.7475V4.67688m1.7475 0h-1.7475m1.7475 0V1.9139h-1.7475v2.76298m5.4102 24.77422v2.7648h1.7475v-2.7648h-1.7475Zm1.7818-22.02976v2.76896h1.7476V7.42134h-1.7476Zm0 2.76756v2.7596h1.7476v-2.7596h-1.7476Zm0 2.7306v2.7679h1.7476v-2.7679h-1.7476Zm0 2.7771v2.7638h1.7476v-2.764l-1.7476.0002Zm0 2.7303v2.768h1.7476v-2.7678l-1.7476-.0002Zm0 2.7723v2.7638h1.7476v-2.7638h-1.7476Zm0 2.7444v2.7637h1.7476v-2.7637h-1.7476Zm0 2.7306v2.7661h1.7476v-2.7661h-1.7476Zm1.7772-16.4853v2.7596h1.7476v-2.7596h-1.7476Zm0 2.7306v2.7679h1.7476v-2.7679h-1.7476Zm0 2.7771v2.7638h1.7476v-2.764l-1.7476.0002Zm0 2.7303v2.768h1.7476v-2.7678l-1.7476-.0002Zm0 2.7723v2.7638h1.7476v-2.7638h-1.7476Zm0 2.7444v2.7637h1.7476v-2.7637h-1.7476Zm0 2.7306v2.7661h1.7476v-2.7661h-1.7476Zm1.7818-13.7547v2.7679h1.7374v-2.7679h-1.7374Zm0 2.7771v2.7638h1.7374v-2.764l-1.7374.0002Zm0 2.7303v2.768h1.7374v-2.7678l-1.7374-.0002Zm0 2.7723v2.7638h1.7374v-2.7638h-1.7374Zm3.5518-.0096-1.7792.0103v-2.773h1.8838l-.1046 2.7627ZM3.76629 7.6933v2.5012h1.6742V7.42134h-1.465c-.1046.09403-.2092.17771-.2092.27196Zm-.10278 2.4956H2.0937c0 .1046-.1046.2092-.1046.335v2.4173h1.67441v-2.7523Zm30.45589.2826c-.1046-.1046-.1046-.1989-.1046-.2826h-1.6747v2.7521h1.7793v-2.4695Zm-1.7823-2.84096c-.1044-.07312-.1044-.14644-.2092-.2092h-1.5696v2.77316h1.7788V7.63054ZM24.8009 1.9139h-1.3606v2.76265h1.6744V2.03942l-.3138-.12552ZM12.664 1.41407c-.5232.1568-1.0464.33472-1.465.5232h1.465v-.5232Zm.0021-.02219v.54433h1.7792V.942004c-.6282.125316-1.1514.272166-1.7792.449876Zm1.7726-.464453V1.93199h1.7792V.655062c-.6278.062963-1.1512.146642-1.7792.272365Zm3.5606-.351043c-.6276 0-1.151.02092-1.7788.08368V1.93699h1.7788V.576384Zm1.7746 1.357286V.656741C19.2507.593981 18.6227.5625 18.0995.5625v1.37096l1.6744.00021Zm.0056-1.278608V1.93199h1.7792V.916865c-.5232-.115364-1.1514-.209199-1.7792-.261803Zm3.661.721978v.55448h1.465c-.5232-.19863-.9418-.38712-1.465-.55448Zm3.5608 1.57306c-.6282-.32436-1.1514-.62801-1.7792-.87884V4.6771h1.7792v-1.727Zm-.002.00975V4.6761h1.6744v-.5754c-.5234-.40824-1.0466-.79557-1.6744-1.14085Zm1.7818 1.17554v.54432h.7324c-.3138-.18848-.5232-.3664-.7324-.54432Zm.7324.54169h-.7324v2.76285h1.779V5.61868c-.4186-.32436-.7326-.63816-1.0466-.9416Zm2.8266 3.01269V10.191h1.6747c-.5232-.87903-1.0464-1.71623-1.6747-2.50123Zm1.7726 2.82313v2.4279h1.0464c-.3136-.8374-.628-1.6431-1.0464-2.4279Zm1.0464 2.4066h-1.0464v2.7732h1.6744c-.1036-.9452-.3143-1.8756-.628-2.7732Zm.1048 11.0241h-1.1512v2.679c.4184-.8581.8374-1.7581 1.1512-2.679Zm-2.9238 2.7306v2.7734c.7329-.8685 1.2561-1.8001 1.7793-2.7732l-1.7793-.0002Zm-1.7818 4.8175c.6278-.6175 1.2556-1.2664 1.7788-1.957v-.0836h-1.7788v2.0406Zm-1.7772.7222h1.0464c.2092-.2197.4186-.4501.7326-.6804v-2.0824h-1.779v2.7628Zm0-.0323v.837c.3138-.2616.7324-.5335 1.0464-.837h-1.0464Zm-1.7818 2.0094c.628-.3559 1.1512-.7223 1.6744-1.1303v-.8791h-1.6744v2.0094Zm-1.7772.7533h.314c.4188-.2198.942-.4708 1.4652-.743v-2.0197h-1.7792v2.7627ZM7.3253 33.0294c.5234.4188 1.1512.7954 1.7792 1.1406v-1.9884H7.3253v.8478Zm-.10395-.0317v-.8161h-.942c.30864.2782.6227.5503.942.8161Zm-1.67304-1.4953c.2092.2407.5232.4812.7326.7115h.94201v-2.7628H5.54811l.0002 2.0513Zm-1.78202-2.0097c.5232.691 1.0464 1.3502 1.6742 1.9677v-2.0093h-1.6742v.0416Zm-.10278-2.8185H1.9891c.5232.9735 1.0464 1.9049 1.67441 2.7734v-2.7734Zm-1.78202-5.475H.207287c.209199.9418.418398 1.873.627596 2.7628H1.88149v-2.7628Zm.00162 5.3503v-2.6059H.836708c.313802.9.627802 1.7689 1.046402 2.6059Zm.00136-10.8529H.31487c-.104599.2616-.104599.5337-.104599.8057l-.104802 1.9675 1.779201-.0104-.0002-2.7628Zm-.00114-.0037v-2.7734H.941532c-.313761.8976-.524381 1.828-.627799 2.7732l1.569597.0002Zm.00162-2.7445v-2.3337c-.32119.775-.63513 1.5529-.941796 2.3337h.941796Zm3.55461-5.50933V5.72283c-.5232.53376-1.0464 1.11972-1.465 1.71624h1.465Zm.10855.00065h1.6746V4.67688h-.6282c-.3138.314-.7324.64912-1.0464.9944v1.76844Zm1.67415-3.26731c-.20919.16757-.4186.33493-.6282.50228h.6282v-.50228Zm.10304-.02875v.53355h1.7792V2.99225c-.628.34528-1.2558.7326-1.7792 1.15141Zm3.561-2.06314c-.6282.2616-1.25599.55447-1.77919.87904V4.6758h1.77919V2.08052ZM35.8919 16.1253c0-.1462-.1048-.2928-.1048-.4289h-1.6744v2.7628l1.8838.0104-.1046-2.3443Zm-1.7792 5.0739v2.7628h1.1512c.2092-.8896.4186-1.821.6282-2.7628h-1.7794Zm.0067 2.7444h-1.7793v2.7627h1.7793v-2.7627ZM1.9891 26.7063h1.6742v-2.7627H1.9891v2.7627ZM.210474 21.1999H1.88467v-2.773l-1.779201.0106.104802 2.1452.000203.6172ZM3.66535 10.1873V7.71753c-.5234.77424-1.0466 1.60129-1.5698 2.46977h1.5698ZM30.5583 5.67192v1.76844h1.5696c-.4184-.6276-.9418-1.21376-1.5696-1.76844ZM21.6585.92812v1.00456h1.6744v-.56504c-.5232-.17792-1.1512-.32477-1.6744-.43952ZM7.22199 7.42134v2.76896H5.47406V7.42134h1.74793Zm0 2.76756v2.7596H5.47406v-2.7596h1.74793Zm0 2.7306v2.7679H5.47406v-2.7679h1.74793Zm0 2.7771v2.7638H5.47406v-2.764l1.74793.0002Zm0 2.7303v2.768H5.47406v-2.7678l1.74793-.0002Zm0 2.7723v2.7638H5.47406v-2.7638h1.74793Zm0 2.7444v2.7637H5.47406v-2.7637h1.74793Zm0 2.7306v2.7661H5.47406v-2.7661h1.74793ZM5.43866 10.1889v2.7596H3.7015v-2.7596h1.73716Zm0 2.7306v2.7679H3.7015v-2.7679h1.73716Zm0 2.7771v2.7638H3.7015v-2.764l1.73716.0002Zm0 2.7303v2.768H3.7015v-2.7678l1.73716-.0002Zm0 2.7723v2.7638H3.7015v-2.7638h1.73716Zm0 2.7444v2.7637H3.7015v-2.7637h1.73716Zm0 2.7306v2.7661H3.7015v-2.7661h1.73716ZM3.66257 12.9195v2.7679H1.91505v-2.7679h1.74752Zm0 2.7771v2.7638H1.91505v-2.764l1.74752.0002Zm0 2.7303v2.768H1.91505v-2.7678l1.74752-.0002Zm0 2.7723v2.7638H1.91505v-2.7638h1.74752ZM9.10562 4.67688v2.76487H7.35769V4.67688h1.74793Zm0 2.74446v2.76896H7.35769V7.42134h1.74793Zm0 2.76756v2.7596H7.35769v-2.7596h1.74793Zm0 2.7306v2.7679H7.35769v-2.7679h1.74793Zm0 2.7771v2.7638H7.35769v-2.764l1.74793.0002Zm0 2.7303v2.768H7.35769v-2.7678l1.74793-.0002Zm0 2.7723v2.7638H7.35769v-2.7638h1.74793Zm0 2.7444v2.7637H7.35769v-2.7637h1.74793Zm0 2.7306v2.7661H7.35769v-2.7661h1.74793Zm0 2.7769v2.7648H7.35769v-2.7648h1.74793ZM10.8828 4.67688v2.76487H9.13488V4.67688h1.74792Zm0 2.74446v2.76896H9.13488V7.42134h1.74792Zm0 2.76756v2.7596H9.13488v-2.7596h1.74792Zm0 2.7306v2.7679H9.13488v-2.7679h1.74792Zm0 2.7771v2.7638H9.13488v-2.764l1.74792.0002Zm0 2.7303v2.768H9.13488v-2.7678l1.74792-.0002Zm0 2.7723v2.7638H9.13488v-2.7638h1.74792Zm0 2.7444v2.7637H9.13488v-2.7637h1.74792Zm0 2.7306v2.7661H9.13488v-2.7661h1.74792Zm0 2.7769v2.7648H9.13488v-2.7648h1.74792Zm1.7759-22.02976v2.76896h-1.7374V7.42134h1.7374Zm0 2.76756v2.7596h-1.7374v-2.7596h1.7374Zm0 2.7306v2.7679h-1.7374v-2.7679h1.7374Zm0 2.7771v2.7638h-1.7374v-2.764l1.7374.0002Zm0 2.7303v2.768h-1.7374v-2.7678l1.7374-.0002Zm0 2.7723v2.7638h-1.7374v-2.7638h1.7374Zm0 2.7444v2.7637h-1.7374v-2.7637h1.7374Zm0 2.7306v2.7661h-1.7374v-2.7661h1.7374Zm0 2.7769v2.7648h-1.7374v-2.7648h1.7374Zm0 2.7305v2.7627h-1.7374v-2.7627h1.7374Zm1.7827-24.76026v2.76896h-1.7475V7.42134h1.7475Zm0 2.76756v2.7596h-1.7475v-2.7596h1.7475Zm0 2.7306v2.7679h-1.7475v-2.7679h1.7475Zm0 2.7771v2.7638h-1.7475v-2.764l1.7475.0002Zm0 2.7303v2.768h-1.7475v-2.7678l1.7475-.0002Zm0 2.7723v2.7638h-1.7475v-2.7638h1.7475Zm0 2.7444v2.7637h-1.7475v-2.7637h1.7475Zm0 2.7306v2.7661h-1.7475v-2.7661h1.7475Zm0 2.7769v2.7648h-1.7475v-2.7648h1.7475Zm0 2.7305v2.7627h-1.7475v-2.7627h1.7475Zm1.7763-24.76026v2.76896h-1.7374V7.42134h1.7374Zm0 2.76756v2.7596h-1.7374v-2.7596h1.7374Zm0 2.7306v2.7679h-1.7374v-2.7679h1.7374Zm0 2.7771v2.7638h-1.7374v-2.764l1.7374.0002Zm0 2.7303v2.768h-1.7374v-2.7678l1.7374-.0002Zm0 2.7723v2.7638h-1.7374v-2.7638h1.7374Zm0 2.7444v2.7637h-1.7374v-2.7637h1.7374Zm0 2.7306v2.7661h-1.7374v-2.7661h1.7374Zm0 2.7769v2.7648h-1.7374v-2.7648h1.7374Zm0 2.7305v2.7627h-1.7374v-2.7627h1.7374Zm1.7781-24.76026v2.76896h-1.7475V7.42134h1.7475Zm0 2.76756v2.7596h-1.7475v-2.7596h1.7475Zm0 2.7306v2.7679h-1.7475v-2.7679h1.7475Zm0 2.7771v2.7638h-1.7475v-2.764l1.7475.0002Zm0 2.7303v2.768h-1.7475v-2.7678l1.7475-.0002Zm0 2.7723v2.7638h-1.7475v-2.7638h1.7475Zm0 2.7444v2.7637h-1.7475v-2.7637h1.7475Zm0 2.7306v2.7661h-1.7475v-2.7661h1.7475Zm0 2.7769v2.7648h-1.7475v-2.7648h1.7475Zm0 2.7305v2.7627h-1.7475v-2.7627h1.7475Zm1.7864-24.76026v2.76896h-1.7475V7.42134h1.7475Zm0 2.76756v2.7596h-1.7475v-2.7596h1.7475Zm0 2.7306v2.7679h-1.7475v-2.7679h1.7475Zm0 2.7771v2.7638h-1.7475v-2.764l1.7475.0002Zm0 2.7303v2.768h-1.7475v-2.7678l1.7475-.0002Zm0 2.7723v2.7638h-1.7475v-2.7638h1.7475Zm0 2.7444v2.7637h-1.7475v-2.7637h1.7475Zm0 2.7306v2.7661h-1.7475v-2.7661h1.7475Zm0 2.7769v2.7648h-1.7475v-2.7648h1.7475Zm0 2.7305v2.7627h-1.7475v-2.7627h1.7475ZM21.555 7.42134v2.76896h-1.7477V7.42134h1.7477Zm0 2.76756v2.7596h-1.7477v-2.7596h1.7477Zm0 2.7306v2.7679h-1.7477v-2.7679h1.7477Zm0 2.7771v2.7638h-1.7477v-2.764l1.7477.0002Zm0 2.7303v2.768h-1.7477v-2.7678l1.7477-.0002Zm0 2.7723v2.7638h-1.7477v-2.7638h1.7477Zm0 2.7444v2.7637h-1.7477v-2.7637h1.7477Zm0 2.7306v2.7661h-1.7477v-2.7661h1.7477Zm0 2.7769v2.7648h-1.7477v-2.7648h1.7477Zm0 2.7305v2.7627h-1.7477v-2.7627h1.7477Zm1.7816-24.76026v2.76896h-1.7475V7.42134h1.7475Zm0 2.76756v2.7596h-1.7475v-2.7596h1.7475Zm0 2.7306v2.7679h-1.7475v-2.7679h1.7475Zm0 2.7771v2.7638h-1.7475v-2.764l1.7475.0002Zm0 2.7303v2.768h-1.7475v-2.7678l1.7475-.0002Zm0 2.7723v2.7638h-1.7475v-2.7638h1.7475Zm0 2.7444v2.7637h-1.7475v-2.7637h1.7475Zm0 2.7306v2.7661h-1.7475v-2.7661h1.7475Zm0 2.7769v2.7648h-1.7475v-2.7648h1.7475Zm0 2.7305v2.7627h-1.7475v-2.7627h1.7475Zm1.7761-27.50472v2.76487h-1.7372V4.67688h1.7372Zm0 2.74446v2.76896h-1.7372V7.42134h1.7372Zm0 2.76756v2.7596h-1.7372v-2.7596h1.7372Zm0 2.7306v2.7679h-1.7372v-2.7679h1.7372Zm0 2.7771v2.7638h-1.7372v-2.764l1.7372.0002Zm0 2.7303v2.768h-1.7372v-2.7678l1.7372-.0002Zm0 2.7723v2.7638h-1.7372v-2.7638h1.7372Zm0 2.7444v2.7637h-1.7372v-2.7637h1.7372Zm0 2.7306v2.7661h-1.7372v-2.7661h1.7372Zm0 2.7769v2.7648h-1.7372v-2.7648h1.7372Zm0 2.7305v2.7627h-1.7372v-2.7627h1.7372Zm1.8896-27.50472v2.76487h-1.7478V4.67688h1.7478Zm0 2.74446v2.76896h-1.7478V7.42134h1.7478Zm0 2.76756v2.7596h-1.7478v-2.7596h1.7478Zm0 2.7306v2.7679h-1.7478v-2.7679h1.7478Zm0 2.7771v2.7638h-1.7478v-2.764l1.7478.0002Zm0 2.7303v2.768h-1.7478v-2.7678l1.7478-.0002Zm0 2.7723v2.7638h-1.7478v-2.7638h1.7478Zm0 2.7444v2.7637h-1.7478v-2.7637h1.7478Zm0 2.7306v2.7661h-1.7478v-2.7661h1.7478Zm0 2.7769v2.7648h-1.7478v-2.7648h1.7478ZM28.673 4.67688v2.76487h-1.7477V4.67688h1.7477Zm0 2.74446v2.76896h-1.7477V7.42134h1.7477Zm0 2.76756v2.7596h-1.7477v-2.7596h1.7477Zm0 2.7306v2.7679h-1.7477v-2.7679h1.7477Zm0 2.7771v2.7638h-1.7477v-2.764l1.7477.0002Zm0 2.7303v2.768h-1.7477v-2.7678l1.7477-.0002Zm0 2.7723v2.7638h-1.7477v-2.7638h1.7477Zm0 2.7444v2.7637h-1.7477v-2.7637h1.7477Zm0 2.7306v2.7661h-1.7477v-2.7661h1.7477Zm0 2.7769v2.7648h-1.7477v-2.7648h1.7477Zm1.8834-22.02976v2.76896h-1.7475V7.42134h1.7475Zm0 2.76756v2.7596h-1.7475v-2.7596h1.7475Zm0 2.7306v2.7679h-1.7475v-2.7679h1.7475Zm0 2.7771v2.7638h-1.7475v-2.764l1.7475.0002Zm0 2.7303v2.768h-1.7475v-2.7678l1.7475-.0002Zm0 2.7723v2.7638h-1.7475v-2.7638h1.7475Zm0 2.7444v2.7637h-1.7475v-2.7637h1.7475Zm0 2.7306v2.7661h-1.7475v-2.7661h1.7475Zm1.7772-16.4853v2.7596h-1.7475v-2.7596h1.7475Zm0 2.7306v2.7679h-1.7475v-2.7679h1.7475Zm0 2.7771v2.7638h-1.7475v-2.764l1.7475.0002Zm0 2.7303v2.768h-1.7475v-2.7678l1.7475-.0002Zm0 2.7723v2.7638h-1.7475v-2.7638h1.7475Zm0 2.7444v2.7637h-1.7475v-2.7637h1.7475Zm0 2.7306v2.7661h-1.7475v-2.7661h1.7475Zm1.7852-13.7547v2.7679h-1.737v-2.7679h1.737Zm0 2.7771v2.7638h-1.737v-2.764l1.737.0002Zm0 2.7303v2.768h-1.737v-2.7678l1.737-.0002Zm0 2.7723v2.7638h-1.737v-2.7638h1.737Z"/>
    <path fill="#030303" d="M29.5395 15.38c-2.1978 0-3.893 1.1553-3.893 3.1583 0 1.6953 1.5698 2.8821 3.6419 2.8821 1.5698 0 2.8255-1.1365 3.2024-1.8524 0-.2197-.1884-.3138-.4397-.3138-.3139.5524-1.3185.9796-1.7581.9607-2.5116-.0941-2.8885-1.0925-2.9512-2.1412-.0626-1.1366 1.1931-2.1222 2.2605-2.047.5652.0439.8163 1.0423 1.3185 1.4064.1884.088.5652.0754.8165.0252.1883-.0252.7535-.1444.7535-.5966 0-.3767-.5024-.7913-.9419-1.0611-.4397-.2071-1.4442-.4206-2.0094-.4206Z"/>
    <path fill="#030303" d="M14.7848 19.7201c0 .9293-.1884 1.4191-.942 1.4631v.1506c1.256-.0125 2.5118 0 3.7676-.0313v-.0754c-.565 0-1.0047-.5964-1.0047-1.3437v-2.4928c0-.6154.7536-1.0048 1.2558-.9608.7536.0753 1.1931.5841 1.1931 1.0298v2.4551c0 .7472-.1883 1.212-.7534 1.256v.1318h3.3906v-.1005c-.5022-.0628-.8791-.5274-.8791-1.2307v-2.5682c0-.5525.5024-.9231 1.3814-.9417.7535-.0189 1.1931.5398 1.1931 1.061v2.3295c0 .7974-.2513 1.2872-.8791 1.35v.1004c1.2556.0189 2.3233.0189 3.579 0v-.0753c-.6908 0-.879-.4333-.879-1.3437v-2.568c0-.8539-.5024-1.8712-1.8209-1.8712-.8792 0-1.507.4332-1.8838.5525-.2512.1067-.4396.226-.5022.226-.1258 0-.2513-.0753-.3768-.2573-.3139-.3266-.8791-.5212-1.5071-.5212-.7533 0-1.5069.4332-1.8837.5525-.0628.0189-.314.1507-.314.1507-.0627 0-.3139 0-.3139-.0314 0-.7158.0628-.3579 0-.8665h-.5023c-.1255 0-.3766.2701-.6907.3893-.3767.1507-1.0675.1318-1.3815.2071v.5088l.8165.1506v.9859l-.0629 2.229Z"/>
    <path fill="#030303" d="M11.4574 21.3195c1.3186-.0628 2.5744-.3454 2.5744-1.6137 0-.9293-1.0046-1.5132-2.0719-1.978-.6907-.2825-1.6954-.6969-1.6954-1.0297 0-.3894.7535-1.1365 1.4441-.54l1.3187 1.0612.5652-.1194-.3141-1.5822c-.3139.0126-.5023.0313-1.6326-.1507-1.3185-.1947-2.95101.4772-2.95101 1.7329 0 .8414 1.25581 1.4254 2.19761 1.8084.5023.2261 1.444.5589 1.444 1.0612 0 .496-.879.6342-1.3813.6342-.8163 0-1.75811-1.124-1.75811-1.124h-.56508l.31392 1.6766c.12552-.0942.50232-.0816.56508-.044.25116.1005 1.25579.2511 1.94649.2072Zm-3.20229-5.086v-.7787l-1.63248.0189c-.1884 0-.1884-.0439-.1884-.3139v-1.0613l-.81636-.0126c-.25104.5651-.56508.9356-.6906 1.011l-1.56985.6718v.4835l.56496.0127c.25116 0 .3768-.0127.3768.2824v3.1584c0 .9543.5022 1.6577 1.88364 1.689 1.00465.0251 1.63261-.4208 2.07205-.8415l-.1254-.4018c-.1884.1193-.37692.2261-.56508.2261-1.19304 0-1.13028-.898-1.13028-1.6954v-2.1346c0-.314 0-.314.25103-.314h1.56997Z"/>
  </g>
  <defs>
    <clipPath id="a">
      <rect width="36" height="36" fill="#fff" rx="18"/>
    </clipPath>
  </defs>
</svg>
