<svg xmlns="http://www.w3.org/2000/svg" fill="none" viewBox="0 0 42 42">
  <circle cx="21" cy="21" r="20" fill="#7AC7BC"/>
  <path fill="#F3F3F3" d="M19.3775 17.3218h-4.337c0-1.4258 1.1558-2.5816 2.5816-2.5816h8.4674c0 1.4258-1.1558 2.5816-2.5815 2.5816h-1.5489v7.7446c0 1.4258-1.1558 2.5816-2.5816 2.5816V17.3218Z"/>
  <path fill="#F3F3F3" d="M11.1175 10.6087c-7.43449 7.0222-2.06484 17.0384 2.0656 18.5875-3.82541-3.6134-5.78269-10.7398 0-16.5226 5.7827-5.78267 14.9722-2.5801 19.6197 1.0333-2.5814-5.16242-14.2513-10.1199-21.6853-3.0982Z"/>
  <path fill="#F3F3F3" d="M29.7048 31.78c7.4345-7.0222 2.0648-17.0384-2.0657-18.5875 3.8255 3.6134 5.7828 10.7398 0 16.5225-5.7827 5.7827-14.9721 2.5801-19.61964-1.0333 2.58144 5.1625 14.25134 10.12 21.68534 3.0983Z"/>
</svg>
