<svg xmlns="http://www.w3.org/2000/svg" fill="none" viewBox="0 0 42 42">
  <rect width="42" height="42" fill="#FF4A4A" rx="21"/>
  <path fill="#F3F3F3" d="M25.8323 25.2585h-1.4447c-.274 0-.4982-.2241-.4982-.4981v-3.7862l-2.5407 1.5942c-.2242.1245-.4732.1245-.6974 0l-2.5158-1.5942v3.8111c0 .274-.2242.4982-.4982.4982h-1.4447c-.274 0-.4982-.2242-.4982-.4982v-7.3481c0-.3736.2989-.6476.6477-.6476.1245 0 .249.0498.3736.1245l4.0103 2.74c.1744.1245.3985.1245.548 0l4.0103-2.74c.2989-.1993.6975-.1245.9216.1744.0748.0996.1246.2491.1246.3736v7.3232c-.0249.2491-.2242.4732-.4982.4732Zm-12.3049-.0498H4.58513c-.34872 0-.64763-.2989-.64763-.6476V17.213c0-.274.22418-.4982.49818-.4982h1.4447c.274 0 .49818.2242.49818.4982v5.5796h5.40524V17.213c0-.274.2241-.4982.4981-.4982h1.4447c.274 0 .4982.2242.4982.4982v7.3481c-.0498.3487-.3238.6476-.6974.6476Zm14.9452-8.4939h8.9423c.3487 0 .6476.2989.6476.6477v7.3481c0 .274-.2242.4981-.4982.4981h-1.4447c-.274 0-.4982-.2241-.4982-.4981v-5.2558c0-.1744-.1494-.3238-.3238-.3238h-4.7575c-.1744 0-.3239.1494-.3239.3238v5.2558c0 .274-.2241.4981-.4981.4981h-1.4447c-.274 0-.4982-.2241-.4982-.4981v-7.3481c.0498-.3488.3238-.6477.6974-.6477Z"/>
  <path fill="#F3F3F3" d="M31.7357 21.1735v1.4447c0 .274.2242.4733.4981.4733h1.4448c.274 0 .4981-.2242.4981-.4733v-1.4447c0-.274-.2241-.4733-.4981-.4733h-1.4448c-.2739 0-.4981.1993-.4981.4733Z"/>
</svg>
