<svg xmlns="http://www.w3.org/2000/svg" fill="none" viewBox="0 0 42 42">
  <circle cx="21" cy="21" r="21" fill="#E7337A"/>
  <path fill="#F3F3F3" d="M17.6808 13.0612c-.3347-.0478-.3506-.0637-.1912-.0796.3028-.0477 1.0041.0159 1.4982.1273 1.1476.2705 2.1837.9705 3.2835 2.1956l.2869.3341.4144-.0637c1.7692-.2863 3.5863-.0636 5.1005.6365.4144.1909 1.0679.5727 1.1476.6682.0318.0318.0797.2386.1115.4455.1116.7477.0638 1.3046-.1753 1.7342-.1275.2386-.1275.3022-.0478.5091.0638.1591.255.2704.4303.2704.3826 0 .7811-.6045.9723-1.4478l.0797-.3341.1435.1591c.8129.9069 1.4504 2.1638 1.5461 3.0547l.0318.2387-.1434-.2068c-.2391-.366-.4622-.6046-.7651-.8114-.5419-.366-1.1157-.4773-2.6299-.5569-1.3708-.0795-2.1518-.1909-2.9169-.4455-1.307-.4295-1.9764-.9864-3.5225-3.0388-.6853-.9069-1.1157-1.4001-1.5461-1.8137-.9404-.9069-1.8808-1.3842-3.1081-1.5751Z"/>
  <path fill="#F3F3F3" d="M29.5555 15.0804c.0319-.6046.1116-1.0023.2869-1.3683.0638-.1432.1275-.2704.1435-.2704.0159 0-.016.1113-.0638.2386-.1275.35-.1434.8432-.0637 1.4001.1115.7159.1594.8114.9244 1.591.3507.3659.7651.8273.9245 1.0182l.2709.3501-.2709-.2546c-.3347-.3182-1.0998-.9228-1.2751-1.0023-.1116-.0637-.1275-.0637-.2072.0159-.0638.0636-.0797.1591-.0797.6205-.016.7159-.1116 1.1614-.3507 1.6228-.1275.2386-.1434.1909-.0319-.0796.0797-.2068.0957-.3023.0957-.9864 0-1.3842-.1594-1.7183-1.1317-2.2751-.2391-.1432-.6535-.35-.8926-.4614-.255-.1114-.4463-.2068-.4303-.2068.0318-.0319.9722.2386 1.3388.3977.5579.2227.6535.2387.7173.2227.0478-.0477.0797-.175.0956-.5727Zm-11.2207 2.369c-.6694-.9228-1.0998-2.3547-1.0042-3.4207l.0319-.3341.1594.0318c.2869.0477.781.2387 1.0201.3818.6376.3819.9245.9069 1.1954 2.2115.0797.3819.1913.8274.2391.9706.0797.2386.3826.7955.6376 1.1455.1753.2545.0637.3818-.3347.35-.6057-.0636-1.4186-.6205-1.9446-1.3364Zm10.408 6.9224c-3.1559-1.2728-4.2716-2.3706-4.2716-4.2321 0-.2705.0159-.4932.0159-.4932.016 0 .1275.0954.271.2068.6376.5091 1.3548.7319 3.3472 1.0183 1.1635.175 1.833.3022 2.4386.5091 1.9287.6364 3.1241 1.941 3.411 3.707.0797.5091.0319 1.4797-.0956 1.9888-.1116.3977-.4304 1.1296-.5101 1.1455-.0159 0-.0478-.0795-.0478-.2068-.0319-.6682-.3666-1.3047-.9245-1.7979-.6694-.5727-1.5301-1.0023-3.6341-1.8455Zm-2.2319.5246c-.0319-.2387-.1116-.541-.1594-.6682l-.0797-.2387.1435.175c.2072.2387.3665.525.51.9228.1116.3023.1116.3977.1116.891 0 .4773-.016.5886-.1116.8591-.1594.4296-.3507.7319-.6694 1.066-.5738.5886-1.323.9068-2.3909 1.05-.1913.016-.7332.0637-1.2113.0955-1.1955.0636-1.9924.1909-2.7097.4455-.0956.0318-.1912.0636-.2072.0477-.0319-.0318.4622-.3182.8607-.5091.5579-.2705 1.1317-.4137 2.3909-.6364.6216-.0955 1.2592-.2228 1.4185-.2864 1.578-.4932 2.359-1.7183 2.104-3.2138Z"/>
  <path fill="#F3F3F3" d="M27.9612 27.4575c-.4144-.9069-.5101-1.766-.2869-2.5775.0319-.0795.0637-.1591.0956-.1591s.1275.0478.2232.1114c.1912.1273.5897.35 1.6098.9069 1.2911.7 2.0242 1.241 2.5343 1.8615.4463.5409.7173 1.1614.8448 1.9251.0797.4296.0318 1.4637-.0797 1.8933-.3507 1.3523-1.1476 2.4342-2.3112 3.0547-.1753.0955-.3188.1591-.3347.1591-.0159 0 .0478-.1591.1434-.35.3826-.8114.4304-1.591.1435-2.4661-.1753-.5409-.5419-1.1932-1.2751-2.291-.8767-1.2728-1.0839-1.6069-1.307-2.0683Zm-11.875 4.8693c1.1795-.9864 2.6299-1.6865 3.9688-1.9092.5738-.0955 1.5301-.0636 2.0561.0796.8448.2227 1.6099.7 2.0083 1.2887.3826.5727.5579 1.0659.7332 2.1637.0638.4296.1435.8751.1594.9705.1275.5728.3825 1.0183.7013 1.2569.4941.366 1.3548.3819 2.1996.0637.1435-.0477.271-.0955.271-.0796.0318.0319-.3985.3182-.6854.4614-.3985.2069-.7173.2705-1.1476.2705-.7651 0-1.4186-.3978-1.9446-1.1933-.1115-.1591-.3347-.6205-.526-1.05-.5578-1.2887-.8447-1.6706-1.4982-2.1001-.5738-.366-1.307-.4455-1.8649-.1751-.7332.3501-.9244 1.2888-.4144 1.8615.2072.2387.5897.4296.9085.4773.5898.0796 1.0998-.3818 1.0998-.9705 0-.3818-.1434-.6046-.526-.7796-.51-.2227-1.0679.0318-1.0519.525 0 .2069.0956.3342.3028.4296.1275.0637.1275.0637.0319.0477-.4623-.0954-.5738-.6682-.2072-1.0341.4463-.4455 1.3867-.2546 1.7054.3659.1276.2546.1435.7637.0319 1.0819-.2709.7-1.036 1.066-1.817.8591-.526-.1431-.7492-.2863-1.3867-.9386-1.1157-1.1456-1.5461-1.3683-3.14-1.607l-.3028-.0477.3347-.3182Z"/>
  <path fill="#F3F3F3" fill-rule="evenodd" d="M7.70328 6.7271c3.71382 4.5025 9.43592 11.503 9.72282 11.8848.239.3182.1434.6205-.2551.8432-.2231.1273-.6853.2546-.9085.2546-.255 0-.5579-.1273-.7651-.3341-.1434-.1432-.765-1.0501-2.1677-3.2297-1.0679-1.6706-1.9764-3.0548-1.9923-3.0707-.0638-.0318-.0638-.0318 1.8808 3.4366 1.2273 2.1797 1.6257 2.9593 1.6257 3.0547 0 .2068-.0637.3182-.3187.6046-.4304.4773-.6217 1.0182-.7651 2.1479-.1594 1.2569-.5897 2.1478-1.8171 3.6593-.7172.8909-.8288 1.05-1.0041 1.416-.2232.4454-.2869.7-.3188 1.2728-.0319.6046.0319.9864.2072 1.5592.1594.5091.3347.8432.7651 1.4955.3666.5728.5897 1.0023.5897 1.1614 0 .1273.0319.1273.6057 0 1.3708-.3182 2.5024-.8591 3.1241-1.5273.3825-.4137.4781-.6364.4781-1.2092 0-.3659-.0159-.4455-.1115-.6682-.1594-.35-.4623-.6364-1.1158-1.0819-.8607-.5887-1.2273-1.066-1.3229-1.7024-.0797-.5409.0159-.9069.4941-1.9092.4941-1.0341.6216-1.4637.7013-2.5138.0478-.6682.1275-.9387.3188-1.1455.2072-.2227.3825-.3023.8766-.3659.8129-.1114 1.3389-.3182 1.7533-.716.3666-.3341.526-.6682.5419-1.1614l.016-.3659-.2072-.2228C17.5854 17.4346 7.20917 6.04297 7.16135 6.04297c-.01594 0 .23909.30229.54193.68413Zm4.89322 22.6241c.1754-.3023.0797-.6841-.2072-.8751-.2709-.175-.6853-.0954-.6853.1432 0 .0637.0318.1273.1275.1591.1434.0796.1594.1591.0478.3342-.1116.175-.1116.3341.0319.4454.2231.175.526.0796.6853-.2068Zm6.4559-8.3692c-.3826.1114-.7492.525-.8607.9387-.0638.2546-.0319.716.0797.8591.1753.2228.3347.2864.781.2864.8766 0 1.6258-.3818 1.7055-.8432.0796-.3819-.2551-.9069-.7173-1.1455-.2391-.1273-.7332-.175-.9882-.0955Zm1.0201.7955c.1275-.1909.0797-.3977-.1594-.5409-.4304-.2705-1.0839-.0478-1.0839.3659 0 .2068.3348.4296.6535.4296.2072 0 .4941-.1273.5898-.2546Z" clip-rule="evenodd"/>
</svg>
