<svg xmlns="http://www.w3.org/2000/svg" fill="none" viewBox="0 0 42 42">
  <mask id="a" width="42" height="42" x="0" y="0" maskUnits="userSpaceOnUse" style="mask-type:alpha">
    <circle cx="21" cy="21" r="21" fill="#D9D9D9"/>
  </mask>
  <g mask="url(#a)">
    <path fill="#B22234" d="M68.9001 0h-79.8v42h79.8V0Z"/>
    <path fill="#000" d="M-10.8999 4.83984h79.8-79.8Zm79.8 6.46156h-79.8 79.8Zm-79.8 6.4615h79.8-79.8Zm79.8 6.4616h-79.8 79.8Zm-79.8 6.4615h79.8-79.8Zm79.8 6.4615h-79.8 79.8Z"/>
    <path stroke="#fff" stroke-width="3.23077" d="M-10.8999 4.83984h79.8m0 6.46156h-79.8m0 6.4615h79.8m0 6.4616h-79.8m0 6.4615h79.8m0 6.4615h-79.8"/>
    <path fill="#3C3B6E" d="M21.0201 0h-31.92v22.6154h31.92V0Z"/>
    <path fill="#fff" d="m2.34625.963867.75959 2.337803-1.98865-1.44484H3.5753L1.58665 3.30167l.7596-2.337803Zm0 4.593753.75959 2.3378-1.98865-1.44484H3.5753L1.58665 7.89542l.7596-2.3378Zm0 4.45018.75959 2.3378-1.98865-1.4448H3.5753l-1.98865 1.4448.7596-2.3378Zm0 4.5938.75959 2.3378-1.98865-1.4449H3.5753l-1.98865 1.4449.7596-2.3378Zm0 4.4502.75959 2.3378-1.98865-1.4449H3.5753l-1.98865 1.4449.7596-2.3378ZM-.304634 3.21973l.7596 2.3378-1.988656-1.44484H.924424L-1.06423 5.55753l.759596-2.3378Zm0 4.59375.7596 2.33782-1.988656-1.44486H.924424L-1.06423 10.1513l.759596-2.33782Zm0 4.47072.7596 2.3378-1.988656-1.4449H.924424L-1.06423 14.622l.759596-2.3378Zm0 4.5732.7596 2.3378-1.988656-1.4448H.924424l-1.988654 1.4448.759596-2.3378ZM7.64263.963867l.7596 2.337803-1.98866-1.44484h2.45812L6.88303 3.30167l.7596-2.337803Zm0 4.593753.7596 2.3378-1.98866-1.44484h2.45812L6.88303 7.89542l.7596-2.3378Zm0 4.45018.7596 2.3378-1.98866-1.4448h2.45812l-1.98866 1.4448.7596-2.3378Zm0 4.5938.7596 2.3378-1.98866-1.4449h2.45812l-1.98866 1.4449.7596-2.3378Zm.00488 4.4502.7596 2.3378-1.98865-1.4449h2.45811l-1.98865 1.4449.75959-2.3378ZM4.99712 3.21973l.7596 2.3378-1.98865-1.44484h2.45811L4.23752 5.55753l.7596-2.3378Zm0 4.59375.7596 2.33782-1.98865-1.44486h2.45811L4.23752 10.1513l.7596-2.33782Zm0 4.47072.7596 2.3378-1.98865-1.4449h2.45811L4.23752 14.622l.7596-2.3378Zm0 4.5732.7596 2.3378-1.98865-1.4448h2.45811l-1.98866 1.4448.7596-2.3378ZM12.9434.963867l.7596 2.337803-1.9886-1.44484h2.4581l-1.9887 1.44484.7596-2.337803Zm0 4.593753.7596 2.3378-1.9886-1.44484h2.4581l-1.9887 1.44484.7596-2.3378Zm0 4.45018.7596 2.3378-1.9886-1.4448h2.4581l-1.9887 1.4448.7596-2.3378Zm0 4.5938.7596 2.3378-1.9886-1.4449h2.4581l-1.9887 1.4449.7596-2.3378Zm0 4.4502.7596 2.3378-1.9886-1.4449h2.4581l-1.9887 1.4449.7596-2.3378ZM10.293 3.21973l.7596 2.3378-1.98864-1.44484h2.45814L9.53342 5.55753l.75958-2.3378Zm0 4.59375.7596 2.33782-1.98864-1.44486h2.45814L9.53342 10.1513l.75958-2.33782Zm.0049 4.47072.7596 2.3378-1.98865-1.4449H11.527L9.53831 14.622l.75959-2.3378Zm0 4.5732.7596 2.3378-1.98865-1.4448H11.527l-1.98869 1.4448.75959-2.3378ZM18.2452.963867l.7596 2.337803-1.9887-1.44484h2.4581l-1.9886 1.44484.7596-2.337803Zm0 4.593753.7596 2.3378-1.9887-1.44484h2.4581l-1.9886 1.44484.7596-2.3378Zm0 4.45018.7596 2.3378-1.9887-1.4448h2.4581l-1.9886 1.4448.7596-2.3378Zm0 4.5938.7596 2.3378-1.9887-1.4449h2.4581l-1.9886 1.4449.7596-2.3378Zm0 4.4502.7596 2.3378-1.9887-1.4449h2.4581l-1.9886 1.4449.7596-2.3378ZM15.5943 3.21973l.7596 2.3378-1.9887-1.44484h2.4581l-1.9886 1.44484.7596-2.3378Zm0 4.59375.7596 2.33782-1.9887-1.44486h2.4581l-1.9886 1.44486.7596-2.33782Zm0 4.47072.7596 2.3378-1.9887-1.4449h2.4581l-1.9886 1.4449.7596-2.3378Zm0 4.5732.7596 2.3378-1.9887-1.4448h2.4581l-1.9886 1.4448.7596-2.3378Z"/>
  </g>
</svg>
