<svg xmlns="http://www.w3.org/2000/svg" fill="none" viewBox="0 0 42 42">
  <circle cx="21.0002" cy="20.9999" r="18.6667" fill="#F3F3F3"/>
  <path fill="#3E73C4" d="M21 0C9.41525 0 0 9.39418 0 21c0 11.6058 9.39418 21 21 21 11.6058 0 21-9.3942 21-21C42 9.39418 32.6058 0 21 0Zm-4.6339 35.0702c0 .4213-.4213.7162-.8425.5687C9.41525 33.3641 5.37111 27.5928 5.37111 21S9.41525 8.63591 15.5236 6.36108c.4002-.14744.8425.14745.8425.56871v.94784c0 .25276-.1685.48446-.4002.56871C10.8475 10.4895 7.47743 15.4183 7.47743 21c0 5.5817 3.37007 10.5105 8.48847 12.5537.2317.0842.4002.3159.4002.5687v.9478Zm5.4764-6.2136v1.9799c0 .2317-.1895.4002-.4002.4002h-1.3059c-.2317 0-.4002-.1896-.4002-.4002v-2.0431c-1.2217-.2317-2.4012-.7794-3.2648-1.5587-.8425-.7793-1.348-1.7482-1.4533-2.8225-.0211-.2317.1685-.4423.4002-.4423h1.3059c.2106 0 .358.1475.4002.3581.0842.5055.337.9478.7793 1.348.8215.7583 2.2116 1.2217 3.4333 1.1164 1.1796-.0843 2.5276-.9268 2.654-2.001.1685-1.2428-.2738-2.001-1.4744-2.5276-.5898-.2738-1.2428-.4423-1.9379-.6108-.7372-.1896-1.5165-.3792-2.2748-.7162-1.0321-.4634-1.8535-1.327-2.2537-2.3591-.4002-1.0321-.3371-2.1905.1474-3.2437.5898-1.3059 1.8746-2.1695 3.5386-2.4644v-1.8114c0-.2317.1896-.4002.4002-.4002h1.3059c.2317 0 .4002.1895.4002.4002v1.7903c1.2638.2107 2.4434.8004 3.2648 1.643.674.7161.9268 1.4955 1.0532 2.338.0421.2317-.1475.4634-.4002.4634h-1.2638c-.1896 0-.3581-.1475-.4002-.337-.0421-.3581-.2106-.6951-.5055-1.0111-.6319-.6529-1.7483-1.0953-2.7593-1.0742-1.011.0211-2.2538.3792-2.6961 1.327-.2528.5476-.2738 1.1163-.0842 1.6429.1895.5055.6108.9479 1.1374 1.1796.5897.2738 1.2427.4212 1.9378.6108.7583.1896 1.5165.3791 2.2748.7372 2.0431.9057 2.9699 2.5487 2.6961 4.7182-.2738 2.0431-2.317 3.4754-4.2548 3.7703Zm4.2759 6.9298c-.4002.1263-.8004-.1685-.8004-.5898v-.9479c0-.2527.1685-.4844.4002-.5687 5.2236-1.9588 8.8044-7.014 8.8044-12.68 0-5.6449-3.5808-10.7212-8.8044-12.68004-.2317-.08425-.4002-.31595-.4002-.56871v-.92678c0-.42126.4212-.71614.8004-.58977C32.3531 8.40421 36.6289 14.344 36.6289 21c0 6.6981-4.2337 12.659-10.5105 14.7864Z"/>
</svg>
