<svg xmlns="http://www.w3.org/2000/svg" fill="none" viewBox="0 0 42 42">
  <path fill="#216C58" d="M21 1c11.0476 0 20 8.95238 20 20 0 11.0476-8.9524 20-20 20C9.95238 41 1 32.0476 1 21 1 9.95238 9.95238 1 21 1Z"/>
  <path fill="#F3F3F3" d="M15.0396 8.14258h13.2122c.3974 0 .6954.3956.6954.69231v.3956c0 .3956-.298.69231-.6954.69231H15.0396c-.3973 0-.6954-.29671-.6954-.69231v-.3956c0-.29671.3974-.69231.6954-.69231Zm4.4705 8.30792c.4967-.1978 1.0927-.2967 1.8874-.2967 1.0928 0 1.8875.1978 2.4835.5935.3974.2967.6954.5934.8941 1.0879.1987.3956.4967.7912 1.0927.7912h3.1789c.5961 0 1.0928-.4945.9934-1.0879-.0993-.989-.4967-1.7803-1.0927-2.5715-.6954-.989-1.7881-1.6813-3.0796-2.1758C24.5764 12.2967 23.0863 12 21.3975 12c-1.6887 0-3.1788.2967-4.4703.7912-1.2914.4945-2.3841 1.2857-3.1788 2.1758-.7947.989-1.1921 2.077-1.1921 3.3627 0 1.5824.596 2.8681 1.7881 3.7582 1.1921.8901 2.6822 1.5824 4.5696 1.978l2.4835.4945c.7948.1978 1.4901.3956 1.9868.5934.4967.1978.8941.3957 1.1921.6924.1987.1978.3974.4945.3974.8901s-.0994.6923-.3974 1.0879c-.298.2967-.6954.5934-1.2914.7912-.4967.1978-1.1921.2967-1.9868.2967s-1.4901-.0989-2.0861-.2967c-.5961-.1978-1.0928-.4945-1.3908-.8901-.1987-.2967-.3974-.5934-.4967-.8901-.0993-.4945-.4967-.8901-1.0927-.8901H13.053c-.596 0-1.0927.4945-.9934 1.0879.0993 1.1868.4967 2.1758 1.1921 3.0659.7947.989 1.8874 1.7802 3.2782 2.2747 1.3907.4945 2.9802.7912 4.8676.7912 1.8875 0 3.4769-.1978 4.7684-.7912 1.3907-.4945 2.3841-1.1868 3.0795-2.1758.6954-.989 1.0927-2.0769 1.0927-3.3626 0-.8901-.1986-1.6814-.596-2.3737-.3974-.6923-.8941-1.2857-1.4901-1.7802-.596-.4945-1.3908-.8901-2.1855-1.2857-.7947-.2967-1.7881-.5934-2.7815-.7912l-1.9868-.3956c-.4967-.0989-.8941-.1978-1.2914-.2967-.3974-.0989-.7947-.2967-1.0928-.4945-.298-.1978-.4967-.3956-.6953-.5934-.0994-.1978-.1987-.3956-.1987-.6923s.0993-.6923.298-.8901c.3974-.3956.6954-.5934 1.1921-.7913Z"/>
  <path fill="#F3F3F3" fill-rule="evenodd" d="M21.0005 19.6853v-9.0701h-1.7881v8.5192c.2426.1309.5185.2472.7943.3159h.0001c.3147.0783.6295.1567.9937.235Zm0 4.3343-1.7881-.3561v4.4902c.5203.1726 1.1164.2699 1.7881.2918v-4.4259Zm.9934 4.4031v-4.1702c.5456.1465 1.0225.293 1.3904.4395.1405.056.2731.112.3977.1702v3.0833c-.1488.0768-.3135.1471-.4971.2081-.3454.1375-.7868.2272-1.291.2691Zm-.9934 4.2759c-.6284-.0142-1.2232-.0619-1.7881-.1393v1.5944c0 .3956.298.6923.6954.6923h.3973c.3974 0 .6954-.2967.6954-.6923v-1.4551Zm.9934-.0026c.6318-.0155 1.2279-.0573 1.7881-.1336v1.5913c0 .3956-.298.6923-.6953.6923h-.3974c-.3974 0-.6954-.2967-.6954-.6923V32.696Zm1.7881-12.4464v-9.6344h-1.7881v9.2703l1.291.2571c.166.033.332.0689.4971.107Z" clip-rule="evenodd"/>
  <path fill="#F3F3F3" fill-rule="evenodd" d="M38.4838 21.989c-.298 0-.4967.1978-.4967.4945C37.1924 31.1868 29.9406 38.011 21 38.011c-8.9406 0-16.1924-6.8242-16.98712-15.5275 0-.2967-.29802-.4945-.49669-.4945-.29802 0-.4967.2967-.4967.5934C3.8142 31.7802 11.5627 39 21 39c9.4373 0 17.1858-7.2198 17.9805-16.4176.0994-.2967-.1987-.5934-.4967-.5934ZM3.51619 20.011c.29801 0 .49669-.1978.49669-.4945C4.8076 10.8132 12.0594 4.08791 21 4.08791c8.9406 0 16.1924 6.82419 16.9871 15.42859 0 .2967.298.4945.4967.4945.298 0 .4967-.2967.4967-.5934C38.1858 10.2198 30.4373 3 21 3 11.5627 3 3.8142 10.2198 3.01949 19.4176c-.09934.2967.19868.5934.4967.5934Z" clip-rule="evenodd"/>
</svg>
