<svg xmlns="http://www.w3.org/2000/svg" fill="none" viewBox="0 0 42 42">
  <g clip-path="url(#a)">
    <path fill="#009393" d="M21 0c11.5967 0 21 9.40333 21 21 0 11.5967-9.4033 21-21 21C9.40333 42 0 32.6025 0 21S9.40333 0 21 0Z"/>
    <path fill="#F3F3F3" d="M23.9574 18.6581v-3.1266h7.1459v-4.76H11.6491v4.76h7.1458v3.1266c-5.8041.2684-10.17332 1.4175-10.17332 2.7942s4.36922 2.5258 10.17332 2.7942v10.0041h5.1684V24.2465c5.7983-.2684 10.1558-1.4175 10.1558-2.7942-.0058-1.3767-4.3633-2.5258-10.1617-2.7942Zm.0059 4.7425c-.1459.0059-.8925.0525-2.5609.0525-1.3358 0-2.2691-.035-2.6016-.0525v.0059c-5.1275-.2275-8.96005-1.12-8.96005-2.1875s3.82665-1.96 8.96005-2.1875v3.4766c.3383.0234 1.295.0817 2.625.0817 1.5925 0 2.3916-.0642 2.5433-.0817v-3.4883c5.1217.2275 8.9425 1.12 8.9425 2.1875-.0117 1.0675-3.8325 1.96-8.9483 2.1933Z"/>
  </g>
  <defs>
    <clipPath id="a">
      <path fill="#fff" d="M0 0h42v42H0z"/>
    </clipPath>
  </defs>
</svg>
