<svg xmlns="http://www.w3.org/2000/svg" fill="none" viewBox="0 0 42 42">
  <circle cx="21" cy="21" r="21" fill="#E39652"/>
  <path fill="#F3F3F3" d="M33.0156 9.94165 31.9692 10.988c2.4968 2.7303 3.8813 6.2962 3.8813 9.996 0 3.6998-1.3845 7.2656-3.8813 9.996l1.0464 1.0463c2.7766-3.0118 4.3182-6.9581 4.3182-11.0545 0-4.0964-1.5416-8.0428-4.3182-11.05456v.02441Zm-22.0049.09015c2.7303-2.49677 6.2962-3.88134 9.996-3.88134 3.6998 0 7.2656 1.38457 9.996 3.88134l1.0463-1.04638c-3.0118-2.77663-6.9581-4.31818-11.0545-4.31818-4.0964 0-8.0428 1.54155-11.05456 4.31818l1.07076 1.04638Zm-.9797 20.959C7.53725 28.261 6.15451 24.6973 6.15451 21c0-3.6974 1.38274-7.261 3.87649-9.9908L8.98469 9.96289C6.20806 12.9747 4.6665 16.921 4.6665 21.0174c0 4.0964 1.54156 8.0428 4.31819 11.0546l1.04631-1.0812Zm20.9575.9655c-2.7303 2.4967-6.2962 3.8813-9.996 3.8813-3.6998 0-7.2656-1.3846-9.996-3.8813l-1.0463 1.0463c3.0118 2.7767 6.9581 4.3182 11.0545 4.3182 4.0964 0 8.0428-1.5415 11.0546-4.3182l-1.0708-1.0463Zm-3.3868-14.449c-.2092-2.1834-2.0926-2.9158-4.4748-3.139v-3.0065h-1.8415v2.9507h-1.4719v-2.9507h-1.8276v3.0274h-3.7354v1.9706s1.3602-.0244 1.3393 0c.2453-.027.4914.0423.6866.1933.1952.1509.3242.3717.3597.6159v8.287c-.0052.0861-.0277.1703-.066.2475-.0383.0773-.0918.1461-.1572.2024-.0642.0573-.1392.1011-.2208.1287-.0815.0275-.1677.0383-.2535.0317.0244.021-1.3393 0-1.3393 0l-.3488 2.2008h3.7005v3.0762h1.8416v-3.0308h1.4718v3.0169h1.8451V28.288c3.1111-.1883 5.2805-.9556 5.5525-3.8679.2197-2.3438-.8824-3.3901-2.6437-3.8122 1.0707-.5266 1.7334-1.5032 1.5834-3.1006Zm-2.5809 6.5501c0 2.2879-3.9203 2.0264-5.1689 2.0264V22.024c1.2486.0035 5.1689-.3558 5.1689 2.0334Zm-.8545-5.72c0 2.0927-3.2716 1.8381-4.3109 1.8381v-3.6901c1.0393 0 4.3109-.3279 4.3109 1.852Z"/>
</svg>
