<svg xmlns="http://www.w3.org/2000/svg" fill="none" viewBox="0 0 36 36">
  <rect width="36" height="36" fill="url(#a)" rx="18"/>
  <path fill="#ADA976" stroke="#F3F3F3" stroke-linejoin="round" stroke-width=".648" d="m13.8903 8.74167-2.0232 6.24143c-.0882.2721.1147.5511.4007.5511h11.4648c.2861 0 .4889-.279.4007-.5511l-2.0232-6.24143c-.0433-.1336-.1678-.22409-.3082-.22409h-7.6034c-.1404 0-.2649.09049-.3082.22409Z"/>
  <path fill="#F3F3F3" stroke="#F3F3F3" stroke-width=".324" d="M21.8175 8.68703 12.1396 15.233l1.9569-6.56308 7.721.01711Z"/>
  <path fill="#F3F3F3" d="M18.1104 13.8537c-.179 0-.324.1451-.324.324 0 .179.145.324.324.324v-.648Zm5.7877 0h-5.7877v.648h5.7877v-.648Z"/>
  <path fill="#ADA976" stroke="#F3F3F3" stroke-linejoin="round" stroke-width=".648" d="m6.28243 18.3501-2.02322 6.2414c-.0882.2721.11465.5511.40068.5511H16.1247c.2861 0 .4889-.279.4007-.5511l-2.0232-6.2414c-.0433-.1336-.1678-.2241-.3082-.2241H6.59064c-.14045 0-.2649.0905-.30821.2241Z"/>
  <path fill="#F3F3F3" stroke="#F3F3F3" stroke-width=".324" d="m14.2096 18.2954-9.67786 6.546 1.95687-6.5631 7.72099.0171Z"/>
  <path fill="#F3F3F3" d="M10.5024 23.4621c-.1789 0-.324.1451-.324.324 0 .179.1451.324.324.324v-.648Zm5.7877 0h-5.7877v.648h5.7877v-.648Z"/>
  <path fill="#ADA976" stroke="#F3F3F3" stroke-linejoin="round" stroke-width=".648" d="m21.4978 18.3501-2.0233 6.2414c-.0882.2721.1147.5511.4007.5511h11.4649c.286 0 .4888-.279.4006-.5511l-2.0232-6.2414c-.0433-.1336-.1677-.2241-.3082-.2241H21.806c-.1405 0-.2649.0905-.3082.2241Z"/>
  <path fill="#F3F3F3" stroke="#F3F3F3" stroke-width=".324" d="m29.4249 18.2954-9.6778 6.546 1.9568-6.5631 7.721.0171Z"/>
  <path fill="#F3F3F3" d="M25.7236 23.4621c-.1789 0-.324.1451-.324.324 0 .179.1451.324.324.324v-.648Zm5.7877 0h-5.7877v.648h5.7877v-.648Z"/>
  <defs>
    <linearGradient id="a" x1="30.8037" x2="5.73534" y1="3.72816" y2="30.7844" gradientUnits="userSpaceOnUse">
      <stop stop-color="#6C6A4F"/>
      <stop offset="1" stop-color="#ADA976"/>
    </linearGradient>
  </defs>
</svg>
