<svg xmlns="http://www.w3.org/2000/svg" fill="none" viewBox="0 0 42 42">
  <circle cx="21" cy="21" r="21" fill="#3E1BDB"/>
  <path fill="#F3F3F3" d="m31.1557 12.1388-3.4076 1.7402-16.4548 8.401c-.0557-.4254-.0837-.854-.0839-1.283.0023-1.7117.4507-3.3932 1.3007-4.8778.8501-1.4847 2.0724-2.7209 3.5458-3.5864 1.4734-.8655 3.1468-1.3301 4.8545-1.3478 1.7076-.0177 3.3903.412 4.8813 1.2467l1.9504-.9961.291-.1489c-1.7868-1.29983-3.8973-2.07923-6.0983-2.25201-2.201-.17278-4.4068.26779-6.3737 1.27301-1.9668 1.0052-3.6181 2.5359-4.7712 4.423-1.15322 1.8871-1.76341 4.057-1.76319 6.2699 0 .3056.01158.6101.03473.9133.03242.4294-.0626.8589-.27309 1.2343-.21049.3754-.52706.68-.90987.8755l-1.0285.5257v2.4519l3.02803-1.547.98059-.5017.9663-.4932L29.1717 15.6l1.9493-.9949 4.029-2.0582v-2.4507l-3.9943 2.0426ZM35.15 15 12.8103 26.4013l-1.9493.9973-4.01102 2.0486v2.4495l3.98352-2.0343 3.4076-1.7402 16.4716-8.4129c.0557.4282.0837.8596.0838 1.2914-.0011 1.7137-.4493 3.3974-1.3002 4.8838-.8509 1.4864-2.0749 2.7239-3.5504 3.5897-1.4755.8657-3.1513 1.3295-4.861 1.3454-1.7096.0159-3.3937-.4167-4.885-1.2548l-.1197.0636-2.1145 1.0801c1.7863 1.2999 3.8964 2.0796 6.0971 2.2528 2.2006.1732 4.4062-.2668 6.3731-1.2714 1.9668-1.0045 3.6183-2.5345 4.772-4.4209 1.1537-1.8864 1.7646-4.0557 1.7653-6.2683 0-.3085-.0119-.6169-.0347-.9217-.0324-.4293.0625-.8586.2728-1.234.2103-.3753.5265-.6801.909-.8759l1.0297-.5256V15Z"/>
</svg>
