<svg xmlns="http://www.w3.org/2000/svg" fill="none" viewBox="0 0 42 42">
  <path fill="#fff" d="M40.999 21.0002c0 11.0454-8.9533 20-19.9995 20C9.95335 41.0002 1 32.0456 1 21.0002 1 9.95474 9.95357 1 20.9995 1 32.0455 1 40.999 9.95389 40.999 21.0002Z"/>
  <path fill="#F26822" d="M21.0023 1C9.96006 1 .990842 9.96741 1.0049 20.9995c.00277 2.2072.35473 4.3304 1.01531 6.3164h5.98367V10.4913L21.0023 23.4896l12.9978-12.9983v16.8249h5.9849c.6615-1.9859 1.0117-4.1091 1.0156-6.3164.0189-11.04357-8.9549-19.99714-19.9983-19.99714V1Z"/>
  <path fill="#4D4D4D" d="m18.0122 26.4776-5.6726-5.6729v10.587h-4.337l-4.09244.0007c3.51035 5.7592 9.85444 9.6117 17.09124 9.6117 7.2369 0 13.5813-3.8534 17.0923-9.6126H29.662V20.8047l-5.6729 5.6729-2.9883 2.9883-2.9884-2.9883h-.0002Z"/>
</svg>
