<svg xmlns="http://www.w3.org/2000/svg" fill="none" viewBox="0 0 42 42">
  <circle cx="21" cy="21" r="20" fill="#222"/>
  <path fill="#F3F3F3" d="M29.4844 11h3.4687l-7.2187 7.1475c-2.6142 2.587-6.8527 2.587-9.4688 0L9.04406 11h3.47154L18 16.4295c.7991.7876 1.8759 1.2291 2.9979 1.2291 1.1219 0 2.1988-.4415 2.9979-1.2291L29.4844 11ZM12.4711 30.875H9l7.2656-7.1916c2.6142-2.587 6.8527-2.587 9.4688 0L33 30.875h-3.4688L24 25.4014c-.7991-.7875-1.8759-1.229-2.9979-1.229-1.1219 0-2.1988.4415-2.9979 1.229l-5.5331 5.4736Z"/>
</svg>
