<svg xmlns="http://www.w3.org/2000/svg" fill="none" viewBox="0 0 42 42">
  <circle cx="21" cy="21" r="20" fill="#2C7DF7"/>
  <path fill="#F3F3F3" d="M23.2825 35c-1.998 0-3.4564-.4813-4.3751-1.4438-.851-.8148-1.3449-1.9333-1.3736-3.1111-.0103-.3578.0726-.7122.2406-1.0283.1568-.2731.3832-.4997.6562-.6566.3173-.1583.667-.2407 1.0215-.2407.3546 0 .7043.0824 1.0216.2407.2725.1563.4979.3832.6525.6566.1729.3146.2589.6695.2492 1.0283.0179.4285-.1051.8511-.35 1.2031-.2041.2874-.4958.5009-.8315.6085.3282.418.7927.7075 1.3124.8182.5816.1689 1.1838.2558 1.7894.2581.8017.007 1.5869-.2278 2.2532-.6738.6911-.4883 1.2066-1.1863 1.4699-1.9905.3338-.9572.4967-1.9657.4813-2.9793.0269-1.0568-.1514-2.1087-.5251-3.0976-.281-.7909-.8145-1.4673-1.5181-1.925-.654-.4139-1.4131-.631-2.1871-.6256-.6743.0572-1.3246.2779-1.8944.6432l-1.4047.7043v-.7043l6.313-8.4691h-8.7499v8.7884c-.0247.6342.143 1.2611.4813 1.7982.1636.234.3849.4218.6424.5452.2576.1234.5426.1782.8275.1591.5265-.0107 1.0356-.1901 1.4524-.5119.4725-.3462.8836-.7692 1.2163-1.2513.03-.0845.0852-.1578.1582-.2098.0586-.0507.1335-.0786.2109-.0788.152.0139.2959.0751.4113.1749.1462.1634.2258.3757.2231.595-.0169.1473-.0432.2935-.0788.4375-.3108.7523-.8318 1.3992-1.5007 1.8631-.6212.4204-1.3549.6433-2.105.6395-1.8944 0-3.2068-.3734-3.9372-1.12-.3754-.4127-.6648-.8961-.8511-1.422-.1863-.5259-.2658-1.0836-.2339-1.6406v-8.7665H10v-1.6329h4.4712V8.85928L13.4475 7.8349V7h2.9705l1.1158.57758v5.00482l11.5586-.0351 1.1507 1.1549-7.0875 7.122c.4282-.1722.8791-.2813 1.3386-.3238.9096.0399 1.797.2932 2.5905.7395.9189.4368 1.6933 1.1278 2.2314 1.9913.4822.7309.8234 1.5455 1.0063 2.4019.1503.6754.2309 1.3645.2406 2.0565.0047 1.3204-.2947 2.6243-.875 3.8105-.5503 1.1486-1.4764 2.0748-2.6251 2.6251-1.1757.5793-2.4696.8787-3.7804.8748Z"/>
</svg>
