<svg xmlns="http://www.w3.org/2000/svg" fill="none" viewBox="0 0 42 42">
  <circle cx="21" cy="21" r="20" fill="#ECB244"/>
  <path fill="#F3F3F3" d="M19.6054 26.4194h9.2957v4.6479h-5.4847V35h-4.7698v-3.8108h-5.7203c0-1.5521-.2356-3.0959.1218-4.5259.1219-.7151.9508-1.4302 1.5519-2.1452 1.7877-2.1451 3.5754-4.2903 5.4849-6.4354.7149-.837 1.43-1.5521 2.267-2.5026h-8.9381v-4.648h5.2409V7h4.6479v3.8098h5.7204c0 1.5519.2356 3.0959-.1219 4.5259-.1218.7151-.9507 1.43-1.552 2.1451-1.7876 2.1452-3.5752 4.2903-5.4848 6.4355-.7152.8374-1.43 1.6662-2.2589 2.5031Z"/>
</svg>
