<svg xmlns="http://www.w3.org/2000/svg" fill="none" viewBox="0 0 42 42">
  <circle cx="21" cy="21" r="20" fill="#49C1BF"/>
  <path fill="#F3F3F3" d="m30.7816 18.5698-4.0321 1.7977-10.6966 5.4446 10.6966 5.1428v-8.5007l4.0321-1.817v12.5585l-4.0321 1.7977L11 27.4558v-4.0064l10.902-5.3483L11 12.8619V8.79774L15.0963 7l15.6853 7.5505v4.0193Z"/>
  <path fill="#7FD3D2" d="m11 8.79774 15.7495 7.55056 4.0321-1.7978L15.0963 7 11 8.79774Z"/>
  <path fill="#BEE9E8" d="m26.749 16.33 4.0321-1.7978v4.0193l-4.0321 1.7977V16.33Zm0 18.6415 4.0321-1.7977V20.6152l-4.0321 1.817v12.5393Z"/>
  <path fill="#F3F3F3" d="M11 8.80469v4.06421l10.902 5.2391L11 23.4563v4.0064l15.7495 7.5377v-4.0321L16.0529 25.819l10.6966-5.4445v-4.0193L11 8.80469Z"/>
</svg>
