<svg xmlns="http://www.w3.org/2000/svg" fill="none" viewBox="0 0 42 42">
  <rect width="42" height="42" fill="#222" rx="21"/>
  <path fill="#7B47E1" fill-rule="evenodd" d="M15.6001 12.4492c-1.2426 0-2.25 1.0074-2.25 2.25v3.6004h2.1v-3.6004c0-.0828.0672-.15.15-.15h2.4c.0828 0 .15.0672.15.15v3.6004h2.1v-3.6004c0-1.2426-1.0074-2.25-2.25-2.25h-2.4Zm4.65 11.2504h-2.1v3.8996c0 .0829-.0672.15-.15.15h-2.4c-.0828 0-.15-.0671-.15-.15v-3.8996h-2.1v3.8996c0 1.2427 1.0074 2.25 2.25 2.25h2.4c1.2426 0 2.25-1.0073 2.25-2.25v-3.8996Zm2.1 0h2.1v3.8996c0 .0829.0672.15.15.15h2.4c.0828 0 .15-.0671.15-.15v-3.8996h1.9265c.0579 0 .1157-.0007.1735-.0021v3.9017c0 1.2427-1.0074 2.25-2.25 2.25h-2.4c-1.2426 0-2.25-1.0073-2.25-2.25v-3.8996Zm6.9-5.4072v-3.5932c0-1.2426-1.0074-2.25-2.25-2.25h-2.4c-1.2426 0-2.25 1.0074-2.25 2.25v3.6004h2.1v-3.6004c0-.0828.0672-.15.15-.15h2.4c.0828 0 .15.0672.15.15v3.6004h1.9265c.0581 0 .116-.0025.1735-.0072Z" clip-rule="evenodd"/>
  <path stroke="#7B47E1" stroke-linejoin="round" stroke-width="2.1" d="m7.80005 23.3992 1.68521-1.3482c.85114-.6808 1.90864-1.0518 2.99854-1.0518h16.5929c1.3524 0 2.642-.5705 3.5517-1.5712L34.2 17.6992"/>
  <path stroke="#7B47E1" stroke-width="2.1" d="M7.80005 26.6353V15.3631c0-1.2891.68935-2.4799 1.80731-3.1219l9.60004-5.51257c1.1101-.63746 2.4752-.63746 3.5853 0l9.6 5.51257c1.118.642 1.8073 1.8328 1.8073 3.1219v11.2722c0 1.2892-.6893 2.4799-1.8073 3.1219l-9.6 5.5126c-1.1101.6375-2.4752.6375-3.5853 0l-9.60004-5.5126c-1.11796-.642-1.80731-1.8327-1.80731-3.1219Z"/>
</svg>
