<svg xmlns="http://www.w3.org/2000/svg" fill="none" viewBox="0 0 42 42">
  <rect width="42" height="42" fill="#F3F3F3" rx="21"/>
  <path fill="#030303" fill-rule="evenodd" d="M20.3365 35.5011c-.3559-.037-.7118-.0699-1.0677-.1121-1.9137-.2282-3.7617-.8397-5.4338-1.7981-.025-.0131-.0474-.0329-.0962-.0659 2.908-2.175 5.8028-4.3369 8.7135-6.512l.8766.8529c.4877.4772.9781.9491 1.4566 1.4329.1187.1186.2044.1173.3428.0461 1.4496-.7236 2.6882-1.8087 3.5961-3.1505l.1411-.2083c.0408.0474.0791.0857.1107.1278 1.0111 1.3473 2.0208 2.6945 3.0359 4.0378.0883.116.0778.1845-.0158.29-2.3504 2.6707-5.2716 4.3159-8.7926 4.8788-.443.0711-.8925.0975-1.3394.1463-.0593.0066-.1186.0224-.1766.0343h-1.3512ZM21.6152 6.5c.2452.02505.4917.05141.7382.07382 2.0775.19774 4.0206.81335 5.8305 1.84552.0264.01582.0488.03428.0923.06591l-8.8559 6.35255c-.1173-.1107-.2306-.2162-.3427-.3256-.6222-.6064-1.247-1.2115-1.8653-1.8231-.0989-.0976-.174-.1081-.2979-.0461-1.4753.728-2.7342 1.8297-3.6515 3.1953l-.1318.1978-3.25342-4.3344c.32822-.348.63142-.6947.95972-1.015 2.1394-2.08676 4.6797-3.41422 7.6233-3.9481.5668-.10282 1.1455-.1371 1.7189-.20433.0646-.00659.1292-.02241.1925-.03427h1.2431ZM8.42236 13.7951l6.58454 8.6318-1.3288 1.363c-.3308.3388-.6591.6815-.9965 1.015-.095.095-.0989.1675-.0409.2835.727 1.4755 1.8283 2.7346 3.1941 3.6515.0461.029.0922.0593.1357.0922.008.0053.0119.0185.0356.0633l-4.2987 3.2244c-2.57056-2.2133-4.23812-4.9407-4.90778-8.2482-.71712-3.5407-.1371-6.8864 1.62274-10.0765Zm18.68594 5.7607 1.2101-1.2563c.3375-.3507.6697-.7053 1.015-1.0467.1081-.1068.1068-.1872.0435-.3137-.7316-1.4933-1.846-2.766-3.2296-3.6884-.0488-.033-.0963-.0686-.1793-.1279l4.3225-3.24286c2.4479 2.09596 4.0733 4.67976 4.8194 7.79736.932 3.8914.1015 7.7406-1.512 10.4509l-6.4896-8.5724Z" clip-rule="evenodd"/>
</svg>
